<?xml version="1.0" encoding="utf-8" standalone="no"?>
<!DOCTYPE svg PUBLIC "-//W3C//DTD SVG 1.1//EN"
  "http://www.w3.org/Graphics/SVG/1.1/DTD/svg11.dtd">
<!-- Created with matplotlib (https://matplotlib.org/) -->
<svg height="324pt" version="1.1" viewBox="0 0 576 324" width="576pt" xmlns="http://www.w3.org/2000/svg" xmlns:xlink="http://www.w3.org/1999/xlink">
 <metadata>
  <rdf:RDF xmlns:cc="http://creativecommons.org/ns#" xmlns:dc="http://purl.org/dc/elements/1.1/" xmlns:rdf="http://www.w3.org/1999/02/22-rdf-syntax-ns#">
   <cc:Work>
    <dc:type rdf:resource="http://purl.org/dc/dcmitype/StillImage"/>
    <dc:date>2021-02-10T20:58:01.786088</dc:date>
    <dc:format>image/svg+xml</dc:format>
    <dc:creator>
     <cc:Agent>
      <dc:title>Matplotlib v3.3.2, https://matplotlib.org/</dc:title>
     </cc:Agent>
    </dc:creator>
   </cc:Work>
  </rdf:RDF>
 </metadata>
 <defs>
  <style type="text/css">*{stroke-linecap:butt;stroke-linejoin:round;}</style>
 </defs>
 <g id="figure_1">
  <g id="patch_1">
   <path d="M 0 324 
L 576 324 
L 576 0 
L 0 0 
z
" style="fill:#ffffff;"/>
  </g>
  <g id="axes_1">
   <g id="patch_2">
    <path d="M 156.721315 282.76 
L 429.755 282.76 
L 429.755 25.92 
L 156.721315 25.92 
z
" style="fill:#ffffff;"/>
   </g>
   <g id="matplotlib.axis_1">
    <g id="xtick_1">
     <g id="line2d_1">
      <defs>
       <path d="M 0 0 
L 0 3.5 
" id="m1fceeb02ed" style="stroke:#000000;stroke-width:0.8;"/>
      </defs>
      <g>
       <use style="stroke:#000000;stroke-width:0.8;" x="156.721315" xlink:href="#m1fceeb02ed" y="282.76"/>
      </g>
     </g>
     <g id="text_1">
      <!-- 0.1s -->
      <g transform="translate(146.165065 297.358438)scale(0.1 -0.1)">
       <defs>
        <path d="M 31.78125 66.40625 
Q 24.171875 66.40625 20.328125 58.90625 
Q 16.5 51.421875 16.5 36.375 
Q 16.5 21.390625 20.328125 13.890625 
Q 24.171875 6.390625 31.78125 6.390625 
Q 39.453125 6.390625 43.28125 13.890625 
Q 47.125 21.390625 47.125 36.375 
Q 47.125 51.421875 43.28125 58.90625 
Q 39.453125 66.40625 31.78125 66.40625 
z
M 31.78125 74.21875 
Q 44.046875 74.21875 50.515625 64.515625 
Q 56.984375 54.828125 56.984375 36.375 
Q 56.984375 17.96875 50.515625 8.265625 
Q 44.046875 -1.421875 31.78125 -1.421875 
Q 19.53125 -1.421875 13.0625 8.265625 
Q 6.59375 17.96875 6.59375 36.375 
Q 6.59375 54.828125 13.0625 64.515625 
Q 19.53125 74.21875 31.78125 74.21875 
z
" id="DejaVuSans-48"/>
        <path d="M 10.6875 12.40625 
L 21 12.40625 
L 21 0 
L 10.6875 0 
z
" id="DejaVuSans-46"/>
        <path d="M 12.40625 8.296875 
L 28.515625 8.296875 
L 28.515625 63.921875 
L 10.984375 60.40625 
L 10.984375 69.390625 
L 28.421875 72.90625 
L 38.28125 72.90625 
L 38.28125 8.296875 
L 54.390625 8.296875 
L 54.390625 0 
L 12.40625 0 
z
" id="DejaVuSans-49"/>
        <path d="M 44.28125 53.078125 
L 44.28125 44.578125 
Q 40.484375 46.53125 36.375 47.5 
Q 32.28125 48.484375 27.875 48.484375 
Q 21.1875 48.484375 17.84375 46.4375 
Q 14.5 44.390625 14.5 40.28125 
Q 14.5 37.15625 16.890625 35.375 
Q 19.28125 33.59375 26.515625 31.984375 
L 29.59375 31.296875 
Q 39.15625 29.25 43.1875 25.515625 
Q 47.21875 21.78125 47.21875 15.09375 
Q 47.21875 7.46875 41.1875 3.015625 
Q 35.15625 -1.421875 24.609375 -1.421875 
Q 20.21875 -1.421875 15.453125 -0.5625 
Q 10.6875 0.296875 5.421875 2 
L 5.421875 11.28125 
Q 10.40625 8.6875 15.234375 7.390625 
Q 20.0625 6.109375 24.8125 6.109375 
Q 31.15625 6.109375 34.5625 8.28125 
Q 37.984375 10.453125 37.984375 14.40625 
Q 37.984375 18.0625 35.515625 20.015625 
Q 33.0625 21.96875 24.703125 23.78125 
L 21.578125 24.515625 
Q 13.234375 26.265625 9.515625 29.90625 
Q 5.8125 33.546875 5.8125 39.890625 
Q 5.8125 47.609375 11.28125 51.796875 
Q 16.75 56 26.8125 56 
Q 31.78125 56 36.171875 55.265625 
Q 40.578125 54.546875 44.28125 53.078125 
z
" id="DejaVuSans-115"/>
       </defs>
       <use xlink:href="#DejaVuSans-48"/>
       <use x="63.623047" xlink:href="#DejaVuSans-46"/>
       <use x="95.410156" xlink:href="#DejaVuSans-49"/>
       <use x="159.033203" xlink:href="#DejaVuSans-115"/>
      </g>
     </g>
    </g>
    <g id="xtick_2">
     <g id="line2d_2">
      <g>
       <use style="stroke:#000000;stroke-width:0.8;" x="216.645713" xlink:href="#m1fceeb02ed" y="282.76"/>
      </g>
     </g>
     <g id="text_2">
      <!-- 1s -->
      <g transform="translate(210.859775 297.358438)scale(0.1 -0.1)">
       <use xlink:href="#DejaVuSans-49"/>
       <use x="63.623047" xlink:href="#DejaVuSans-115"/>
      </g>
     </g>
    </g>
    <g id="xtick_3">
     <g id="line2d_3">
      <g>
       <use style="stroke:#000000;stroke-width:0.8;" x="258.53107" xlink:href="#m1fceeb02ed" y="282.76"/>
      </g>
     </g>
     <g id="text_3">
      <!-- 5s -->
      <g transform="translate(252.745132 297.358438)scale(0.1 -0.1)">
       <defs>
        <path d="M 10.796875 72.90625 
L 49.515625 72.90625 
L 49.515625 64.59375 
L 19.828125 64.59375 
L 19.828125 46.734375 
Q 21.96875 47.46875 24.109375 47.828125 
Q 26.265625 48.1875 28.421875 48.1875 
Q 40.625 48.1875 47.75 41.5 
Q 54.890625 34.8125 54.890625 23.390625 
Q 54.890625 11.625 47.5625 5.09375 
Q 40.234375 -1.421875 26.90625 -1.421875 
Q 22.3125 -1.421875 17.546875 -0.640625 
Q 12.796875 0.140625 7.71875 1.703125 
L 7.71875 11.625 
Q 12.109375 9.234375 16.796875 8.0625 
Q 21.484375 6.890625 26.703125 6.890625 
Q 35.15625 6.890625 40.078125 11.328125 
Q 45.015625 15.765625 45.015625 23.390625 
Q 45.015625 31 40.078125 35.4375 
Q 35.15625 39.890625 26.703125 39.890625 
Q 22.75 39.890625 18.8125 39.015625 
Q 14.890625 38.140625 10.796875 36.28125 
z
" id="DejaVuSans-53"/>
       </defs>
       <use xlink:href="#DejaVuSans-53"/>
       <use x="63.623047" xlink:href="#DejaVuSans-115"/>
      </g>
     </g>
    </g>
    <g id="xtick_4">
     <g id="line2d_4">
      <g>
       <use style="stroke:#000000;stroke-width:0.8;" x="276.570111" xlink:href="#m1fceeb02ed" y="282.76"/>
      </g>
     </g>
     <g id="text_4">
      <!-- 10s -->
      <g transform="translate(267.602924 297.358438)scale(0.1 -0.1)">
       <use xlink:href="#DejaVuSans-49"/>
       <use x="63.623047" xlink:href="#DejaVuSans-48"/>
       <use x="127.246094" xlink:href="#DejaVuSans-115"/>
      </g>
     </g>
    </g>
    <g id="xtick_5">
     <g id="line2d_5">
      <g>
       <use style="stroke:#000000;stroke-width:0.8;" x="305.161315" xlink:href="#m1fceeb02ed" y="282.76"/>
      </g>
     </g>
     <g id="text_5">
      <!-- 30s -->
      <g transform="translate(296.194128 297.358438)scale(0.1 -0.1)">
       <defs>
        <path d="M 40.578125 39.3125 
Q 47.65625 37.796875 51.625 33 
Q 55.609375 28.21875 55.609375 21.1875 
Q 55.609375 10.40625 48.1875 4.484375 
Q 40.765625 -1.421875 27.09375 -1.421875 
Q 22.515625 -1.421875 17.65625 -0.515625 
Q 12.796875 0.390625 7.625 2.203125 
L 7.625 11.71875 
Q 11.71875 9.328125 16.59375 8.109375 
Q 21.484375 6.890625 26.8125 6.890625 
Q 36.078125 6.890625 40.9375 10.546875 
Q 45.796875 14.203125 45.796875 21.1875 
Q 45.796875 27.640625 41.28125 31.265625 
Q 36.765625 34.90625 28.71875 34.90625 
L 20.21875 34.90625 
L 20.21875 43.015625 
L 29.109375 43.015625 
Q 36.375 43.015625 40.234375 45.921875 
Q 44.09375 48.828125 44.09375 54.296875 
Q 44.09375 59.90625 40.109375 62.90625 
Q 36.140625 65.921875 28.71875 65.921875 
Q 24.65625 65.921875 20.015625 65.03125 
Q 15.375 64.15625 9.8125 62.3125 
L 9.8125 71.09375 
Q 15.4375 72.65625 20.34375 73.4375 
Q 25.25 74.21875 29.59375 74.21875 
Q 40.828125 74.21875 47.359375 69.109375 
Q 53.90625 64.015625 53.90625 55.328125 
Q 53.90625 49.265625 50.4375 45.09375 
Q 46.96875 40.921875 40.578125 39.3125 
z
" id="DejaVuSans-51"/>
       </defs>
       <use xlink:href="#DejaVuSans-51"/>
       <use x="63.623047" xlink:href="#DejaVuSans-48"/>
       <use x="127.246094" xlink:href="#DejaVuSans-115"/>
      </g>
     </g>
    </g>
    <g id="xtick_6">
     <g id="line2d_6">
      <g>
       <use style="stroke:#000000;stroke-width:0.8;" x="323.200356" xlink:href="#m1fceeb02ed" y="282.76"/>
      </g>
     </g>
     <g id="text_6">
      <!-- 1m -->
      <g transform="translate(315.148794 297.358438)scale(0.1 -0.1)">
       <defs>
        <path d="M 52 44.1875 
Q 55.375 50.25 60.0625 53.125 
Q 64.75 56 71.09375 56 
Q 79.640625 56 84.28125 50.015625 
Q 88.921875 44.046875 88.921875 33.015625 
L 88.921875 0 
L 79.890625 0 
L 79.890625 32.71875 
Q 79.890625 40.578125 77.09375 44.375 
Q 74.3125 48.1875 68.609375 48.1875 
Q 61.625 48.1875 57.5625 43.546875 
Q 53.515625 38.921875 53.515625 30.90625 
L 53.515625 0 
L 44.484375 0 
L 44.484375 32.71875 
Q 44.484375 40.625 41.703125 44.40625 
Q 38.921875 48.1875 33.109375 48.1875 
Q 26.21875 48.1875 22.15625 43.53125 
Q 18.109375 38.875 18.109375 30.90625 
L 18.109375 0 
L 9.078125 0 
L 9.078125 54.6875 
L 18.109375 54.6875 
L 18.109375 46.1875 
Q 21.1875 51.21875 25.484375 53.609375 
Q 29.78125 56 35.6875 56 
Q 41.65625 56 45.828125 52.96875 
Q 50 49.953125 52 44.1875 
z
" id="DejaVuSans-109"/>
       </defs>
       <use xlink:href="#DejaVuSans-49"/>
       <use x="63.623047" xlink:href="#DejaVuSans-109"/>
      </g>
     </g>
    </g>
    <g id="xtick_7">
     <g id="line2d_7">
      <g>
       <use style="stroke:#000000;stroke-width:0.8;" x="365.085713" xlink:href="#m1fceeb02ed" y="282.76"/>
      </g>
     </g>
     <g id="text_7">
      <!-- 5m -->
      <g transform="translate(357.034151 297.358438)scale(0.1 -0.1)">
       <use xlink:href="#DejaVuSans-53"/>
       <use x="63.623047" xlink:href="#DejaVuSans-109"/>
      </g>
     </g>
    </g>
    <g id="xtick_8">
     <g id="line2d_8">
      <g>
       <use style="stroke:#000000;stroke-width:0.8;" x="383.124755" xlink:href="#m1fceeb02ed" y="282.76"/>
      </g>
     </g>
     <g id="text_8">
      <!-- 10m -->
      <g transform="translate(371.891942 297.358438)scale(0.1 -0.1)">
       <use xlink:href="#DejaVuSans-49"/>
       <use x="63.623047" xlink:href="#DejaVuSans-48"/>
       <use x="127.246094" xlink:href="#DejaVuSans-109"/>
      </g>
     </g>
    </g>
    <g id="xtick_9">
     <g id="line2d_9">
      <g>
       <use style="stroke:#000000;stroke-width:0.8;" x="411.715959" xlink:href="#m1fceeb02ed" y="282.76"/>
      </g>
     </g>
     <g id="text_9">
      <!-- 30m -->
      <g transform="translate(400.483146 297.358438)scale(0.1 -0.1)">
       <use xlink:href="#DejaVuSans-51"/>
       <use x="63.623047" xlink:href="#DejaVuSans-48"/>
       <use x="127.246094" xlink:href="#DejaVuSans-109"/>
      </g>
     </g>
    </g>
    <g id="xtick_10">
     <g id="line2d_10">
      <g>
       <use style="stroke:#000000;stroke-width:0.8;" x="429.755" xlink:href="#m1fceeb02ed" y="282.76"/>
      </g>
     </g>
     <g id="text_10">
      <!-- 1h -->
      <g transform="translate(423.405 297.358438)scale(0.1 -0.1)">
       <defs>
        <path d="M 54.890625 33.015625 
L 54.890625 0 
L 45.90625 0 
L 45.90625 32.71875 
Q 45.90625 40.484375 42.875 44.328125 
Q 39.84375 48.1875 33.796875 48.1875 
Q 26.515625 48.1875 22.3125 43.546875 
Q 18.109375 38.921875 18.109375 30.90625 
L 18.109375 0 
L 9.078125 0 
L 9.078125 75.984375 
L 18.109375 75.984375 
L 18.109375 46.1875 
Q 21.34375 51.125 25.703125 53.5625 
Q 30.078125 56 35.796875 56 
Q 45.21875 56 50.046875 50.171875 
Q 54.890625 44.34375 54.890625 33.015625 
z
" id="DejaVuSans-104"/>
       </defs>
       <use xlink:href="#DejaVuSans-49"/>
       <use x="63.623047" xlink:href="#DejaVuSans-104"/>
      </g>
     </g>
    </g>
    <g id="text_11">
     <!-- wall time per slice -->
     <g transform="translate(247.728782 311.036563)scale(0.1 -0.1)">
      <defs>
       <path d="M 4.203125 54.6875 
L 13.1875 54.6875 
L 24.421875 12.015625 
L 35.59375 54.6875 
L 46.1875 54.6875 
L 57.421875 12.015625 
L 68.609375 54.6875 
L 77.59375 54.6875 
L 63.28125 0 
L 52.6875 0 
L 40.921875 44.828125 
L 29.109375 0 
L 18.5 0 
z
" id="DejaVuSans-119"/>
       <path d="M 34.28125 27.484375 
Q 23.390625 27.484375 19.1875 25 
Q 14.984375 22.515625 14.984375 16.5 
Q 14.984375 11.71875 18.140625 8.90625 
Q 21.296875 6.109375 26.703125 6.109375 
Q 34.1875 6.109375 38.703125 11.40625 
Q 43.21875 16.703125 43.21875 25.484375 
L 43.21875 27.484375 
z
M 52.203125 31.203125 
L 52.203125 0 
L 43.21875 0 
L 43.21875 8.296875 
Q 40.140625 3.328125 35.546875 0.953125 
Q 30.953125 -1.421875 24.3125 -1.421875 
Q 15.921875 -1.421875 10.953125 3.296875 
Q 6 8.015625 6 15.921875 
Q 6 25.140625 12.171875 29.828125 
Q 18.359375 34.515625 30.609375 34.515625 
L 43.21875 34.515625 
L 43.21875 35.40625 
Q 43.21875 41.609375 39.140625 45 
Q 35.0625 48.390625 27.6875 48.390625 
Q 23 48.390625 18.546875 47.265625 
Q 14.109375 46.140625 10.015625 43.890625 
L 10.015625 52.203125 
Q 14.9375 54.109375 19.578125 55.046875 
Q 24.21875 56 28.609375 56 
Q 40.484375 56 46.34375 49.84375 
Q 52.203125 43.703125 52.203125 31.203125 
z
" id="DejaVuSans-97"/>
       <path d="M 9.421875 75.984375 
L 18.40625 75.984375 
L 18.40625 0 
L 9.421875 0 
z
" id="DejaVuSans-108"/>
       <path id="DejaVuSans-32"/>
       <path d="M 18.3125 70.21875 
L 18.3125 54.6875 
L 36.8125 54.6875 
L 36.8125 47.703125 
L 18.3125 47.703125 
L 18.3125 18.015625 
Q 18.3125 11.328125 20.140625 9.421875 
Q 21.96875 7.515625 27.59375 7.515625 
L 36.8125 7.515625 
L 36.8125 0 
L 27.59375 0 
Q 17.1875 0 13.234375 3.875 
Q 9.28125 7.765625 9.28125 18.015625 
L 9.28125 47.703125 
L 2.6875 47.703125 
L 2.6875 54.6875 
L 9.28125 54.6875 
L 9.28125 70.21875 
z
" id="DejaVuSans-116"/>
       <path d="M 9.421875 54.6875 
L 18.40625 54.6875 
L 18.40625 0 
L 9.421875 0 
z
M 9.421875 75.984375 
L 18.40625 75.984375 
L 18.40625 64.59375 
L 9.421875 64.59375 
z
" id="DejaVuSans-105"/>
       <path d="M 56.203125 29.59375 
L 56.203125 25.203125 
L 14.890625 25.203125 
Q 15.484375 15.921875 20.484375 11.0625 
Q 25.484375 6.203125 34.421875 6.203125 
Q 39.59375 6.203125 44.453125 7.46875 
Q 49.3125 8.734375 54.109375 11.28125 
L 54.109375 2.78125 
Q 49.265625 0.734375 44.1875 -0.34375 
Q 39.109375 -1.421875 33.890625 -1.421875 
Q 20.796875 -1.421875 13.15625 6.1875 
Q 5.515625 13.8125 5.515625 26.8125 
Q 5.515625 40.234375 12.765625 48.109375 
Q 20.015625 56 32.328125 56 
Q 43.359375 56 49.78125 48.890625 
Q 56.203125 41.796875 56.203125 29.59375 
z
M 47.21875 32.234375 
Q 47.125 39.59375 43.09375 43.984375 
Q 39.0625 48.390625 32.421875 48.390625 
Q 24.90625 48.390625 20.390625 44.140625 
Q 15.875 39.890625 15.1875 32.171875 
z
" id="DejaVuSans-101"/>
       <path d="M 18.109375 8.203125 
L 18.109375 -20.796875 
L 9.078125 -20.796875 
L 9.078125 54.6875 
L 18.109375 54.6875 
L 18.109375 46.390625 
Q 20.953125 51.265625 25.265625 53.625 
Q 29.59375 56 35.59375 56 
Q 45.5625 56 51.78125 48.09375 
Q 58.015625 40.1875 58.015625 27.296875 
Q 58.015625 14.40625 51.78125 6.484375 
Q 45.5625 -1.421875 35.59375 -1.421875 
Q 29.59375 -1.421875 25.265625 0.953125 
Q 20.953125 3.328125 18.109375 8.203125 
z
M 48.6875 27.296875 
Q 48.6875 37.203125 44.609375 42.84375 
Q 40.53125 48.484375 33.40625 48.484375 
Q 26.265625 48.484375 22.1875 42.84375 
Q 18.109375 37.203125 18.109375 27.296875 
Q 18.109375 17.390625 22.1875 11.75 
Q 26.265625 6.109375 33.40625 6.109375 
Q 40.53125 6.109375 44.609375 11.75 
Q 48.6875 17.390625 48.6875 27.296875 
z
" id="DejaVuSans-112"/>
       <path d="M 41.109375 46.296875 
Q 39.59375 47.171875 37.8125 47.578125 
Q 36.03125 48 33.890625 48 
Q 26.265625 48 22.1875 43.046875 
Q 18.109375 38.09375 18.109375 28.8125 
L 18.109375 0 
L 9.078125 0 
L 9.078125 54.6875 
L 18.109375 54.6875 
L 18.109375 46.1875 
Q 20.953125 51.171875 25.484375 53.578125 
Q 30.03125 56 36.53125 56 
Q 37.453125 56 38.578125 55.875 
Q 39.703125 55.765625 41.0625 55.515625 
z
" id="DejaVuSans-114"/>
       <path d="M 48.78125 52.59375 
L 48.78125 44.1875 
Q 44.96875 46.296875 41.140625 47.34375 
Q 37.3125 48.390625 33.40625 48.390625 
Q 24.65625 48.390625 19.8125 42.84375 
Q 14.984375 37.3125 14.984375 27.296875 
Q 14.984375 17.28125 19.8125 11.734375 
Q 24.65625 6.203125 33.40625 6.203125 
Q 37.3125 6.203125 41.140625 7.25 
Q 44.96875 8.296875 48.78125 10.40625 
L 48.78125 2.09375 
Q 45.015625 0.34375 40.984375 -0.53125 
Q 36.96875 -1.421875 32.421875 -1.421875 
Q 20.0625 -1.421875 12.78125 6.34375 
Q 5.515625 14.109375 5.515625 27.296875 
Q 5.515625 40.671875 12.859375 48.328125 
Q 20.21875 56 33.015625 56 
Q 37.15625 56 41.109375 55.140625 
Q 45.0625 54.296875 48.78125 52.59375 
z
" id="DejaVuSans-99"/>
      </defs>
      <use xlink:href="#DejaVuSans-119"/>
      <use x="81.787109" xlink:href="#DejaVuSans-97"/>
      <use x="143.066406" xlink:href="#DejaVuSans-108"/>
      <use x="170.849609" xlink:href="#DejaVuSans-108"/>
      <use x="198.632812" xlink:href="#DejaVuSans-32"/>
      <use x="230.419922" xlink:href="#DejaVuSans-116"/>
      <use x="269.628906" xlink:href="#DejaVuSans-105"/>
      <use x="297.412109" xlink:href="#DejaVuSans-109"/>
      <use x="394.824219" xlink:href="#DejaVuSans-101"/>
      <use x="456.347656" xlink:href="#DejaVuSans-32"/>
      <use x="488.134766" xlink:href="#DejaVuSans-112"/>
      <use x="551.611328" xlink:href="#DejaVuSans-101"/>
      <use x="613.134766" xlink:href="#DejaVuSans-114"/>
      <use x="654.248047" xlink:href="#DejaVuSans-32"/>
      <use x="686.035156" xlink:href="#DejaVuSans-115"/>
      <use x="738.134766" xlink:href="#DejaVuSans-108"/>
      <use x="765.917969" xlink:href="#DejaVuSans-105"/>
      <use x="793.701172" xlink:href="#DejaVuSans-99"/>
      <use x="848.681641" xlink:href="#DejaVuSans-101"/>
     </g>
    </g>
   </g>
   <g id="matplotlib.axis_2">
    <g id="ytick_1">
     <g id="line2d_11">
      <defs>
       <path d="M 0 0 
L -3.5 0 
" id="mfdc5501868" style="stroke:#000000;stroke-width:0.8;"/>
      </defs>
      <g>
       <use style="stroke:#000000;stroke-width:0.8;" x="156.721315" xlink:href="#mfdc5501868" y="282.76"/>
      </g>
     </g>
     <g id="text_12">
      <!-- 0.0 -->
      <g transform="translate(133.81819 286.559219)scale(0.1 -0.1)">
       <use xlink:href="#DejaVuSans-48"/>
       <use x="63.623047" xlink:href="#DejaVuSans-46"/>
       <use x="95.410156" xlink:href="#DejaVuSans-48"/>
      </g>
     </g>
    </g>
    <g id="ytick_2">
     <g id="line2d_12">
      <g>
       <use style="stroke:#000000;stroke-width:0.8;" x="156.721315" xlink:href="#mfdc5501868" y="231.392"/>
      </g>
     </g>
     <g id="text_13">
      <!-- 0.2 -->
      <g transform="translate(133.81819 235.191219)scale(0.1 -0.1)">
       <defs>
        <path d="M 19.1875 8.296875 
L 53.609375 8.296875 
L 53.609375 0 
L 7.328125 0 
L 7.328125 8.296875 
Q 12.9375 14.109375 22.625 23.890625 
Q 32.328125 33.6875 34.8125 36.53125 
Q 39.546875 41.84375 41.421875 45.53125 
Q 43.3125 49.21875 43.3125 52.78125 
Q 43.3125 58.59375 39.234375 62.25 
Q 35.15625 65.921875 28.609375 65.921875 
Q 23.96875 65.921875 18.8125 64.3125 
Q 13.671875 62.703125 7.8125 59.421875 
L 7.8125 69.390625 
Q 13.765625 71.78125 18.9375 73 
Q 24.125 74.21875 28.421875 74.21875 
Q 39.75 74.21875 46.484375 68.546875 
Q 53.21875 62.890625 53.21875 53.421875 
Q 53.21875 48.921875 51.53125 44.890625 
Q 49.859375 40.875 45.40625 35.40625 
Q 44.1875 33.984375 37.640625 27.21875 
Q 31.109375 20.453125 19.1875 8.296875 
z
" id="DejaVuSans-50"/>
       </defs>
       <use xlink:href="#DejaVuSans-48"/>
       <use x="63.623047" xlink:href="#DejaVuSans-46"/>
       <use x="95.410156" xlink:href="#DejaVuSans-50"/>
      </g>
     </g>
    </g>
    <g id="ytick_3">
     <g id="line2d_13">
      <g>
       <use style="stroke:#000000;stroke-width:0.8;" x="156.721315" xlink:href="#mfdc5501868" y="180.024"/>
      </g>
     </g>
     <g id="text_14">
      <!-- 0.4 -->
      <g transform="translate(133.81819 183.823219)scale(0.1 -0.1)">
       <defs>
        <path d="M 37.796875 64.3125 
L 12.890625 25.390625 
L 37.796875 25.390625 
z
M 35.203125 72.90625 
L 47.609375 72.90625 
L 47.609375 25.390625 
L 58.015625 25.390625 
L 58.015625 17.1875 
L 47.609375 17.1875 
L 47.609375 0 
L 37.796875 0 
L 37.796875 17.1875 
L 4.890625 17.1875 
L 4.890625 26.703125 
z
" id="DejaVuSans-52"/>
       </defs>
       <use xlink:href="#DejaVuSans-48"/>
       <use x="63.623047" xlink:href="#DejaVuSans-46"/>
       <use x="95.410156" xlink:href="#DejaVuSans-52"/>
      </g>
     </g>
    </g>
    <g id="ytick_4">
     <g id="line2d_14">
      <g>
       <use style="stroke:#000000;stroke-width:0.8;" x="156.721315" xlink:href="#mfdc5501868" y="128.656"/>
      </g>
     </g>
     <g id="text_15">
      <!-- 0.6 -->
      <g transform="translate(133.81819 132.455219)scale(0.1 -0.1)">
       <defs>
        <path d="M 33.015625 40.375 
Q 26.375 40.375 22.484375 35.828125 
Q 18.609375 31.296875 18.609375 23.390625 
Q 18.609375 15.53125 22.484375 10.953125 
Q 26.375 6.390625 33.015625 6.390625 
Q 39.65625 6.390625 43.53125 10.953125 
Q 47.40625 15.53125 47.40625 23.390625 
Q 47.40625 31.296875 43.53125 35.828125 
Q 39.65625 40.375 33.015625 40.375 
z
M 52.59375 71.296875 
L 52.59375 62.3125 
Q 48.875 64.0625 45.09375 64.984375 
Q 41.3125 65.921875 37.59375 65.921875 
Q 27.828125 65.921875 22.671875 59.328125 
Q 17.53125 52.734375 16.796875 39.40625 
Q 19.671875 43.65625 24.015625 45.921875 
Q 28.375 48.1875 33.59375 48.1875 
Q 44.578125 48.1875 50.953125 41.515625 
Q 57.328125 34.859375 57.328125 23.390625 
Q 57.328125 12.15625 50.6875 5.359375 
Q 44.046875 -1.421875 33.015625 -1.421875 
Q 20.359375 -1.421875 13.671875 8.265625 
Q 6.984375 17.96875 6.984375 36.375 
Q 6.984375 53.65625 15.1875 63.9375 
Q 23.390625 74.21875 37.203125 74.21875 
Q 40.921875 74.21875 44.703125 73.484375 
Q 48.484375 72.75 52.59375 71.296875 
z
" id="DejaVuSans-54"/>
       </defs>
       <use xlink:href="#DejaVuSans-48"/>
       <use x="63.623047" xlink:href="#DejaVuSans-46"/>
       <use x="95.410156" xlink:href="#DejaVuSans-54"/>
      </g>
     </g>
    </g>
    <g id="ytick_5">
     <g id="line2d_15">
      <g>
       <use style="stroke:#000000;stroke-width:0.8;" x="156.721315" xlink:href="#mfdc5501868" y="77.288"/>
      </g>
     </g>
     <g id="text_16">
      <!-- 0.8 -->
      <g transform="translate(133.81819 81.087219)scale(0.1 -0.1)">
       <defs>
        <path d="M 31.78125 34.625 
Q 24.75 34.625 20.71875 30.859375 
Q 16.703125 27.09375 16.703125 20.515625 
Q 16.703125 13.921875 20.71875 10.15625 
Q 24.75 6.390625 31.78125 6.390625 
Q 38.8125 6.390625 42.859375 10.171875 
Q 46.921875 13.96875 46.921875 20.515625 
Q 46.921875 27.09375 42.890625 30.859375 
Q 38.875 34.625 31.78125 34.625 
z
M 21.921875 38.8125 
Q 15.578125 40.375 12.03125 44.71875 
Q 8.5 49.078125 8.5 55.328125 
Q 8.5 64.0625 14.71875 69.140625 
Q 20.953125 74.21875 31.78125 74.21875 
Q 42.671875 74.21875 48.875 69.140625 
Q 55.078125 64.0625 55.078125 55.328125 
Q 55.078125 49.078125 51.53125 44.71875 
Q 48 40.375 41.703125 38.8125 
Q 48.828125 37.15625 52.796875 32.3125 
Q 56.78125 27.484375 56.78125 20.515625 
Q 56.78125 9.90625 50.3125 4.234375 
Q 43.84375 -1.421875 31.78125 -1.421875 
Q 19.734375 -1.421875 13.25 4.234375 
Q 6.78125 9.90625 6.78125 20.515625 
Q 6.78125 27.484375 10.78125 32.3125 
Q 14.796875 37.15625 21.921875 38.8125 
z
M 18.3125 54.390625 
Q 18.3125 48.734375 21.84375 45.5625 
Q 25.390625 42.390625 31.78125 42.390625 
Q 38.140625 42.390625 41.71875 45.5625 
Q 45.3125 48.734375 45.3125 54.390625 
Q 45.3125 60.0625 41.71875 63.234375 
Q 38.140625 66.40625 31.78125 66.40625 
Q 25.390625 66.40625 21.84375 63.234375 
Q 18.3125 60.0625 18.3125 54.390625 
z
" id="DejaVuSans-56"/>
       </defs>
       <use xlink:href="#DejaVuSans-48"/>
       <use x="63.623047" xlink:href="#DejaVuSans-46"/>
       <use x="95.410156" xlink:href="#DejaVuSans-56"/>
      </g>
     </g>
    </g>
    <g id="ytick_6">
     <g id="line2d_16">
      <g>
       <use style="stroke:#000000;stroke-width:0.8;" x="156.721315" xlink:href="#mfdc5501868" y="25.92"/>
      </g>
     </g>
     <g id="text_17">
      <!-- 1.0 -->
      <g transform="translate(133.81819 29.719219)scale(0.1 -0.1)">
       <use xlink:href="#DejaVuSans-49"/>
       <use x="63.623047" xlink:href="#DejaVuSans-46"/>
       <use x="95.410156" xlink:href="#DejaVuSans-48"/>
      </g>
     </g>
    </g>
    <g id="text_18">
     <!-- MS-SSIM Index -->
     <g transform="translate(127.738502 191.125156)rotate(-90)scale(0.1 -0.1)">
      <defs>
       <path d="M 9.8125 72.90625 
L 24.515625 72.90625 
L 43.109375 23.296875 
L 61.8125 72.90625 
L 76.515625 72.90625 
L 76.515625 0 
L 66.890625 0 
L 66.890625 64.015625 
L 48.09375 14.015625 
L 38.1875 14.015625 
L 19.390625 64.015625 
L 19.390625 0 
L 9.8125 0 
z
" id="DejaVuSans-77"/>
       <path d="M 53.515625 70.515625 
L 53.515625 60.890625 
Q 47.90625 63.578125 42.921875 64.890625 
Q 37.9375 66.21875 33.296875 66.21875 
Q 25.25 66.21875 20.875 63.09375 
Q 16.5 59.96875 16.5 54.203125 
Q 16.5 49.359375 19.40625 46.890625 
Q 22.3125 44.4375 30.421875 42.921875 
L 36.375 41.703125 
Q 47.40625 39.59375 52.65625 34.296875 
Q 57.90625 29 57.90625 20.125 
Q 57.90625 9.515625 50.796875 4.046875 
Q 43.703125 -1.421875 29.984375 -1.421875 
Q 24.8125 -1.421875 18.96875 -0.25 
Q 13.140625 0.921875 6.890625 3.21875 
L 6.890625 13.375 
Q 12.890625 10.015625 18.65625 8.296875 
Q 24.421875 6.59375 29.984375 6.59375 
Q 38.421875 6.59375 43.015625 9.90625 
Q 47.609375 13.234375 47.609375 19.390625 
Q 47.609375 24.75 44.3125 27.78125 
Q 41.015625 30.8125 33.5 32.328125 
L 27.484375 33.5 
Q 16.453125 35.6875 11.515625 40.375 
Q 6.59375 45.0625 6.59375 53.421875 
Q 6.59375 63.09375 13.40625 68.65625 
Q 20.21875 74.21875 32.171875 74.21875 
Q 37.3125 74.21875 42.625 73.28125 
Q 47.953125 72.359375 53.515625 70.515625 
z
" id="DejaVuSans-83"/>
       <path d="M 4.890625 31.390625 
L 31.203125 31.390625 
L 31.203125 23.390625 
L 4.890625 23.390625 
z
" id="DejaVuSans-45"/>
       <path d="M 9.8125 72.90625 
L 19.671875 72.90625 
L 19.671875 0 
L 9.8125 0 
z
" id="DejaVuSans-73"/>
       <path d="M 54.890625 33.015625 
L 54.890625 0 
L 45.90625 0 
L 45.90625 32.71875 
Q 45.90625 40.484375 42.875 44.328125 
Q 39.84375 48.1875 33.796875 48.1875 
Q 26.515625 48.1875 22.3125 43.546875 
Q 18.109375 38.921875 18.109375 30.90625 
L 18.109375 0 
L 9.078125 0 
L 9.078125 54.6875 
L 18.109375 54.6875 
L 18.109375 46.1875 
Q 21.34375 51.125 25.703125 53.5625 
Q 30.078125 56 35.796875 56 
Q 45.21875 56 50.046875 50.171875 
Q 54.890625 44.34375 54.890625 33.015625 
z
" id="DejaVuSans-110"/>
       <path d="M 45.40625 46.390625 
L 45.40625 75.984375 
L 54.390625 75.984375 
L 54.390625 0 
L 45.40625 0 
L 45.40625 8.203125 
Q 42.578125 3.328125 38.25 0.953125 
Q 33.9375 -1.421875 27.875 -1.421875 
Q 17.96875 -1.421875 11.734375 6.484375 
Q 5.515625 14.40625 5.515625 27.296875 
Q 5.515625 40.1875 11.734375 48.09375 
Q 17.96875 56 27.875 56 
Q 33.9375 56 38.25 53.625 
Q 42.578125 51.265625 45.40625 46.390625 
z
M 14.796875 27.296875 
Q 14.796875 17.390625 18.875 11.75 
Q 22.953125 6.109375 30.078125 6.109375 
Q 37.203125 6.109375 41.296875 11.75 
Q 45.40625 17.390625 45.40625 27.296875 
Q 45.40625 37.203125 41.296875 42.84375 
Q 37.203125 48.484375 30.078125 48.484375 
Q 22.953125 48.484375 18.875 42.84375 
Q 14.796875 37.203125 14.796875 27.296875 
z
" id="DejaVuSans-100"/>
       <path d="M 54.890625 54.6875 
L 35.109375 28.078125 
L 55.90625 0 
L 45.3125 0 
L 29.390625 21.484375 
L 13.484375 0 
L 2.875 0 
L 24.125 28.609375 
L 4.6875 54.6875 
L 15.28125 54.6875 
L 29.78125 35.203125 
L 44.28125 54.6875 
z
" id="DejaVuSans-120"/>
      </defs>
      <use xlink:href="#DejaVuSans-77"/>
      <use x="86.279297" xlink:href="#DejaVuSans-83"/>
      <use x="149.755859" xlink:href="#DejaVuSans-45"/>
      <use x="185.839844" xlink:href="#DejaVuSans-83"/>
      <use x="249.316406" xlink:href="#DejaVuSans-83"/>
      <use x="312.792969" xlink:href="#DejaVuSans-73"/>
      <use x="342.285156" xlink:href="#DejaVuSans-77"/>
      <use x="428.564453" xlink:href="#DejaVuSans-32"/>
      <use x="460.351562" xlink:href="#DejaVuSans-73"/>
      <use x="489.84375" xlink:href="#DejaVuSans-110"/>
      <use x="553.222656" xlink:href="#DejaVuSans-100"/>
      <use x="616.699219" xlink:href="#DejaVuSans-101"/>
      <use x="676.472656" xlink:href="#DejaVuSans-120"/>
     </g>
    </g>
   </g>
   <g id="LineCollection_1">
    <path clip-path="url(#p62ad876059)" d="M 81.519158 281.06413 
L 81.519158 281.027027 
" style="fill:none;stroke:#0d0887;stroke-width:1.5;"/>
    <path clip-path="url(#p62ad876059)" d="M 73.730546 274.790042 
L 73.730546 274.631503 
" style="fill:none;stroke:#0d0887;stroke-width:1.5;"/>
    <path clip-path="url(#p62ad876059)" d="M 73.986247 273.432879 
L 73.986247 272.90004 
" style="fill:none;stroke:#0d0887;stroke-width:1.5;"/>
    <path clip-path="url(#p62ad876059)" d="M 68.276877 272.077664 
L 68.276877 271.426179 
" style="fill:none;stroke:#0d0887;stroke-width:1.5;"/>
    <path clip-path="url(#p62ad876059)" d="M 75.173838 231.147404 
L 75.173838 230.869366 
" style="fill:none;stroke:#0d0887;stroke-width:1.5;"/>
    <path clip-path="url(#p62ad876059)" d="M 67.47079 281.404777 
L 67.47079 281.360913 
" style="fill:none;stroke:#0d0887;stroke-width:1.5;"/>
    <path clip-path="url(#p62ad876059)" d="M 70.456956 280.050204 
L 70.456956 279.986587 
" style="fill:none;stroke:#0d0887;stroke-width:1.5;"/>
   </g>
   <g id="LineCollection_2">
    <path clip-path="url(#p62ad876059)" d="M 127.317257 282.76 
L 127.317257 282.76 
" style="fill:none;stroke:#41049d;stroke-width:1.5;"/>
   </g>
   <g id="LineCollection_3">
    <path clip-path="url(#p62ad876059)" d="M 176.070262 272.767111 
L 176.070262 272.757376 
" style="fill:none;stroke:#f0f921;stroke-width:1.5;"/>
    <path clip-path="url(#p62ad876059)" d="M 194.017185 241.992984 
L 194.017185 241.949938 
" style="fill:none;stroke:#f0f921;stroke-width:1.5;"/>
    <path clip-path="url(#p62ad876059)" d="M 204.554521 213.011024 
L 204.554521 212.936363 
" style="fill:none;stroke:#f0f921;stroke-width:1.5;"/>
    <path clip-path="url(#p62ad876059)" d="M 212.013314 191.677477 
L 212.013314 191.587431 
" style="fill:none;stroke:#f0f921;stroke-width:1.5;"/>
    <path clip-path="url(#p62ad876059)" d="M 217.841546 176.756219 
L 217.841546 176.652747 
" style="fill:none;stroke:#f0f921;stroke-width:1.5;"/>
    <path clip-path="url(#p62ad876059)" d="M 222.575382 166.299445 
L 222.575382 166.187255 
" style="fill:none;stroke:#f0f921;stroke-width:1.5;"/>
    <path clip-path="url(#p62ad876059)" d="M 226.622213 158.844994 
L 226.622213 158.726784 
" style="fill:none;stroke:#f0f921;stroke-width:1.5;"/>
    <path clip-path="url(#p62ad876059)" d="M 230.099164 153.414866 
L 230.099164 153.293139 
" style="fill:none;stroke:#f0f921;stroke-width:1.5;"/>
    <path clip-path="url(#p62ad876059)" d="M 233.172985 149.375106 
L 233.172985 149.251675 
" style="fill:none;stroke:#f0f921;stroke-width:1.5;"/>
    <path clip-path="url(#p62ad876059)" d="M 235.927031 146.294561 
L 235.927031 146.175526 
" style="fill:none;stroke:#f0f921;stroke-width:1.5;"/>
   </g>
   <g id="LineCollection_4">
    <path clip-path="url(#p62ad876059)" d="M 176.433819 272.767111 
L 176.433819 272.757376 
" style="fill:none;stroke:#ea7457;stroke-width:1.5;"/>
    <path clip-path="url(#p62ad876059)" d="M 194.483186 241.992984 
L 194.483186 241.949938 
" style="fill:none;stroke:#ea7457;stroke-width:1.5;"/>
    <path clip-path="url(#p62ad876059)" d="M 205.07047 213.011024 
L 205.07047 212.936363 
" style="fill:none;stroke:#ea7457;stroke-width:1.5;"/>
    <path clip-path="url(#p62ad876059)" d="M 212.565527 191.677477 
L 212.565527 191.587431 
" style="fill:none;stroke:#ea7457;stroke-width:1.5;"/>
    <path clip-path="url(#p62ad876059)" d="M 218.355726 176.756219 
L 218.355726 176.652747 
" style="fill:none;stroke:#ea7457;stroke-width:1.5;"/>
    <path clip-path="url(#p62ad876059)" d="M 223.096809 166.299445 
L 223.096809 166.187255 
" style="fill:none;stroke:#ea7457;stroke-width:1.5;"/>
    <path clip-path="url(#p62ad876059)" d="M 227.13436 158.844994 
L 227.13436 158.726784 
" style="fill:none;stroke:#ea7457;stroke-width:1.5;"/>
    <path clip-path="url(#p62ad876059)" d="M 230.590521 153.414866 
L 230.590521 153.293139 
" style="fill:none;stroke:#ea7457;stroke-width:1.5;"/>
    <path clip-path="url(#p62ad876059)" d="M 233.659306 149.375106 
L 233.659306 149.251675 
" style="fill:none;stroke:#ea7457;stroke-width:1.5;"/>
    <path clip-path="url(#p62ad876059)" d="M 236.406644 146.294561 
L 236.406644 146.175526 
" style="fill:none;stroke:#ea7457;stroke-width:1.5;"/>
   </g>
   <g id="LineCollection_5">
    <path clip-path="url(#p62ad876059)" d="M 179.638696 282.698373 
L 179.638696 282.698266 
" style="fill:none;stroke:#f2844b;stroke-width:1.5;"/>
    <path clip-path="url(#p62ad876059)" d="M 197.852866 281.914643 
L 197.852866 281.909899 
" style="fill:none;stroke:#f2844b;stroke-width:1.5;"/>
    <path clip-path="url(#p62ad876059)" d="M 208.30644 279.996182 
L 208.30644 279.983613 
" style="fill:none;stroke:#f2844b;stroke-width:1.5;"/>
    <path clip-path="url(#p62ad876059)" d="M 215.722601 277.561427 
L 215.722601 277.531827 
" style="fill:none;stroke:#f2844b;stroke-width:1.5;"/>
    <path clip-path="url(#p62ad876059)" d="M 221.568873 274.876813 
L 221.568873 274.829953 
" style="fill:none;stroke:#f2844b;stroke-width:1.5;"/>
    <path clip-path="url(#p62ad876059)" d="M 226.384595 272.020746 
L 226.384595 271.957487 
" style="fill:none;stroke:#f2844b;stroke-width:1.5;"/>
    <path clip-path="url(#p62ad876059)" d="M 230.476472 269.015778 
L 230.476472 268.935758 
" style="fill:none;stroke:#f2844b;stroke-width:1.5;"/>
    <path clip-path="url(#p62ad876059)" d="M 234.071891 265.876193 
L 234.071891 265.77827 
" style="fill:none;stroke:#f2844b;stroke-width:1.5;"/>
    <path clip-path="url(#p62ad876059)" d="M 237.219736 262.620945 
L 237.219736 262.506268 
" style="fill:none;stroke:#f2844b;stroke-width:1.5;"/>
    <path clip-path="url(#p62ad876059)" d="M 239.9261 259.275057 
L 239.9261 259.144941 
" style="fill:none;stroke:#f2844b;stroke-width:1.5;"/>
   </g>
   <g id="LineCollection_6">
    <path clip-path="url(#p62ad876059)" d="M 177.161268 282.723105 
L 177.161268 282.723088 
" style="fill:none;stroke:#f89540;stroke-width:1.5;"/>
    <path clip-path="url(#p62ad876059)" d="M 195.171141 282.547731 
L 195.171141 282.547525 
" style="fill:none;stroke:#f89540;stroke-width:1.5;"/>
    <path clip-path="url(#p62ad876059)" d="M 206.008951 282.19713 
L 206.008951 282.196598 
" style="fill:none;stroke:#f89540;stroke-width:1.5;"/>
    <path clip-path="url(#p62ad876059)" d="M 213.398446 281.65995 
L 213.398446 281.659175 
" style="fill:none;stroke:#f89540;stroke-width:1.5;"/>
    <path clip-path="url(#p62ad876059)" d="M 219.380678 280.929721 
L 219.380678 280.928527 
" style="fill:none;stroke:#f89540;stroke-width:1.5;"/>
    <path clip-path="url(#p62ad876059)" d="M 224.157414 280.007678 
L 224.157414 280.005981 
" style="fill:none;stroke:#f89540;stroke-width:1.5;"/>
    <path clip-path="url(#p62ad876059)" d="M 228.201431 278.903433 
L 228.201431 278.900802 
" style="fill:none;stroke:#f89540;stroke-width:1.5;"/>
    <path clip-path="url(#p62ad876059)" d="M 231.70036 277.62946 
L 231.70036 277.626134 
" style="fill:none;stroke:#f89540;stroke-width:1.5;"/>
    <path clip-path="url(#p62ad876059)" d="M 234.795338 276.201642 
L 234.795338 276.197821 
" style="fill:none;stroke:#f89540;stroke-width:1.5;"/>
    <path clip-path="url(#p62ad876059)" d="M 237.587097 274.639405 
L 237.587097 274.635155 
" style="fill:none;stroke:#f89540;stroke-width:1.5;"/>
   </g>
   <g id="LineCollection_7">
    <path clip-path="url(#p62ad876059)" d="M 179.485015 282.620949 
L 179.485015 282.620513 
" style="fill:none;stroke:#f7e425;stroke-width:1.5;"/>
    <path clip-path="url(#p62ad876059)" d="M 197.060985 280.776428 
L 197.060985 280.768264 
" style="fill:none;stroke:#f7e425;stroke-width:1.5;"/>
    <path clip-path="url(#p62ad876059)" d="M 207.867797 276.681927 
L 207.867797 276.65977 
" style="fill:none;stroke:#f7e425;stroke-width:1.5;"/>
    <path clip-path="url(#p62ad876059)" d="M 215.283871 270.899786 
L 215.283871 270.842136 
" style="fill:none;stroke:#f7e425;stroke-width:1.5;"/>
    <path clip-path="url(#p62ad876059)" d="M 221.150346 264.182421 
L 221.150346 264.084672 
" style="fill:none;stroke:#f7e425;stroke-width:1.5;"/>
    <path clip-path="url(#p62ad876059)" d="M 225.966088 257.165893 
L 225.966088 257.030586 
" style="fill:none;stroke:#f7e425;stroke-width:1.5;"/>
    <path clip-path="url(#p62ad876059)" d="M 230.033981 250.263994 
L 230.033981 250.094199 
" style="fill:none;stroke:#f7e425;stroke-width:1.5;"/>
    <path clip-path="url(#p62ad876059)" d="M 233.38979 243.733823 
L 233.38979 243.531147 
" style="fill:none;stroke:#f7e425;stroke-width:1.5;"/>
    <path clip-path="url(#p62ad876059)" d="M 236.344458 237.638746 
L 236.344458 237.427485 
" style="fill:none;stroke:#f7e425;stroke-width:1.5;"/>
    <path clip-path="url(#p62ad876059)" d="M 239.001539 231.975805 
L 239.001539 231.774805 
" style="fill:none;stroke:#f7e425;stroke-width:1.5;"/>
   </g>
   <g id="LineCollection_8">
    <path clip-path="url(#p62ad876059)" d="M 177.328134 282.722658 
L 177.328134 282.722645 
" style="fill:none;stroke:#fcce25;stroke-width:1.5;"/>
    <path clip-path="url(#p62ad876059)" d="M 195.278314 282.544326 
L 195.278314 282.544141 
" style="fill:none;stroke:#fcce25;stroke-width:1.5;"/>
    <path clip-path="url(#p62ad876059)" d="M 205.837927 282.185922 
L 205.837927 282.185574 
" style="fill:none;stroke:#fcce25;stroke-width:1.5;"/>
    <path clip-path="url(#p62ad876059)" d="M 213.370398 281.633518 
L 213.370398 281.632825 
" style="fill:none;stroke:#fcce25;stroke-width:1.5;"/>
    <path clip-path="url(#p62ad876059)" d="M 219.283074 280.87717 
L 219.283074 280.87587 
" style="fill:none;stroke:#fcce25;stroke-width:1.5;"/>
    <path clip-path="url(#p62ad876059)" d="M 224.070043 279.917938 
L 224.070043 279.915954 
" style="fill:none;stroke:#fcce25;stroke-width:1.5;"/>
    <path clip-path="url(#p62ad876059)" d="M 228.130094 278.761374 
L 228.130094 278.758552 
" style="fill:none;stroke:#fcce25;stroke-width:1.5;"/>
    <path clip-path="url(#p62ad876059)" d="M 231.627654 277.419178 
L 231.627654 277.415408 
" style="fill:none;stroke:#fcce25;stroke-width:1.5;"/>
    <path clip-path="url(#p62ad876059)" d="M 234.761941 275.905587 
L 234.761941 275.901092 
" style="fill:none;stroke:#fcce25;stroke-width:1.5;"/>
    <path clip-path="url(#p62ad876059)" d="M 237.471572 274.239844 
L 237.471572 274.234437 
" style="fill:none;stroke:#fcce25;stroke-width:1.5;"/>
   </g>
   <g id="LineCollection_9">
    <path clip-path="url(#p62ad876059)" d="M 175.641514 277.386417 
L 175.641514 277.382164 
" style="fill:none;stroke:#cc4778;stroke-width:1.5;"/>
    <path clip-path="url(#p62ad876059)" d="M 194.03135 260.50377 
L 194.03135 260.489168 
" style="fill:none;stroke:#cc4778;stroke-width:1.5;"/>
    <path clip-path="url(#p62ad876059)" d="M 204.228932 239.875951 
L 204.228932 239.846117 
" style="fill:none;stroke:#cc4778;stroke-width:1.5;"/>
    <path clip-path="url(#p62ad876059)" d="M 211.678281 221.096301 
L 211.678281 221.046527 
" style="fill:none;stroke:#cc4778;stroke-width:1.5;"/>
    <path clip-path="url(#p62ad876059)" d="M 217.453139 205.766238 
L 217.453139 205.699188 
" style="fill:none;stroke:#cc4778;stroke-width:1.5;"/>
    <path clip-path="url(#p62ad876059)" d="M 221.939356 193.778614 
L 221.939356 193.698721 
" style="fill:none;stroke:#cc4778;stroke-width:1.5;"/>
    <path clip-path="url(#p62ad876059)" d="M 225.912232 184.56548 
L 225.912232 184.461613 
" style="fill:none;stroke:#cc4778;stroke-width:1.5;"/>
    <path clip-path="url(#p62ad876059)" d="M 229.281652 177.524173 
L 229.281652 177.408093 
" style="fill:none;stroke:#cc4778;stroke-width:1.5;"/>
    <path clip-path="url(#p62ad876059)" d="M 232.265821 172.152615 
L 232.265821 172.026336 
" style="fill:none;stroke:#cc4778;stroke-width:1.5;"/>
    <path clip-path="url(#p62ad876059)" d="M 234.958741 168.040684 
L 234.958741 167.905867 
" style="fill:none;stroke:#cc4778;stroke-width:1.5;"/>
   </g>
   <g id="LineCollection_10">
    <path clip-path="url(#p62ad876059)" d="M 174.827608 282.76 
L 174.827608 282.76 
" style="fill:none;stroke:#0d0887;stroke-width:1.5;"/>
    <path clip-path="url(#p62ad876059)" d="M 193.135662 282.76 
L 193.135662 282.76 
" style="fill:none;stroke:#0d0887;stroke-width:1.5;"/>
    <path clip-path="url(#p62ad876059)" d="M 203.769027 282.76 
L 203.769027 282.76 
" style="fill:none;stroke:#0d0887;stroke-width:1.5;"/>
    <path clip-path="url(#p62ad876059)" d="M 211.340706 282.76 
L 211.340706 282.76 
" style="fill:none;stroke:#0d0887;stroke-width:1.5;"/>
    <path clip-path="url(#p62ad876059)" d="M 217.141576 282.76 
L 217.141576 282.76 
" style="fill:none;stroke:#0d0887;stroke-width:1.5;"/>
    <path clip-path="url(#p62ad876059)" d="M 221.969155 282.76 
L 221.969155 282.76 
" style="fill:none;stroke:#0d0887;stroke-width:1.5;"/>
    <path clip-path="url(#p62ad876059)" d="M 226.04382 282.76 
L 226.04382 282.76 
" style="fill:none;stroke:#0d0887;stroke-width:1.5;"/>
    <path clip-path="url(#p62ad876059)" d="M 229.55281 282.76 
L 229.55281 282.76 
" style="fill:none;stroke:#0d0887;stroke-width:1.5;"/>
    <path clip-path="url(#p62ad876059)" d="M 232.667271 282.76 
L 232.667271 282.76 
" style="fill:none;stroke:#0d0887;stroke-width:1.5;"/>
    <path clip-path="url(#p62ad876059)" style="fill:none;stroke:#0d0887;stroke-width:1.5;"/>
   </g>
   <g id="LineCollection_11">
    <path clip-path="url(#p62ad876059)" d="M 176.226105 281.645023 
L 176.226105 281.644023 
" style="fill:none;stroke:#fca636;stroke-width:1.5;"/>
    <path clip-path="url(#p62ad876059)" d="M 194.488597 277.615958 
L 194.488597 277.612509 
" style="fill:none;stroke:#fca636;stroke-width:1.5;"/>
    <path clip-path="url(#p62ad876059)" d="M 205.189771 270.707195 
L 205.189771 270.699638 
" style="fill:none;stroke:#fca636;stroke-width:1.5;"/>
    <path clip-path="url(#p62ad876059)" d="M 212.695508 261.942028 
L 212.695508 261.928651 
" style="fill:none;stroke:#fca636;stroke-width:1.5;"/>
    <path clip-path="url(#p62ad876059)" d="M 218.503852 252.237837 
L 218.503852 252.217679 
" style="fill:none;stroke:#fca636;stroke-width:1.5;"/>
    <path clip-path="url(#p62ad876059)" d="M 223.200052 242.36738 
L 223.200052 242.337721 
" style="fill:none;stroke:#fca636;stroke-width:1.5;"/>
    <path clip-path="url(#p62ad876059)" d="M 227.288821 232.835985 
L 227.288821 232.79697 
" style="fill:none;stroke:#fca636;stroke-width:1.5;"/>
    <path clip-path="url(#p62ad876059)" d="M 230.723217 223.934079 
L 230.723217 223.884123 
" style="fill:none;stroke:#fca636;stroke-width:1.5;"/>
    <path clip-path="url(#p62ad876059)" d="M 233.791473 215.797079 
L 233.791473 215.739866 
" style="fill:none;stroke:#fca636;stroke-width:1.5;"/>
    <path clip-path="url(#p62ad876059)" d="M 236.519747 208.466629 
L 236.519747 208.40158 
" style="fill:none;stroke:#fca636;stroke-width:1.5;"/>
   </g>
   <g id="LineCollection_12">
    <path clip-path="url(#p62ad876059)" d="M 175.523057 282.759994 
L 175.523057 282.759994 
" style="fill:none;stroke:#e16462;stroke-width:1.5;"/>
    <path clip-path="url(#p62ad876059)" d="M 193.701651 282.76 
L 193.701651 282.76 
" style="fill:none;stroke:#e16462;stroke-width:1.5;"/>
    <path clip-path="url(#p62ad876059)" d="M 204.366057 282.76 
L 204.366057 282.76 
" style="fill:none;stroke:#e16462;stroke-width:1.5;"/>
    <path clip-path="url(#p62ad876059)" d="M 211.80858 282.76 
L 211.80858 282.76 
" style="fill:none;stroke:#e16462;stroke-width:1.5;"/>
    <path clip-path="url(#p62ad876059)" d="M 217.723699 282.76 
L 217.723699 282.76 
" style="fill:none;stroke:#e16462;stroke-width:1.5;"/>
    <path clip-path="url(#p62ad876059)" d="M 222.578347 282.76 
L 222.578347 282.76 
" style="fill:none;stroke:#e16462;stroke-width:1.5;"/>
    <path clip-path="url(#p62ad876059)" d="M 226.527963 282.76 
L 226.527963 282.76 
" style="fill:none;stroke:#e16462;stroke-width:1.5;"/>
    <path clip-path="url(#p62ad876059)" d="M 229.930438 282.76 
L 229.930438 282.76 
" style="fill:none;stroke:#e16462;stroke-width:1.5;"/>
    <path clip-path="url(#p62ad876059)" d="M 233.063684 282.76 
L 233.063684 282.76 
" style="fill:none;stroke:#e16462;stroke-width:1.5;"/>
    <path clip-path="url(#p62ad876059)" d="M 235.86614 282.76 
L 235.86614 282.76 
" style="fill:none;stroke:#e16462;stroke-width:1.5;"/>
   </g>
   <g id="line2d_17">
    <defs>
     <path d="M 0 3 
C 0.795609 3 1.55874 2.683901 2.12132 2.12132 
C 2.683901 1.55874 3 0.795609 3 0 
C 3 -0.795609 2.683901 -1.55874 2.12132 -2.12132 
C 1.55874 -2.683901 0.795609 -3 0 -3 
C -0.795609 -3 -1.55874 -2.683901 -2.12132 -2.12132 
C -2.683901 -1.55874 -3 -0.795609 -3 0 
C -3 0.795609 -2.683901 1.55874 -2.12132 2.12132 
C -1.55874 2.683901 -0.795609 3 0 3 
z
" id="ma2d39e9d79" style="stroke:#0d0887;"/>
    </defs>
    <g clip-path="url(#p62ad876059)">
     <use style="fill:#0d0887;stroke:#0d0887;" x="81.519158" xlink:href="#ma2d39e9d79" y="281.045578"/>
     <use style="fill:#0d0887;stroke:#0d0887;" x="73.730546" xlink:href="#ma2d39e9d79" y="274.710773"/>
     <use style="fill:#0d0887;stroke:#0d0887;" x="73.986247" xlink:href="#ma2d39e9d79" y="273.166459"/>
     <use style="fill:#0d0887;stroke:#0d0887;" x="68.276877" xlink:href="#ma2d39e9d79" y="271.751922"/>
     <use style="fill:#0d0887;stroke:#0d0887;" x="75.173838" xlink:href="#ma2d39e9d79" y="231.008385"/>
     <use style="fill:#0d0887;stroke:#0d0887;" x="67.47079" xlink:href="#ma2d39e9d79" y="281.382845"/>
     <use style="fill:#0d0887;stroke:#0d0887;" x="70.456956" xlink:href="#ma2d39e9d79" y="280.018396"/>
    </g>
   </g>
   <g id="line2d_18">
    <defs>
     <path d="M -1.5 3 
L 0 1.5 
L 1.5 3 
L 3 1.5 
L 1.5 0 
L 3 -1.5 
L 1.5 -3 
L 0 -1.5 
L -1.5 -3 
L -3 -1.5 
L -1.5 0 
L -3 1.5 
z
" id="m49dc5a1e62" style="stroke:#41049d;stroke-linejoin:miter;"/>
    </defs>
    <g clip-path="url(#p62ad876059)">
     <use style="fill:#41049d;stroke:#41049d;stroke-linejoin:miter;" x="127.317257" xlink:href="#m49dc5a1e62" y="282.76"/>
    </g>
   </g>
   <g id="line2d_19">
    <path clip-path="url(#p62ad876059)" d="M 176.070262 272.762244 
L 194.017185 241.971461 
L 204.554521 212.973693 
L 212.013314 191.632454 
L 217.841546 176.704483 
L 222.575382 166.24335 
L 226.622213 158.785889 
L 230.099164 153.354002 
L 233.172985 149.31339 
L 235.927031 146.235043 
" style="fill:none;stroke:#f0f921;stroke-linecap:square;stroke-width:1.5;"/>
    <defs>
     <path d="M 0 3 
C 0.795609 3 1.55874 2.683901 2.12132 2.12132 
C 2.683901 1.55874 3 0.795609 3 0 
C 3 -0.795609 2.683901 -1.55874 2.12132 -2.12132 
C 1.55874 -2.683901 0.795609 -3 0 -3 
C -0.795609 -3 -1.55874 -2.683901 -2.12132 -2.12132 
C -2.683901 -1.55874 -3 -0.795609 -3 0 
C -3 0.795609 -2.683901 1.55874 -2.12132 2.12132 
C -1.55874 2.683901 -0.795609 3 0 3 
z
" id="m7808465839" style="stroke:#f0f921;"/>
    </defs>
    <g clip-path="url(#p62ad876059)">
     <use style="fill:#f0f921;stroke:#f0f921;" x="176.070262" xlink:href="#m7808465839" y="272.762244"/>
     <use style="fill:#f0f921;stroke:#f0f921;" x="194.017185" xlink:href="#m7808465839" y="241.971461"/>
     <use style="fill:#f0f921;stroke:#f0f921;" x="204.554521" xlink:href="#m7808465839" y="212.973693"/>
     <use style="fill:#f0f921;stroke:#f0f921;" x="212.013314" xlink:href="#m7808465839" y="191.632454"/>
     <use style="fill:#f0f921;stroke:#f0f921;" x="217.841546" xlink:href="#m7808465839" y="176.704483"/>
     <use style="fill:#f0f921;stroke:#f0f921;" x="222.575382" xlink:href="#m7808465839" y="166.24335"/>
     <use style="fill:#f0f921;stroke:#f0f921;" x="226.622213" xlink:href="#m7808465839" y="158.785889"/>
     <use style="fill:#f0f921;stroke:#f0f921;" x="230.099164" xlink:href="#m7808465839" y="153.354002"/>
     <use style="fill:#f0f921;stroke:#f0f921;" x="233.172985" xlink:href="#m7808465839" y="149.31339"/>
     <use style="fill:#f0f921;stroke:#f0f921;" x="235.927031" xlink:href="#m7808465839" y="146.235043"/>
    </g>
   </g>
   <g id="line2d_20">
    <path clip-path="url(#p62ad876059)" d="M 176.433819 272.762244 
L 194.483186 241.971461 
L 205.07047 212.973693 
L 212.565527 191.632454 
L 218.355726 176.704483 
L 223.096809 166.24335 
L 227.13436 158.785889 
L 230.590521 153.354002 
L 233.659306 149.31339 
L 236.406644 146.235043 
" style="fill:none;stroke:#ea7457;stroke-linecap:square;stroke-width:1.5;"/>
    <defs>
     <path d="M -3 3 
L 3 3 
L 3 -3 
L -3 -3 
z
" id="m9f2743afa6" style="stroke:#ea7457;stroke-linejoin:miter;"/>
    </defs>
    <g clip-path="url(#p62ad876059)">
     <use style="fill:#ea7457;stroke:#ea7457;stroke-linejoin:miter;" x="176.433819" xlink:href="#m9f2743afa6" y="272.762244"/>
     <use style="fill:#ea7457;stroke:#ea7457;stroke-linejoin:miter;" x="194.483186" xlink:href="#m9f2743afa6" y="241.971461"/>
     <use style="fill:#ea7457;stroke:#ea7457;stroke-linejoin:miter;" x="205.07047" xlink:href="#m9f2743afa6" y="212.973693"/>
     <use style="fill:#ea7457;stroke:#ea7457;stroke-linejoin:miter;" x="212.565527" xlink:href="#m9f2743afa6" y="191.632454"/>
     <use style="fill:#ea7457;stroke:#ea7457;stroke-linejoin:miter;" x="218.355726" xlink:href="#m9f2743afa6" y="176.704483"/>
     <use style="fill:#ea7457;stroke:#ea7457;stroke-linejoin:miter;" x="223.096809" xlink:href="#m9f2743afa6" y="166.24335"/>
     <use style="fill:#ea7457;stroke:#ea7457;stroke-linejoin:miter;" x="227.13436" xlink:href="#m9f2743afa6" y="158.785889"/>
     <use style="fill:#ea7457;stroke:#ea7457;stroke-linejoin:miter;" x="230.590521" xlink:href="#m9f2743afa6" y="153.354002"/>
     <use style="fill:#ea7457;stroke:#ea7457;stroke-linejoin:miter;" x="233.659306" xlink:href="#m9f2743afa6" y="149.31339"/>
     <use style="fill:#ea7457;stroke:#ea7457;stroke-linejoin:miter;" x="236.406644" xlink:href="#m9f2743afa6" y="146.235043"/>
    </g>
   </g>
   <g id="line2d_21">
    <path clip-path="url(#p62ad876059)" d="M 179.638696 282.69832 
L 197.852866 281.912271 
L 208.30644 279.989898 
L 215.722601 277.546627 
L 221.568873 274.853383 
L 226.384595 271.989117 
L 230.476472 268.975768 
L 234.071891 265.827232 
L 237.219736 262.563606 
L 239.9261 259.209999 
" style="fill:none;stroke:#f2844b;stroke-dasharray:1.5,2.475;stroke-dashoffset:0;stroke-width:1.5;"/>
    <defs>
     <path d="M -3 3 
L 3 3 
L 3 -3 
L -3 -3 
z
" id="m1b6d835b0e" style="stroke:#f2844b;stroke-linejoin:miter;"/>
    </defs>
    <g clip-path="url(#p62ad876059)">
     <use style="fill:#f2844b;stroke:#f2844b;stroke-linejoin:miter;" x="179.638696" xlink:href="#m1b6d835b0e" y="282.69832"/>
     <use style="fill:#f2844b;stroke:#f2844b;stroke-linejoin:miter;" x="197.852866" xlink:href="#m1b6d835b0e" y="281.912271"/>
     <use style="fill:#f2844b;stroke:#f2844b;stroke-linejoin:miter;" x="208.30644" xlink:href="#m1b6d835b0e" y="279.989898"/>
     <use style="fill:#f2844b;stroke:#f2844b;stroke-linejoin:miter;" x="215.722601" xlink:href="#m1b6d835b0e" y="277.546627"/>
     <use style="fill:#f2844b;stroke:#f2844b;stroke-linejoin:miter;" x="221.568873" xlink:href="#m1b6d835b0e" y="274.853383"/>
     <use style="fill:#f2844b;stroke:#f2844b;stroke-linejoin:miter;" x="226.384595" xlink:href="#m1b6d835b0e" y="271.989117"/>
     <use style="fill:#f2844b;stroke:#f2844b;stroke-linejoin:miter;" x="230.476472" xlink:href="#m1b6d835b0e" y="268.975768"/>
     <use style="fill:#f2844b;stroke:#f2844b;stroke-linejoin:miter;" x="234.071891" xlink:href="#m1b6d835b0e" y="265.827232"/>
     <use style="fill:#f2844b;stroke:#f2844b;stroke-linejoin:miter;" x="237.219736" xlink:href="#m1b6d835b0e" y="262.563606"/>
     <use style="fill:#f2844b;stroke:#f2844b;stroke-linejoin:miter;" x="239.9261" xlink:href="#m1b6d835b0e" y="259.209999"/>
    </g>
   </g>
   <g id="line2d_22">
    <path clip-path="url(#p62ad876059)" d="M 177.161268 282.723097 
L 195.171141 282.547628 
L 206.008951 282.196864 
L 213.398446 281.659563 
L 219.380678 280.929124 
L 224.157414 280.00683 
L 228.201431 278.902118 
L 231.70036 277.627797 
L 234.795338 276.199732 
L 237.587097 274.63728 
" style="fill:none;stroke:#f89540;stroke-dasharray:5.55,2.4;stroke-dashoffset:0;stroke-width:1.5;"/>
    <defs>
     <path d="M -3 3 
L 3 3 
L 3 -3 
L -3 -3 
z
" id="mfc67724691" style="stroke:#f89540;stroke-linejoin:miter;"/>
    </defs>
    <g clip-path="url(#p62ad876059)">
     <use style="fill:#f89540;stroke:#f89540;stroke-linejoin:miter;" x="177.161268" xlink:href="#mfc67724691" y="282.723097"/>
     <use style="fill:#f89540;stroke:#f89540;stroke-linejoin:miter;" x="195.171141" xlink:href="#mfc67724691" y="282.547628"/>
     <use style="fill:#f89540;stroke:#f89540;stroke-linejoin:miter;" x="206.008951" xlink:href="#mfc67724691" y="282.196864"/>
     <use style="fill:#f89540;stroke:#f89540;stroke-linejoin:miter;" x="213.398446" xlink:href="#mfc67724691" y="281.659563"/>
     <use style="fill:#f89540;stroke:#f89540;stroke-linejoin:miter;" x="219.380678" xlink:href="#mfc67724691" y="280.929124"/>
     <use style="fill:#f89540;stroke:#f89540;stroke-linejoin:miter;" x="224.157414" xlink:href="#mfc67724691" y="280.00683"/>
     <use style="fill:#f89540;stroke:#f89540;stroke-linejoin:miter;" x="228.201431" xlink:href="#mfc67724691" y="278.902118"/>
     <use style="fill:#f89540;stroke:#f89540;stroke-linejoin:miter;" x="231.70036" xlink:href="#mfc67724691" y="277.627797"/>
     <use style="fill:#f89540;stroke:#f89540;stroke-linejoin:miter;" x="234.795338" xlink:href="#mfc67724691" y="276.199732"/>
     <use style="fill:#f89540;stroke:#f89540;stroke-linejoin:miter;" x="237.587097" xlink:href="#mfc67724691" y="274.63728"/>
    </g>
   </g>
   <g id="line2d_23">
    <path clip-path="url(#p62ad876059)" d="M 179.485015 282.620731 
L 197.060985 280.772346 
L 207.867797 276.670849 
L 215.283871 270.870961 
L 221.150346 264.133546 
L 225.966088 257.09824 
L 230.033981 250.179096 
L 233.38979 243.632485 
L 236.344458 237.533116 
L 239.001539 231.875305 
" style="fill:none;stroke:#f7e425;stroke-dasharray:1.5,2.475;stroke-dashoffset:0;stroke-width:1.5;"/>
    <defs>
     <path d="M 0 3 
C 0.795609 3 1.55874 2.683901 2.12132 2.12132 
C 2.683901 1.55874 3 0.795609 3 0 
C 3 -0.795609 2.683901 -1.55874 2.12132 -2.12132 
C 1.55874 -2.683901 0.795609 -3 0 -3 
C -0.795609 -3 -1.55874 -2.683901 -2.12132 -2.12132 
C -2.683901 -1.55874 -3 -0.795609 -3 0 
C -3 0.795609 -2.683901 1.55874 -2.12132 2.12132 
C -1.55874 2.683901 -0.795609 3 0 3 
z
" id="mf320c991f4" style="stroke:#f7e425;"/>
    </defs>
    <g clip-path="url(#p62ad876059)">
     <use style="fill:#f7e425;stroke:#f7e425;" x="179.485015" xlink:href="#mf320c991f4" y="282.620731"/>
     <use style="fill:#f7e425;stroke:#f7e425;" x="197.060985" xlink:href="#mf320c991f4" y="280.772346"/>
     <use style="fill:#f7e425;stroke:#f7e425;" x="207.867797" xlink:href="#mf320c991f4" y="276.670849"/>
     <use style="fill:#f7e425;stroke:#f7e425;" x="215.283871" xlink:href="#mf320c991f4" y="270.870961"/>
     <use style="fill:#f7e425;stroke:#f7e425;" x="221.150346" xlink:href="#mf320c991f4" y="264.133546"/>
     <use style="fill:#f7e425;stroke:#f7e425;" x="225.966088" xlink:href="#mf320c991f4" y="257.09824"/>
     <use style="fill:#f7e425;stroke:#f7e425;" x="230.033981" xlink:href="#mf320c991f4" y="250.179096"/>
     <use style="fill:#f7e425;stroke:#f7e425;" x="233.38979" xlink:href="#mf320c991f4" y="243.632485"/>
     <use style="fill:#f7e425;stroke:#f7e425;" x="236.344458" xlink:href="#mf320c991f4" y="237.533116"/>
     <use style="fill:#f7e425;stroke:#f7e425;" x="239.001539" xlink:href="#mf320c991f4" y="231.875305"/>
    </g>
   </g>
   <g id="line2d_24">
    <path clip-path="url(#p62ad876059)" d="M 177.328134 282.722651 
L 195.278314 282.544233 
L 205.837927 282.185748 
L 213.370398 281.633172 
L 219.283074 280.87652 
L 224.070043 279.916946 
L 228.130094 278.759963 
L 231.627654 277.417293 
L 234.761941 275.903339 
L 237.471572 274.23714 
" style="fill:none;stroke:#fcce25;stroke-dasharray:5.55,2.4;stroke-dashoffset:0;stroke-width:1.5;"/>
    <defs>
     <path d="M 0 3 
C 0.795609 3 1.55874 2.683901 2.12132 2.12132 
C 2.683901 1.55874 3 0.795609 3 0 
C 3 -0.795609 2.683901 -1.55874 2.12132 -2.12132 
C 1.55874 -2.683901 0.795609 -3 0 -3 
C -0.795609 -3 -1.55874 -2.683901 -2.12132 -2.12132 
C -2.683901 -1.55874 -3 -0.795609 -3 0 
C -3 0.795609 -2.683901 1.55874 -2.12132 2.12132 
C -1.55874 2.683901 -0.795609 3 0 3 
z
" id="m98390ef858" style="stroke:#fcce25;"/>
    </defs>
    <g clip-path="url(#p62ad876059)">
     <use style="fill:#fcce25;stroke:#fcce25;" x="177.328134" xlink:href="#m98390ef858" y="282.722651"/>
     <use style="fill:#fcce25;stroke:#fcce25;" x="195.278314" xlink:href="#m98390ef858" y="282.544233"/>
     <use style="fill:#fcce25;stroke:#fcce25;" x="205.837927" xlink:href="#m98390ef858" y="282.185748"/>
     <use style="fill:#fcce25;stroke:#fcce25;" x="213.370398" xlink:href="#m98390ef858" y="281.633172"/>
     <use style="fill:#fcce25;stroke:#fcce25;" x="219.283074" xlink:href="#m98390ef858" y="280.87652"/>
     <use style="fill:#fcce25;stroke:#fcce25;" x="224.070043" xlink:href="#m98390ef858" y="279.916946"/>
     <use style="fill:#fcce25;stroke:#fcce25;" x="228.130094" xlink:href="#m98390ef858" y="278.759963"/>
     <use style="fill:#fcce25;stroke:#fcce25;" x="231.627654" xlink:href="#m98390ef858" y="277.417293"/>
     <use style="fill:#fcce25;stroke:#fcce25;" x="234.761941" xlink:href="#m98390ef858" y="275.903339"/>
     <use style="fill:#fcce25;stroke:#fcce25;" x="237.471572" xlink:href="#m98390ef858" y="274.23714"/>
    </g>
   </g>
   <g id="line2d_25">
    <path clip-path="url(#p62ad876059)" d="M 175.641514 277.384291 
L 194.03135 260.496469 
L 204.228932 239.861034 
L 211.678281 221.071414 
L 217.453139 205.732713 
L 221.939356 193.738668 
L 225.912232 184.513547 
L 229.281652 177.466133 
L 232.265821 172.089475 
L 234.958741 167.973276 
" style="fill:none;stroke:#cc4778;stroke-linecap:square;stroke-width:1.5;"/>
    <defs>
     <path d="M -3 -0 
L 3 3 
L 3 -3 
z
" id="m49fb39f267" style="stroke:#cc4778;stroke-linejoin:miter;"/>
    </defs>
    <g clip-path="url(#p62ad876059)">
     <use style="fill:#cc4778;stroke:#cc4778;stroke-linejoin:miter;" x="175.641514" xlink:href="#m49fb39f267" y="277.384291"/>
     <use style="fill:#cc4778;stroke:#cc4778;stroke-linejoin:miter;" x="194.03135" xlink:href="#m49fb39f267" y="260.496469"/>
     <use style="fill:#cc4778;stroke:#cc4778;stroke-linejoin:miter;" x="204.228932" xlink:href="#m49fb39f267" y="239.861034"/>
     <use style="fill:#cc4778;stroke:#cc4778;stroke-linejoin:miter;" x="211.678281" xlink:href="#m49fb39f267" y="221.071414"/>
     <use style="fill:#cc4778;stroke:#cc4778;stroke-linejoin:miter;" x="217.453139" xlink:href="#m49fb39f267" y="205.732713"/>
     <use style="fill:#cc4778;stroke:#cc4778;stroke-linejoin:miter;" x="221.939356" xlink:href="#m49fb39f267" y="193.738668"/>
     <use style="fill:#cc4778;stroke:#cc4778;stroke-linejoin:miter;" x="225.912232" xlink:href="#m49fb39f267" y="184.513547"/>
     <use style="fill:#cc4778;stroke:#cc4778;stroke-linejoin:miter;" x="229.281652" xlink:href="#m49fb39f267" y="177.466133"/>
     <use style="fill:#cc4778;stroke:#cc4778;stroke-linejoin:miter;" x="232.265821" xlink:href="#m49fb39f267" y="172.089475"/>
     <use style="fill:#cc4778;stroke:#cc4778;stroke-linejoin:miter;" x="234.958741" xlink:href="#m49fb39f267" y="167.973276"/>
    </g>
   </g>
   <g id="line2d_26">
    <path clip-path="url(#p62ad876059)" d="M 174.827608 282.76 
L 193.135662 282.76 
L 203.769027 282.76 
L 211.340706 282.76 
L 217.141576 282.76 
L 221.969155 282.76 
L 226.04382 282.76 
L 229.55281 282.76 
L 232.667271 282.76 
" style="fill:none;stroke:#0d0887;stroke-linecap:square;stroke-width:1.5;"/>
   </g>
   <g id="line2d_27">
    <path clip-path="url(#p62ad876059)" d="M 176.226105 281.644523 
L 194.488597 277.614233 
L 205.189771 270.703417 
L 212.695508 261.935339 
L 218.503852 252.227758 
L 223.200052 242.35255 
L 227.288821 232.816478 
L 230.723217 223.909101 
L 233.791473 215.768473 
L 236.519747 208.434104 
" style="fill:none;stroke:#fca636;stroke-linecap:square;stroke-width:1.5;"/>
    <defs>
     <path d="M -0 4.242641 
L 2.545584 0 
L 0 -4.242641 
L -2.545584 -0 
z
" id="maab0f0bc9e" style="stroke:#fca636;stroke-linejoin:miter;"/>
    </defs>
    <g clip-path="url(#p62ad876059)">
     <use style="fill:#fca636;stroke:#fca636;stroke-linejoin:miter;" x="176.226105" xlink:href="#maab0f0bc9e" y="281.644523"/>
     <use style="fill:#fca636;stroke:#fca636;stroke-linejoin:miter;" x="194.488597" xlink:href="#maab0f0bc9e" y="277.614233"/>
     <use style="fill:#fca636;stroke:#fca636;stroke-linejoin:miter;" x="205.189771" xlink:href="#maab0f0bc9e" y="270.703417"/>
     <use style="fill:#fca636;stroke:#fca636;stroke-linejoin:miter;" x="212.695508" xlink:href="#maab0f0bc9e" y="261.935339"/>
     <use style="fill:#fca636;stroke:#fca636;stroke-linejoin:miter;" x="218.503852" xlink:href="#maab0f0bc9e" y="252.227758"/>
     <use style="fill:#fca636;stroke:#fca636;stroke-linejoin:miter;" x="223.200052" xlink:href="#maab0f0bc9e" y="242.35255"/>
     <use style="fill:#fca636;stroke:#fca636;stroke-linejoin:miter;" x="227.288821" xlink:href="#maab0f0bc9e" y="232.816478"/>
     <use style="fill:#fca636;stroke:#fca636;stroke-linejoin:miter;" x="230.723217" xlink:href="#maab0f0bc9e" y="223.909101"/>
     <use style="fill:#fca636;stroke:#fca636;stroke-linejoin:miter;" x="233.791473" xlink:href="#maab0f0bc9e" y="215.768473"/>
     <use style="fill:#fca636;stroke:#fca636;stroke-linejoin:miter;" x="236.519747" xlink:href="#maab0f0bc9e" y="208.434104"/>
    </g>
   </g>
   <g id="line2d_28">
    <path clip-path="url(#p62ad876059)" d="M 175.523057 282.759994 
L 193.701651 282.76 
L 204.366057 282.76 
L 211.80858 282.76 
L 217.723699 282.76 
L 222.578347 282.76 
L 226.527963 282.76 
L 229.930438 282.76 
L 233.063684 282.76 
L 235.86614 282.76 
" style="fill:none;stroke:#e16462;stroke-linecap:square;stroke-width:1.5;"/>
    <defs>
     <path d="M -3 3 
L 3 3 
L 3 -3 
L -3 -3 
z
" id="mae2eef55e7" style="stroke:#e16462;stroke-linejoin:miter;"/>
    </defs>
    <g clip-path="url(#p62ad876059)">
     <use style="fill:#e16462;stroke:#e16462;stroke-linejoin:miter;" x="175.523057" xlink:href="#mae2eef55e7" y="282.759994"/>
     <use style="fill:#e16462;stroke:#e16462;stroke-linejoin:miter;" x="193.701651" xlink:href="#mae2eef55e7" y="282.76"/>
     <use style="fill:#e16462;stroke:#e16462;stroke-linejoin:miter;" x="204.366057" xlink:href="#mae2eef55e7" y="282.76"/>
     <use style="fill:#e16462;stroke:#e16462;stroke-linejoin:miter;" x="211.80858" xlink:href="#mae2eef55e7" y="282.76"/>
     <use style="fill:#e16462;stroke:#e16462;stroke-linejoin:miter;" x="217.723699" xlink:href="#mae2eef55e7" y="282.76"/>
     <use style="fill:#e16462;stroke:#e16462;stroke-linejoin:miter;" x="222.578347" xlink:href="#mae2eef55e7" y="282.76"/>
     <use style="fill:#e16462;stroke:#e16462;stroke-linejoin:miter;" x="226.527963" xlink:href="#mae2eef55e7" y="282.76"/>
     <use style="fill:#e16462;stroke:#e16462;stroke-linejoin:miter;" x="229.930438" xlink:href="#mae2eef55e7" y="282.76"/>
     <use style="fill:#e16462;stroke:#e16462;stroke-linejoin:miter;" x="233.063684" xlink:href="#mae2eef55e7" y="282.76"/>
     <use style="fill:#e16462;stroke:#e16462;stroke-linejoin:miter;" x="235.86614" xlink:href="#mae2eef55e7" y="282.76"/>
    </g>
   </g>
   <g id="patch_3">
    <path d="M 156.721315 282.76 
L 156.721315 25.92 
" style="fill:none;stroke:#000000;stroke-linecap:square;stroke-linejoin:miter;stroke-width:0.8;"/>
   </g>
   <g id="patch_4">
    <path d="M 429.755 282.76 
L 429.755 25.92 
" style="fill:none;stroke:#000000;stroke-linecap:square;stroke-linejoin:miter;stroke-width:0.8;"/>
   </g>
   <g id="patch_5">
    <path d="M 156.721315 282.76 
L 429.755 282.76 
" style="fill:none;stroke:#000000;stroke-linecap:square;stroke-linejoin:miter;stroke-width:0.8;"/>
   </g>
   <g id="patch_6">
    <path d="M 156.721315 25.92 
L 429.755 25.92 
" style="fill:none;stroke:#000000;stroke-linecap:square;stroke-linejoin:miter;stroke-width:0.8;"/>
   </g>
   <g id="text_19">
    <!-- /azp/agent/_work/1/s/tomopy.github.io/2021-02-10/peppers -->
    <g transform="translate(114.927532 19.92)scale(0.12 -0.12)">
     <defs>
      <path d="M 25.390625 72.90625 
L 33.6875 72.90625 
L 8.296875 -9.28125 
L 0 -9.28125 
z
" id="DejaVuSans-47"/>
      <path d="M 5.515625 54.6875 
L 48.1875 54.6875 
L 48.1875 46.484375 
L 14.40625 7.171875 
L 48.1875 7.171875 
L 48.1875 0 
L 4.296875 0 
L 4.296875 8.203125 
L 38.09375 47.515625 
L 5.515625 47.515625 
z
" id="DejaVuSans-122"/>
      <path d="M 45.40625 27.984375 
Q 45.40625 37.75 41.375 43.109375 
Q 37.359375 48.484375 30.078125 48.484375 
Q 22.859375 48.484375 18.828125 43.109375 
Q 14.796875 37.75 14.796875 27.984375 
Q 14.796875 18.265625 18.828125 12.890625 
Q 22.859375 7.515625 30.078125 7.515625 
Q 37.359375 7.515625 41.375 12.890625 
Q 45.40625 18.265625 45.40625 27.984375 
z
M 54.390625 6.78125 
Q 54.390625 -7.171875 48.1875 -13.984375 
Q 42 -20.796875 29.203125 -20.796875 
Q 24.46875 -20.796875 20.265625 -20.09375 
Q 16.0625 -19.390625 12.109375 -17.921875 
L 12.109375 -9.1875 
Q 16.0625 -11.328125 19.921875 -12.34375 
Q 23.78125 -13.375 27.78125 -13.375 
Q 36.625 -13.375 41.015625 -8.765625 
Q 45.40625 -4.15625 45.40625 5.171875 
L 45.40625 9.625 
Q 42.625 4.78125 38.28125 2.390625 
Q 33.9375 0 27.875 0 
Q 17.828125 0 11.671875 7.65625 
Q 5.515625 15.328125 5.515625 27.984375 
Q 5.515625 40.671875 11.671875 48.328125 
Q 17.828125 56 27.875 56 
Q 33.9375 56 38.28125 53.609375 
Q 42.625 51.21875 45.40625 46.390625 
L 45.40625 54.6875 
L 54.390625 54.6875 
z
" id="DejaVuSans-103"/>
      <path d="M 50.984375 -16.609375 
L 50.984375 -23.578125 
L -0.984375 -23.578125 
L -0.984375 -16.609375 
z
" id="DejaVuSans-95"/>
      <path d="M 30.609375 48.390625 
Q 23.390625 48.390625 19.1875 42.75 
Q 14.984375 37.109375 14.984375 27.296875 
Q 14.984375 17.484375 19.15625 11.84375 
Q 23.34375 6.203125 30.609375 6.203125 
Q 37.796875 6.203125 41.984375 11.859375 
Q 46.1875 17.53125 46.1875 27.296875 
Q 46.1875 37.015625 41.984375 42.703125 
Q 37.796875 48.390625 30.609375 48.390625 
z
M 30.609375 56 
Q 42.328125 56 49.015625 48.375 
Q 55.71875 40.765625 55.71875 27.296875 
Q 55.71875 13.875 49.015625 6.21875 
Q 42.328125 -1.421875 30.609375 -1.421875 
Q 18.84375 -1.421875 12.171875 6.21875 
Q 5.515625 13.875 5.515625 27.296875 
Q 5.515625 40.765625 12.171875 48.375 
Q 18.84375 56 30.609375 56 
z
" id="DejaVuSans-111"/>
      <path d="M 9.078125 75.984375 
L 18.109375 75.984375 
L 18.109375 31.109375 
L 44.921875 54.6875 
L 56.390625 54.6875 
L 27.390625 29.109375 
L 57.625 0 
L 45.90625 0 
L 18.109375 26.703125 
L 18.109375 0 
L 9.078125 0 
z
" id="DejaVuSans-107"/>
      <path d="M 32.171875 -5.078125 
Q 28.375 -14.84375 24.75 -17.8125 
Q 21.140625 -20.796875 15.09375 -20.796875 
L 7.90625 -20.796875 
L 7.90625 -13.28125 
L 13.1875 -13.28125 
Q 16.890625 -13.28125 18.9375 -11.515625 
Q 21 -9.765625 23.484375 -3.21875 
L 25.09375 0.875 
L 2.984375 54.6875 
L 12.5 54.6875 
L 29.59375 11.921875 
L 46.6875 54.6875 
L 56.203125 54.6875 
z
" id="DejaVuSans-121"/>
      <path d="M 8.5 21.578125 
L 8.5 54.6875 
L 17.484375 54.6875 
L 17.484375 21.921875 
Q 17.484375 14.15625 20.5 10.265625 
Q 23.53125 6.390625 29.59375 6.390625 
Q 36.859375 6.390625 41.078125 11.03125 
Q 45.3125 15.671875 45.3125 23.6875 
L 45.3125 54.6875 
L 54.296875 54.6875 
L 54.296875 0 
L 45.3125 0 
L 45.3125 8.40625 
Q 42.046875 3.421875 37.71875 1 
Q 33.40625 -1.421875 27.6875 -1.421875 
Q 18.265625 -1.421875 13.375 4.4375 
Q 8.5 10.296875 8.5 21.578125 
z
M 31.109375 56 
z
" id="DejaVuSans-117"/>
      <path d="M 48.6875 27.296875 
Q 48.6875 37.203125 44.609375 42.84375 
Q 40.53125 48.484375 33.40625 48.484375 
Q 26.265625 48.484375 22.1875 42.84375 
Q 18.109375 37.203125 18.109375 27.296875 
Q 18.109375 17.390625 22.1875 11.75 
Q 26.265625 6.109375 33.40625 6.109375 
Q 40.53125 6.109375 44.609375 11.75 
Q 48.6875 17.390625 48.6875 27.296875 
z
M 18.109375 46.390625 
Q 20.953125 51.265625 25.265625 53.625 
Q 29.59375 56 35.59375 56 
Q 45.5625 56 51.78125 48.09375 
Q 58.015625 40.1875 58.015625 27.296875 
Q 58.015625 14.40625 51.78125 6.484375 
Q 45.5625 -1.421875 35.59375 -1.421875 
Q 29.59375 -1.421875 25.265625 0.953125 
Q 20.953125 3.328125 18.109375 8.203125 
L 18.109375 0 
L 9.078125 0 
L 9.078125 75.984375 
L 18.109375 75.984375 
z
" id="DejaVuSans-98"/>
     </defs>
     <use xlink:href="#DejaVuSans-47"/>
     <use x="33.691406" xlink:href="#DejaVuSans-97"/>
     <use x="94.970703" xlink:href="#DejaVuSans-122"/>
     <use x="147.460938" xlink:href="#DejaVuSans-112"/>
     <use x="210.9375" xlink:href="#DejaVuSans-47"/>
     <use x="244.628906" xlink:href="#DejaVuSans-97"/>
     <use x="305.908203" xlink:href="#DejaVuSans-103"/>
     <use x="369.384766" xlink:href="#DejaVuSans-101"/>
     <use x="430.908203" xlink:href="#DejaVuSans-110"/>
     <use x="494.287109" xlink:href="#DejaVuSans-116"/>
     <use x="533.496094" xlink:href="#DejaVuSans-47"/>
     <use x="567.1875" xlink:href="#DejaVuSans-95"/>
     <use x="617.1875" xlink:href="#DejaVuSans-119"/>
     <use x="698.974609" xlink:href="#DejaVuSans-111"/>
     <use x="760.15625" xlink:href="#DejaVuSans-114"/>
     <use x="801.269531" xlink:href="#DejaVuSans-107"/>
     <use x="859.179688" xlink:href="#DejaVuSans-47"/>
     <use x="892.871094" xlink:href="#DejaVuSans-49"/>
     <use x="956.494141" xlink:href="#DejaVuSans-47"/>
     <use x="990.185547" xlink:href="#DejaVuSans-115"/>
     <use x="1042.285156" xlink:href="#DejaVuSans-47"/>
     <use x="1075.976562" xlink:href="#DejaVuSans-116"/>
     <use x="1115.185547" xlink:href="#DejaVuSans-111"/>
     <use x="1176.367188" xlink:href="#DejaVuSans-109"/>
     <use x="1273.779297" xlink:href="#DejaVuSans-111"/>
     <use x="1334.960938" xlink:href="#DejaVuSans-112"/>
     <use x="1398.4375" xlink:href="#DejaVuSans-121"/>
     <use x="1443.367188" xlink:href="#DejaVuSans-46"/>
     <use x="1475.154297" xlink:href="#DejaVuSans-103"/>
     <use x="1538.630859" xlink:href="#DejaVuSans-105"/>
     <use x="1566.414062" xlink:href="#DejaVuSans-116"/>
     <use x="1605.623047" xlink:href="#DejaVuSans-104"/>
     <use x="1669.001953" xlink:href="#DejaVuSans-117"/>
     <use x="1732.380859" xlink:href="#DejaVuSans-98"/>
     <use x="1795.857422" xlink:href="#DejaVuSans-46"/>
     <use x="1827.644531" xlink:href="#DejaVuSans-105"/>
     <use x="1855.427734" xlink:href="#DejaVuSans-111"/>
     <use x="1916.609375" xlink:href="#DejaVuSans-47"/>
     <use x="1950.300781" xlink:href="#DejaVuSans-50"/>
     <use x="2013.923828" xlink:href="#DejaVuSans-48"/>
     <use x="2077.546875" xlink:href="#DejaVuSans-50"/>
     <use x="2141.169922" xlink:href="#DejaVuSans-49"/>
     <use x="2204.792969" xlink:href="#DejaVuSans-45"/>
     <use x="2240.876953" xlink:href="#DejaVuSans-48"/>
     <use x="2304.5" xlink:href="#DejaVuSans-50"/>
     <use x="2368.123047" xlink:href="#DejaVuSans-45"/>
     <use x="2404.207031" xlink:href="#DejaVuSans-49"/>
     <use x="2467.830078" xlink:href="#DejaVuSans-48"/>
     <use x="2531.453125" xlink:href="#DejaVuSans-47"/>
     <use x="2565.144531" xlink:href="#DejaVuSans-112"/>
     <use x="2628.621094" xlink:href="#DejaVuSans-101"/>
     <use x="2690.144531" xlink:href="#DejaVuSans-112"/>
     <use x="2753.621094" xlink:href="#DejaVuSans-112"/>
     <use x="2817.097656" xlink:href="#DejaVuSans-101"/>
     <use x="2878.621094" xlink:href="#DejaVuSans-114"/>
     <use x="2919.734375" xlink:href="#DejaVuSans-115"/>
    </g>
   </g>
   <g id="legend_1">
    <g id="patch_7">
     <path d="M 445.406684 206.17 
L 554.444184 206.17 
Q 556.444184 206.17 556.444184 204.17 
L 556.444184 27.92 
Q 556.444184 25.92 554.444184 25.92 
L 445.406684 25.92 
Q 443.406684 25.92 443.406684 27.92 
L 443.406684 204.17 
Q 443.406684 206.17 445.406684 206.17 
z
" style="fill:#ffffff;opacity:0.8;stroke:#cccccc;stroke-linejoin:miter;"/>
    </g>
    <g id="LineCollection_13">
     <path d="M 462.406684 39.018437 
L 462.406684 29.018437 
" style="fill:none;stroke:#0d0887;stroke-width:1.5;"/>
    </g>
    <g id="line2d_29"/>
    <g id="line2d_30">
     <g>
      <use style="fill:#0d0887;stroke:#0d0887;" x="462.406684" xlink:href="#ma2d39e9d79" y="34.018437"/>
     </g>
    </g>
    <g id="text_20">
     <!-- gridrec -->
     <g transform="translate(485.406684 37.518437)scale(0.1 -0.1)">
      <use xlink:href="#DejaVuSans-103"/>
      <use x="63.476562" xlink:href="#DejaVuSans-114"/>
      <use x="104.589844" xlink:href="#DejaVuSans-105"/>
      <use x="132.373047" xlink:href="#DejaVuSans-100"/>
      <use x="195.849609" xlink:href="#DejaVuSans-114"/>
      <use x="234.712891" xlink:href="#DejaVuSans-101"/>
      <use x="296.236328" xlink:href="#DejaVuSans-99"/>
     </g>
    </g>
    <g id="LineCollection_14">
     <path d="M 462.406684 53.696562 
L 462.406684 43.696562 
" style="fill:none;stroke:#41049d;stroke-width:1.5;"/>
    </g>
    <g id="line2d_31"/>
    <g id="line2d_32">
     <g>
      <use style="fill:#41049d;stroke:#41049d;stroke-linejoin:miter;" x="462.406684" xlink:href="#m49dc5a1e62" y="48.696562"/>
     </g>
    </g>
    <g id="text_21">
     <!-- fbp -->
     <g transform="translate(485.406684 52.196562)scale(0.1 -0.1)">
      <defs>
       <path d="M 37.109375 75.984375 
L 37.109375 68.5 
L 28.515625 68.5 
Q 23.6875 68.5 21.796875 66.546875 
Q 19.921875 64.59375 19.921875 59.515625 
L 19.921875 54.6875 
L 34.71875 54.6875 
L 34.71875 47.703125 
L 19.921875 47.703125 
L 19.921875 0 
L 10.890625 0 
L 10.890625 47.703125 
L 2.296875 47.703125 
L 2.296875 54.6875 
L 10.890625 54.6875 
L 10.890625 58.5 
Q 10.890625 67.625 15.140625 71.796875 
Q 19.390625 75.984375 28.609375 75.984375 
z
" id="DejaVuSans-102"/>
      </defs>
      <use xlink:href="#DejaVuSans-102"/>
      <use x="35.205078" xlink:href="#DejaVuSans-98"/>
      <use x="98.681641" xlink:href="#DejaVuSans-112"/>
     </g>
    </g>
    <g id="LineCollection_15">
     <path d="M 462.406684 68.374687 
L 462.406684 58.374687 
" style="fill:none;stroke:#f0f921;stroke-width:1.5;"/>
    </g>
    <g id="line2d_33">
     <path d="M 447.406684 63.374687 
L 477.406684 63.374687 
" style="fill:none;stroke:#f0f921;stroke-linecap:square;stroke-width:1.5;"/>
    </g>
    <g id="line2d_34">
     <g>
      <use style="fill:#f0f921;stroke:#f0f921;" x="462.406684" xlink:href="#m7808465839" y="63.374687"/>
     </g>
    </g>
    <g id="text_22">
     <!-- mlem -->
     <g transform="translate(485.406684 66.874687)scale(0.1 -0.1)">
      <use xlink:href="#DejaVuSans-109"/>
      <use x="97.412109" xlink:href="#DejaVuSans-108"/>
      <use x="125.195312" xlink:href="#DejaVuSans-101"/>
      <use x="186.71875" xlink:href="#DejaVuSans-109"/>
     </g>
    </g>
    <g id="LineCollection_16">
     <path d="M 462.406684 83.052812 
L 462.406684 73.052812 
" style="fill:none;stroke:#ea7457;stroke-width:1.5;"/>
    </g>
    <g id="line2d_35">
     <path d="M 447.406684 78.052812 
L 477.406684 78.052812 
" style="fill:none;stroke:#ea7457;stroke-linecap:square;stroke-width:1.5;"/>
    </g>
    <g id="line2d_36">
     <g>
      <use style="fill:#ea7457;stroke:#ea7457;stroke-linejoin:miter;" x="462.406684" xlink:href="#m9f2743afa6" y="78.052812"/>
     </g>
    </g>
    <g id="text_23">
     <!-- osem -->
     <g transform="translate(485.406684 81.552812)scale(0.1 -0.1)">
      <use xlink:href="#DejaVuSans-111"/>
      <use x="61.181641" xlink:href="#DejaVuSans-115"/>
      <use x="113.28125" xlink:href="#DejaVuSans-101"/>
      <use x="174.804688" xlink:href="#DejaVuSans-109"/>
     </g>
    </g>
    <g id="LineCollection_17">
     <path d="M 462.406684 97.730937 
L 462.406684 87.730937 
" style="fill:none;stroke:#f2844b;stroke-width:1.5;"/>
    </g>
    <g id="line2d_37">
     <path d="M 447.406684 92.730937 
L 477.406684 92.730937 
" style="fill:none;stroke:#f2844b;stroke-dasharray:1.5,2.475;stroke-dashoffset:0;stroke-width:1.5;"/>
    </g>
    <g id="line2d_38">
     <g>
      <use style="fill:#f2844b;stroke:#f2844b;stroke-linejoin:miter;" x="462.406684" xlink:href="#m1b6d835b0e" y="92.730937"/>
     </g>
    </g>
    <g id="text_24">
     <!-- ospml_hybrid -->
     <g transform="translate(485.406684 96.230937)scale(0.1 -0.1)">
      <use xlink:href="#DejaVuSans-111"/>
      <use x="61.181641" xlink:href="#DejaVuSans-115"/>
      <use x="113.28125" xlink:href="#DejaVuSans-112"/>
      <use x="176.757812" xlink:href="#DejaVuSans-109"/>
      <use x="274.169922" xlink:href="#DejaVuSans-108"/>
      <use x="301.953125" xlink:href="#DejaVuSans-95"/>
      <use x="351.953125" xlink:href="#DejaVuSans-104"/>
      <use x="415.332031" xlink:href="#DejaVuSans-121"/>
      <use x="474.511719" xlink:href="#DejaVuSans-98"/>
      <use x="537.988281" xlink:href="#DejaVuSans-114"/>
      <use x="579.101562" xlink:href="#DejaVuSans-105"/>
      <use x="606.884766" xlink:href="#DejaVuSans-100"/>
     </g>
    </g>
    <g id="LineCollection_18">
     <path d="M 462.406684 112.687187 
L 462.406684 102.687187 
" style="fill:none;stroke:#f89540;stroke-width:1.5;"/>
    </g>
    <g id="line2d_39">
     <path d="M 447.406684 107.687187 
L 477.406684 107.687187 
" style="fill:none;stroke:#f89540;stroke-dasharray:5.55,2.4;stroke-dashoffset:0;stroke-width:1.5;"/>
    </g>
    <g id="line2d_40">
     <g>
      <use style="fill:#f89540;stroke:#f89540;stroke-linejoin:miter;" x="462.406684" xlink:href="#mfc67724691" y="107.687187"/>
     </g>
    </g>
    <g id="text_25">
     <!-- ospml_quad -->
     <g transform="translate(485.406684 111.187187)scale(0.1 -0.1)">
      <defs>
       <path d="M 14.796875 27.296875 
Q 14.796875 17.390625 18.875 11.75 
Q 22.953125 6.109375 30.078125 6.109375 
Q 37.203125 6.109375 41.296875 11.75 
Q 45.40625 17.390625 45.40625 27.296875 
Q 45.40625 37.203125 41.296875 42.84375 
Q 37.203125 48.484375 30.078125 48.484375 
Q 22.953125 48.484375 18.875 42.84375 
Q 14.796875 37.203125 14.796875 27.296875 
z
M 45.40625 8.203125 
Q 42.578125 3.328125 38.25 0.953125 
Q 33.9375 -1.421875 27.875 -1.421875 
Q 17.96875 -1.421875 11.734375 6.484375 
Q 5.515625 14.40625 5.515625 27.296875 
Q 5.515625 40.1875 11.734375 48.09375 
Q 17.96875 56 27.875 56 
Q 33.9375 56 38.25 53.625 
Q 42.578125 51.265625 45.40625 46.390625 
L 45.40625 54.6875 
L 54.390625 54.6875 
L 54.390625 -20.796875 
L 45.40625 -20.796875 
z
" id="DejaVuSans-113"/>
      </defs>
      <use xlink:href="#DejaVuSans-111"/>
      <use x="61.181641" xlink:href="#DejaVuSans-115"/>
      <use x="113.28125" xlink:href="#DejaVuSans-112"/>
      <use x="176.757812" xlink:href="#DejaVuSans-109"/>
      <use x="274.169922" xlink:href="#DejaVuSans-108"/>
      <use x="301.953125" xlink:href="#DejaVuSans-95"/>
      <use x="351.953125" xlink:href="#DejaVuSans-113"/>
      <use x="415.429688" xlink:href="#DejaVuSans-117"/>
      <use x="478.808594" xlink:href="#DejaVuSans-97"/>
      <use x="540.087891" xlink:href="#DejaVuSans-100"/>
     </g>
    </g>
    <g id="LineCollection_19">
     <path d="M 462.406684 127.643437 
L 462.406684 117.643437 
" style="fill:none;stroke:#f7e425;stroke-width:1.5;"/>
    </g>
    <g id="line2d_41">
     <path d="M 447.406684 122.643437 
L 477.406684 122.643437 
" style="fill:none;stroke:#f7e425;stroke-dasharray:1.5,2.475;stroke-dashoffset:0;stroke-width:1.5;"/>
    </g>
    <g id="line2d_42">
     <g>
      <use style="fill:#f7e425;stroke:#f7e425;" x="462.406684" xlink:href="#mf320c991f4" y="122.643437"/>
     </g>
    </g>
    <g id="text_26">
     <!-- pml_hybrid -->
     <g transform="translate(485.406684 126.143437)scale(0.1 -0.1)">
      <use xlink:href="#DejaVuSans-112"/>
      <use x="63.476562" xlink:href="#DejaVuSans-109"/>
      <use x="160.888672" xlink:href="#DejaVuSans-108"/>
      <use x="188.671875" xlink:href="#DejaVuSans-95"/>
      <use x="238.671875" xlink:href="#DejaVuSans-104"/>
      <use x="302.050781" xlink:href="#DejaVuSans-121"/>
      <use x="361.230469" xlink:href="#DejaVuSans-98"/>
      <use x="424.707031" xlink:href="#DejaVuSans-114"/>
      <use x="465.820312" xlink:href="#DejaVuSans-105"/>
      <use x="493.603516" xlink:href="#DejaVuSans-100"/>
     </g>
    </g>
    <g id="LineCollection_20">
     <path d="M 462.406684 142.599687 
L 462.406684 132.599687 
" style="fill:none;stroke:#fcce25;stroke-width:1.5;"/>
    </g>
    <g id="line2d_43">
     <path d="M 447.406684 137.599687 
L 477.406684 137.599687 
" style="fill:none;stroke:#fcce25;stroke-dasharray:5.55,2.4;stroke-dashoffset:0;stroke-width:1.5;"/>
    </g>
    <g id="line2d_44">
     <g>
      <use style="fill:#fcce25;stroke:#fcce25;" x="462.406684" xlink:href="#m98390ef858" y="137.599687"/>
     </g>
    </g>
    <g id="text_27">
     <!-- pml_quad -->
     <g transform="translate(485.406684 141.099687)scale(0.1 -0.1)">
      <use xlink:href="#DejaVuSans-112"/>
      <use x="63.476562" xlink:href="#DejaVuSans-109"/>
      <use x="160.888672" xlink:href="#DejaVuSans-108"/>
      <use x="188.671875" xlink:href="#DejaVuSans-95"/>
      <use x="238.671875" xlink:href="#DejaVuSans-113"/>
      <use x="302.148438" xlink:href="#DejaVuSans-117"/>
      <use x="365.527344" xlink:href="#DejaVuSans-97"/>
      <use x="426.806641" xlink:href="#DejaVuSans-100"/>
     </g>
    </g>
    <g id="LineCollection_21">
     <path d="M 462.406684 157.555937 
L 462.406684 147.555937 
" style="fill:none;stroke:#cc4778;stroke-width:1.5;"/>
    </g>
    <g id="line2d_45">
     <path d="M 447.406684 152.555937 
L 477.406684 152.555937 
" style="fill:none;stroke:#cc4778;stroke-linecap:square;stroke-width:1.5;"/>
    </g>
    <g id="line2d_46">
     <g>
      <use style="fill:#cc4778;stroke:#cc4778;stroke-linejoin:miter;" x="462.406684" xlink:href="#m49fb39f267" y="152.555937"/>
     </g>
    </g>
    <g id="text_28">
     <!-- sirt -->
     <g transform="translate(485.406684 156.055937)scale(0.1 -0.1)">
      <use xlink:href="#DejaVuSans-115"/>
      <use x="52.099609" xlink:href="#DejaVuSans-105"/>
      <use x="79.882812" xlink:href="#DejaVuSans-114"/>
      <use x="120.996094" xlink:href="#DejaVuSans-116"/>
     </g>
    </g>
    <g id="LineCollection_22">
     <path d="M 462.406684 172.234062 
L 462.406684 162.234062 
" style="fill:none;stroke:#0d0887;stroke-width:1.5;"/>
    </g>
    <g id="line2d_47">
     <path d="M 447.406684 167.234062 
L 477.406684 167.234062 
" style="fill:none;stroke:#0d0887;stroke-linecap:square;stroke-width:1.5;"/>
    </g>
    <g id="line2d_48"/>
    <g id="text_29">
     <!-- tikh -->
     <g transform="translate(485.406684 170.734062)scale(0.1 -0.1)">
      <use xlink:href="#DejaVuSans-116"/>
      <use x="39.208984" xlink:href="#DejaVuSans-105"/>
      <use x="66.992188" xlink:href="#DejaVuSans-107"/>
      <use x="124.902344" xlink:href="#DejaVuSans-104"/>
     </g>
    </g>
    <g id="LineCollection_23">
     <path d="M 462.406684 186.912187 
L 462.406684 176.912187 
" style="fill:none;stroke:#fca636;stroke-width:1.5;"/>
    </g>
    <g id="line2d_49">
     <path d="M 447.406684 181.912187 
L 477.406684 181.912187 
" style="fill:none;stroke:#fca636;stroke-linecap:square;stroke-width:1.5;"/>
    </g>
    <g id="line2d_50">
     <g>
      <use style="fill:#fca636;stroke:#fca636;stroke-linejoin:miter;" x="462.406684" xlink:href="#maab0f0bc9e" y="181.912187"/>
     </g>
    </g>
    <g id="text_30">
     <!-- tv -->
     <g transform="translate(485.406684 185.412187)scale(0.1 -0.1)">
      <defs>
       <path d="M 2.984375 54.6875 
L 12.5 54.6875 
L 29.59375 8.796875 
L 46.6875 54.6875 
L 56.203125 54.6875 
L 35.6875 0 
L 23.484375 0 
z
" id="DejaVuSans-118"/>
      </defs>
      <use xlink:href="#DejaVuSans-116"/>
      <use x="39.208984" xlink:href="#DejaVuSans-118"/>
     </g>
    </g>
    <g id="LineCollection_24">
     <path d="M 462.406684 201.590312 
L 462.406684 191.590312 
" style="fill:none;stroke:#e16462;stroke-width:1.5;"/>
    </g>
    <g id="line2d_51">
     <path d="M 447.406684 196.590312 
L 477.406684 196.590312 
" style="fill:none;stroke:#e16462;stroke-linecap:square;stroke-width:1.5;"/>
    </g>
    <g id="line2d_52">
     <g>
      <use style="fill:#e16462;stroke:#e16462;stroke-linejoin:miter;" x="462.406684" xlink:href="#mae2eef55e7" y="196.590312"/>
     </g>
    </g>
    <g id="text_31">
     <!-- grad -->
     <g transform="translate(485.406684 200.090312)scale(0.1 -0.1)">
      <use xlink:href="#DejaVuSans-103"/>
      <use x="63.476562" xlink:href="#DejaVuSans-114"/>
      <use x="104.589844" xlink:href="#DejaVuSans-97"/>
      <use x="165.869141" xlink:href="#DejaVuSans-100"/>
     </g>
    </g>
   </g>
  </g>
 </g>
 <defs>
  <clipPath id="p62ad876059">
   <rect height="256.84" width="273.033685" x="156.721315" y="25.92"/>
  </clipPath>
 </defs>
</svg>
