<?xml version="1.0" encoding="utf-8" standalone="no"?>
<!DOCTYPE svg PUBLIC "-//W3C//DTD SVG 1.1//EN"
  "http://www.w3.org/Graphics/SVG/1.1/DTD/svg11.dtd">
<!-- Created with matplotlib (https://matplotlib.org/) -->
<svg height="324pt" version="1.1" viewBox="0 0 576 324" width="576pt" xmlns="http://www.w3.org/2000/svg" xmlns:xlink="http://www.w3.org/1999/xlink">
 <metadata>
  <rdf:RDF xmlns:cc="http://creativecommons.org/ns#" xmlns:dc="http://purl.org/dc/elements/1.1/" xmlns:rdf="http://www.w3.org/1999/02/22-rdf-syntax-ns#">
   <cc:Work>
    <dc:type rdf:resource="http://purl.org/dc/dcmitype/StillImage"/>
    <dc:date>2021-02-10T23:36:28.218981</dc:date>
    <dc:format>image/svg+xml</dc:format>
    <dc:creator>
     <cc:Agent>
      <dc:title>Matplotlib v3.3.2, https://matplotlib.org/</dc:title>
     </cc:Agent>
    </dc:creator>
   </cc:Work>
  </rdf:RDF>
 </metadata>
 <defs>
  <style type="text/css">*{stroke-linecap:butt;stroke-linejoin:round;}</style>
 </defs>
 <g id="figure_1">
  <g id="patch_1">
   <path d="M 0 324 
L 576 324 
L 576 0 
L 0 0 
z
" style="fill:#ffffff;"/>
  </g>
  <g id="axes_1">
   <g id="patch_2">
    <path d="M 153.629473 282.76 
L 429.755 282.76 
L 429.755 25.92 
L 153.629473 25.92 
z
" style="fill:#ffffff;"/>
   </g>
   <g id="matplotlib.axis_1">
    <g id="xtick_1">
     <g id="line2d_1">
      <defs>
       <path d="M 0 0 
L 0 3.5 
" id="m0e4ce52953" style="stroke:#000000;stroke-width:0.8;"/>
      </defs>
      <g>
       <use style="stroke:#000000;stroke-width:0.8;" x="153.629473" xlink:href="#m0e4ce52953" y="282.76"/>
      </g>
     </g>
     <g id="text_1">
      <!-- 0.1s -->
      <g transform="translate(143.073223 297.358438)scale(0.1 -0.1)">
       <defs>
        <path d="M 31.78125 66.40625 
Q 24.171875 66.40625 20.328125 58.90625 
Q 16.5 51.421875 16.5 36.375 
Q 16.5 21.390625 20.328125 13.890625 
Q 24.171875 6.390625 31.78125 6.390625 
Q 39.453125 6.390625 43.28125 13.890625 
Q 47.125 21.390625 47.125 36.375 
Q 47.125 51.421875 43.28125 58.90625 
Q 39.453125 66.40625 31.78125 66.40625 
z
M 31.78125 74.21875 
Q 44.046875 74.21875 50.515625 64.515625 
Q 56.984375 54.828125 56.984375 36.375 
Q 56.984375 17.96875 50.515625 8.265625 
Q 44.046875 -1.421875 31.78125 -1.421875 
Q 19.53125 -1.421875 13.0625 8.265625 
Q 6.59375 17.96875 6.59375 36.375 
Q 6.59375 54.828125 13.0625 64.515625 
Q 19.53125 74.21875 31.78125 74.21875 
z
" id="DejaVuSans-48"/>
        <path d="M 10.6875 12.40625 
L 21 12.40625 
L 21 0 
L 10.6875 0 
z
" id="DejaVuSans-46"/>
        <path d="M 12.40625 8.296875 
L 28.515625 8.296875 
L 28.515625 63.921875 
L 10.984375 60.40625 
L 10.984375 69.390625 
L 28.421875 72.90625 
L 38.28125 72.90625 
L 38.28125 8.296875 
L 54.390625 8.296875 
L 54.390625 0 
L 12.40625 0 
z
" id="DejaVuSans-49"/>
        <path d="M 44.28125 53.078125 
L 44.28125 44.578125 
Q 40.484375 46.53125 36.375 47.5 
Q 32.28125 48.484375 27.875 48.484375 
Q 21.1875 48.484375 17.84375 46.4375 
Q 14.5 44.390625 14.5 40.28125 
Q 14.5 37.15625 16.890625 35.375 
Q 19.28125 33.59375 26.515625 31.984375 
L 29.59375 31.296875 
Q 39.15625 29.25 43.1875 25.515625 
Q 47.21875 21.78125 47.21875 15.09375 
Q 47.21875 7.46875 41.1875 3.015625 
Q 35.15625 -1.421875 24.609375 -1.421875 
Q 20.21875 -1.421875 15.453125 -0.5625 
Q 10.6875 0.296875 5.421875 2 
L 5.421875 11.28125 
Q 10.40625 8.6875 15.234375 7.390625 
Q 20.0625 6.109375 24.8125 6.109375 
Q 31.15625 6.109375 34.5625 8.28125 
Q 37.984375 10.453125 37.984375 14.40625 
Q 37.984375 18.0625 35.515625 20.015625 
Q 33.0625 21.96875 24.703125 23.78125 
L 21.578125 24.515625 
Q 13.234375 26.265625 9.515625 29.90625 
Q 5.8125 33.546875 5.8125 39.890625 
Q 5.8125 47.609375 11.28125 51.796875 
Q 16.75 56 26.8125 56 
Q 31.78125 56 36.171875 55.265625 
Q 40.578125 54.546875 44.28125 53.078125 
z
" id="DejaVuSans-115"/>
       </defs>
       <use xlink:href="#DejaVuSans-48"/>
       <use x="63.623047" xlink:href="#DejaVuSans-46"/>
       <use x="95.410156" xlink:href="#DejaVuSans-49"/>
       <use x="159.033203" xlink:href="#DejaVuSans-115"/>
      </g>
     </g>
    </g>
    <g id="xtick_2">
     <g id="line2d_2">
      <g>
       <use style="stroke:#000000;stroke-width:0.8;" x="214.232457" xlink:href="#m0e4ce52953" y="282.76"/>
      </g>
     </g>
     <g id="text_2">
      <!-- 1s -->
      <g transform="translate(208.446519 297.358438)scale(0.1 -0.1)">
       <use xlink:href="#DejaVuSans-49"/>
       <use x="63.623047" xlink:href="#DejaVuSans-115"/>
      </g>
     </g>
    </g>
    <g id="xtick_3">
     <g id="line2d_3">
      <g>
       <use style="stroke:#000000;stroke-width:0.8;" x="256.592125" xlink:href="#m0e4ce52953" y="282.76"/>
      </g>
     </g>
     <g id="text_3">
      <!-- 5s -->
      <g transform="translate(250.806187 297.358438)scale(0.1 -0.1)">
       <defs>
        <path d="M 10.796875 72.90625 
L 49.515625 72.90625 
L 49.515625 64.59375 
L 19.828125 64.59375 
L 19.828125 46.734375 
Q 21.96875 47.46875 24.109375 47.828125 
Q 26.265625 48.1875 28.421875 48.1875 
Q 40.625 48.1875 47.75 41.5 
Q 54.890625 34.8125 54.890625 23.390625 
Q 54.890625 11.625 47.5625 5.09375 
Q 40.234375 -1.421875 26.90625 -1.421875 
Q 22.3125 -1.421875 17.546875 -0.640625 
Q 12.796875 0.140625 7.71875 1.703125 
L 7.71875 11.625 
Q 12.109375 9.234375 16.796875 8.0625 
Q 21.484375 6.890625 26.703125 6.890625 
Q 35.15625 6.890625 40.078125 11.328125 
Q 45.015625 15.765625 45.015625 23.390625 
Q 45.015625 31 40.078125 35.4375 
Q 35.15625 39.890625 26.703125 39.890625 
Q 22.75 39.890625 18.8125 39.015625 
Q 14.890625 38.140625 10.796875 36.28125 
z
" id="DejaVuSans-53"/>
       </defs>
       <use xlink:href="#DejaVuSans-53"/>
       <use x="63.623047" xlink:href="#DejaVuSans-115"/>
      </g>
     </g>
    </g>
    <g id="xtick_4">
     <g id="line2d_4">
      <g>
       <use style="stroke:#000000;stroke-width:0.8;" x="274.835441" xlink:href="#m0e4ce52953" y="282.76"/>
      </g>
     </g>
     <g id="text_4">
      <!-- 10s -->
      <g transform="translate(265.868253 297.358438)scale(0.1 -0.1)">
       <use xlink:href="#DejaVuSans-49"/>
       <use x="63.623047" xlink:href="#DejaVuSans-48"/>
       <use x="127.246094" xlink:href="#DejaVuSans-115"/>
      </g>
     </g>
    </g>
    <g id="xtick_5">
     <g id="line2d_5">
      <g>
       <use style="stroke:#000000;stroke-width:0.8;" x="303.750412" xlink:href="#m0e4ce52953" y="282.76"/>
      </g>
     </g>
     <g id="text_5">
      <!-- 30s -->
      <g transform="translate(294.783225 297.358438)scale(0.1 -0.1)">
       <defs>
        <path d="M 40.578125 39.3125 
Q 47.65625 37.796875 51.625 33 
Q 55.609375 28.21875 55.609375 21.1875 
Q 55.609375 10.40625 48.1875 4.484375 
Q 40.765625 -1.421875 27.09375 -1.421875 
Q 22.515625 -1.421875 17.65625 -0.515625 
Q 12.796875 0.390625 7.625 2.203125 
L 7.625 11.71875 
Q 11.71875 9.328125 16.59375 8.109375 
Q 21.484375 6.890625 26.8125 6.890625 
Q 36.078125 6.890625 40.9375 10.546875 
Q 45.796875 14.203125 45.796875 21.1875 
Q 45.796875 27.640625 41.28125 31.265625 
Q 36.765625 34.90625 28.71875 34.90625 
L 20.21875 34.90625 
L 20.21875 43.015625 
L 29.109375 43.015625 
Q 36.375 43.015625 40.234375 45.921875 
Q 44.09375 48.828125 44.09375 54.296875 
Q 44.09375 59.90625 40.109375 62.90625 
Q 36.140625 65.921875 28.71875 65.921875 
Q 24.65625 65.921875 20.015625 65.03125 
Q 15.375 64.15625 9.8125 62.3125 
L 9.8125 71.09375 
Q 15.4375 72.65625 20.34375 73.4375 
Q 25.25 74.21875 29.59375 74.21875 
Q 40.828125 74.21875 47.359375 69.109375 
Q 53.90625 64.015625 53.90625 55.328125 
Q 53.90625 49.265625 50.4375 45.09375 
Q 46.96875 40.921875 40.578125 39.3125 
z
" id="DejaVuSans-51"/>
       </defs>
       <use xlink:href="#DejaVuSans-51"/>
       <use x="63.623047" xlink:href="#DejaVuSans-48"/>
       <use x="127.246094" xlink:href="#DejaVuSans-115"/>
      </g>
     </g>
    </g>
    <g id="xtick_6">
     <g id="line2d_6">
      <g>
       <use style="stroke:#000000;stroke-width:0.8;" x="321.993728" xlink:href="#m0e4ce52953" y="282.76"/>
      </g>
     </g>
     <g id="text_6">
      <!-- 1m -->
      <g transform="translate(313.942166 297.358438)scale(0.1 -0.1)">
       <defs>
        <path d="M 52 44.1875 
Q 55.375 50.25 60.0625 53.125 
Q 64.75 56 71.09375 56 
Q 79.640625 56 84.28125 50.015625 
Q 88.921875 44.046875 88.921875 33.015625 
L 88.921875 0 
L 79.890625 0 
L 79.890625 32.71875 
Q 79.890625 40.578125 77.09375 44.375 
Q 74.3125 48.1875 68.609375 48.1875 
Q 61.625 48.1875 57.5625 43.546875 
Q 53.515625 38.921875 53.515625 30.90625 
L 53.515625 0 
L 44.484375 0 
L 44.484375 32.71875 
Q 44.484375 40.625 41.703125 44.40625 
Q 38.921875 48.1875 33.109375 48.1875 
Q 26.21875 48.1875 22.15625 43.53125 
Q 18.109375 38.875 18.109375 30.90625 
L 18.109375 0 
L 9.078125 0 
L 9.078125 54.6875 
L 18.109375 54.6875 
L 18.109375 46.1875 
Q 21.1875 51.21875 25.484375 53.609375 
Q 29.78125 56 35.6875 56 
Q 41.65625 56 45.828125 52.96875 
Q 50 49.953125 52 44.1875 
z
" id="DejaVuSans-109"/>
       </defs>
       <use xlink:href="#DejaVuSans-49"/>
       <use x="63.623047" xlink:href="#DejaVuSans-109"/>
      </g>
     </g>
    </g>
    <g id="xtick_7">
     <g id="line2d_7">
      <g>
       <use style="stroke:#000000;stroke-width:0.8;" x="364.353396" xlink:href="#m0e4ce52953" y="282.76"/>
      </g>
     </g>
     <g id="text_7">
      <!-- 5m -->
      <g transform="translate(356.301834 297.358438)scale(0.1 -0.1)">
       <use xlink:href="#DejaVuSans-53"/>
       <use x="63.623047" xlink:href="#DejaVuSans-109"/>
      </g>
     </g>
    </g>
    <g id="xtick_8">
     <g id="line2d_8">
      <g>
       <use style="stroke:#000000;stroke-width:0.8;" x="382.596712" xlink:href="#m0e4ce52953" y="282.76"/>
      </g>
     </g>
     <g id="text_8">
      <!-- 10m -->
      <g transform="translate(371.3639 297.358438)scale(0.1 -0.1)">
       <use xlink:href="#DejaVuSans-49"/>
       <use x="63.623047" xlink:href="#DejaVuSans-48"/>
       <use x="127.246094" xlink:href="#DejaVuSans-109"/>
      </g>
     </g>
    </g>
    <g id="xtick_9">
     <g id="line2d_9">
      <g>
       <use style="stroke:#000000;stroke-width:0.8;" x="411.511684" xlink:href="#m0e4ce52953" y="282.76"/>
      </g>
     </g>
     <g id="text_9">
      <!-- 30m -->
      <g transform="translate(400.278872 297.358438)scale(0.1 -0.1)">
       <use xlink:href="#DejaVuSans-51"/>
       <use x="63.623047" xlink:href="#DejaVuSans-48"/>
       <use x="127.246094" xlink:href="#DejaVuSans-109"/>
      </g>
     </g>
    </g>
    <g id="xtick_10">
     <g id="line2d_10">
      <g>
       <use style="stroke:#000000;stroke-width:0.8;" x="429.755" xlink:href="#m0e4ce52953" y="282.76"/>
      </g>
     </g>
     <g id="text_10">
      <!-- 1h -->
      <g transform="translate(423.405 297.358438)scale(0.1 -0.1)">
       <defs>
        <path d="M 54.890625 33.015625 
L 54.890625 0 
L 45.90625 0 
L 45.90625 32.71875 
Q 45.90625 40.484375 42.875 44.328125 
Q 39.84375 48.1875 33.796875 48.1875 
Q 26.515625 48.1875 22.3125 43.546875 
Q 18.109375 38.921875 18.109375 30.90625 
L 18.109375 0 
L 9.078125 0 
L 9.078125 75.984375 
L 18.109375 75.984375 
L 18.109375 46.1875 
Q 21.34375 51.125 25.703125 53.5625 
Q 30.078125 56 35.796875 56 
Q 45.21875 56 50.046875 50.171875 
Q 54.890625 44.34375 54.890625 33.015625 
z
" id="DejaVuSans-104"/>
       </defs>
       <use xlink:href="#DejaVuSans-49"/>
       <use x="63.623047" xlink:href="#DejaVuSans-104"/>
      </g>
     </g>
    </g>
    <g id="text_11">
     <!-- wall time per slice -->
     <g transform="translate(246.182861 311.036563)scale(0.1 -0.1)">
      <defs>
       <path d="M 4.203125 54.6875 
L 13.1875 54.6875 
L 24.421875 12.015625 
L 35.59375 54.6875 
L 46.1875 54.6875 
L 57.421875 12.015625 
L 68.609375 54.6875 
L 77.59375 54.6875 
L 63.28125 0 
L 52.6875 0 
L 40.921875 44.828125 
L 29.109375 0 
L 18.5 0 
z
" id="DejaVuSans-119"/>
       <path d="M 34.28125 27.484375 
Q 23.390625 27.484375 19.1875 25 
Q 14.984375 22.515625 14.984375 16.5 
Q 14.984375 11.71875 18.140625 8.90625 
Q 21.296875 6.109375 26.703125 6.109375 
Q 34.1875 6.109375 38.703125 11.40625 
Q 43.21875 16.703125 43.21875 25.484375 
L 43.21875 27.484375 
z
M 52.203125 31.203125 
L 52.203125 0 
L 43.21875 0 
L 43.21875 8.296875 
Q 40.140625 3.328125 35.546875 0.953125 
Q 30.953125 -1.421875 24.3125 -1.421875 
Q 15.921875 -1.421875 10.953125 3.296875 
Q 6 8.015625 6 15.921875 
Q 6 25.140625 12.171875 29.828125 
Q 18.359375 34.515625 30.609375 34.515625 
L 43.21875 34.515625 
L 43.21875 35.40625 
Q 43.21875 41.609375 39.140625 45 
Q 35.0625 48.390625 27.6875 48.390625 
Q 23 48.390625 18.546875 47.265625 
Q 14.109375 46.140625 10.015625 43.890625 
L 10.015625 52.203125 
Q 14.9375 54.109375 19.578125 55.046875 
Q 24.21875 56 28.609375 56 
Q 40.484375 56 46.34375 49.84375 
Q 52.203125 43.703125 52.203125 31.203125 
z
" id="DejaVuSans-97"/>
       <path d="M 9.421875 75.984375 
L 18.40625 75.984375 
L 18.40625 0 
L 9.421875 0 
z
" id="DejaVuSans-108"/>
       <path id="DejaVuSans-32"/>
       <path d="M 18.3125 70.21875 
L 18.3125 54.6875 
L 36.8125 54.6875 
L 36.8125 47.703125 
L 18.3125 47.703125 
L 18.3125 18.015625 
Q 18.3125 11.328125 20.140625 9.421875 
Q 21.96875 7.515625 27.59375 7.515625 
L 36.8125 7.515625 
L 36.8125 0 
L 27.59375 0 
Q 17.1875 0 13.234375 3.875 
Q 9.28125 7.765625 9.28125 18.015625 
L 9.28125 47.703125 
L 2.6875 47.703125 
L 2.6875 54.6875 
L 9.28125 54.6875 
L 9.28125 70.21875 
z
" id="DejaVuSans-116"/>
       <path d="M 9.421875 54.6875 
L 18.40625 54.6875 
L 18.40625 0 
L 9.421875 0 
z
M 9.421875 75.984375 
L 18.40625 75.984375 
L 18.40625 64.59375 
L 9.421875 64.59375 
z
" id="DejaVuSans-105"/>
       <path d="M 56.203125 29.59375 
L 56.203125 25.203125 
L 14.890625 25.203125 
Q 15.484375 15.921875 20.484375 11.0625 
Q 25.484375 6.203125 34.421875 6.203125 
Q 39.59375 6.203125 44.453125 7.46875 
Q 49.3125 8.734375 54.109375 11.28125 
L 54.109375 2.78125 
Q 49.265625 0.734375 44.1875 -0.34375 
Q 39.109375 -1.421875 33.890625 -1.421875 
Q 20.796875 -1.421875 13.15625 6.1875 
Q 5.515625 13.8125 5.515625 26.8125 
Q 5.515625 40.234375 12.765625 48.109375 
Q 20.015625 56 32.328125 56 
Q 43.359375 56 49.78125 48.890625 
Q 56.203125 41.796875 56.203125 29.59375 
z
M 47.21875 32.234375 
Q 47.125 39.59375 43.09375 43.984375 
Q 39.0625 48.390625 32.421875 48.390625 
Q 24.90625 48.390625 20.390625 44.140625 
Q 15.875 39.890625 15.1875 32.171875 
z
" id="DejaVuSans-101"/>
       <path d="M 18.109375 8.203125 
L 18.109375 -20.796875 
L 9.078125 -20.796875 
L 9.078125 54.6875 
L 18.109375 54.6875 
L 18.109375 46.390625 
Q 20.953125 51.265625 25.265625 53.625 
Q 29.59375 56 35.59375 56 
Q 45.5625 56 51.78125 48.09375 
Q 58.015625 40.1875 58.015625 27.296875 
Q 58.015625 14.40625 51.78125 6.484375 
Q 45.5625 -1.421875 35.59375 -1.421875 
Q 29.59375 -1.421875 25.265625 0.953125 
Q 20.953125 3.328125 18.109375 8.203125 
z
M 48.6875 27.296875 
Q 48.6875 37.203125 44.609375 42.84375 
Q 40.53125 48.484375 33.40625 48.484375 
Q 26.265625 48.484375 22.1875 42.84375 
Q 18.109375 37.203125 18.109375 27.296875 
Q 18.109375 17.390625 22.1875 11.75 
Q 26.265625 6.109375 33.40625 6.109375 
Q 40.53125 6.109375 44.609375 11.75 
Q 48.6875 17.390625 48.6875 27.296875 
z
" id="DejaVuSans-112"/>
       <path d="M 41.109375 46.296875 
Q 39.59375 47.171875 37.8125 47.578125 
Q 36.03125 48 33.890625 48 
Q 26.265625 48 22.1875 43.046875 
Q 18.109375 38.09375 18.109375 28.8125 
L 18.109375 0 
L 9.078125 0 
L 9.078125 54.6875 
L 18.109375 54.6875 
L 18.109375 46.1875 
Q 20.953125 51.171875 25.484375 53.578125 
Q 30.03125 56 36.53125 56 
Q 37.453125 56 38.578125 55.875 
Q 39.703125 55.765625 41.0625 55.515625 
z
" id="DejaVuSans-114"/>
       <path d="M 48.78125 52.59375 
L 48.78125 44.1875 
Q 44.96875 46.296875 41.140625 47.34375 
Q 37.3125 48.390625 33.40625 48.390625 
Q 24.65625 48.390625 19.8125 42.84375 
Q 14.984375 37.3125 14.984375 27.296875 
Q 14.984375 17.28125 19.8125 11.734375 
Q 24.65625 6.203125 33.40625 6.203125 
Q 37.3125 6.203125 41.140625 7.25 
Q 44.96875 8.296875 48.78125 10.40625 
L 48.78125 2.09375 
Q 45.015625 0.34375 40.984375 -0.53125 
Q 36.96875 -1.421875 32.421875 -1.421875 
Q 20.0625 -1.421875 12.78125 6.34375 
Q 5.515625 14.109375 5.515625 27.296875 
Q 5.515625 40.671875 12.859375 48.328125 
Q 20.21875 56 33.015625 56 
Q 37.15625 56 41.109375 55.140625 
Q 45.0625 54.296875 48.78125 52.59375 
z
" id="DejaVuSans-99"/>
      </defs>
      <use xlink:href="#DejaVuSans-119"/>
      <use x="81.787109" xlink:href="#DejaVuSans-97"/>
      <use x="143.066406" xlink:href="#DejaVuSans-108"/>
      <use x="170.849609" xlink:href="#DejaVuSans-108"/>
      <use x="198.632812" xlink:href="#DejaVuSans-32"/>
      <use x="230.419922" xlink:href="#DejaVuSans-116"/>
      <use x="269.628906" xlink:href="#DejaVuSans-105"/>
      <use x="297.412109" xlink:href="#DejaVuSans-109"/>
      <use x="394.824219" xlink:href="#DejaVuSans-101"/>
      <use x="456.347656" xlink:href="#DejaVuSans-32"/>
      <use x="488.134766" xlink:href="#DejaVuSans-112"/>
      <use x="551.611328" xlink:href="#DejaVuSans-101"/>
      <use x="613.134766" xlink:href="#DejaVuSans-114"/>
      <use x="654.248047" xlink:href="#DejaVuSans-32"/>
      <use x="686.035156" xlink:href="#DejaVuSans-115"/>
      <use x="738.134766" xlink:href="#DejaVuSans-108"/>
      <use x="765.917969" xlink:href="#DejaVuSans-105"/>
      <use x="793.701172" xlink:href="#DejaVuSans-99"/>
      <use x="848.681641" xlink:href="#DejaVuSans-101"/>
     </g>
    </g>
   </g>
   <g id="matplotlib.axis_2">
    <g id="ytick_1">
     <g id="line2d_11">
      <defs>
       <path d="M 0 0 
L -3.5 0 
" id="mf204adbc6c" style="stroke:#000000;stroke-width:0.8;"/>
      </defs>
      <g>
       <use style="stroke:#000000;stroke-width:0.8;" x="153.629473" xlink:href="#mf204adbc6c" y="282.76"/>
      </g>
     </g>
     <g id="text_12">
      <!-- 0.0 -->
      <g transform="translate(130.726348 286.559219)scale(0.1 -0.1)">
       <use xlink:href="#DejaVuSans-48"/>
       <use x="63.623047" xlink:href="#DejaVuSans-46"/>
       <use x="95.410156" xlink:href="#DejaVuSans-48"/>
      </g>
     </g>
    </g>
    <g id="ytick_2">
     <g id="line2d_12">
      <g>
       <use style="stroke:#000000;stroke-width:0.8;" x="153.629473" xlink:href="#mf204adbc6c" y="231.392"/>
      </g>
     </g>
     <g id="text_13">
      <!-- 0.2 -->
      <g transform="translate(130.726348 235.191219)scale(0.1 -0.1)">
       <defs>
        <path d="M 19.1875 8.296875 
L 53.609375 8.296875 
L 53.609375 0 
L 7.328125 0 
L 7.328125 8.296875 
Q 12.9375 14.109375 22.625 23.890625 
Q 32.328125 33.6875 34.8125 36.53125 
Q 39.546875 41.84375 41.421875 45.53125 
Q 43.3125 49.21875 43.3125 52.78125 
Q 43.3125 58.59375 39.234375 62.25 
Q 35.15625 65.921875 28.609375 65.921875 
Q 23.96875 65.921875 18.8125 64.3125 
Q 13.671875 62.703125 7.8125 59.421875 
L 7.8125 69.390625 
Q 13.765625 71.78125 18.9375 73 
Q 24.125 74.21875 28.421875 74.21875 
Q 39.75 74.21875 46.484375 68.546875 
Q 53.21875 62.890625 53.21875 53.421875 
Q 53.21875 48.921875 51.53125 44.890625 
Q 49.859375 40.875 45.40625 35.40625 
Q 44.1875 33.984375 37.640625 27.21875 
Q 31.109375 20.453125 19.1875 8.296875 
z
" id="DejaVuSans-50"/>
       </defs>
       <use xlink:href="#DejaVuSans-48"/>
       <use x="63.623047" xlink:href="#DejaVuSans-46"/>
       <use x="95.410156" xlink:href="#DejaVuSans-50"/>
      </g>
     </g>
    </g>
    <g id="ytick_3">
     <g id="line2d_13">
      <g>
       <use style="stroke:#000000;stroke-width:0.8;" x="153.629473" xlink:href="#mf204adbc6c" y="180.024"/>
      </g>
     </g>
     <g id="text_14">
      <!-- 0.4 -->
      <g transform="translate(130.726348 183.823219)scale(0.1 -0.1)">
       <defs>
        <path d="M 37.796875 64.3125 
L 12.890625 25.390625 
L 37.796875 25.390625 
z
M 35.203125 72.90625 
L 47.609375 72.90625 
L 47.609375 25.390625 
L 58.015625 25.390625 
L 58.015625 17.1875 
L 47.609375 17.1875 
L 47.609375 0 
L 37.796875 0 
L 37.796875 17.1875 
L 4.890625 17.1875 
L 4.890625 26.703125 
z
" id="DejaVuSans-52"/>
       </defs>
       <use xlink:href="#DejaVuSans-48"/>
       <use x="63.623047" xlink:href="#DejaVuSans-46"/>
       <use x="95.410156" xlink:href="#DejaVuSans-52"/>
      </g>
     </g>
    </g>
    <g id="ytick_4">
     <g id="line2d_14">
      <g>
       <use style="stroke:#000000;stroke-width:0.8;" x="153.629473" xlink:href="#mf204adbc6c" y="128.656"/>
      </g>
     </g>
     <g id="text_15">
      <!-- 0.6 -->
      <g transform="translate(130.726348 132.455219)scale(0.1 -0.1)">
       <defs>
        <path d="M 33.015625 40.375 
Q 26.375 40.375 22.484375 35.828125 
Q 18.609375 31.296875 18.609375 23.390625 
Q 18.609375 15.53125 22.484375 10.953125 
Q 26.375 6.390625 33.015625 6.390625 
Q 39.65625 6.390625 43.53125 10.953125 
Q 47.40625 15.53125 47.40625 23.390625 
Q 47.40625 31.296875 43.53125 35.828125 
Q 39.65625 40.375 33.015625 40.375 
z
M 52.59375 71.296875 
L 52.59375 62.3125 
Q 48.875 64.0625 45.09375 64.984375 
Q 41.3125 65.921875 37.59375 65.921875 
Q 27.828125 65.921875 22.671875 59.328125 
Q 17.53125 52.734375 16.796875 39.40625 
Q 19.671875 43.65625 24.015625 45.921875 
Q 28.375 48.1875 33.59375 48.1875 
Q 44.578125 48.1875 50.953125 41.515625 
Q 57.328125 34.859375 57.328125 23.390625 
Q 57.328125 12.15625 50.6875 5.359375 
Q 44.046875 -1.421875 33.015625 -1.421875 
Q 20.359375 -1.421875 13.671875 8.265625 
Q 6.984375 17.96875 6.984375 36.375 
Q 6.984375 53.65625 15.1875 63.9375 
Q 23.390625 74.21875 37.203125 74.21875 
Q 40.921875 74.21875 44.703125 73.484375 
Q 48.484375 72.75 52.59375 71.296875 
z
" id="DejaVuSans-54"/>
       </defs>
       <use xlink:href="#DejaVuSans-48"/>
       <use x="63.623047" xlink:href="#DejaVuSans-46"/>
       <use x="95.410156" xlink:href="#DejaVuSans-54"/>
      </g>
     </g>
    </g>
    <g id="ytick_5">
     <g id="line2d_15">
      <g>
       <use style="stroke:#000000;stroke-width:0.8;" x="153.629473" xlink:href="#mf204adbc6c" y="77.288"/>
      </g>
     </g>
     <g id="text_16">
      <!-- 0.8 -->
      <g transform="translate(130.726348 81.087219)scale(0.1 -0.1)">
       <defs>
        <path d="M 31.78125 34.625 
Q 24.75 34.625 20.71875 30.859375 
Q 16.703125 27.09375 16.703125 20.515625 
Q 16.703125 13.921875 20.71875 10.15625 
Q 24.75 6.390625 31.78125 6.390625 
Q 38.8125 6.390625 42.859375 10.171875 
Q 46.921875 13.96875 46.921875 20.515625 
Q 46.921875 27.09375 42.890625 30.859375 
Q 38.875 34.625 31.78125 34.625 
z
M 21.921875 38.8125 
Q 15.578125 40.375 12.03125 44.71875 
Q 8.5 49.078125 8.5 55.328125 
Q 8.5 64.0625 14.71875 69.140625 
Q 20.953125 74.21875 31.78125 74.21875 
Q 42.671875 74.21875 48.875 69.140625 
Q 55.078125 64.0625 55.078125 55.328125 
Q 55.078125 49.078125 51.53125 44.71875 
Q 48 40.375 41.703125 38.8125 
Q 48.828125 37.15625 52.796875 32.3125 
Q 56.78125 27.484375 56.78125 20.515625 
Q 56.78125 9.90625 50.3125 4.234375 
Q 43.84375 -1.421875 31.78125 -1.421875 
Q 19.734375 -1.421875 13.25 4.234375 
Q 6.78125 9.90625 6.78125 20.515625 
Q 6.78125 27.484375 10.78125 32.3125 
Q 14.796875 37.15625 21.921875 38.8125 
z
M 18.3125 54.390625 
Q 18.3125 48.734375 21.84375 45.5625 
Q 25.390625 42.390625 31.78125 42.390625 
Q 38.140625 42.390625 41.71875 45.5625 
Q 45.3125 48.734375 45.3125 54.390625 
Q 45.3125 60.0625 41.71875 63.234375 
Q 38.140625 66.40625 31.78125 66.40625 
Q 25.390625 66.40625 21.84375 63.234375 
Q 18.3125 60.0625 18.3125 54.390625 
z
" id="DejaVuSans-56"/>
       </defs>
       <use xlink:href="#DejaVuSans-48"/>
       <use x="63.623047" xlink:href="#DejaVuSans-46"/>
       <use x="95.410156" xlink:href="#DejaVuSans-56"/>
      </g>
     </g>
    </g>
    <g id="ytick_6">
     <g id="line2d_16">
      <g>
       <use style="stroke:#000000;stroke-width:0.8;" x="153.629473" xlink:href="#mf204adbc6c" y="25.92"/>
      </g>
     </g>
     <g id="text_17">
      <!-- 1.0 -->
      <g transform="translate(130.726348 29.719219)scale(0.1 -0.1)">
       <use xlink:href="#DejaVuSans-49"/>
       <use x="63.623047" xlink:href="#DejaVuSans-46"/>
       <use x="95.410156" xlink:href="#DejaVuSans-48"/>
      </g>
     </g>
    </g>
    <g id="text_18">
     <!-- MS-SSIM Index -->
     <g transform="translate(124.64666 191.125156)rotate(-90)scale(0.1 -0.1)">
      <defs>
       <path d="M 9.8125 72.90625 
L 24.515625 72.90625 
L 43.109375 23.296875 
L 61.8125 72.90625 
L 76.515625 72.90625 
L 76.515625 0 
L 66.890625 0 
L 66.890625 64.015625 
L 48.09375 14.015625 
L 38.1875 14.015625 
L 19.390625 64.015625 
L 19.390625 0 
L 9.8125 0 
z
" id="DejaVuSans-77"/>
       <path d="M 53.515625 70.515625 
L 53.515625 60.890625 
Q 47.90625 63.578125 42.921875 64.890625 
Q 37.9375 66.21875 33.296875 66.21875 
Q 25.25 66.21875 20.875 63.09375 
Q 16.5 59.96875 16.5 54.203125 
Q 16.5 49.359375 19.40625 46.890625 
Q 22.3125 44.4375 30.421875 42.921875 
L 36.375 41.703125 
Q 47.40625 39.59375 52.65625 34.296875 
Q 57.90625 29 57.90625 20.125 
Q 57.90625 9.515625 50.796875 4.046875 
Q 43.703125 -1.421875 29.984375 -1.421875 
Q 24.8125 -1.421875 18.96875 -0.25 
Q 13.140625 0.921875 6.890625 3.21875 
L 6.890625 13.375 
Q 12.890625 10.015625 18.65625 8.296875 
Q 24.421875 6.59375 29.984375 6.59375 
Q 38.421875 6.59375 43.015625 9.90625 
Q 47.609375 13.234375 47.609375 19.390625 
Q 47.609375 24.75 44.3125 27.78125 
Q 41.015625 30.8125 33.5 32.328125 
L 27.484375 33.5 
Q 16.453125 35.6875 11.515625 40.375 
Q 6.59375 45.0625 6.59375 53.421875 
Q 6.59375 63.09375 13.40625 68.65625 
Q 20.21875 74.21875 32.171875 74.21875 
Q 37.3125 74.21875 42.625 73.28125 
Q 47.953125 72.359375 53.515625 70.515625 
z
" id="DejaVuSans-83"/>
       <path d="M 4.890625 31.390625 
L 31.203125 31.390625 
L 31.203125 23.390625 
L 4.890625 23.390625 
z
" id="DejaVuSans-45"/>
       <path d="M 9.8125 72.90625 
L 19.671875 72.90625 
L 19.671875 0 
L 9.8125 0 
z
" id="DejaVuSans-73"/>
       <path d="M 54.890625 33.015625 
L 54.890625 0 
L 45.90625 0 
L 45.90625 32.71875 
Q 45.90625 40.484375 42.875 44.328125 
Q 39.84375 48.1875 33.796875 48.1875 
Q 26.515625 48.1875 22.3125 43.546875 
Q 18.109375 38.921875 18.109375 30.90625 
L 18.109375 0 
L 9.078125 0 
L 9.078125 54.6875 
L 18.109375 54.6875 
L 18.109375 46.1875 
Q 21.34375 51.125 25.703125 53.5625 
Q 30.078125 56 35.796875 56 
Q 45.21875 56 50.046875 50.171875 
Q 54.890625 44.34375 54.890625 33.015625 
z
" id="DejaVuSans-110"/>
       <path d="M 45.40625 46.390625 
L 45.40625 75.984375 
L 54.390625 75.984375 
L 54.390625 0 
L 45.40625 0 
L 45.40625 8.203125 
Q 42.578125 3.328125 38.25 0.953125 
Q 33.9375 -1.421875 27.875 -1.421875 
Q 17.96875 -1.421875 11.734375 6.484375 
Q 5.515625 14.40625 5.515625 27.296875 
Q 5.515625 40.1875 11.734375 48.09375 
Q 17.96875 56 27.875 56 
Q 33.9375 56 38.25 53.625 
Q 42.578125 51.265625 45.40625 46.390625 
z
M 14.796875 27.296875 
Q 14.796875 17.390625 18.875 11.75 
Q 22.953125 6.109375 30.078125 6.109375 
Q 37.203125 6.109375 41.296875 11.75 
Q 45.40625 17.390625 45.40625 27.296875 
Q 45.40625 37.203125 41.296875 42.84375 
Q 37.203125 48.484375 30.078125 48.484375 
Q 22.953125 48.484375 18.875 42.84375 
Q 14.796875 37.203125 14.796875 27.296875 
z
" id="DejaVuSans-100"/>
       <path d="M 54.890625 54.6875 
L 35.109375 28.078125 
L 55.90625 0 
L 45.3125 0 
L 29.390625 21.484375 
L 13.484375 0 
L 2.875 0 
L 24.125 28.609375 
L 4.6875 54.6875 
L 15.28125 54.6875 
L 29.78125 35.203125 
L 44.28125 54.6875 
z
" id="DejaVuSans-120"/>
      </defs>
      <use xlink:href="#DejaVuSans-77"/>
      <use x="86.279297" xlink:href="#DejaVuSans-83"/>
      <use x="149.755859" xlink:href="#DejaVuSans-45"/>
      <use x="185.839844" xlink:href="#DejaVuSans-83"/>
      <use x="249.316406" xlink:href="#DejaVuSans-83"/>
      <use x="312.792969" xlink:href="#DejaVuSans-73"/>
      <use x="342.285156" xlink:href="#DejaVuSans-77"/>
      <use x="428.564453" xlink:href="#DejaVuSans-32"/>
      <use x="460.351562" xlink:href="#DejaVuSans-73"/>
      <use x="489.84375" xlink:href="#DejaVuSans-110"/>
      <use x="553.222656" xlink:href="#DejaVuSans-100"/>
      <use x="616.699219" xlink:href="#DejaVuSans-101"/>
      <use x="676.472656" xlink:href="#DejaVuSans-120"/>
     </g>
    </g>
   </g>
   <g id="LineCollection_1">
    <path clip-path="url(#p14f25c6a91)" d="M 124.594379 282.76 
L 124.594379 282.76 
" style="fill:none;stroke:#41049d;stroke-width:1.5;"/>
   </g>
   <g id="LineCollection_2">
    <path clip-path="url(#p14f25c6a91)" d="M 172.835259 282.759994 
L 172.835259 282.759994 
" style="fill:none;stroke:#e16462;stroke-width:1.5;"/>
    <path clip-path="url(#p14f25c6a91)" d="M 190.799968 282.76 
L 190.799968 282.76 
" style="fill:none;stroke:#e16462;stroke-width:1.5;"/>
    <path clip-path="url(#p14f25c6a91)" d="M 201.491932 282.76 
L 201.491932 282.76 
" style="fill:none;stroke:#e16462;stroke-width:1.5;"/>
    <path clip-path="url(#p14f25c6a91)" d="M 209.259981 282.76 
L 209.259981 282.76 
" style="fill:none;stroke:#e16462;stroke-width:1.5;"/>
    <path clip-path="url(#p14f25c6a91)" d="M 215.07688 282.76 
L 215.07688 282.76 
" style="fill:none;stroke:#e16462;stroke-width:1.5;"/>
    <path clip-path="url(#p14f25c6a91)" d="M 219.863677 282.76 
L 219.863677 282.76 
" style="fill:none;stroke:#e16462;stroke-width:1.5;"/>
    <path clip-path="url(#p14f25c6a91)" d="M 223.978889 282.76 
L 223.978889 282.76 
" style="fill:none;stroke:#e16462;stroke-width:1.5;"/>
    <path clip-path="url(#p14f25c6a91)" d="M 227.362111 282.76 
L 227.362111 282.76 
" style="fill:none;stroke:#e16462;stroke-width:1.5;"/>
    <path clip-path="url(#p14f25c6a91)" d="M 230.45869 282.76 
L 230.45869 282.76 
" style="fill:none;stroke:#e16462;stroke-width:1.5;"/>
    <path clip-path="url(#p14f25c6a91)" d="M 233.202868 282.76 
L 233.202868 282.76 
" style="fill:none;stroke:#e16462;stroke-width:1.5;"/>
   </g>
   <g id="LineCollection_3">
    <path clip-path="url(#p14f25c6a91)" d="M 76.878968 281.109799 
L 76.878968 281.069363 
" style="fill:none;stroke:#0d0887;stroke-width:1.5;"/>
    <path clip-path="url(#p14f25c6a91)" d="M 67.736031 275.023953 
L 67.736031 274.750244 
" style="fill:none;stroke:#0d0887;stroke-width:1.5;"/>
    <path clip-path="url(#p14f25c6a91)" d="M 65.550915 273.720182 
L 65.550915 273.004263 
" style="fill:none;stroke:#0d0887;stroke-width:1.5;"/>
    <path clip-path="url(#p14f25c6a91)" d="M 70.877941 272.409967 
L 70.877941 271.531655 
" style="fill:none;stroke:#0d0887;stroke-width:1.5;"/>
    <path clip-path="url(#p14f25c6a91)" d="M 65.280764 231.536313 
L 65.280764 230.911398 
" style="fill:none;stroke:#0d0887;stroke-width:1.5;"/>
    <path clip-path="url(#p14f25c6a91)" d="M 68.810504 281.44222 
L 68.810504 281.400262 
" style="fill:none;stroke:#0d0887;stroke-width:1.5;"/>
    <path clip-path="url(#p14f25c6a91)" d="M 66.28489 280.123037 
L 66.28489 280.054555 
" style="fill:none;stroke:#0d0887;stroke-width:1.5;"/>
   </g>
   <g id="LineCollection_4">
    <path clip-path="url(#p14f25c6a91)" d="M 172.97057 272.76693 
L 172.97057 272.764145 
" style="fill:none;stroke:#f0f921;stroke-width:1.5;"/>
    <path clip-path="url(#p14f25c6a91)" d="M 191.41019 242.012826 
L 191.41019 241.980931 
" style="fill:none;stroke:#f0f921;stroke-width:1.5;"/>
    <path clip-path="url(#p14f25c6a91)" d="M 202.160376 213.040014 
L 202.160376 212.993462 
" style="fill:none;stroke:#f0f921;stroke-width:1.5;"/>
    <path clip-path="url(#p14f25c6a91)" d="M 209.761453 191.726061 
L 209.761453 191.662926 
" style="fill:none;stroke:#f0f921;stroke-width:1.5;"/>
    <path clip-path="url(#p14f25c6a91)" d="M 215.629255 176.833534 
L 215.629255 176.742731 
" style="fill:none;stroke:#f0f921;stroke-width:1.5;"/>
    <path clip-path="url(#p14f25c6a91)" d="M 220.456922 166.404575 
L 220.456922 166.285981 
" style="fill:none;stroke:#f0f921;stroke-width:1.5;"/>
    <path clip-path="url(#p14f25c6a91)" d="M 224.548761 158.969187 
L 224.548761 158.830452 
" style="fill:none;stroke:#f0f921;stroke-width:1.5;"/>
    <path clip-path="url(#p14f25c6a91)" d="M 228.06911 153.552221 
L 228.06911 153.3966 
" style="fill:none;stroke:#f0f921;stroke-width:1.5;"/>
    <path clip-path="url(#p14f25c6a91)" d="M 231.217856 149.521948 
L 231.217856 149.350402 
" style="fill:none;stroke:#f0f921;stroke-width:1.5;"/>
    <path clip-path="url(#p14f25c6a91)" d="M 233.999427 146.448964 
L 233.999427 146.262773 
" style="fill:none;stroke:#f0f921;stroke-width:1.5;"/>
   </g>
   <g id="LineCollection_5">
    <path clip-path="url(#p14f25c6a91)" d="M 174.094356 272.76693 
L 174.094356 272.764145 
" style="fill:none;stroke:#ea7457;stroke-width:1.5;"/>
    <path clip-path="url(#p14f25c6a91)" d="M 192.37318 242.012826 
L 192.37318 241.980931 
" style="fill:none;stroke:#ea7457;stroke-width:1.5;"/>
    <path clip-path="url(#p14f25c6a91)" d="M 203.015262 213.040014 
L 203.015262 212.993462 
" style="fill:none;stroke:#ea7457;stroke-width:1.5;"/>
    <path clip-path="url(#p14f25c6a91)" d="M 210.570628 191.726061 
L 210.570628 191.662926 
" style="fill:none;stroke:#ea7457;stroke-width:1.5;"/>
    <path clip-path="url(#p14f25c6a91)" d="M 216.452637 176.833534 
L 216.452637 176.742731 
" style="fill:none;stroke:#ea7457;stroke-width:1.5;"/>
    <path clip-path="url(#p14f25c6a91)" d="M 221.248035 166.404575 
L 221.248035 166.285981 
" style="fill:none;stroke:#ea7457;stroke-width:1.5;"/>
    <path clip-path="url(#p14f25c6a91)" d="M 225.296222 158.969187 
L 225.296222 158.830452 
" style="fill:none;stroke:#ea7457;stroke-width:1.5;"/>
    <path clip-path="url(#p14f25c6a91)" d="M 228.80717 153.552221 
L 228.80717 153.3966 
" style="fill:none;stroke:#ea7457;stroke-width:1.5;"/>
    <path clip-path="url(#p14f25c6a91)" d="M 231.91854 149.521948 
L 231.91854 149.350402 
" style="fill:none;stroke:#ea7457;stroke-width:1.5;"/>
    <path clip-path="url(#p14f25c6a91)" d="M 234.698267 146.448964 
L 234.698267 146.262773 
" style="fill:none;stroke:#ea7457;stroke-width:1.5;"/>
   </g>
   <g id="LineCollection_6">
    <path clip-path="url(#p14f25c6a91)" d="M 177.906421 282.698307 
L 177.906421 282.698174 
" style="fill:none;stroke:#f2844b;stroke-width:1.5;"/>
    <path clip-path="url(#p14f25c6a91)" d="M 196.365634 281.912849 
L 196.365634 281.909661 
" style="fill:none;stroke:#f2844b;stroke-width:1.5;"/>
    <path clip-path="url(#p14f25c6a91)" d="M 207.132806 279.99708 
L 207.132806 279.989395 
" style="fill:none;stroke:#f2844b;stroke-width:1.5;"/>
    <path clip-path="url(#p14f25c6a91)" d="M 214.998625 277.556798 
L 214.998625 277.539667 
" style="fill:none;stroke:#f2844b;stroke-width:1.5;"/>
    <path clip-path="url(#p14f25c6a91)" d="M 221.487394 274.863349 
L 221.487394 274.835175 
" style="fill:none;stroke:#f2844b;stroke-width:1.5;"/>
    <path clip-path="url(#p14f25c6a91)" d="M 226.004414 271.996468 
L 226.004414 271.959825 
" style="fill:none;stroke:#f2844b;stroke-width:1.5;"/>
    <path clip-path="url(#p14f25c6a91)" d="M 229.711459 268.98339 
L 229.711459 268.941508 
" style="fill:none;stroke:#f2844b;stroke-width:1.5;"/>
    <path clip-path="url(#p14f25c6a91)" d="M 233.062853 265.841582 
L 233.062853 265.791083 
" style="fill:none;stroke:#f2844b;stroke-width:1.5;"/>
    <path clip-path="url(#p14f25c6a91)" d="M 236.019816 262.587263 
L 236.019816 262.52545 
" style="fill:none;stroke:#f2844b;stroke-width:1.5;"/>
    <path clip-path="url(#p14f25c6a91)" d="M 238.806058 259.243478 
L 238.806058 259.166968 
" style="fill:none;stroke:#f2844b;stroke-width:1.5;"/>
   </g>
   <g id="LineCollection_7">
    <path clip-path="url(#p14f25c6a91)" d="M 175.914976 282.723098 
L 175.914976 282.723071 
" style="fill:none;stroke:#f89540;stroke-width:1.5;"/>
    <path clip-path="url(#p14f25c6a91)" d="M 194.190408 282.547647 
L 194.190408 282.547355 
" style="fill:none;stroke:#f89540;stroke-width:1.5;"/>
    <path clip-path="url(#p14f25c6a91)" d="M 204.851297 282.19673 
L 204.851297 282.196381 
" style="fill:none;stroke:#f89540;stroke-width:1.5;"/>
    <path clip-path="url(#p14f25c6a91)" d="M 212.381665 281.659372 
L 212.381665 281.658654 
" style="fill:none;stroke:#f89540;stroke-width:1.5;"/>
    <path clip-path="url(#p14f25c6a91)" d="M 218.352952 280.928819 
L 218.352952 280.927817 
" style="fill:none;stroke:#f89540;stroke-width:1.5;"/>
    <path clip-path="url(#p14f25c6a91)" d="M 223.427811 280.00643 
L 223.427811 280.005038 
" style="fill:none;stroke:#f89540;stroke-width:1.5;"/>
    <path clip-path="url(#p14f25c6a91)" d="M 227.518861 278.901699 
L 227.518861 278.899679 
" style="fill:none;stroke:#f89540;stroke-width:1.5;"/>
    <path clip-path="url(#p14f25c6a91)" d="M 231.08157 277.627376 
L 231.08157 277.624839 
" style="fill:none;stroke:#f89540;stroke-width:1.5;"/>
    <path clip-path="url(#p14f25c6a91)" d="M 234.310347 276.199266 
L 234.310347 276.195923 
" style="fill:none;stroke:#f89540;stroke-width:1.5;"/>
    <path clip-path="url(#p14f25c6a91)" d="M 237.044613 274.636641 
L 237.044613 274.632857 
" style="fill:none;stroke:#f89540;stroke-width:1.5;"/>
   </g>
   <g id="LineCollection_8">
    <path clip-path="url(#p14f25c6a91)" d="M 177.407439 282.620973 
L 177.407439 282.620659 
" style="fill:none;stroke:#f7e425;stroke-width:1.5;"/>
    <path clip-path="url(#p14f25c6a91)" d="M 195.219376 280.780173 
L 195.219376 280.76299 
" style="fill:none;stroke:#f7e425;stroke-width:1.5;"/>
    <path clip-path="url(#p14f25c6a91)" d="M 205.842065 276.683894 
L 205.842065 276.635073 
" style="fill:none;stroke:#f7e425;stroke-width:1.5;"/>
    <path clip-path="url(#p14f25c6a91)" d="M 213.000139 270.877493 
L 213.000139 270.799465 
" style="fill:none;stroke:#f7e425;stroke-width:1.5;"/>
    <path clip-path="url(#p14f25c6a91)" d="M 218.905179 264.12058 
L 218.905179 264.01429 
" style="fill:none;stroke:#f7e425;stroke-width:1.5;"/>
    <path clip-path="url(#p14f25c6a91)" d="M 223.747106 257.078321 
L 223.747106 256.952652 
" style="fill:none;stroke:#f7e425;stroke-width:1.5;"/>
    <path clip-path="url(#p14f25c6a91)" d="M 227.840624 250.157006 
L 227.840624 250.01812 
" style="fill:none;stroke:#f7e425;stroke-width:1.5;"/>
    <path clip-path="url(#p14f25c6a91)" d="M 231.385544 243.618343 
L 231.385544 243.467253 
" style="fill:none;stroke:#f7e425;stroke-width:1.5;"/>
    <path clip-path="url(#p14f25c6a91)" d="M 234.507139 237.53628 
L 234.507139 237.382232 
" style="fill:none;stroke:#f7e425;stroke-width:1.5;"/>
    <path clip-path="url(#p14f25c6a91)" d="M 237.332731 231.902653 
L 237.332731 231.754676 
" style="fill:none;stroke:#f7e425;stroke-width:1.5;"/>
   </g>
   <g id="LineCollection_9">
    <path clip-path="url(#p14f25c6a91)" d="M 175.769352 282.722654 
L 175.769352 282.722627 
" style="fill:none;stroke:#fcce25;stroke-width:1.5;"/>
    <path clip-path="url(#p14f25c6a91)" d="M 193.967051 282.544213 
L 193.967051 282.544058 
" style="fill:none;stroke:#fcce25;stroke-width:1.5;"/>
    <path clip-path="url(#p14f25c6a91)" d="M 204.709436 282.185709 
L 204.709436 282.185249 
" style="fill:none;stroke:#fcce25;stroke-width:1.5;"/>
    <path clip-path="url(#p14f25c6a91)" d="M 212.559672 281.633056 
L 212.559672 281.632328 
" style="fill:none;stroke:#fcce25;stroke-width:1.5;"/>
    <path clip-path="url(#p14f25c6a91)" d="M 218.576715 280.876322 
L 218.576715 280.875282 
" style="fill:none;stroke:#fcce25;stroke-width:1.5;"/>
    <path clip-path="url(#p14f25c6a91)" d="M 223.321733 279.916566 
L 223.321733 279.91505 
" style="fill:none;stroke:#fcce25;stroke-width:1.5;"/>
    <path clip-path="url(#p14f25c6a91)" d="M 227.492297 278.759788 
L 227.492297 278.757566 
" style="fill:none;stroke:#fcce25;stroke-width:1.5;"/>
    <path clip-path="url(#p14f25c6a91)" d="M 230.989931 277.417069 
L 230.989931 277.414341 
" style="fill:none;stroke:#fcce25;stroke-width:1.5;"/>
    <path clip-path="url(#p14f25c6a91)" d="M 234.08633 275.903021 
L 234.08633 275.899702 
" style="fill:none;stroke:#fcce25;stroke-width:1.5;"/>
    <path clip-path="url(#p14f25c6a91)" d="M 236.929905 274.236903 
L 236.929905 274.232763 
" style="fill:none;stroke:#fcce25;stroke-width:1.5;"/>
   </g>
   <g id="LineCollection_10">
    <path clip-path="url(#p14f25c6a91)" d="M 173.802126 277.387145 
L 173.802126 277.384004 
" style="fill:none;stroke:#cc4778;stroke-width:1.5;"/>
    <path clip-path="url(#p14f25c6a91)" d="M 191.934648 260.5147 
L 191.934648 260.50043 
" style="fill:none;stroke:#cc4778;stroke-width:1.5;"/>
    <path clip-path="url(#p14f25c6a91)" d="M 202.384499 239.901323 
L 202.384499 239.8714 
" style="fill:none;stroke:#cc4778;stroke-width:1.5;"/>
    <path clip-path="url(#p14f25c6a91)" d="M 209.622587 221.137665 
L 209.622587 221.083584 
" style="fill:none;stroke:#cc4778;stroke-width:1.5;"/>
    <path clip-path="url(#p14f25c6a91)" d="M 215.334023 205.824771 
L 215.334023 205.742876 
" style="fill:none;stroke:#cc4778;stroke-width:1.5;"/>
    <path clip-path="url(#p14f25c6a91)" d="M 219.994627 193.839335 
L 219.994627 193.739165 
" style="fill:none;stroke:#cc4778;stroke-width:1.5;"/>
    <path clip-path="url(#p14f25c6a91)" d="M 223.956061 184.622911 
L 223.956061 184.515807 
" style="fill:none;stroke:#cc4778;stroke-width:1.5;"/>
    <path clip-path="url(#p14f25c6a91)" d="M 227.37291 177.583902 
L 227.37291 177.465156 
" style="fill:none;stroke:#cc4778;stroke-width:1.5;"/>
    <path clip-path="url(#p14f25c6a91)" d="M 230.499692 172.211981 
L 230.499692 172.086566 
" style="fill:none;stroke:#cc4778;stroke-width:1.5;"/>
    <path clip-path="url(#p14f25c6a91)" d="M 233.211518 168.100227 
L 233.211518 167.969121 
" style="fill:none;stroke:#cc4778;stroke-width:1.5;"/>
   </g>
   <g id="LineCollection_11">
    <path clip-path="url(#p14f25c6a91)" d="M 172.372708 282.76 
L 172.372708 282.76 
" style="fill:none;stroke:#0d0887;stroke-width:1.5;"/>
    <path clip-path="url(#p14f25c6a91)" d="M 190.832443 282.76 
L 190.832443 282.76 
" style="fill:none;stroke:#0d0887;stroke-width:1.5;"/>
    <path clip-path="url(#p14f25c6a91)" d="M 201.437082 282.76 
L 201.437082 282.76 
" style="fill:none;stroke:#0d0887;stroke-width:1.5;"/>
    <path clip-path="url(#p14f25c6a91)" d="M 208.895346 282.76 
L 208.895346 282.76 
" style="fill:none;stroke:#0d0887;stroke-width:1.5;"/>
    <path clip-path="url(#p14f25c6a91)" d="M 214.725111 282.76 
L 214.725111 282.76 
" style="fill:none;stroke:#0d0887;stroke-width:1.5;"/>
    <path clip-path="url(#p14f25c6a91)" d="M 219.53029 282.76 
L 219.53029 282.76 
" style="fill:none;stroke:#0d0887;stroke-width:1.5;"/>
    <path clip-path="url(#p14f25c6a91)" d="M 223.617667 282.76 
L 223.617667 282.76 
" style="fill:none;stroke:#0d0887;stroke-width:1.5;"/>
    <path clip-path="url(#p14f25c6a91)" d="M 227.088045 282.76 
L 227.088045 282.76 
" style="fill:none;stroke:#0d0887;stroke-width:1.5;"/>
    <path clip-path="url(#p14f25c6a91)" d="M 230.237578 282.76 
L 230.237578 282.76 
" style="fill:none;stroke:#0d0887;stroke-width:1.5;"/>
    <path clip-path="url(#p14f25c6a91)" style="fill:none;stroke:#0d0887;stroke-width:1.5;"/>
   </g>
   <g id="LineCollection_12">
    <path clip-path="url(#p14f25c6a91)" d="M 173.441688 281.645198 
L 173.441688 281.643868 
" style="fill:none;stroke:#fca636;stroke-width:1.5;"/>
    <path clip-path="url(#p14f25c6a91)" d="M 191.855573 277.617487 
L 191.855573 277.614021 
" style="fill:none;stroke:#fca636;stroke-width:1.5;"/>
    <path clip-path="url(#p14f25c6a91)" d="M 202.591912 270.711944 
L 202.591912 270.704936 
" style="fill:none;stroke:#fca636;stroke-width:1.5;"/>
    <path clip-path="url(#p14f25c6a91)" d="M 210.264219 261.952492 
L 210.264219 261.941241 
" style="fill:none;stroke:#fca636;stroke-width:1.5;"/>
    <path clip-path="url(#p14f25c6a91)" d="M 216.139535 252.254468 
L 216.139535 252.236994 
" style="fill:none;stroke:#fca636;stroke-width:1.5;"/>
    <path clip-path="url(#p14f25c6a91)" d="M 220.936655 242.390444 
L 220.936655 242.364945 
" style="fill:none;stroke:#fca636;stroke-width:1.5;"/>
    <path clip-path="url(#p14f25c6a91)" d="M 224.955888 232.867248 
L 224.955888 232.829763 
" style="fill:none;stroke:#fca636;stroke-width:1.5;"/>
    <path clip-path="url(#p14f25c6a91)" d="M 228.407824 223.973147 
L 228.407824 223.922722 
" style="fill:none;stroke:#fca636;stroke-width:1.5;"/>
    <path clip-path="url(#p14f25c6a91)" d="M 231.445906 215.846277 
L 231.445906 215.781817 
" style="fill:none;stroke:#fca636;stroke-width:1.5;"/>
    <path clip-path="url(#p14f25c6a91)" d="M 234.196148 208.524825 
L 234.196148 208.441219 
" style="fill:none;stroke:#fca636;stroke-width:1.5;"/>
   </g>
   <g id="line2d_17">
    <defs>
     <path d="M -1.5 3 
L 0 1.5 
L 1.5 3 
L 3 1.5 
L 1.5 0 
L 3 -1.5 
L 1.5 -3 
L 0 -1.5 
L -1.5 -3 
L -3 -1.5 
L -1.5 0 
L -3 1.5 
z
" id="m83896fa6bd" style="stroke:#41049d;stroke-linejoin:miter;"/>
    </defs>
    <g clip-path="url(#p14f25c6a91)">
     <use style="fill:#41049d;stroke:#41049d;stroke-linejoin:miter;" x="124.594379" xlink:href="#m83896fa6bd" y="282.76"/>
    </g>
   </g>
   <g id="line2d_18">
    <path clip-path="url(#p14f25c6a91)" d="M 172.835259 282.759994 
L 190.799968 282.76 
L 201.491932 282.76 
L 209.259981 282.76 
L 215.07688 282.76 
L 219.863677 282.76 
L 223.978889 282.76 
L 227.362111 282.76 
L 230.45869 282.76 
L 233.202868 282.76 
" style="fill:none;stroke:#e16462;stroke-linecap:square;stroke-width:1.5;"/>
    <defs>
     <path d="M -3 3 
L 3 3 
L 3 -3 
L -3 -3 
z
" id="mc8fc6a3f16" style="stroke:#e16462;stroke-linejoin:miter;"/>
    </defs>
    <g clip-path="url(#p14f25c6a91)">
     <use style="fill:#e16462;stroke:#e16462;stroke-linejoin:miter;" x="172.835259" xlink:href="#mc8fc6a3f16" y="282.759994"/>
     <use style="fill:#e16462;stroke:#e16462;stroke-linejoin:miter;" x="190.799968" xlink:href="#mc8fc6a3f16" y="282.76"/>
     <use style="fill:#e16462;stroke:#e16462;stroke-linejoin:miter;" x="201.491932" xlink:href="#mc8fc6a3f16" y="282.76"/>
     <use style="fill:#e16462;stroke:#e16462;stroke-linejoin:miter;" x="209.259981" xlink:href="#mc8fc6a3f16" y="282.76"/>
     <use style="fill:#e16462;stroke:#e16462;stroke-linejoin:miter;" x="215.07688" xlink:href="#mc8fc6a3f16" y="282.76"/>
     <use style="fill:#e16462;stroke:#e16462;stroke-linejoin:miter;" x="219.863677" xlink:href="#mc8fc6a3f16" y="282.76"/>
     <use style="fill:#e16462;stroke:#e16462;stroke-linejoin:miter;" x="223.978889" xlink:href="#mc8fc6a3f16" y="282.76"/>
     <use style="fill:#e16462;stroke:#e16462;stroke-linejoin:miter;" x="227.362111" xlink:href="#mc8fc6a3f16" y="282.76"/>
     <use style="fill:#e16462;stroke:#e16462;stroke-linejoin:miter;" x="230.45869" xlink:href="#mc8fc6a3f16" y="282.76"/>
     <use style="fill:#e16462;stroke:#e16462;stroke-linejoin:miter;" x="233.202868" xlink:href="#mc8fc6a3f16" y="282.76"/>
    </g>
   </g>
   <g id="line2d_19">
    <defs>
     <path d="M 0 3 
C 0.795609 3 1.55874 2.683901 2.12132 2.12132 
C 2.683901 1.55874 3 0.795609 3 0 
C 3 -0.795609 2.683901 -1.55874 2.12132 -2.12132 
C 1.55874 -2.683901 0.795609 -3 0 -3 
C -0.795609 -3 -1.55874 -2.683901 -2.12132 -2.12132 
C -2.683901 -1.55874 -3 -0.795609 -3 0 
C -3 0.795609 -2.683901 1.55874 -2.12132 2.12132 
C -1.55874 2.683901 -0.795609 3 0 3 
z
" id="md2de82727f" style="stroke:#0d0887;"/>
    </defs>
    <g clip-path="url(#p14f25c6a91)">
     <use style="fill:#0d0887;stroke:#0d0887;" x="76.878968" xlink:href="#md2de82727f" y="281.089581"/>
     <use style="fill:#0d0887;stroke:#0d0887;" x="67.736031" xlink:href="#md2de82727f" y="274.887098"/>
     <use style="fill:#0d0887;stroke:#0d0887;" x="65.550915" xlink:href="#md2de82727f" y="273.362223"/>
     <use style="fill:#0d0887;stroke:#0d0887;" x="70.877941" xlink:href="#md2de82727f" y="271.970811"/>
     <use style="fill:#0d0887;stroke:#0d0887;" x="65.280764" xlink:href="#md2de82727f" y="231.223855"/>
     <use style="fill:#0d0887;stroke:#0d0887;" x="68.810504" xlink:href="#md2de82727f" y="281.421241"/>
     <use style="fill:#0d0887;stroke:#0d0887;" x="66.28489" xlink:href="#md2de82727f" y="280.088796"/>
    </g>
   </g>
   <g id="line2d_20">
    <path clip-path="url(#p14f25c6a91)" d="M 172.97057 272.765537 
L 191.41019 241.996879 
L 202.160376 213.016738 
L 209.761453 191.694493 
L 215.629255 176.788133 
L 220.456922 166.345278 
L 224.548761 158.89982 
L 228.06911 153.47441 
L 231.217856 149.436175 
L 233.999427 146.355868 
" style="fill:none;stroke:#f0f921;stroke-linecap:square;stroke-width:1.5;"/>
    <defs>
     <path d="M 0 3 
C 0.795609 3 1.55874 2.683901 2.12132 2.12132 
C 2.683901 1.55874 3 0.795609 3 0 
C 3 -0.795609 2.683901 -1.55874 2.12132 -2.12132 
C 1.55874 -2.683901 0.795609 -3 0 -3 
C -0.795609 -3 -1.55874 -2.683901 -2.12132 -2.12132 
C -2.683901 -1.55874 -3 -0.795609 -3 0 
C -3 0.795609 -2.683901 1.55874 -2.12132 2.12132 
C -1.55874 2.683901 -0.795609 3 0 3 
z
" id="mab565269ac" style="stroke:#f0f921;"/>
    </defs>
    <g clip-path="url(#p14f25c6a91)">
     <use style="fill:#f0f921;stroke:#f0f921;" x="172.97057" xlink:href="#mab565269ac" y="272.765537"/>
     <use style="fill:#f0f921;stroke:#f0f921;" x="191.41019" xlink:href="#mab565269ac" y="241.996879"/>
     <use style="fill:#f0f921;stroke:#f0f921;" x="202.160376" xlink:href="#mab565269ac" y="213.016738"/>
     <use style="fill:#f0f921;stroke:#f0f921;" x="209.761453" xlink:href="#mab565269ac" y="191.694493"/>
     <use style="fill:#f0f921;stroke:#f0f921;" x="215.629255" xlink:href="#mab565269ac" y="176.788133"/>
     <use style="fill:#f0f921;stroke:#f0f921;" x="220.456922" xlink:href="#mab565269ac" y="166.345278"/>
     <use style="fill:#f0f921;stroke:#f0f921;" x="224.548761" xlink:href="#mab565269ac" y="158.89982"/>
     <use style="fill:#f0f921;stroke:#f0f921;" x="228.06911" xlink:href="#mab565269ac" y="153.47441"/>
     <use style="fill:#f0f921;stroke:#f0f921;" x="231.217856" xlink:href="#mab565269ac" y="149.436175"/>
     <use style="fill:#f0f921;stroke:#f0f921;" x="233.999427" xlink:href="#mab565269ac" y="146.355868"/>
    </g>
   </g>
   <g id="line2d_21">
    <path clip-path="url(#p14f25c6a91)" d="M 174.094356 272.765537 
L 192.37318 241.996879 
L 203.015262 213.016738 
L 210.570628 191.694493 
L 216.452637 176.788133 
L 221.248035 166.345278 
L 225.296222 158.89982 
L 228.80717 153.47441 
L 231.91854 149.436175 
L 234.698267 146.355868 
" style="fill:none;stroke:#ea7457;stroke-linecap:square;stroke-width:1.5;"/>
    <defs>
     <path d="M -3 3 
L 3 3 
L 3 -3 
L -3 -3 
z
" id="mc572b0aba7" style="stroke:#ea7457;stroke-linejoin:miter;"/>
    </defs>
    <g clip-path="url(#p14f25c6a91)">
     <use style="fill:#ea7457;stroke:#ea7457;stroke-linejoin:miter;" x="174.094356" xlink:href="#mc572b0aba7" y="272.765537"/>
     <use style="fill:#ea7457;stroke:#ea7457;stroke-linejoin:miter;" x="192.37318" xlink:href="#mc572b0aba7" y="241.996879"/>
     <use style="fill:#ea7457;stroke:#ea7457;stroke-linejoin:miter;" x="203.015262" xlink:href="#mc572b0aba7" y="213.016738"/>
     <use style="fill:#ea7457;stroke:#ea7457;stroke-linejoin:miter;" x="210.570628" xlink:href="#mc572b0aba7" y="191.694493"/>
     <use style="fill:#ea7457;stroke:#ea7457;stroke-linejoin:miter;" x="216.452637" xlink:href="#mc572b0aba7" y="176.788133"/>
     <use style="fill:#ea7457;stroke:#ea7457;stroke-linejoin:miter;" x="221.248035" xlink:href="#mc572b0aba7" y="166.345278"/>
     <use style="fill:#ea7457;stroke:#ea7457;stroke-linejoin:miter;" x="225.296222" xlink:href="#mc572b0aba7" y="158.89982"/>
     <use style="fill:#ea7457;stroke:#ea7457;stroke-linejoin:miter;" x="228.80717" xlink:href="#mc572b0aba7" y="153.47441"/>
     <use style="fill:#ea7457;stroke:#ea7457;stroke-linejoin:miter;" x="231.91854" xlink:href="#mc572b0aba7" y="149.436175"/>
     <use style="fill:#ea7457;stroke:#ea7457;stroke-linejoin:miter;" x="234.698267" xlink:href="#mc572b0aba7" y="146.355868"/>
    </g>
   </g>
   <g id="line2d_22">
    <path clip-path="url(#p14f25c6a91)" d="M 177.906421 282.698241 
L 196.365634 281.911255 
L 207.132806 279.993238 
L 214.998625 277.548232 
L 221.487394 274.849262 
L 226.004414 271.978146 
L 229.711459 268.962449 
L 233.062853 265.816333 
L 236.019816 262.556357 
L 238.806058 259.205223 
" style="fill:none;stroke:#f2844b;stroke-dasharray:1.5,2.475;stroke-dashoffset:0;stroke-width:1.5;"/>
    <defs>
     <path d="M -3 3 
L 3 3 
L 3 -3 
L -3 -3 
z
" id="m06292f6221" style="stroke:#f2844b;stroke-linejoin:miter;"/>
    </defs>
    <g clip-path="url(#p14f25c6a91)">
     <use style="fill:#f2844b;stroke:#f2844b;stroke-linejoin:miter;" x="177.906421" xlink:href="#m06292f6221" y="282.698241"/>
     <use style="fill:#f2844b;stroke:#f2844b;stroke-linejoin:miter;" x="196.365634" xlink:href="#m06292f6221" y="281.911255"/>
     <use style="fill:#f2844b;stroke:#f2844b;stroke-linejoin:miter;" x="207.132806" xlink:href="#m06292f6221" y="279.993238"/>
     <use style="fill:#f2844b;stroke:#f2844b;stroke-linejoin:miter;" x="214.998625" xlink:href="#m06292f6221" y="277.548232"/>
     <use style="fill:#f2844b;stroke:#f2844b;stroke-linejoin:miter;" x="221.487394" xlink:href="#m06292f6221" y="274.849262"/>
     <use style="fill:#f2844b;stroke:#f2844b;stroke-linejoin:miter;" x="226.004414" xlink:href="#m06292f6221" y="271.978146"/>
     <use style="fill:#f2844b;stroke:#f2844b;stroke-linejoin:miter;" x="229.711459" xlink:href="#m06292f6221" y="268.962449"/>
     <use style="fill:#f2844b;stroke:#f2844b;stroke-linejoin:miter;" x="233.062853" xlink:href="#m06292f6221" y="265.816333"/>
     <use style="fill:#f2844b;stroke:#f2844b;stroke-linejoin:miter;" x="236.019816" xlink:href="#m06292f6221" y="262.556357"/>
     <use style="fill:#f2844b;stroke:#f2844b;stroke-linejoin:miter;" x="238.806058" xlink:href="#m06292f6221" y="259.205223"/>
    </g>
   </g>
   <g id="line2d_23">
    <path clip-path="url(#p14f25c6a91)" d="M 175.914976 282.723084 
L 194.190408 282.547501 
L 204.851297 282.196555 
L 212.381665 281.659013 
L 218.352952 280.928318 
L 223.427811 280.005734 
L 227.518861 278.900689 
L 231.08157 277.626107 
L 234.310347 276.197595 
L 237.044613 274.634749 
" style="fill:none;stroke:#f89540;stroke-dasharray:5.55,2.4;stroke-dashoffset:0;stroke-width:1.5;"/>
    <defs>
     <path d="M -3 3 
L 3 3 
L 3 -3 
L -3 -3 
z
" id="m25dba84889" style="stroke:#f89540;stroke-linejoin:miter;"/>
    </defs>
    <g clip-path="url(#p14f25c6a91)">
     <use style="fill:#f89540;stroke:#f89540;stroke-linejoin:miter;" x="175.914976" xlink:href="#m25dba84889" y="282.723084"/>
     <use style="fill:#f89540;stroke:#f89540;stroke-linejoin:miter;" x="194.190408" xlink:href="#m25dba84889" y="282.547501"/>
     <use style="fill:#f89540;stroke:#f89540;stroke-linejoin:miter;" x="204.851297" xlink:href="#m25dba84889" y="282.196555"/>
     <use style="fill:#f89540;stroke:#f89540;stroke-linejoin:miter;" x="212.381665" xlink:href="#m25dba84889" y="281.659013"/>
     <use style="fill:#f89540;stroke:#f89540;stroke-linejoin:miter;" x="218.352952" xlink:href="#m25dba84889" y="280.928318"/>
     <use style="fill:#f89540;stroke:#f89540;stroke-linejoin:miter;" x="223.427811" xlink:href="#m25dba84889" y="280.005734"/>
     <use style="fill:#f89540;stroke:#f89540;stroke-linejoin:miter;" x="227.518861" xlink:href="#m25dba84889" y="278.900689"/>
     <use style="fill:#f89540;stroke:#f89540;stroke-linejoin:miter;" x="231.08157" xlink:href="#m25dba84889" y="277.626107"/>
     <use style="fill:#f89540;stroke:#f89540;stroke-linejoin:miter;" x="234.310347" xlink:href="#m25dba84889" y="276.197595"/>
     <use style="fill:#f89540;stroke:#f89540;stroke-linejoin:miter;" x="237.044613" xlink:href="#m25dba84889" y="274.634749"/>
    </g>
   </g>
   <g id="line2d_24">
    <path clip-path="url(#p14f25c6a91)" d="M 177.407439 282.620816 
L 195.219376 280.771582 
L 205.842065 276.659483 
L 213.000139 270.838479 
L 218.905179 264.067435 
L 223.747106 257.015487 
L 227.840624 250.087563 
L 231.385544 243.542798 
L 234.507139 237.459256 
L 237.332731 231.828664 
" style="fill:none;stroke:#f7e425;stroke-dasharray:1.5,2.475;stroke-dashoffset:0;stroke-width:1.5;"/>
    <defs>
     <path d="M 0 3 
C 0.795609 3 1.55874 2.683901 2.12132 2.12132 
C 2.683901 1.55874 3 0.795609 3 0 
C 3 -0.795609 2.683901 -1.55874 2.12132 -2.12132 
C 1.55874 -2.683901 0.795609 -3 0 -3 
C -0.795609 -3 -1.55874 -2.683901 -2.12132 -2.12132 
C -2.683901 -1.55874 -3 -0.795609 -3 0 
C -3 0.795609 -2.683901 1.55874 -2.12132 2.12132 
C -1.55874 2.683901 -0.795609 3 0 3 
z
" id="m295995cb12" style="stroke:#f7e425;"/>
    </defs>
    <g clip-path="url(#p14f25c6a91)">
     <use style="fill:#f7e425;stroke:#f7e425;" x="177.407439" xlink:href="#m295995cb12" y="282.620816"/>
     <use style="fill:#f7e425;stroke:#f7e425;" x="195.219376" xlink:href="#m295995cb12" y="280.771582"/>
     <use style="fill:#f7e425;stroke:#f7e425;" x="205.842065" xlink:href="#m295995cb12" y="276.659483"/>
     <use style="fill:#f7e425;stroke:#f7e425;" x="213.000139" xlink:href="#m295995cb12" y="270.838479"/>
     <use style="fill:#f7e425;stroke:#f7e425;" x="218.905179" xlink:href="#m295995cb12" y="264.067435"/>
     <use style="fill:#f7e425;stroke:#f7e425;" x="223.747106" xlink:href="#m295995cb12" y="257.015487"/>
     <use style="fill:#f7e425;stroke:#f7e425;" x="227.840624" xlink:href="#m295995cb12" y="250.087563"/>
     <use style="fill:#f7e425;stroke:#f7e425;" x="231.385544" xlink:href="#m295995cb12" y="243.542798"/>
     <use style="fill:#f7e425;stroke:#f7e425;" x="234.507139" xlink:href="#m295995cb12" y="237.459256"/>
     <use style="fill:#f7e425;stroke:#f7e425;" x="237.332731" xlink:href="#m295995cb12" y="231.828664"/>
    </g>
   </g>
   <g id="line2d_25">
    <path clip-path="url(#p14f25c6a91)" d="M 175.769352 282.722641 
L 193.967051 282.544135 
L 204.709436 282.185479 
L 212.559672 281.632692 
L 218.576715 280.875802 
L 223.321733 279.915808 
L 227.492297 278.758677 
L 230.989931 277.415705 
L 234.08633 275.901361 
L 236.929905 274.234833 
" style="fill:none;stroke:#fcce25;stroke-dasharray:5.55,2.4;stroke-dashoffset:0;stroke-width:1.5;"/>
    <defs>
     <path d="M 0 3 
C 0.795609 3 1.55874 2.683901 2.12132 2.12132 
C 2.683901 1.55874 3 0.795609 3 0 
C 3 -0.795609 2.683901 -1.55874 2.12132 -2.12132 
C 1.55874 -2.683901 0.795609 -3 0 -3 
C -0.795609 -3 -1.55874 -2.683901 -2.12132 -2.12132 
C -2.683901 -1.55874 -3 -0.795609 -3 0 
C -3 0.795609 -2.683901 1.55874 -2.12132 2.12132 
C -1.55874 2.683901 -0.795609 3 0 3 
z
" id="me96dd39ec2" style="stroke:#fcce25;"/>
    </defs>
    <g clip-path="url(#p14f25c6a91)">
     <use style="fill:#fcce25;stroke:#fcce25;" x="175.769352" xlink:href="#me96dd39ec2" y="282.722641"/>
     <use style="fill:#fcce25;stroke:#fcce25;" x="193.967051" xlink:href="#me96dd39ec2" y="282.544135"/>
     <use style="fill:#fcce25;stroke:#fcce25;" x="204.709436" xlink:href="#me96dd39ec2" y="282.185479"/>
     <use style="fill:#fcce25;stroke:#fcce25;" x="212.559672" xlink:href="#me96dd39ec2" y="281.632692"/>
     <use style="fill:#fcce25;stroke:#fcce25;" x="218.576715" xlink:href="#me96dd39ec2" y="280.875802"/>
     <use style="fill:#fcce25;stroke:#fcce25;" x="223.321733" xlink:href="#me96dd39ec2" y="279.915808"/>
     <use style="fill:#fcce25;stroke:#fcce25;" x="227.492297" xlink:href="#me96dd39ec2" y="278.758677"/>
     <use style="fill:#fcce25;stroke:#fcce25;" x="230.989931" xlink:href="#me96dd39ec2" y="277.415705"/>
     <use style="fill:#fcce25;stroke:#fcce25;" x="234.08633" xlink:href="#me96dd39ec2" y="275.901361"/>
     <use style="fill:#fcce25;stroke:#fcce25;" x="236.929905" xlink:href="#me96dd39ec2" y="274.234833"/>
    </g>
   </g>
   <g id="line2d_26">
    <path clip-path="url(#p14f25c6a91)" d="M 173.802126 277.385574 
L 191.934648 260.507565 
L 202.384499 239.886362 
L 209.622587 221.110624 
L 215.334023 205.783824 
L 219.994627 193.78925 
L 223.956061 184.569359 
L 227.37291 177.524529 
L 230.499692 172.149274 
L 233.211518 168.034674 
" style="fill:none;stroke:#cc4778;stroke-linecap:square;stroke-width:1.5;"/>
    <defs>
     <path d="M -3 -0 
L 3 3 
L 3 -3 
z
" id="ma312d047d1" style="stroke:#cc4778;stroke-linejoin:miter;"/>
    </defs>
    <g clip-path="url(#p14f25c6a91)">
     <use style="fill:#cc4778;stroke:#cc4778;stroke-linejoin:miter;" x="173.802126" xlink:href="#ma312d047d1" y="277.385574"/>
     <use style="fill:#cc4778;stroke:#cc4778;stroke-linejoin:miter;" x="191.934648" xlink:href="#ma312d047d1" y="260.507565"/>
     <use style="fill:#cc4778;stroke:#cc4778;stroke-linejoin:miter;" x="202.384499" xlink:href="#ma312d047d1" y="239.886362"/>
     <use style="fill:#cc4778;stroke:#cc4778;stroke-linejoin:miter;" x="209.622587" xlink:href="#ma312d047d1" y="221.110624"/>
     <use style="fill:#cc4778;stroke:#cc4778;stroke-linejoin:miter;" x="215.334023" xlink:href="#ma312d047d1" y="205.783824"/>
     <use style="fill:#cc4778;stroke:#cc4778;stroke-linejoin:miter;" x="219.994627" xlink:href="#ma312d047d1" y="193.78925"/>
     <use style="fill:#cc4778;stroke:#cc4778;stroke-linejoin:miter;" x="223.956061" xlink:href="#ma312d047d1" y="184.569359"/>
     <use style="fill:#cc4778;stroke:#cc4778;stroke-linejoin:miter;" x="227.37291" xlink:href="#ma312d047d1" y="177.524529"/>
     <use style="fill:#cc4778;stroke:#cc4778;stroke-linejoin:miter;" x="230.499692" xlink:href="#ma312d047d1" y="172.149274"/>
     <use style="fill:#cc4778;stroke:#cc4778;stroke-linejoin:miter;" x="233.211518" xlink:href="#ma312d047d1" y="168.034674"/>
    </g>
   </g>
   <g id="line2d_27">
    <path clip-path="url(#p14f25c6a91)" d="M 172.372708 282.76 
L 190.832443 282.76 
L 201.437082 282.76 
L 208.895346 282.76 
L 214.725111 282.76 
L 219.53029 282.76 
L 223.617667 282.76 
L 227.088045 282.76 
L 230.237578 282.76 
" style="fill:none;stroke:#0d0887;stroke-linecap:square;stroke-width:1.5;"/>
   </g>
   <g id="line2d_28">
    <path clip-path="url(#p14f25c6a91)" d="M 173.441688 281.644533 
L 191.855573 277.615754 
L 202.591912 270.70844 
L 210.264219 261.946866 
L 216.139535 252.245731 
L 220.936655 242.377694 
L 224.955888 232.848506 
L 228.407824 223.947935 
L 231.445906 215.814047 
L 234.196148 208.483022 
" style="fill:none;stroke:#fca636;stroke-linecap:square;stroke-width:1.5;"/>
    <defs>
     <path d="M -0 4.242641 
L 2.545584 0 
L 0 -4.242641 
L -2.545584 -0 
z
" id="mc0d7b2a1e0" style="stroke:#fca636;stroke-linejoin:miter;"/>
    </defs>
    <g clip-path="url(#p14f25c6a91)">
     <use style="fill:#fca636;stroke:#fca636;stroke-linejoin:miter;" x="173.441688" xlink:href="#mc0d7b2a1e0" y="281.644533"/>
     <use style="fill:#fca636;stroke:#fca636;stroke-linejoin:miter;" x="191.855573" xlink:href="#mc0d7b2a1e0" y="277.615754"/>
     <use style="fill:#fca636;stroke:#fca636;stroke-linejoin:miter;" x="202.591912" xlink:href="#mc0d7b2a1e0" y="270.70844"/>
     <use style="fill:#fca636;stroke:#fca636;stroke-linejoin:miter;" x="210.264219" xlink:href="#mc0d7b2a1e0" y="261.946866"/>
     <use style="fill:#fca636;stroke:#fca636;stroke-linejoin:miter;" x="216.139535" xlink:href="#mc0d7b2a1e0" y="252.245731"/>
     <use style="fill:#fca636;stroke:#fca636;stroke-linejoin:miter;" x="220.936655" xlink:href="#mc0d7b2a1e0" y="242.377694"/>
     <use style="fill:#fca636;stroke:#fca636;stroke-linejoin:miter;" x="224.955888" xlink:href="#mc0d7b2a1e0" y="232.848506"/>
     <use style="fill:#fca636;stroke:#fca636;stroke-linejoin:miter;" x="228.407824" xlink:href="#mc0d7b2a1e0" y="223.947935"/>
     <use style="fill:#fca636;stroke:#fca636;stroke-linejoin:miter;" x="231.445906" xlink:href="#mc0d7b2a1e0" y="215.814047"/>
     <use style="fill:#fca636;stroke:#fca636;stroke-linejoin:miter;" x="234.196148" xlink:href="#mc0d7b2a1e0" y="208.483022"/>
    </g>
   </g>
   <g id="patch_3">
    <path d="M 153.629473 282.76 
L 153.629473 25.92 
" style="fill:none;stroke:#000000;stroke-linecap:square;stroke-linejoin:miter;stroke-width:0.8;"/>
   </g>
   <g id="patch_4">
    <path d="M 429.755 282.76 
L 429.755 25.92 
" style="fill:none;stroke:#000000;stroke-linecap:square;stroke-linejoin:miter;stroke-width:0.8;"/>
   </g>
   <g id="patch_5">
    <path d="M 153.629473 282.76 
L 429.755 282.76 
" style="fill:none;stroke:#000000;stroke-linecap:square;stroke-linejoin:miter;stroke-width:0.8;"/>
   </g>
   <g id="patch_6">
    <path d="M 153.629473 25.92 
L 429.755 25.92 
" style="fill:none;stroke:#000000;stroke-linecap:square;stroke-linejoin:miter;stroke-width:0.8;"/>
   </g>
   <g id="text_19">
    <!-- /azp/agent/_work/1/s/tomopy.github.io/2021-02-10/peppers -->
    <g transform="translate(113.381611 19.92)scale(0.12 -0.12)">
     <defs>
      <path d="M 25.390625 72.90625 
L 33.6875 72.90625 
L 8.296875 -9.28125 
L 0 -9.28125 
z
" id="DejaVuSans-47"/>
      <path d="M 5.515625 54.6875 
L 48.1875 54.6875 
L 48.1875 46.484375 
L 14.40625 7.171875 
L 48.1875 7.171875 
L 48.1875 0 
L 4.296875 0 
L 4.296875 8.203125 
L 38.09375 47.515625 
L 5.515625 47.515625 
z
" id="DejaVuSans-122"/>
      <path d="M 45.40625 27.984375 
Q 45.40625 37.75 41.375 43.109375 
Q 37.359375 48.484375 30.078125 48.484375 
Q 22.859375 48.484375 18.828125 43.109375 
Q 14.796875 37.75 14.796875 27.984375 
Q 14.796875 18.265625 18.828125 12.890625 
Q 22.859375 7.515625 30.078125 7.515625 
Q 37.359375 7.515625 41.375 12.890625 
Q 45.40625 18.265625 45.40625 27.984375 
z
M 54.390625 6.78125 
Q 54.390625 -7.171875 48.1875 -13.984375 
Q 42 -20.796875 29.203125 -20.796875 
Q 24.46875 -20.796875 20.265625 -20.09375 
Q 16.0625 -19.390625 12.109375 -17.921875 
L 12.109375 -9.1875 
Q 16.0625 -11.328125 19.921875 -12.34375 
Q 23.78125 -13.375 27.78125 -13.375 
Q 36.625 -13.375 41.015625 -8.765625 
Q 45.40625 -4.15625 45.40625 5.171875 
L 45.40625 9.625 
Q 42.625 4.78125 38.28125 2.390625 
Q 33.9375 0 27.875 0 
Q 17.828125 0 11.671875 7.65625 
Q 5.515625 15.328125 5.515625 27.984375 
Q 5.515625 40.671875 11.671875 48.328125 
Q 17.828125 56 27.875 56 
Q 33.9375 56 38.28125 53.609375 
Q 42.625 51.21875 45.40625 46.390625 
L 45.40625 54.6875 
L 54.390625 54.6875 
z
" id="DejaVuSans-103"/>
      <path d="M 50.984375 -16.609375 
L 50.984375 -23.578125 
L -0.984375 -23.578125 
L -0.984375 -16.609375 
z
" id="DejaVuSans-95"/>
      <path d="M 30.609375 48.390625 
Q 23.390625 48.390625 19.1875 42.75 
Q 14.984375 37.109375 14.984375 27.296875 
Q 14.984375 17.484375 19.15625 11.84375 
Q 23.34375 6.203125 30.609375 6.203125 
Q 37.796875 6.203125 41.984375 11.859375 
Q 46.1875 17.53125 46.1875 27.296875 
Q 46.1875 37.015625 41.984375 42.703125 
Q 37.796875 48.390625 30.609375 48.390625 
z
M 30.609375 56 
Q 42.328125 56 49.015625 48.375 
Q 55.71875 40.765625 55.71875 27.296875 
Q 55.71875 13.875 49.015625 6.21875 
Q 42.328125 -1.421875 30.609375 -1.421875 
Q 18.84375 -1.421875 12.171875 6.21875 
Q 5.515625 13.875 5.515625 27.296875 
Q 5.515625 40.765625 12.171875 48.375 
Q 18.84375 56 30.609375 56 
z
" id="DejaVuSans-111"/>
      <path d="M 9.078125 75.984375 
L 18.109375 75.984375 
L 18.109375 31.109375 
L 44.921875 54.6875 
L 56.390625 54.6875 
L 27.390625 29.109375 
L 57.625 0 
L 45.90625 0 
L 18.109375 26.703125 
L 18.109375 0 
L 9.078125 0 
z
" id="DejaVuSans-107"/>
      <path d="M 32.171875 -5.078125 
Q 28.375 -14.84375 24.75 -17.8125 
Q 21.140625 -20.796875 15.09375 -20.796875 
L 7.90625 -20.796875 
L 7.90625 -13.28125 
L 13.1875 -13.28125 
Q 16.890625 -13.28125 18.9375 -11.515625 
Q 21 -9.765625 23.484375 -3.21875 
L 25.09375 0.875 
L 2.984375 54.6875 
L 12.5 54.6875 
L 29.59375 11.921875 
L 46.6875 54.6875 
L 56.203125 54.6875 
z
" id="DejaVuSans-121"/>
      <path d="M 8.5 21.578125 
L 8.5 54.6875 
L 17.484375 54.6875 
L 17.484375 21.921875 
Q 17.484375 14.15625 20.5 10.265625 
Q 23.53125 6.390625 29.59375 6.390625 
Q 36.859375 6.390625 41.078125 11.03125 
Q 45.3125 15.671875 45.3125 23.6875 
L 45.3125 54.6875 
L 54.296875 54.6875 
L 54.296875 0 
L 45.3125 0 
L 45.3125 8.40625 
Q 42.046875 3.421875 37.71875 1 
Q 33.40625 -1.421875 27.6875 -1.421875 
Q 18.265625 -1.421875 13.375 4.4375 
Q 8.5 10.296875 8.5 21.578125 
z
M 31.109375 56 
z
" id="DejaVuSans-117"/>
      <path d="M 48.6875 27.296875 
Q 48.6875 37.203125 44.609375 42.84375 
Q 40.53125 48.484375 33.40625 48.484375 
Q 26.265625 48.484375 22.1875 42.84375 
Q 18.109375 37.203125 18.109375 27.296875 
Q 18.109375 17.390625 22.1875 11.75 
Q 26.265625 6.109375 33.40625 6.109375 
Q 40.53125 6.109375 44.609375 11.75 
Q 48.6875 17.390625 48.6875 27.296875 
z
M 18.109375 46.390625 
Q 20.953125 51.265625 25.265625 53.625 
Q 29.59375 56 35.59375 56 
Q 45.5625 56 51.78125 48.09375 
Q 58.015625 40.1875 58.015625 27.296875 
Q 58.015625 14.40625 51.78125 6.484375 
Q 45.5625 -1.421875 35.59375 -1.421875 
Q 29.59375 -1.421875 25.265625 0.953125 
Q 20.953125 3.328125 18.109375 8.203125 
L 18.109375 0 
L 9.078125 0 
L 9.078125 75.984375 
L 18.109375 75.984375 
z
" id="DejaVuSans-98"/>
     </defs>
     <use xlink:href="#DejaVuSans-47"/>
     <use x="33.691406" xlink:href="#DejaVuSans-97"/>
     <use x="94.970703" xlink:href="#DejaVuSans-122"/>
     <use x="147.460938" xlink:href="#DejaVuSans-112"/>
     <use x="210.9375" xlink:href="#DejaVuSans-47"/>
     <use x="244.628906" xlink:href="#DejaVuSans-97"/>
     <use x="305.908203" xlink:href="#DejaVuSans-103"/>
     <use x="369.384766" xlink:href="#DejaVuSans-101"/>
     <use x="430.908203" xlink:href="#DejaVuSans-110"/>
     <use x="494.287109" xlink:href="#DejaVuSans-116"/>
     <use x="533.496094" xlink:href="#DejaVuSans-47"/>
     <use x="567.1875" xlink:href="#DejaVuSans-95"/>
     <use x="617.1875" xlink:href="#DejaVuSans-119"/>
     <use x="698.974609" xlink:href="#DejaVuSans-111"/>
     <use x="760.15625" xlink:href="#DejaVuSans-114"/>
     <use x="801.269531" xlink:href="#DejaVuSans-107"/>
     <use x="859.179688" xlink:href="#DejaVuSans-47"/>
     <use x="892.871094" xlink:href="#DejaVuSans-49"/>
     <use x="956.494141" xlink:href="#DejaVuSans-47"/>
     <use x="990.185547" xlink:href="#DejaVuSans-115"/>
     <use x="1042.285156" xlink:href="#DejaVuSans-47"/>
     <use x="1075.976562" xlink:href="#DejaVuSans-116"/>
     <use x="1115.185547" xlink:href="#DejaVuSans-111"/>
     <use x="1176.367188" xlink:href="#DejaVuSans-109"/>
     <use x="1273.779297" xlink:href="#DejaVuSans-111"/>
     <use x="1334.960938" xlink:href="#DejaVuSans-112"/>
     <use x="1398.4375" xlink:href="#DejaVuSans-121"/>
     <use x="1443.367188" xlink:href="#DejaVuSans-46"/>
     <use x="1475.154297" xlink:href="#DejaVuSans-103"/>
     <use x="1538.630859" xlink:href="#DejaVuSans-105"/>
     <use x="1566.414062" xlink:href="#DejaVuSans-116"/>
     <use x="1605.623047" xlink:href="#DejaVuSans-104"/>
     <use x="1669.001953" xlink:href="#DejaVuSans-117"/>
     <use x="1732.380859" xlink:href="#DejaVuSans-98"/>
     <use x="1795.857422" xlink:href="#DejaVuSans-46"/>
     <use x="1827.644531" xlink:href="#DejaVuSans-105"/>
     <use x="1855.427734" xlink:href="#DejaVuSans-111"/>
     <use x="1916.609375" xlink:href="#DejaVuSans-47"/>
     <use x="1950.300781" xlink:href="#DejaVuSans-50"/>
     <use x="2013.923828" xlink:href="#DejaVuSans-48"/>
     <use x="2077.546875" xlink:href="#DejaVuSans-50"/>
     <use x="2141.169922" xlink:href="#DejaVuSans-49"/>
     <use x="2204.792969" xlink:href="#DejaVuSans-45"/>
     <use x="2240.876953" xlink:href="#DejaVuSans-48"/>
     <use x="2304.5" xlink:href="#DejaVuSans-50"/>
     <use x="2368.123047" xlink:href="#DejaVuSans-45"/>
     <use x="2404.207031" xlink:href="#DejaVuSans-49"/>
     <use x="2467.830078" xlink:href="#DejaVuSans-48"/>
     <use x="2531.453125" xlink:href="#DejaVuSans-47"/>
     <use x="2565.144531" xlink:href="#DejaVuSans-112"/>
     <use x="2628.621094" xlink:href="#DejaVuSans-101"/>
     <use x="2690.144531" xlink:href="#DejaVuSans-112"/>
     <use x="2753.621094" xlink:href="#DejaVuSans-112"/>
     <use x="2817.097656" xlink:href="#DejaVuSans-101"/>
     <use x="2878.621094" xlink:href="#DejaVuSans-114"/>
     <use x="2919.734375" xlink:href="#DejaVuSans-115"/>
    </g>
   </g>
   <g id="legend_1">
    <g id="patch_7">
     <path d="M 445.561276 206.17 
L 554.598776 206.17 
Q 556.598776 206.17 556.598776 204.17 
L 556.598776 27.92 
Q 556.598776 25.92 554.598776 25.92 
L 445.561276 25.92 
Q 443.561276 25.92 443.561276 27.92 
L 443.561276 204.17 
Q 443.561276 206.17 445.561276 206.17 
z
" style="fill:#ffffff;opacity:0.8;stroke:#cccccc;stroke-linejoin:miter;"/>
    </g>
    <g id="LineCollection_13">
     <path d="M 462.561276 39.018437 
L 462.561276 29.018437 
" style="fill:none;stroke:#41049d;stroke-width:1.5;"/>
    </g>
    <g id="line2d_29"/>
    <g id="line2d_30">
     <g>
      <use style="fill:#41049d;stroke:#41049d;stroke-linejoin:miter;" x="462.561276" xlink:href="#m83896fa6bd" y="34.018437"/>
     </g>
    </g>
    <g id="text_20">
     <!-- fbp -->
     <g transform="translate(485.561276 37.518437)scale(0.1 -0.1)">
      <defs>
       <path d="M 37.109375 75.984375 
L 37.109375 68.5 
L 28.515625 68.5 
Q 23.6875 68.5 21.796875 66.546875 
Q 19.921875 64.59375 19.921875 59.515625 
L 19.921875 54.6875 
L 34.71875 54.6875 
L 34.71875 47.703125 
L 19.921875 47.703125 
L 19.921875 0 
L 10.890625 0 
L 10.890625 47.703125 
L 2.296875 47.703125 
L 2.296875 54.6875 
L 10.890625 54.6875 
L 10.890625 58.5 
Q 10.890625 67.625 15.140625 71.796875 
Q 19.390625 75.984375 28.609375 75.984375 
z
" id="DejaVuSans-102"/>
      </defs>
      <use xlink:href="#DejaVuSans-102"/>
      <use x="35.205078" xlink:href="#DejaVuSans-98"/>
      <use x="98.681641" xlink:href="#DejaVuSans-112"/>
     </g>
    </g>
    <g id="LineCollection_14">
     <path d="M 462.561276 53.696562 
L 462.561276 43.696562 
" style="fill:none;stroke:#e16462;stroke-width:1.5;"/>
    </g>
    <g id="line2d_31">
     <path d="M 447.561276 48.696562 
L 477.561276 48.696562 
" style="fill:none;stroke:#e16462;stroke-linecap:square;stroke-width:1.5;"/>
    </g>
    <g id="line2d_32">
     <g>
      <use style="fill:#e16462;stroke:#e16462;stroke-linejoin:miter;" x="462.561276" xlink:href="#mc8fc6a3f16" y="48.696562"/>
     </g>
    </g>
    <g id="text_21">
     <!-- grad -->
     <g transform="translate(485.561276 52.196562)scale(0.1 -0.1)">
      <use xlink:href="#DejaVuSans-103"/>
      <use x="63.476562" xlink:href="#DejaVuSans-114"/>
      <use x="104.589844" xlink:href="#DejaVuSans-97"/>
      <use x="165.869141" xlink:href="#DejaVuSans-100"/>
     </g>
    </g>
    <g id="LineCollection_15">
     <path d="M 462.561276 68.374687 
L 462.561276 58.374687 
" style="fill:none;stroke:#0d0887;stroke-width:1.5;"/>
    </g>
    <g id="line2d_33"/>
    <g id="line2d_34">
     <g>
      <use style="fill:#0d0887;stroke:#0d0887;" x="462.561276" xlink:href="#md2de82727f" y="63.374687"/>
     </g>
    </g>
    <g id="text_22">
     <!-- gridrec -->
     <g transform="translate(485.561276 66.874687)scale(0.1 -0.1)">
      <use xlink:href="#DejaVuSans-103"/>
      <use x="63.476562" xlink:href="#DejaVuSans-114"/>
      <use x="104.589844" xlink:href="#DejaVuSans-105"/>
      <use x="132.373047" xlink:href="#DejaVuSans-100"/>
      <use x="195.849609" xlink:href="#DejaVuSans-114"/>
      <use x="234.712891" xlink:href="#DejaVuSans-101"/>
      <use x="296.236328" xlink:href="#DejaVuSans-99"/>
     </g>
    </g>
    <g id="LineCollection_16">
     <path d="M 462.561276 83.052812 
L 462.561276 73.052812 
" style="fill:none;stroke:#f0f921;stroke-width:1.5;"/>
    </g>
    <g id="line2d_35">
     <path d="M 447.561276 78.052812 
L 477.561276 78.052812 
" style="fill:none;stroke:#f0f921;stroke-linecap:square;stroke-width:1.5;"/>
    </g>
    <g id="line2d_36">
     <g>
      <use style="fill:#f0f921;stroke:#f0f921;" x="462.561276" xlink:href="#mab565269ac" y="78.052812"/>
     </g>
    </g>
    <g id="text_23">
     <!-- mlem -->
     <g transform="translate(485.561276 81.552812)scale(0.1 -0.1)">
      <use xlink:href="#DejaVuSans-109"/>
      <use x="97.412109" xlink:href="#DejaVuSans-108"/>
      <use x="125.195312" xlink:href="#DejaVuSans-101"/>
      <use x="186.71875" xlink:href="#DejaVuSans-109"/>
     </g>
    </g>
    <g id="LineCollection_17">
     <path d="M 462.561276 97.730937 
L 462.561276 87.730937 
" style="fill:none;stroke:#ea7457;stroke-width:1.5;"/>
    </g>
    <g id="line2d_37">
     <path d="M 447.561276 92.730937 
L 477.561276 92.730937 
" style="fill:none;stroke:#ea7457;stroke-linecap:square;stroke-width:1.5;"/>
    </g>
    <g id="line2d_38">
     <g>
      <use style="fill:#ea7457;stroke:#ea7457;stroke-linejoin:miter;" x="462.561276" xlink:href="#mc572b0aba7" y="92.730937"/>
     </g>
    </g>
    <g id="text_24">
     <!-- osem -->
     <g transform="translate(485.561276 96.230937)scale(0.1 -0.1)">
      <use xlink:href="#DejaVuSans-111"/>
      <use x="61.181641" xlink:href="#DejaVuSans-115"/>
      <use x="113.28125" xlink:href="#DejaVuSans-101"/>
      <use x="174.804688" xlink:href="#DejaVuSans-109"/>
     </g>
    </g>
    <g id="LineCollection_18">
     <path d="M 462.561276 112.409062 
L 462.561276 102.409062 
" style="fill:none;stroke:#f2844b;stroke-width:1.5;"/>
    </g>
    <g id="line2d_39">
     <path d="M 447.561276 107.409062 
L 477.561276 107.409062 
" style="fill:none;stroke:#f2844b;stroke-dasharray:1.5,2.475;stroke-dashoffset:0;stroke-width:1.5;"/>
    </g>
    <g id="line2d_40">
     <g>
      <use style="fill:#f2844b;stroke:#f2844b;stroke-linejoin:miter;" x="462.561276" xlink:href="#m06292f6221" y="107.409062"/>
     </g>
    </g>
    <g id="text_25">
     <!-- ospml_hybrid -->
     <g transform="translate(485.561276 110.909062)scale(0.1 -0.1)">
      <use xlink:href="#DejaVuSans-111"/>
      <use x="61.181641" xlink:href="#DejaVuSans-115"/>
      <use x="113.28125" xlink:href="#DejaVuSans-112"/>
      <use x="176.757812" xlink:href="#DejaVuSans-109"/>
      <use x="274.169922" xlink:href="#DejaVuSans-108"/>
      <use x="301.953125" xlink:href="#DejaVuSans-95"/>
      <use x="351.953125" xlink:href="#DejaVuSans-104"/>
      <use x="415.332031" xlink:href="#DejaVuSans-121"/>
      <use x="474.511719" xlink:href="#DejaVuSans-98"/>
      <use x="537.988281" xlink:href="#DejaVuSans-114"/>
      <use x="579.101562" xlink:href="#DejaVuSans-105"/>
      <use x="606.884766" xlink:href="#DejaVuSans-100"/>
     </g>
    </g>
    <g id="LineCollection_19">
     <path d="M 462.561276 127.365312 
L 462.561276 117.365312 
" style="fill:none;stroke:#f89540;stroke-width:1.5;"/>
    </g>
    <g id="line2d_41">
     <path d="M 447.561276 122.365312 
L 477.561276 122.365312 
" style="fill:none;stroke:#f89540;stroke-dasharray:5.55,2.4;stroke-dashoffset:0;stroke-width:1.5;"/>
    </g>
    <g id="line2d_42">
     <g>
      <use style="fill:#f89540;stroke:#f89540;stroke-linejoin:miter;" x="462.561276" xlink:href="#m25dba84889" y="122.365312"/>
     </g>
    </g>
    <g id="text_26">
     <!-- ospml_quad -->
     <g transform="translate(485.561276 125.865312)scale(0.1 -0.1)">
      <defs>
       <path d="M 14.796875 27.296875 
Q 14.796875 17.390625 18.875 11.75 
Q 22.953125 6.109375 30.078125 6.109375 
Q 37.203125 6.109375 41.296875 11.75 
Q 45.40625 17.390625 45.40625 27.296875 
Q 45.40625 37.203125 41.296875 42.84375 
Q 37.203125 48.484375 30.078125 48.484375 
Q 22.953125 48.484375 18.875 42.84375 
Q 14.796875 37.203125 14.796875 27.296875 
z
M 45.40625 8.203125 
Q 42.578125 3.328125 38.25 0.953125 
Q 33.9375 -1.421875 27.875 -1.421875 
Q 17.96875 -1.421875 11.734375 6.484375 
Q 5.515625 14.40625 5.515625 27.296875 
Q 5.515625 40.1875 11.734375 48.09375 
Q 17.96875 56 27.875 56 
Q 33.9375 56 38.25 53.625 
Q 42.578125 51.265625 45.40625 46.390625 
L 45.40625 54.6875 
L 54.390625 54.6875 
L 54.390625 -20.796875 
L 45.40625 -20.796875 
z
" id="DejaVuSans-113"/>
      </defs>
      <use xlink:href="#DejaVuSans-111"/>
      <use x="61.181641" xlink:href="#DejaVuSans-115"/>
      <use x="113.28125" xlink:href="#DejaVuSans-112"/>
      <use x="176.757812" xlink:href="#DejaVuSans-109"/>
      <use x="274.169922" xlink:href="#DejaVuSans-108"/>
      <use x="301.953125" xlink:href="#DejaVuSans-95"/>
      <use x="351.953125" xlink:href="#DejaVuSans-113"/>
      <use x="415.429688" xlink:href="#DejaVuSans-117"/>
      <use x="478.808594" xlink:href="#DejaVuSans-97"/>
      <use x="540.087891" xlink:href="#DejaVuSans-100"/>
     </g>
    </g>
    <g id="LineCollection_20">
     <path d="M 462.561276 142.321562 
L 462.561276 132.321562 
" style="fill:none;stroke:#f7e425;stroke-width:1.5;"/>
    </g>
    <g id="line2d_43">
     <path d="M 447.561276 137.321562 
L 477.561276 137.321562 
" style="fill:none;stroke:#f7e425;stroke-dasharray:1.5,2.475;stroke-dashoffset:0;stroke-width:1.5;"/>
    </g>
    <g id="line2d_44">
     <g>
      <use style="fill:#f7e425;stroke:#f7e425;" x="462.561276" xlink:href="#m295995cb12" y="137.321562"/>
     </g>
    </g>
    <g id="text_27">
     <!-- pml_hybrid -->
     <g transform="translate(485.561276 140.821562)scale(0.1 -0.1)">
      <use xlink:href="#DejaVuSans-112"/>
      <use x="63.476562" xlink:href="#DejaVuSans-109"/>
      <use x="160.888672" xlink:href="#DejaVuSans-108"/>
      <use x="188.671875" xlink:href="#DejaVuSans-95"/>
      <use x="238.671875" xlink:href="#DejaVuSans-104"/>
      <use x="302.050781" xlink:href="#DejaVuSans-121"/>
      <use x="361.230469" xlink:href="#DejaVuSans-98"/>
      <use x="424.707031" xlink:href="#DejaVuSans-114"/>
      <use x="465.820312" xlink:href="#DejaVuSans-105"/>
      <use x="493.603516" xlink:href="#DejaVuSans-100"/>
     </g>
    </g>
    <g id="LineCollection_21">
     <path d="M 462.561276 157.277812 
L 462.561276 147.277812 
" style="fill:none;stroke:#fcce25;stroke-width:1.5;"/>
    </g>
    <g id="line2d_45">
     <path d="M 447.561276 152.277812 
L 477.561276 152.277812 
" style="fill:none;stroke:#fcce25;stroke-dasharray:5.55,2.4;stroke-dashoffset:0;stroke-width:1.5;"/>
    </g>
    <g id="line2d_46">
     <g>
      <use style="fill:#fcce25;stroke:#fcce25;" x="462.561276" xlink:href="#me96dd39ec2" y="152.277812"/>
     </g>
    </g>
    <g id="text_28">
     <!-- pml_quad -->
     <g transform="translate(485.561276 155.777812)scale(0.1 -0.1)">
      <use xlink:href="#DejaVuSans-112"/>
      <use x="63.476562" xlink:href="#DejaVuSans-109"/>
      <use x="160.888672" xlink:href="#DejaVuSans-108"/>
      <use x="188.671875" xlink:href="#DejaVuSans-95"/>
      <use x="238.671875" xlink:href="#DejaVuSans-113"/>
      <use x="302.148438" xlink:href="#DejaVuSans-117"/>
      <use x="365.527344" xlink:href="#DejaVuSans-97"/>
      <use x="426.806641" xlink:href="#DejaVuSans-100"/>
     </g>
    </g>
    <g id="LineCollection_22">
     <path d="M 462.561276 172.234062 
L 462.561276 162.234062 
" style="fill:none;stroke:#cc4778;stroke-width:1.5;"/>
    </g>
    <g id="line2d_47">
     <path d="M 447.561276 167.234062 
L 477.561276 167.234062 
" style="fill:none;stroke:#cc4778;stroke-linecap:square;stroke-width:1.5;"/>
    </g>
    <g id="line2d_48">
     <g>
      <use style="fill:#cc4778;stroke:#cc4778;stroke-linejoin:miter;" x="462.561276" xlink:href="#ma312d047d1" y="167.234062"/>
     </g>
    </g>
    <g id="text_29">
     <!-- sirt -->
     <g transform="translate(485.561276 170.734062)scale(0.1 -0.1)">
      <use xlink:href="#DejaVuSans-115"/>
      <use x="52.099609" xlink:href="#DejaVuSans-105"/>
      <use x="79.882812" xlink:href="#DejaVuSans-114"/>
      <use x="120.996094" xlink:href="#DejaVuSans-116"/>
     </g>
    </g>
    <g id="LineCollection_23">
     <path d="M 462.561276 186.912187 
L 462.561276 176.912187 
" style="fill:none;stroke:#0d0887;stroke-width:1.5;"/>
    </g>
    <g id="line2d_49">
     <path d="M 447.561276 181.912187 
L 477.561276 181.912187 
" style="fill:none;stroke:#0d0887;stroke-linecap:square;stroke-width:1.5;"/>
    </g>
    <g id="line2d_50"/>
    <g id="text_30">
     <!-- tikh -->
     <g transform="translate(485.561276 185.412187)scale(0.1 -0.1)">
      <use xlink:href="#DejaVuSans-116"/>
      <use x="39.208984" xlink:href="#DejaVuSans-105"/>
      <use x="66.992188" xlink:href="#DejaVuSans-107"/>
      <use x="124.902344" xlink:href="#DejaVuSans-104"/>
     </g>
    </g>
    <g id="LineCollection_24">
     <path d="M 462.561276 201.590312 
L 462.561276 191.590312 
" style="fill:none;stroke:#fca636;stroke-width:1.5;"/>
    </g>
    <g id="line2d_51">
     <path d="M 447.561276 196.590312 
L 477.561276 196.590312 
" style="fill:none;stroke:#fca636;stroke-linecap:square;stroke-width:1.5;"/>
    </g>
    <g id="line2d_52">
     <g>
      <use style="fill:#fca636;stroke:#fca636;stroke-linejoin:miter;" x="462.561276" xlink:href="#mc0d7b2a1e0" y="196.590312"/>
     </g>
    </g>
    <g id="text_31">
     <!-- tv -->
     <g transform="translate(485.561276 200.090312)scale(0.1 -0.1)">
      <defs>
       <path d="M 2.984375 54.6875 
L 12.5 54.6875 
L 29.59375 8.796875 
L 46.6875 54.6875 
L 56.203125 54.6875 
L 35.6875 0 
L 23.484375 0 
z
" id="DejaVuSans-118"/>
      </defs>
      <use xlink:href="#DejaVuSans-116"/>
      <use x="39.208984" xlink:href="#DejaVuSans-118"/>
     </g>
    </g>
   </g>
  </g>
 </g>
 <defs>
  <clipPath id="p14f25c6a91">
   <rect height="256.84" width="276.125527" x="153.629473" y="25.92"/>
  </clipPath>
 </defs>
</svg>
