<?xml version="1.0" encoding="utf-8" standalone="no"?>
<!DOCTYPE svg PUBLIC "-//W3C//DTD SVG 1.1//EN"
  "http://www.w3.org/Graphics/SVG/1.1/DTD/svg11.dtd">
<!-- Created with matplotlib (https://matplotlib.org/) -->
<svg height="324pt" version="1.1" viewBox="0 0 576 324" width="576pt" xmlns="http://www.w3.org/2000/svg" xmlns:xlink="http://www.w3.org/1999/xlink">
 <metadata>
  <rdf:RDF xmlns:cc="http://creativecommons.org/ns#" xmlns:dc="http://purl.org/dc/elements/1.1/" xmlns:rdf="http://www.w3.org/1999/02/22-rdf-syntax-ns#">
   <cc:Work>
    <dc:type rdf:resource="http://purl.org/dc/dcmitype/StillImage"/>
    <dc:date>2021-02-12T17:35:56.874540</dc:date>
    <dc:format>image/svg+xml</dc:format>
    <dc:creator>
     <cc:Agent>
      <dc:title>Matplotlib v3.3.2, https://matplotlib.org/</dc:title>
     </cc:Agent>
    </dc:creator>
   </cc:Work>
  </rdf:RDF>
 </metadata>
 <defs>
  <style type="text/css">*{stroke-linecap:butt;stroke-linejoin:round;}</style>
 </defs>
 <g id="figure_1">
  <g id="patch_1">
   <path d="M 0 324 
L 576 324 
L 576 0 
L 0 0 
z
" style="fill:#ffffff;"/>
  </g>
  <g id="axes_1">
   <g id="patch_2">
    <path d="M 144.731892 282.76 
L 429.755 282.76 
L 429.755 25.92 
L 144.731892 25.92 
z
" style="fill:#ffffff;"/>
   </g>
   <g id="matplotlib.axis_1">
    <g id="xtick_1">
     <g id="line2d_1">
      <defs>
       <path d="M 0 0 
L 0 3.5 
" id="mb0dd210573" style="stroke:#000000;stroke-width:0.8;"/>
      </defs>
      <g>
       <use style="stroke:#000000;stroke-width:0.8;" x="144.731892" xlink:href="#mb0dd210573" y="282.76"/>
      </g>
     </g>
     <g id="text_1">
      <!-- 0.1s -->
      <g transform="translate(134.175642 297.358438)scale(0.1 -0.1)">
       <defs>
        <path d="M 31.78125 66.40625 
Q 24.171875 66.40625 20.328125 58.90625 
Q 16.5 51.421875 16.5 36.375 
Q 16.5 21.390625 20.328125 13.890625 
Q 24.171875 6.390625 31.78125 6.390625 
Q 39.453125 6.390625 43.28125 13.890625 
Q 47.125 21.390625 47.125 36.375 
Q 47.125 51.421875 43.28125 58.90625 
Q 39.453125 66.40625 31.78125 66.40625 
z
M 31.78125 74.21875 
Q 44.046875 74.21875 50.515625 64.515625 
Q 56.984375 54.828125 56.984375 36.375 
Q 56.984375 17.96875 50.515625 8.265625 
Q 44.046875 -1.421875 31.78125 -1.421875 
Q 19.53125 -1.421875 13.0625 8.265625 
Q 6.59375 17.96875 6.59375 36.375 
Q 6.59375 54.828125 13.0625 64.515625 
Q 19.53125 74.21875 31.78125 74.21875 
z
" id="DejaVuSans-48"/>
        <path d="M 10.6875 12.40625 
L 21 12.40625 
L 21 0 
L 10.6875 0 
z
" id="DejaVuSans-46"/>
        <path d="M 12.40625 8.296875 
L 28.515625 8.296875 
L 28.515625 63.921875 
L 10.984375 60.40625 
L 10.984375 69.390625 
L 28.421875 72.90625 
L 38.28125 72.90625 
L 38.28125 8.296875 
L 54.390625 8.296875 
L 54.390625 0 
L 12.40625 0 
z
" id="DejaVuSans-49"/>
        <path d="M 44.28125 53.078125 
L 44.28125 44.578125 
Q 40.484375 46.53125 36.375 47.5 
Q 32.28125 48.484375 27.875 48.484375 
Q 21.1875 48.484375 17.84375 46.4375 
Q 14.5 44.390625 14.5 40.28125 
Q 14.5 37.15625 16.890625 35.375 
Q 19.28125 33.59375 26.515625 31.984375 
L 29.59375 31.296875 
Q 39.15625 29.25 43.1875 25.515625 
Q 47.21875 21.78125 47.21875 15.09375 
Q 47.21875 7.46875 41.1875 3.015625 
Q 35.15625 -1.421875 24.609375 -1.421875 
Q 20.21875 -1.421875 15.453125 -0.5625 
Q 10.6875 0.296875 5.421875 2 
L 5.421875 11.28125 
Q 10.40625 8.6875 15.234375 7.390625 
Q 20.0625 6.109375 24.8125 6.109375 
Q 31.15625 6.109375 34.5625 8.28125 
Q 37.984375 10.453125 37.984375 14.40625 
Q 37.984375 18.0625 35.515625 20.015625 
Q 33.0625 21.96875 24.703125 23.78125 
L 21.578125 24.515625 
Q 13.234375 26.265625 9.515625 29.90625 
Q 5.8125 33.546875 5.8125 39.890625 
Q 5.8125 47.609375 11.28125 51.796875 
Q 16.75 56 26.8125 56 
Q 31.78125 56 36.171875 55.265625 
Q 40.578125 54.546875 44.28125 53.078125 
z
" id="DejaVuSans-115"/>
       </defs>
       <use xlink:href="#DejaVuSans-48"/>
       <use x="63.623047" xlink:href="#DejaVuSans-46"/>
       <use x="95.410156" xlink:href="#DejaVuSans-49"/>
       <use x="159.033203" xlink:href="#DejaVuSans-115"/>
      </g>
     </g>
    </g>
    <g id="xtick_2">
     <g id="line2d_2">
      <g>
       <use style="stroke:#000000;stroke-width:0.8;" x="207.287683" xlink:href="#mb0dd210573" y="282.76"/>
      </g>
     </g>
     <g id="text_2">
      <!-- 1s -->
      <g transform="translate(201.501746 297.358438)scale(0.1 -0.1)">
       <use xlink:href="#DejaVuSans-49"/>
       <use x="63.623047" xlink:href="#DejaVuSans-115"/>
      </g>
     </g>
    </g>
    <g id="xtick_3">
     <g id="line2d_3">
      <g>
       <use style="stroke:#000000;stroke-width:0.8;" x="251.012305" xlink:href="#mb0dd210573" y="282.76"/>
      </g>
     </g>
     <g id="text_3">
      <!-- 5s -->
      <g transform="translate(245.226367 297.358438)scale(0.1 -0.1)">
       <defs>
        <path d="M 10.796875 72.90625 
L 49.515625 72.90625 
L 49.515625 64.59375 
L 19.828125 64.59375 
L 19.828125 46.734375 
Q 21.96875 47.46875 24.109375 47.828125 
Q 26.265625 48.1875 28.421875 48.1875 
Q 40.625 48.1875 47.75 41.5 
Q 54.890625 34.8125 54.890625 23.390625 
Q 54.890625 11.625 47.5625 5.09375 
Q 40.234375 -1.421875 26.90625 -1.421875 
Q 22.3125 -1.421875 17.546875 -0.640625 
Q 12.796875 0.140625 7.71875 1.703125 
L 7.71875 11.625 
Q 12.109375 9.234375 16.796875 8.0625 
Q 21.484375 6.890625 26.703125 6.890625 
Q 35.15625 6.890625 40.078125 11.328125 
Q 45.015625 15.765625 45.015625 23.390625 
Q 45.015625 31 40.078125 35.4375 
Q 35.15625 39.890625 26.703125 39.890625 
Q 22.75 39.890625 18.8125 39.015625 
Q 14.890625 38.140625 10.796875 36.28125 
z
" id="DejaVuSans-53"/>
       </defs>
       <use xlink:href="#DejaVuSans-53"/>
       <use x="63.623047" xlink:href="#DejaVuSans-115"/>
      </g>
     </g>
    </g>
    <g id="xtick_4">
     <g id="line2d_4">
      <g>
       <use style="stroke:#000000;stroke-width:0.8;" x="269.843474" xlink:href="#mb0dd210573" y="282.76"/>
      </g>
     </g>
     <g id="text_4">
      <!-- 10s -->
      <g transform="translate(260.876287 297.358438)scale(0.1 -0.1)">
       <use xlink:href="#DejaVuSans-49"/>
       <use x="63.623047" xlink:href="#DejaVuSans-48"/>
       <use x="127.246094" xlink:href="#DejaVuSans-115"/>
      </g>
     </g>
    </g>
    <g id="xtick_5">
     <g id="line2d_5">
      <g>
       <use style="stroke:#000000;stroke-width:0.8;" x="299.690172" xlink:href="#mb0dd210573" y="282.76"/>
      </g>
     </g>
     <g id="text_5">
      <!-- 30s -->
      <g transform="translate(290.722984 297.358438)scale(0.1 -0.1)">
       <defs>
        <path d="M 40.578125 39.3125 
Q 47.65625 37.796875 51.625 33 
Q 55.609375 28.21875 55.609375 21.1875 
Q 55.609375 10.40625 48.1875 4.484375 
Q 40.765625 -1.421875 27.09375 -1.421875 
Q 22.515625 -1.421875 17.65625 -0.515625 
Q 12.796875 0.390625 7.625 2.203125 
L 7.625 11.71875 
Q 11.71875 9.328125 16.59375 8.109375 
Q 21.484375 6.890625 26.8125 6.890625 
Q 36.078125 6.890625 40.9375 10.546875 
Q 45.796875 14.203125 45.796875 21.1875 
Q 45.796875 27.640625 41.28125 31.265625 
Q 36.765625 34.90625 28.71875 34.90625 
L 20.21875 34.90625 
L 20.21875 43.015625 
L 29.109375 43.015625 
Q 36.375 43.015625 40.234375 45.921875 
Q 44.09375 48.828125 44.09375 54.296875 
Q 44.09375 59.90625 40.109375 62.90625 
Q 36.140625 65.921875 28.71875 65.921875 
Q 24.65625 65.921875 20.015625 65.03125 
Q 15.375 64.15625 9.8125 62.3125 
L 9.8125 71.09375 
Q 15.4375 72.65625 20.34375 73.4375 
Q 25.25 74.21875 29.59375 74.21875 
Q 40.828125 74.21875 47.359375 69.109375 
Q 53.90625 64.015625 53.90625 55.328125 
Q 53.90625 49.265625 50.4375 45.09375 
Q 46.96875 40.921875 40.578125 39.3125 
z
" id="DejaVuSans-51"/>
       </defs>
       <use xlink:href="#DejaVuSans-51"/>
       <use x="63.623047" xlink:href="#DejaVuSans-48"/>
       <use x="127.246094" xlink:href="#DejaVuSans-115"/>
      </g>
     </g>
    </g>
    <g id="xtick_6">
     <g id="line2d_6">
      <g>
       <use style="stroke:#000000;stroke-width:0.8;" x="318.521342" xlink:href="#mb0dd210573" y="282.76"/>
      </g>
     </g>
     <g id="text_6">
      <!-- 1m -->
      <g transform="translate(310.469779 297.358438)scale(0.1 -0.1)">
       <defs>
        <path d="M 52 44.1875 
Q 55.375 50.25 60.0625 53.125 
Q 64.75 56 71.09375 56 
Q 79.640625 56 84.28125 50.015625 
Q 88.921875 44.046875 88.921875 33.015625 
L 88.921875 0 
L 79.890625 0 
L 79.890625 32.71875 
Q 79.890625 40.578125 77.09375 44.375 
Q 74.3125 48.1875 68.609375 48.1875 
Q 61.625 48.1875 57.5625 43.546875 
Q 53.515625 38.921875 53.515625 30.90625 
L 53.515625 0 
L 44.484375 0 
L 44.484375 32.71875 
Q 44.484375 40.625 41.703125 44.40625 
Q 38.921875 48.1875 33.109375 48.1875 
Q 26.21875 48.1875 22.15625 43.53125 
Q 18.109375 38.875 18.109375 30.90625 
L 18.109375 0 
L 9.078125 0 
L 9.078125 54.6875 
L 18.109375 54.6875 
L 18.109375 46.1875 
Q 21.1875 51.21875 25.484375 53.609375 
Q 29.78125 56 35.6875 56 
Q 41.65625 56 45.828125 52.96875 
Q 50 49.953125 52 44.1875 
z
" id="DejaVuSans-109"/>
       </defs>
       <use xlink:href="#DejaVuSans-49"/>
       <use x="63.623047" xlink:href="#DejaVuSans-109"/>
      </g>
     </g>
    </g>
    <g id="xtick_7">
     <g id="line2d_7">
      <g>
       <use style="stroke:#000000;stroke-width:0.8;" x="362.245963" xlink:href="#mb0dd210573" y="282.76"/>
      </g>
     </g>
     <g id="text_7">
      <!-- 5m -->
      <g transform="translate(354.194401 297.358438)scale(0.1 -0.1)">
       <use xlink:href="#DejaVuSans-53"/>
       <use x="63.623047" xlink:href="#DejaVuSans-109"/>
      </g>
     </g>
    </g>
    <g id="xtick_8">
     <g id="line2d_8">
      <g>
       <use style="stroke:#000000;stroke-width:0.8;" x="381.077133" xlink:href="#mb0dd210573" y="282.76"/>
      </g>
     </g>
     <g id="text_8">
      <!-- 10m -->
      <g transform="translate(369.84432 297.358438)scale(0.1 -0.1)">
       <use xlink:href="#DejaVuSans-49"/>
       <use x="63.623047" xlink:href="#DejaVuSans-48"/>
       <use x="127.246094" xlink:href="#DejaVuSans-109"/>
      </g>
     </g>
    </g>
    <g id="xtick_9">
     <g id="line2d_9">
      <g>
       <use style="stroke:#000000;stroke-width:0.8;" x="410.92383" xlink:href="#mb0dd210573" y="282.76"/>
      </g>
     </g>
     <g id="text_9">
      <!-- 30m -->
      <g transform="translate(399.691018 297.358438)scale(0.1 -0.1)">
       <use xlink:href="#DejaVuSans-51"/>
       <use x="63.623047" xlink:href="#DejaVuSans-48"/>
       <use x="127.246094" xlink:href="#DejaVuSans-109"/>
      </g>
     </g>
    </g>
    <g id="xtick_10">
     <g id="line2d_10">
      <g>
       <use style="stroke:#000000;stroke-width:0.8;" x="429.755" xlink:href="#mb0dd210573" y="282.76"/>
      </g>
     </g>
     <g id="text_10">
      <!-- 1h -->
      <g transform="translate(423.405 297.358438)scale(0.1 -0.1)">
       <defs>
        <path d="M 54.890625 33.015625 
L 54.890625 0 
L 45.90625 0 
L 45.90625 32.71875 
Q 45.90625 40.484375 42.875 44.328125 
Q 39.84375 48.1875 33.796875 48.1875 
Q 26.515625 48.1875 22.3125 43.546875 
Q 18.109375 38.921875 18.109375 30.90625 
L 18.109375 0 
L 9.078125 0 
L 9.078125 75.984375 
L 18.109375 75.984375 
L 18.109375 46.1875 
Q 21.34375 51.125 25.703125 53.5625 
Q 30.078125 56 35.796875 56 
Q 45.21875 56 50.046875 50.171875 
Q 54.890625 44.34375 54.890625 33.015625 
z
" id="DejaVuSans-104"/>
       </defs>
       <use xlink:href="#DejaVuSans-49"/>
       <use x="63.623047" xlink:href="#DejaVuSans-104"/>
      </g>
     </g>
    </g>
    <g id="text_11">
     <!-- wall time per slice -->
     <g transform="translate(241.734071 311.036563)scale(0.1 -0.1)">
      <defs>
       <path d="M 4.203125 54.6875 
L 13.1875 54.6875 
L 24.421875 12.015625 
L 35.59375 54.6875 
L 46.1875 54.6875 
L 57.421875 12.015625 
L 68.609375 54.6875 
L 77.59375 54.6875 
L 63.28125 0 
L 52.6875 0 
L 40.921875 44.828125 
L 29.109375 0 
L 18.5 0 
z
" id="DejaVuSans-119"/>
       <path d="M 34.28125 27.484375 
Q 23.390625 27.484375 19.1875 25 
Q 14.984375 22.515625 14.984375 16.5 
Q 14.984375 11.71875 18.140625 8.90625 
Q 21.296875 6.109375 26.703125 6.109375 
Q 34.1875 6.109375 38.703125 11.40625 
Q 43.21875 16.703125 43.21875 25.484375 
L 43.21875 27.484375 
z
M 52.203125 31.203125 
L 52.203125 0 
L 43.21875 0 
L 43.21875 8.296875 
Q 40.140625 3.328125 35.546875 0.953125 
Q 30.953125 -1.421875 24.3125 -1.421875 
Q 15.921875 -1.421875 10.953125 3.296875 
Q 6 8.015625 6 15.921875 
Q 6 25.140625 12.171875 29.828125 
Q 18.359375 34.515625 30.609375 34.515625 
L 43.21875 34.515625 
L 43.21875 35.40625 
Q 43.21875 41.609375 39.140625 45 
Q 35.0625 48.390625 27.6875 48.390625 
Q 23 48.390625 18.546875 47.265625 
Q 14.109375 46.140625 10.015625 43.890625 
L 10.015625 52.203125 
Q 14.9375 54.109375 19.578125 55.046875 
Q 24.21875 56 28.609375 56 
Q 40.484375 56 46.34375 49.84375 
Q 52.203125 43.703125 52.203125 31.203125 
z
" id="DejaVuSans-97"/>
       <path d="M 9.421875 75.984375 
L 18.40625 75.984375 
L 18.40625 0 
L 9.421875 0 
z
" id="DejaVuSans-108"/>
       <path id="DejaVuSans-32"/>
       <path d="M 18.3125 70.21875 
L 18.3125 54.6875 
L 36.8125 54.6875 
L 36.8125 47.703125 
L 18.3125 47.703125 
L 18.3125 18.015625 
Q 18.3125 11.328125 20.140625 9.421875 
Q 21.96875 7.515625 27.59375 7.515625 
L 36.8125 7.515625 
L 36.8125 0 
L 27.59375 0 
Q 17.1875 0 13.234375 3.875 
Q 9.28125 7.765625 9.28125 18.015625 
L 9.28125 47.703125 
L 2.6875 47.703125 
L 2.6875 54.6875 
L 9.28125 54.6875 
L 9.28125 70.21875 
z
" id="DejaVuSans-116"/>
       <path d="M 9.421875 54.6875 
L 18.40625 54.6875 
L 18.40625 0 
L 9.421875 0 
z
M 9.421875 75.984375 
L 18.40625 75.984375 
L 18.40625 64.59375 
L 9.421875 64.59375 
z
" id="DejaVuSans-105"/>
       <path d="M 56.203125 29.59375 
L 56.203125 25.203125 
L 14.890625 25.203125 
Q 15.484375 15.921875 20.484375 11.0625 
Q 25.484375 6.203125 34.421875 6.203125 
Q 39.59375 6.203125 44.453125 7.46875 
Q 49.3125 8.734375 54.109375 11.28125 
L 54.109375 2.78125 
Q 49.265625 0.734375 44.1875 -0.34375 
Q 39.109375 -1.421875 33.890625 -1.421875 
Q 20.796875 -1.421875 13.15625 6.1875 
Q 5.515625 13.8125 5.515625 26.8125 
Q 5.515625 40.234375 12.765625 48.109375 
Q 20.015625 56 32.328125 56 
Q 43.359375 56 49.78125 48.890625 
Q 56.203125 41.796875 56.203125 29.59375 
z
M 47.21875 32.234375 
Q 47.125 39.59375 43.09375 43.984375 
Q 39.0625 48.390625 32.421875 48.390625 
Q 24.90625 48.390625 20.390625 44.140625 
Q 15.875 39.890625 15.1875 32.171875 
z
" id="DejaVuSans-101"/>
       <path d="M 18.109375 8.203125 
L 18.109375 -20.796875 
L 9.078125 -20.796875 
L 9.078125 54.6875 
L 18.109375 54.6875 
L 18.109375 46.390625 
Q 20.953125 51.265625 25.265625 53.625 
Q 29.59375 56 35.59375 56 
Q 45.5625 56 51.78125 48.09375 
Q 58.015625 40.1875 58.015625 27.296875 
Q 58.015625 14.40625 51.78125 6.484375 
Q 45.5625 -1.421875 35.59375 -1.421875 
Q 29.59375 -1.421875 25.265625 0.953125 
Q 20.953125 3.328125 18.109375 8.203125 
z
M 48.6875 27.296875 
Q 48.6875 37.203125 44.609375 42.84375 
Q 40.53125 48.484375 33.40625 48.484375 
Q 26.265625 48.484375 22.1875 42.84375 
Q 18.109375 37.203125 18.109375 27.296875 
Q 18.109375 17.390625 22.1875 11.75 
Q 26.265625 6.109375 33.40625 6.109375 
Q 40.53125 6.109375 44.609375 11.75 
Q 48.6875 17.390625 48.6875 27.296875 
z
" id="DejaVuSans-112"/>
       <path d="M 41.109375 46.296875 
Q 39.59375 47.171875 37.8125 47.578125 
Q 36.03125 48 33.890625 48 
Q 26.265625 48 22.1875 43.046875 
Q 18.109375 38.09375 18.109375 28.8125 
L 18.109375 0 
L 9.078125 0 
L 9.078125 54.6875 
L 18.109375 54.6875 
L 18.109375 46.1875 
Q 20.953125 51.171875 25.484375 53.578125 
Q 30.03125 56 36.53125 56 
Q 37.453125 56 38.578125 55.875 
Q 39.703125 55.765625 41.0625 55.515625 
z
" id="DejaVuSans-114"/>
       <path d="M 48.78125 52.59375 
L 48.78125 44.1875 
Q 44.96875 46.296875 41.140625 47.34375 
Q 37.3125 48.390625 33.40625 48.390625 
Q 24.65625 48.390625 19.8125 42.84375 
Q 14.984375 37.3125 14.984375 27.296875 
Q 14.984375 17.28125 19.8125 11.734375 
Q 24.65625 6.203125 33.40625 6.203125 
Q 37.3125 6.203125 41.140625 7.25 
Q 44.96875 8.296875 48.78125 10.40625 
L 48.78125 2.09375 
Q 45.015625 0.34375 40.984375 -0.53125 
Q 36.96875 -1.421875 32.421875 -1.421875 
Q 20.0625 -1.421875 12.78125 6.34375 
Q 5.515625 14.109375 5.515625 27.296875 
Q 5.515625 40.671875 12.859375 48.328125 
Q 20.21875 56 33.015625 56 
Q 37.15625 56 41.109375 55.140625 
Q 45.0625 54.296875 48.78125 52.59375 
z
" id="DejaVuSans-99"/>
      </defs>
      <use xlink:href="#DejaVuSans-119"/>
      <use x="81.787109" xlink:href="#DejaVuSans-97"/>
      <use x="143.066406" xlink:href="#DejaVuSans-108"/>
      <use x="170.849609" xlink:href="#DejaVuSans-108"/>
      <use x="198.632812" xlink:href="#DejaVuSans-32"/>
      <use x="230.419922" xlink:href="#DejaVuSans-116"/>
      <use x="269.628906" xlink:href="#DejaVuSans-105"/>
      <use x="297.412109" xlink:href="#DejaVuSans-109"/>
      <use x="394.824219" xlink:href="#DejaVuSans-101"/>
      <use x="456.347656" xlink:href="#DejaVuSans-32"/>
      <use x="488.134766" xlink:href="#DejaVuSans-112"/>
      <use x="551.611328" xlink:href="#DejaVuSans-101"/>
      <use x="613.134766" xlink:href="#DejaVuSans-114"/>
      <use x="654.248047" xlink:href="#DejaVuSans-32"/>
      <use x="686.035156" xlink:href="#DejaVuSans-115"/>
      <use x="738.134766" xlink:href="#DejaVuSans-108"/>
      <use x="765.917969" xlink:href="#DejaVuSans-105"/>
      <use x="793.701172" xlink:href="#DejaVuSans-99"/>
      <use x="848.681641" xlink:href="#DejaVuSans-101"/>
     </g>
    </g>
   </g>
   <g id="matplotlib.axis_2">
    <g id="ytick_1">
     <g id="line2d_11">
      <defs>
       <path d="M 0 0 
L -3.5 0 
" id="ma8ee388133" style="stroke:#000000;stroke-width:0.8;"/>
      </defs>
      <g>
       <use style="stroke:#000000;stroke-width:0.8;" x="144.731892" xlink:href="#ma8ee388133" y="282.76"/>
      </g>
     </g>
     <g id="text_12">
      <!-- 0.0 -->
      <g transform="translate(121.828767 286.559219)scale(0.1 -0.1)">
       <use xlink:href="#DejaVuSans-48"/>
       <use x="63.623047" xlink:href="#DejaVuSans-46"/>
       <use x="95.410156" xlink:href="#DejaVuSans-48"/>
      </g>
     </g>
    </g>
    <g id="ytick_2">
     <g id="line2d_12">
      <g>
       <use style="stroke:#000000;stroke-width:0.8;" x="144.731892" xlink:href="#ma8ee388133" y="231.392"/>
      </g>
     </g>
     <g id="text_13">
      <!-- 0.2 -->
      <g transform="translate(121.828767 235.191219)scale(0.1 -0.1)">
       <defs>
        <path d="M 19.1875 8.296875 
L 53.609375 8.296875 
L 53.609375 0 
L 7.328125 0 
L 7.328125 8.296875 
Q 12.9375 14.109375 22.625 23.890625 
Q 32.328125 33.6875 34.8125 36.53125 
Q 39.546875 41.84375 41.421875 45.53125 
Q 43.3125 49.21875 43.3125 52.78125 
Q 43.3125 58.59375 39.234375 62.25 
Q 35.15625 65.921875 28.609375 65.921875 
Q 23.96875 65.921875 18.8125 64.3125 
Q 13.671875 62.703125 7.8125 59.421875 
L 7.8125 69.390625 
Q 13.765625 71.78125 18.9375 73 
Q 24.125 74.21875 28.421875 74.21875 
Q 39.75 74.21875 46.484375 68.546875 
Q 53.21875 62.890625 53.21875 53.421875 
Q 53.21875 48.921875 51.53125 44.890625 
Q 49.859375 40.875 45.40625 35.40625 
Q 44.1875 33.984375 37.640625 27.21875 
Q 31.109375 20.453125 19.1875 8.296875 
z
" id="DejaVuSans-50"/>
       </defs>
       <use xlink:href="#DejaVuSans-48"/>
       <use x="63.623047" xlink:href="#DejaVuSans-46"/>
       <use x="95.410156" xlink:href="#DejaVuSans-50"/>
      </g>
     </g>
    </g>
    <g id="ytick_3">
     <g id="line2d_13">
      <g>
       <use style="stroke:#000000;stroke-width:0.8;" x="144.731892" xlink:href="#ma8ee388133" y="180.024"/>
      </g>
     </g>
     <g id="text_14">
      <!-- 0.4 -->
      <g transform="translate(121.828767 183.823219)scale(0.1 -0.1)">
       <defs>
        <path d="M 37.796875 64.3125 
L 12.890625 25.390625 
L 37.796875 25.390625 
z
M 35.203125 72.90625 
L 47.609375 72.90625 
L 47.609375 25.390625 
L 58.015625 25.390625 
L 58.015625 17.1875 
L 47.609375 17.1875 
L 47.609375 0 
L 37.796875 0 
L 37.796875 17.1875 
L 4.890625 17.1875 
L 4.890625 26.703125 
z
" id="DejaVuSans-52"/>
       </defs>
       <use xlink:href="#DejaVuSans-48"/>
       <use x="63.623047" xlink:href="#DejaVuSans-46"/>
       <use x="95.410156" xlink:href="#DejaVuSans-52"/>
      </g>
     </g>
    </g>
    <g id="ytick_4">
     <g id="line2d_14">
      <g>
       <use style="stroke:#000000;stroke-width:0.8;" x="144.731892" xlink:href="#ma8ee388133" y="128.656"/>
      </g>
     </g>
     <g id="text_15">
      <!-- 0.6 -->
      <g transform="translate(121.828767 132.455219)scale(0.1 -0.1)">
       <defs>
        <path d="M 33.015625 40.375 
Q 26.375 40.375 22.484375 35.828125 
Q 18.609375 31.296875 18.609375 23.390625 
Q 18.609375 15.53125 22.484375 10.953125 
Q 26.375 6.390625 33.015625 6.390625 
Q 39.65625 6.390625 43.53125 10.953125 
Q 47.40625 15.53125 47.40625 23.390625 
Q 47.40625 31.296875 43.53125 35.828125 
Q 39.65625 40.375 33.015625 40.375 
z
M 52.59375 71.296875 
L 52.59375 62.3125 
Q 48.875 64.0625 45.09375 64.984375 
Q 41.3125 65.921875 37.59375 65.921875 
Q 27.828125 65.921875 22.671875 59.328125 
Q 17.53125 52.734375 16.796875 39.40625 
Q 19.671875 43.65625 24.015625 45.921875 
Q 28.375 48.1875 33.59375 48.1875 
Q 44.578125 48.1875 50.953125 41.515625 
Q 57.328125 34.859375 57.328125 23.390625 
Q 57.328125 12.15625 50.6875 5.359375 
Q 44.046875 -1.421875 33.015625 -1.421875 
Q 20.359375 -1.421875 13.671875 8.265625 
Q 6.984375 17.96875 6.984375 36.375 
Q 6.984375 53.65625 15.1875 63.9375 
Q 23.390625 74.21875 37.203125 74.21875 
Q 40.921875 74.21875 44.703125 73.484375 
Q 48.484375 72.75 52.59375 71.296875 
z
" id="DejaVuSans-54"/>
       </defs>
       <use xlink:href="#DejaVuSans-48"/>
       <use x="63.623047" xlink:href="#DejaVuSans-46"/>
       <use x="95.410156" xlink:href="#DejaVuSans-54"/>
      </g>
     </g>
    </g>
    <g id="ytick_5">
     <g id="line2d_15">
      <g>
       <use style="stroke:#000000;stroke-width:0.8;" x="144.731892" xlink:href="#ma8ee388133" y="77.288"/>
      </g>
     </g>
     <g id="text_16">
      <!-- 0.8 -->
      <g transform="translate(121.828767 81.087219)scale(0.1 -0.1)">
       <defs>
        <path d="M 31.78125 34.625 
Q 24.75 34.625 20.71875 30.859375 
Q 16.703125 27.09375 16.703125 20.515625 
Q 16.703125 13.921875 20.71875 10.15625 
Q 24.75 6.390625 31.78125 6.390625 
Q 38.8125 6.390625 42.859375 10.171875 
Q 46.921875 13.96875 46.921875 20.515625 
Q 46.921875 27.09375 42.890625 30.859375 
Q 38.875 34.625 31.78125 34.625 
z
M 21.921875 38.8125 
Q 15.578125 40.375 12.03125 44.71875 
Q 8.5 49.078125 8.5 55.328125 
Q 8.5 64.0625 14.71875 69.140625 
Q 20.953125 74.21875 31.78125 74.21875 
Q 42.671875 74.21875 48.875 69.140625 
Q 55.078125 64.0625 55.078125 55.328125 
Q 55.078125 49.078125 51.53125 44.71875 
Q 48 40.375 41.703125 38.8125 
Q 48.828125 37.15625 52.796875 32.3125 
Q 56.78125 27.484375 56.78125 20.515625 
Q 56.78125 9.90625 50.3125 4.234375 
Q 43.84375 -1.421875 31.78125 -1.421875 
Q 19.734375 -1.421875 13.25 4.234375 
Q 6.78125 9.90625 6.78125 20.515625 
Q 6.78125 27.484375 10.78125 32.3125 
Q 14.796875 37.15625 21.921875 38.8125 
z
M 18.3125 54.390625 
Q 18.3125 48.734375 21.84375 45.5625 
Q 25.390625 42.390625 31.78125 42.390625 
Q 38.140625 42.390625 41.71875 45.5625 
Q 45.3125 48.734375 45.3125 54.390625 
Q 45.3125 60.0625 41.71875 63.234375 
Q 38.140625 66.40625 31.78125 66.40625 
Q 25.390625 66.40625 21.84375 63.234375 
Q 18.3125 60.0625 18.3125 54.390625 
z
" id="DejaVuSans-56"/>
       </defs>
       <use xlink:href="#DejaVuSans-48"/>
       <use x="63.623047" xlink:href="#DejaVuSans-46"/>
       <use x="95.410156" xlink:href="#DejaVuSans-56"/>
      </g>
     </g>
    </g>
    <g id="ytick_6">
     <g id="line2d_16">
      <g>
       <use style="stroke:#000000;stroke-width:0.8;" x="144.731892" xlink:href="#ma8ee388133" y="25.92"/>
      </g>
     </g>
     <g id="text_17">
      <!-- 1.0 -->
      <g transform="translate(121.828767 29.719219)scale(0.1 -0.1)">
       <use xlink:href="#DejaVuSans-49"/>
       <use x="63.623047" xlink:href="#DejaVuSans-46"/>
       <use x="95.410156" xlink:href="#DejaVuSans-48"/>
      </g>
     </g>
    </g>
    <g id="text_18">
     <!-- MS-SSIM Index -->
     <g transform="translate(115.749079 191.125156)rotate(-90)scale(0.1 -0.1)">
      <defs>
       <path d="M 9.8125 72.90625 
L 24.515625 72.90625 
L 43.109375 23.296875 
L 61.8125 72.90625 
L 76.515625 72.90625 
L 76.515625 0 
L 66.890625 0 
L 66.890625 64.015625 
L 48.09375 14.015625 
L 38.1875 14.015625 
L 19.390625 64.015625 
L 19.390625 0 
L 9.8125 0 
z
" id="DejaVuSans-77"/>
       <path d="M 53.515625 70.515625 
L 53.515625 60.890625 
Q 47.90625 63.578125 42.921875 64.890625 
Q 37.9375 66.21875 33.296875 66.21875 
Q 25.25 66.21875 20.875 63.09375 
Q 16.5 59.96875 16.5 54.203125 
Q 16.5 49.359375 19.40625 46.890625 
Q 22.3125 44.4375 30.421875 42.921875 
L 36.375 41.703125 
Q 47.40625 39.59375 52.65625 34.296875 
Q 57.90625 29 57.90625 20.125 
Q 57.90625 9.515625 50.796875 4.046875 
Q 43.703125 -1.421875 29.984375 -1.421875 
Q 24.8125 -1.421875 18.96875 -0.25 
Q 13.140625 0.921875 6.890625 3.21875 
L 6.890625 13.375 
Q 12.890625 10.015625 18.65625 8.296875 
Q 24.421875 6.59375 29.984375 6.59375 
Q 38.421875 6.59375 43.015625 9.90625 
Q 47.609375 13.234375 47.609375 19.390625 
Q 47.609375 24.75 44.3125 27.78125 
Q 41.015625 30.8125 33.5 32.328125 
L 27.484375 33.5 
Q 16.453125 35.6875 11.515625 40.375 
Q 6.59375 45.0625 6.59375 53.421875 
Q 6.59375 63.09375 13.40625 68.65625 
Q 20.21875 74.21875 32.171875 74.21875 
Q 37.3125 74.21875 42.625 73.28125 
Q 47.953125 72.359375 53.515625 70.515625 
z
" id="DejaVuSans-83"/>
       <path d="M 4.890625 31.390625 
L 31.203125 31.390625 
L 31.203125 23.390625 
L 4.890625 23.390625 
z
" id="DejaVuSans-45"/>
       <path d="M 9.8125 72.90625 
L 19.671875 72.90625 
L 19.671875 0 
L 9.8125 0 
z
" id="DejaVuSans-73"/>
       <path d="M 54.890625 33.015625 
L 54.890625 0 
L 45.90625 0 
L 45.90625 32.71875 
Q 45.90625 40.484375 42.875 44.328125 
Q 39.84375 48.1875 33.796875 48.1875 
Q 26.515625 48.1875 22.3125 43.546875 
Q 18.109375 38.921875 18.109375 30.90625 
L 18.109375 0 
L 9.078125 0 
L 9.078125 54.6875 
L 18.109375 54.6875 
L 18.109375 46.1875 
Q 21.34375 51.125 25.703125 53.5625 
Q 30.078125 56 35.796875 56 
Q 45.21875 56 50.046875 50.171875 
Q 54.890625 44.34375 54.890625 33.015625 
z
" id="DejaVuSans-110"/>
       <path d="M 45.40625 46.390625 
L 45.40625 75.984375 
L 54.390625 75.984375 
L 54.390625 0 
L 45.40625 0 
L 45.40625 8.203125 
Q 42.578125 3.328125 38.25 0.953125 
Q 33.9375 -1.421875 27.875 -1.421875 
Q 17.96875 -1.421875 11.734375 6.484375 
Q 5.515625 14.40625 5.515625 27.296875 
Q 5.515625 40.1875 11.734375 48.09375 
Q 17.96875 56 27.875 56 
Q 33.9375 56 38.25 53.625 
Q 42.578125 51.265625 45.40625 46.390625 
z
M 14.796875 27.296875 
Q 14.796875 17.390625 18.875 11.75 
Q 22.953125 6.109375 30.078125 6.109375 
Q 37.203125 6.109375 41.296875 11.75 
Q 45.40625 17.390625 45.40625 27.296875 
Q 45.40625 37.203125 41.296875 42.84375 
Q 37.203125 48.484375 30.078125 48.484375 
Q 22.953125 48.484375 18.875 42.84375 
Q 14.796875 37.203125 14.796875 27.296875 
z
" id="DejaVuSans-100"/>
       <path d="M 54.890625 54.6875 
L 35.109375 28.078125 
L 55.90625 0 
L 45.3125 0 
L 29.390625 21.484375 
L 13.484375 0 
L 2.875 0 
L 24.125 28.609375 
L 4.6875 54.6875 
L 15.28125 54.6875 
L 29.78125 35.203125 
L 44.28125 54.6875 
z
" id="DejaVuSans-120"/>
      </defs>
      <use xlink:href="#DejaVuSans-77"/>
      <use x="86.279297" xlink:href="#DejaVuSans-83"/>
      <use x="149.755859" xlink:href="#DejaVuSans-45"/>
      <use x="185.839844" xlink:href="#DejaVuSans-83"/>
      <use x="249.316406" xlink:href="#DejaVuSans-83"/>
      <use x="312.792969" xlink:href="#DejaVuSans-73"/>
      <use x="342.285156" xlink:href="#DejaVuSans-77"/>
      <use x="428.564453" xlink:href="#DejaVuSans-32"/>
      <use x="460.351562" xlink:href="#DejaVuSans-73"/>
      <use x="489.84375" xlink:href="#DejaVuSans-110"/>
      <use x="553.222656" xlink:href="#DejaVuSans-100"/>
      <use x="616.699219" xlink:href="#DejaVuSans-101"/>
      <use x="676.472656" xlink:href="#DejaVuSans-120"/>
     </g>
    </g>
   </g>
   <g id="LineCollection_1">
    <path clip-path="url(#pd2af6f7141)" d="M 115.272635 282.76 
L 115.272635 282.76 
" style="fill:none;stroke:#41049d;stroke-width:1.5;"/>
   </g>
   <g id="LineCollection_2">
    <path clip-path="url(#pd2af6f7141)" d="M 164.543153 282.759994 
L 164.543153 282.759994 
" style="fill:none;stroke:#e16462;stroke-width:1.5;"/>
    <path clip-path="url(#pd2af6f7141)" d="M 183.786808 282.76 
L 183.786808 282.76 
" style="fill:none;stroke:#e16462;stroke-width:1.5;"/>
    <path clip-path="url(#pd2af6f7141)" d="M 195.096638 282.76 
L 195.096638 282.76 
" style="fill:none;stroke:#e16462;stroke-width:1.5;"/>
    <path clip-path="url(#pd2af6f7141)" d="M 202.954329 282.76 
L 202.954329 282.76 
" style="fill:none;stroke:#e16462;stroke-width:1.5;"/>
    <path clip-path="url(#pd2af6f7141)" d="M 209.120697 282.76 
L 209.120697 282.76 
" style="fill:none;stroke:#e16462;stroke-width:1.5;"/>
    <path clip-path="url(#pd2af6f7141)" d="M 214.104722 282.76 
L 214.104722 282.76 
" style="fill:none;stroke:#e16462;stroke-width:1.5;"/>
    <path clip-path="url(#pd2af6f7141)" d="M 218.26935 282.76 
L 218.26935 282.76 
" style="fill:none;stroke:#e16462;stroke-width:1.5;"/>
    <path clip-path="url(#pd2af6f7141)" d="M 221.900231 282.76 
L 221.900231 282.76 
" style="fill:none;stroke:#e16462;stroke-width:1.5;"/>
    <path clip-path="url(#pd2af6f7141)" d="M 225.076104 282.76 
L 225.076104 282.76 
" style="fill:none;stroke:#e16462;stroke-width:1.5;"/>
    <path clip-path="url(#pd2af6f7141)" d="M 227.960107 282.76 
L 227.960107 282.76 
" style="fill:none;stroke:#e16462;stroke-width:1.5;"/>
   </g>
   <g id="LineCollection_3">
    <path clip-path="url(#pd2af6f7141)" d="M 65.209946 281.155441 
L 65.209946 281.01167 
" style="fill:none;stroke:#0d0887;stroke-width:1.5;"/>
    <path clip-path="url(#pd2af6f7141)" d="M 63.449256 274.964633 
L 63.449256 274.657453 
" style="fill:none;stroke:#0d0887;stroke-width:1.5;"/>
    <path clip-path="url(#pd2af6f7141)" d="M 64.548792 273.567611 
L 64.548792 273.062052 
" style="fill:none;stroke:#0d0887;stroke-width:1.5;"/>
    <path clip-path="url(#pd2af6f7141)" d="M 64.664818 272.191977 
L 64.664818 271.622419 
" style="fill:none;stroke:#0d0887;stroke-width:1.5;"/>
    <path clip-path="url(#pd2af6f7141)" d="M 59.217367 231.571101 
L 59.217367 231.187979 
" style="fill:none;stroke:#0d0887;stroke-width:1.5;"/>
    <path clip-path="url(#pd2af6f7141)" d="M 62.802197 281.479506 
L 62.802197 281.36412 
" style="fill:none;stroke:#0d0887;stroke-width:1.5;"/>
    <path clip-path="url(#pd2af6f7141)" d="M 64.813051 280.167994 
L 64.813051 279.983041 
" style="fill:none;stroke:#0d0887;stroke-width:1.5;"/>
   </g>
   <g id="LineCollection_4">
    <path clip-path="url(#pd2af6f7141)" d="M 163.783237 272.778715 
L 163.783237 272.753599 
" style="fill:none;stroke:#f0f921;stroke-width:1.5;"/>
    <path clip-path="url(#pd2af6f7141)" d="M 182.494112 242.019505 
L 182.494112 241.947837 
" style="fill:none;stroke:#f0f921;stroke-width:1.5;"/>
    <path clip-path="url(#pd2af6f7141)" d="M 193.656906 213.027523 
L 193.656906 212.924809 
" style="fill:none;stroke:#f0f921;stroke-width:1.5;"/>
    <path clip-path="url(#pd2af6f7141)" d="M 201.473631 191.685742 
L 201.473631 191.566915 
" style="fill:none;stroke:#f0f921;stroke-width:1.5;"/>
    <path clip-path="url(#pd2af6f7141)" d="M 207.571358 176.759458 
L 207.571358 176.630124 
" style="fill:none;stroke:#f0f921;stroke-width:1.5;"/>
    <path clip-path="url(#pd2af6f7141)" d="M 212.538155 166.299906 
L 212.538155 166.161573 
" style="fill:none;stroke:#f0f921;stroke-width:1.5;"/>
    <path clip-path="url(#pd2af6f7141)" d="M 216.893572 158.838688 
L 216.893572 158.690979 
" style="fill:none;stroke:#f0f921;stroke-width:1.5;"/>
    <path clip-path="url(#pd2af6f7141)" d="M 220.578772 153.404216 
L 220.578772 153.248027 
" style="fill:none;stroke:#f0f921;stroke-width:1.5;"/>
    <path clip-path="url(#pd2af6f7141)" d="M 223.836522 149.363095 
L 223.836522 149.197827 
" style="fill:none;stroke:#f0f921;stroke-width:1.5;"/>
    <path clip-path="url(#pd2af6f7141)" d="M 226.708689 146.287115 
L 226.708689 146.108372 
" style="fill:none;stroke:#f0f921;stroke-width:1.5;"/>
   </g>
   <g id="LineCollection_5">
    <path clip-path="url(#pd2af6f7141)" d="M 165.516028 272.778715 
L 165.516028 272.753599 
" style="fill:none;stroke:#ea7457;stroke-width:1.5;"/>
    <path clip-path="url(#pd2af6f7141)" d="M 184.910379 242.019505 
L 184.910379 241.947837 
" style="fill:none;stroke:#ea7457;stroke-width:1.5;"/>
    <path clip-path="url(#pd2af6f7141)" d="M 195.56553 213.027523 
L 195.56553 212.924809 
" style="fill:none;stroke:#ea7457;stroke-width:1.5;"/>
    <path clip-path="url(#pd2af6f7141)" d="M 203.236894 191.685742 
L 203.236894 191.566915 
" style="fill:none;stroke:#ea7457;stroke-width:1.5;"/>
    <path clip-path="url(#pd2af6f7141)" d="M 209.239433 176.759458 
L 209.239433 176.630124 
" style="fill:none;stroke:#ea7457;stroke-width:1.5;"/>
    <path clip-path="url(#pd2af6f7141)" d="M 214.068879 166.299906 
L 214.068879 166.161573 
" style="fill:none;stroke:#ea7457;stroke-width:1.5;"/>
    <path clip-path="url(#pd2af6f7141)" d="M 218.059367 158.838688 
L 218.059367 158.690979 
" style="fill:none;stroke:#ea7457;stroke-width:1.5;"/>
    <path clip-path="url(#pd2af6f7141)" d="M 221.730528 153.404216 
L 221.730528 153.248027 
" style="fill:none;stroke:#ea7457;stroke-width:1.5;"/>
    <path clip-path="url(#pd2af6f7141)" d="M 225.009914 149.363095 
L 225.009914 149.197827 
" style="fill:none;stroke:#ea7457;stroke-width:1.5;"/>
    <path clip-path="url(#pd2af6f7141)" d="M 228.020157 146.287115 
L 228.020157 146.108372 
" style="fill:none;stroke:#ea7457;stroke-width:1.5;"/>
   </g>
   <g id="LineCollection_6">
    <path clip-path="url(#pd2af6f7141)" d="M 170.270707 282.698438 
L 170.270707 282.69817 
" style="fill:none;stroke:#f2844b;stroke-width:1.5;"/>
    <path clip-path="url(#pd2af6f7141)" d="M 188.918113 281.914738 
L 188.918113 281.908805 
" style="fill:none;stroke:#f2844b;stroke-width:1.5;"/>
    <path clip-path="url(#pd2af6f7141)" d="M 199.754824 279.998552 
L 199.754824 279.984526 
" style="fill:none;stroke:#f2844b;stroke-width:1.5;"/>
    <path clip-path="url(#pd2af6f7141)" d="M 207.615195 277.556738 
L 207.615195 277.539447 
" style="fill:none;stroke:#f2844b;stroke-width:1.5;"/>
    <path clip-path="url(#pd2af6f7141)" d="M 213.285821 274.86302 
L 213.285821 274.835388 
" style="fill:none;stroke:#f2844b;stroke-width:1.5;"/>
    <path clip-path="url(#pd2af6f7141)" d="M 218.363736 271.999877 
L 218.363736 271.956042 
" style="fill:none;stroke:#f2844b;stroke-width:1.5;"/>
    <path clip-path="url(#pd2af6f7141)" d="M 222.442489 268.989258 
L 222.442489 268.937225 
" style="fill:none;stroke:#f2844b;stroke-width:1.5;"/>
    <path clip-path="url(#pd2af6f7141)" d="M 225.968299 265.8451 
L 225.968299 265.787369 
" style="fill:none;stroke:#f2844b;stroke-width:1.5;"/>
    <path clip-path="url(#pd2af6f7141)" d="M 229.068124 262.584913 
L 229.068124 262.52567 
" style="fill:none;stroke:#f2844b;stroke-width:1.5;"/>
    <path clip-path="url(#pd2af6f7141)" d="M 231.944519 259.234429 
L 231.944519 259.176593 
" style="fill:none;stroke:#f2844b;stroke-width:1.5;"/>
   </g>
   <g id="LineCollection_7">
    <path clip-path="url(#pd2af6f7141)" d="M 166.284981 282.723119 
L 166.284981 282.723069 
" style="fill:none;stroke:#f89540;stroke-width:1.5;"/>
    <path clip-path="url(#pd2af6f7141)" d="M 185.182846 282.547843 
L 185.182846 282.547388 
" style="fill:none;stroke:#f89540;stroke-width:1.5;"/>
    <path clip-path="url(#pd2af6f7141)" d="M 195.978884 282.197226 
L 195.978884 282.196353 
" style="fill:none;stroke:#f89540;stroke-width:1.5;"/>
    <path clip-path="url(#pd2af6f7141)" d="M 203.74988 281.660347 
L 203.74988 281.658716 
" style="fill:none;stroke:#f89540;stroke-width:1.5;"/>
    <path clip-path="url(#pd2af6f7141)" d="M 209.766739 280.930394 
L 209.766739 280.927921 
" style="fill:none;stroke:#f89540;stroke-width:1.5;"/>
    <path clip-path="url(#pd2af6f7141)" d="M 214.672902 280.008768 
L 214.672902 280.005217 
" style="fill:none;stroke:#f89540;stroke-width:1.5;"/>
    <path clip-path="url(#pd2af6f7141)" d="M 218.875291 278.904865 
L 218.875291 278.899726 
" style="fill:none;stroke:#f89540;stroke-width:1.5;"/>
    <path clip-path="url(#pd2af6f7141)" d="M 222.543734 277.631226 
L 222.543734 277.624762 
" style="fill:none;stroke:#f89540;stroke-width:1.5;"/>
    <path clip-path="url(#pd2af6f7141)" d="M 225.677401 276.203867 
L 225.677401 276.196166 
" style="fill:none;stroke:#f89540;stroke-width:1.5;"/>
    <path clip-path="url(#pd2af6f7141)" d="M 228.565901 274.642044 
L 228.565901 274.633216 
" style="fill:none;stroke:#f89540;stroke-width:1.5;"/>
   </g>
   <g id="LineCollection_8">
    <path clip-path="url(#pd2af6f7141)" d="M 167.7811 282.621106 
L 167.7811 282.620214 
" style="fill:none;stroke:#f7e425;stroke-width:1.5;"/>
    <path clip-path="url(#pd2af6f7141)" d="M 186.715992 280.772614 
L 186.715992 280.762559 
" style="fill:none;stroke:#f7e425;stroke-width:1.5;"/>
    <path clip-path="url(#pd2af6f7141)" d="M 197.418436 276.658878 
L 197.418436 276.642181 
" style="fill:none;stroke:#f7e425;stroke-width:1.5;"/>
    <path clip-path="url(#pd2af6f7141)" d="M 205.065269 270.8371 
L 205.065269 270.812709 
" style="fill:none;stroke:#f7e425;stroke-width:1.5;"/>
    <path clip-path="url(#pd2af6f7141)" d="M 211.138293 264.07808 
L 211.138293 264.035001 
" style="fill:none;stroke:#f7e425;stroke-width:1.5;"/>
    <path clip-path="url(#pd2af6f7141)" d="M 215.951904 257.035548 
L 215.951904 256.962738 
" style="fill:none;stroke:#f7e425;stroke-width:1.5;"/>
    <path clip-path="url(#pd2af6f7141)" d="M 220.129464 250.107267 
L 220.129464 250.003278 
" style="fill:none;stroke:#f7e425;stroke-width:1.5;"/>
    <path clip-path="url(#pd2af6f7141)" d="M 223.82386 243.551934 
L 223.82386 243.424324 
" style="fill:none;stroke:#f7e425;stroke-width:1.5;"/>
    <path clip-path="url(#pd2af6f7141)" d="M 227.007765 237.442364 
L 227.007765 237.306627 
" style="fill:none;stroke:#f7e425;stroke-width:1.5;"/>
    <path clip-path="url(#pd2af6f7141)" d="M 229.937311 231.783921 
L 229.937311 231.652552 
" style="fill:none;stroke:#f7e425;stroke-width:1.5;"/>
   </g>
   <g id="LineCollection_9">
    <path clip-path="url(#pd2af6f7141)" d="M 166.044954 282.722677 
L 166.044954 282.722616 
" style="fill:none;stroke:#fcce25;stroke-width:1.5;"/>
    <path clip-path="url(#pd2af6f7141)" d="M 184.811563 282.544391 
L 184.811563 282.544011 
" style="fill:none;stroke:#fcce25;stroke-width:1.5;"/>
    <path clip-path="url(#pd2af6f7141)" d="M 195.908501 282.186177 
L 195.908501 282.185256 
" style="fill:none;stroke:#fcce25;stroke-width:1.5;"/>
    <path clip-path="url(#pd2af6f7141)" d="M 203.764733 281.633987 
L 203.764733 281.632264 
" style="fill:none;stroke:#fcce25;stroke-width:1.5;"/>
    <path clip-path="url(#pd2af6f7141)" d="M 209.875155 280.877841 
L 209.875155 280.875192 
" style="fill:none;stroke:#fcce25;stroke-width:1.5;"/>
    <path clip-path="url(#pd2af6f7141)" d="M 214.805935 279.918773 
L 214.805935 279.915034 
" style="fill:none;stroke:#fcce25;stroke-width:1.5;"/>
    <path clip-path="url(#pd2af6f7141)" d="M 219.002294 278.762632 
L 219.002294 278.757515 
" style="fill:none;stroke:#fcce25;stroke-width:1.5;"/>
    <path clip-path="url(#pd2af6f7141)" d="M 222.594035 277.420693 
L 222.594035 277.414342 
" style="fill:none;stroke:#fcce25;stroke-width:1.5;"/>
    <path clip-path="url(#pd2af6f7141)" d="M 225.78616 275.907588 
L 225.78616 275.899845 
" style="fill:none;stroke:#fcce25;stroke-width:1.5;"/>
    <path clip-path="url(#pd2af6f7141)" d="M 228.659221 274.242247 
L 228.659221 274.232879 
" style="fill:none;stroke:#fcce25;stroke-width:1.5;"/>
   </g>
   <g id="LineCollection_10">
    <path clip-path="url(#pd2af6f7141)" d="M 164.639896 277.392661 
L 164.639896 277.37886 
" style="fill:none;stroke:#cc4778;stroke-width:1.5;"/>
    <path clip-path="url(#pd2af6f7141)" d="M 183.276453 260.524851 
L 183.276453 260.478357 
" style="fill:none;stroke:#cc4778;stroke-width:1.5;"/>
    <path clip-path="url(#pd2af6f7141)" d="M 194.312637 239.905991 
L 194.312637 239.833647 
" style="fill:none;stroke:#cc4778;stroke-width:1.5;"/>
    <path clip-path="url(#pd2af6f7141)" d="M 202.067033 221.129149 
L 202.067033 221.036345 
" style="fill:none;stroke:#cc4778;stroke-width:1.5;"/>
    <path clip-path="url(#pd2af6f7141)" d="M 208.271704 205.799309 
L 208.271704 205.691752 
" style="fill:none;stroke:#cc4778;stroke-width:1.5;"/>
    <path clip-path="url(#pd2af6f7141)" d="M 213.25261 193.79928 
L 213.25261 193.695898 
" style="fill:none;stroke:#cc4778;stroke-width:1.5;"/>
    <path clip-path="url(#pd2af6f7141)" d="M 217.450597 184.564008 
L 217.450597 184.464329 
" style="fill:none;stroke:#cc4778;stroke-width:1.5;"/>
    <path clip-path="url(#pd2af6f7141)" d="M 221.051217 177.511024 
L 221.051217 177.417316 
" style="fill:none;stroke:#cc4778;stroke-width:1.5;"/>
    <path clip-path="url(#pd2af6f7141)" d="M 224.220049 172.127102 
L 224.220049 172.041779 
" style="fill:none;stroke:#cc4778;stroke-width:1.5;"/>
    <path clip-path="url(#pd2af6f7141)" d="M 227.048041 168.004684 
L 227.048041 167.92871 
" style="fill:none;stroke:#cc4778;stroke-width:1.5;"/>
   </g>
   <g id="LineCollection_11">
    <path clip-path="url(#pd2af6f7141)" d="M 164.95412 282.76 
L 164.95412 282.76 
" style="fill:none;stroke:#0d0887;stroke-width:1.5;"/>
    <path clip-path="url(#pd2af6f7141)" d="M 183.797589 282.76 
L 183.797589 282.76 
" style="fill:none;stroke:#0d0887;stroke-width:1.5;"/>
    <path clip-path="url(#pd2af6f7141)" d="M 194.673612 282.76 
L 194.673612 282.76 
" style="fill:none;stroke:#0d0887;stroke-width:1.5;"/>
    <path clip-path="url(#pd2af6f7141)" d="M 202.430109 282.76 
L 202.430109 282.76 
" style="fill:none;stroke:#0d0887;stroke-width:1.5;"/>
    <path clip-path="url(#pd2af6f7141)" d="M 208.443572 282.76 
L 208.443572 282.76 
" style="fill:none;stroke:#0d0887;stroke-width:1.5;"/>
    <path clip-path="url(#pd2af6f7141)" d="M 213.341968 282.76 
L 213.341968 282.76 
" style="fill:none;stroke:#0d0887;stroke-width:1.5;"/>
    <path clip-path="url(#pd2af6f7141)" d="M 217.529118 282.76 
L 217.529118 282.76 
" style="fill:none;stroke:#0d0887;stroke-width:1.5;"/>
    <path clip-path="url(#pd2af6f7141)" d="M 221.095395 282.76 
L 221.095395 282.76 
" style="fill:none;stroke:#0d0887;stroke-width:1.5;"/>
    <path clip-path="url(#pd2af6f7141)" d="M 224.366583 282.76 
L 224.366583 282.76 
" style="fill:none;stroke:#0d0887;stroke-width:1.5;"/>
    <path clip-path="url(#pd2af6f7141)" style="fill:none;stroke:#0d0887;stroke-width:1.5;"/>
   </g>
   <g id="LineCollection_12">
    <path clip-path="url(#pd2af6f7141)" d="M 166.154 281.64631 
L 166.154 281.643158 
" style="fill:none;stroke:#fca636;stroke-width:1.5;"/>
    <path clip-path="url(#pd2af6f7141)" d="M 184.779815 277.62236 
L 184.779815 277.608547 
" style="fill:none;stroke:#fca636;stroke-width:1.5;"/>
    <path clip-path="url(#pd2af6f7141)" d="M 195.872424 270.720348 
L 195.872424 270.691677 
" style="fill:none;stroke:#fca636;stroke-width:1.5;"/>
    <path clip-path="url(#pd2af6f7141)" d="M 203.466228 261.961829 
L 203.466228 261.918237 
" style="fill:none;stroke:#fca636;stroke-width:1.5;"/>
    <path clip-path="url(#pd2af6f7141)" d="M 209.648094 252.262027 
L 209.648094 252.204924 
" style="fill:none;stroke:#fca636;stroke-width:1.5;"/>
    <path clip-path="url(#pd2af6f7141)" d="M 214.69014 242.393609 
L 214.69014 242.32532 
" style="fill:none;stroke:#fca636;stroke-width:1.5;"/>
    <path clip-path="url(#pd2af6f7141)" d="M 218.964243 232.863661 
L 218.964243 232.786312 
" style="fill:none;stroke:#fca636;stroke-width:1.5;"/>
    <path clip-path="url(#pd2af6f7141)" d="M 222.70907 223.960863 
L 222.70907 223.875384 
" style="fill:none;stroke:#fca636;stroke-width:1.5;"/>
    <path clip-path="url(#pd2af6f7141)" d="M 225.817536 215.824871 
L 225.817536 215.733212 
" style="fill:none;stroke:#fca636;stroke-width:1.5;"/>
    <path clip-path="url(#pd2af6f7141)" d="M 228.712037 208.496427 
L 228.712037 208.397145 
" style="fill:none;stroke:#fca636;stroke-width:1.5;"/>
   </g>
   <g id="line2d_17">
    <defs>
     <path d="M -1.5 3 
L 0 1.5 
L 1.5 3 
L 3 1.5 
L 1.5 0 
L 3 -1.5 
L 1.5 -3 
L 0 -1.5 
L -1.5 -3 
L -3 -1.5 
L -1.5 0 
L -3 1.5 
z
" id="mbb47e04ad4" style="stroke:#41049d;stroke-linejoin:miter;"/>
    </defs>
    <g clip-path="url(#pd2af6f7141)">
     <use style="fill:#41049d;stroke:#41049d;stroke-linejoin:miter;" x="115.272635" xlink:href="#mbb47e04ad4" y="282.76"/>
    </g>
   </g>
   <g id="line2d_18">
    <path clip-path="url(#pd2af6f7141)" d="M 164.543153 282.759994 
L 183.786808 282.76 
L 195.096638 282.76 
L 202.954329 282.76 
L 209.120697 282.76 
L 214.104722 282.76 
L 218.26935 282.76 
L 221.900231 282.76 
L 225.076104 282.76 
L 227.960107 282.76 
" style="fill:none;stroke:#e16462;stroke-linecap:square;stroke-width:1.5;"/>
    <defs>
     <path d="M -3 3 
L 3 3 
L 3 -3 
L -3 -3 
z
" id="m59495ddce4" style="stroke:#e16462;stroke-linejoin:miter;"/>
    </defs>
    <g clip-path="url(#pd2af6f7141)">
     <use style="fill:#e16462;stroke:#e16462;stroke-linejoin:miter;" x="164.543153" xlink:href="#m59495ddce4" y="282.759994"/>
     <use style="fill:#e16462;stroke:#e16462;stroke-linejoin:miter;" x="183.786808" xlink:href="#m59495ddce4" y="282.76"/>
     <use style="fill:#e16462;stroke:#e16462;stroke-linejoin:miter;" x="195.096638" xlink:href="#m59495ddce4" y="282.76"/>
     <use style="fill:#e16462;stroke:#e16462;stroke-linejoin:miter;" x="202.954329" xlink:href="#m59495ddce4" y="282.76"/>
     <use style="fill:#e16462;stroke:#e16462;stroke-linejoin:miter;" x="209.120697" xlink:href="#m59495ddce4" y="282.76"/>
     <use style="fill:#e16462;stroke:#e16462;stroke-linejoin:miter;" x="214.104722" xlink:href="#m59495ddce4" y="282.76"/>
     <use style="fill:#e16462;stroke:#e16462;stroke-linejoin:miter;" x="218.26935" xlink:href="#m59495ddce4" y="282.76"/>
     <use style="fill:#e16462;stroke:#e16462;stroke-linejoin:miter;" x="221.900231" xlink:href="#m59495ddce4" y="282.76"/>
     <use style="fill:#e16462;stroke:#e16462;stroke-linejoin:miter;" x="225.076104" xlink:href="#m59495ddce4" y="282.76"/>
     <use style="fill:#e16462;stroke:#e16462;stroke-linejoin:miter;" x="227.960107" xlink:href="#m59495ddce4" y="282.76"/>
    </g>
   </g>
   <g id="line2d_19">
    <defs>
     <path d="M 0 3 
C 0.795609 3 1.55874 2.683901 2.12132 2.12132 
C 2.683901 1.55874 3 0.795609 3 0 
C 3 -0.795609 2.683901 -1.55874 2.12132 -2.12132 
C 1.55874 -2.683901 0.795609 -3 0 -3 
C -0.795609 -3 -1.55874 -2.683901 -2.12132 -2.12132 
C -2.683901 -1.55874 -3 -0.795609 -3 0 
C -3 0.795609 -2.683901 1.55874 -2.12132 2.12132 
C -1.55874 2.683901 -0.795609 3 0 3 
z
" id="mc51b014831" style="stroke:#0d0887;"/>
    </defs>
    <g clip-path="url(#pd2af6f7141)">
     <use style="fill:#0d0887;stroke:#0d0887;" x="65.209946" xlink:href="#mc51b014831" y="281.083556"/>
     <use style="fill:#0d0887;stroke:#0d0887;" x="63.449256" xlink:href="#mc51b014831" y="274.811043"/>
     <use style="fill:#0d0887;stroke:#0d0887;" x="64.548792" xlink:href="#mc51b014831" y="273.314832"/>
     <use style="fill:#0d0887;stroke:#0d0887;" x="64.664818" xlink:href="#mc51b014831" y="271.907198"/>
     <use style="fill:#0d0887;stroke:#0d0887;" x="59.217367" xlink:href="#mc51b014831" y="231.37954"/>
     <use style="fill:#0d0887;stroke:#0d0887;" x="62.802197" xlink:href="#mc51b014831" y="281.421813"/>
     <use style="fill:#0d0887;stroke:#0d0887;" x="64.813051" xlink:href="#mc51b014831" y="280.075518"/>
    </g>
   </g>
   <g id="line2d_20">
    <path clip-path="url(#pd2af6f7141)" d="M 163.783237 272.766157 
L 182.494112 241.983671 
L 193.656906 212.976166 
L 201.473631 191.626329 
L 207.571358 176.694791 
L 212.538155 166.230739 
L 216.893572 158.764834 
L 220.578772 153.326121 
L 223.836522 149.280461 
L 226.708689 146.197743 
" style="fill:none;stroke:#f0f921;stroke-linecap:square;stroke-width:1.5;"/>
    <defs>
     <path d="M 0 3 
C 0.795609 3 1.55874 2.683901 2.12132 2.12132 
C 2.683901 1.55874 3 0.795609 3 0 
C 3 -0.795609 2.683901 -1.55874 2.12132 -2.12132 
C 1.55874 -2.683901 0.795609 -3 0 -3 
C -0.795609 -3 -1.55874 -2.683901 -2.12132 -2.12132 
C -2.683901 -1.55874 -3 -0.795609 -3 0 
C -3 0.795609 -2.683901 1.55874 -2.12132 2.12132 
C -1.55874 2.683901 -0.795609 3 0 3 
z
" id="m007ece398b" style="stroke:#f0f921;"/>
    </defs>
    <g clip-path="url(#pd2af6f7141)">
     <use style="fill:#f0f921;stroke:#f0f921;" x="163.783237" xlink:href="#m007ece398b" y="272.766157"/>
     <use style="fill:#f0f921;stroke:#f0f921;" x="182.494112" xlink:href="#m007ece398b" y="241.983671"/>
     <use style="fill:#f0f921;stroke:#f0f921;" x="193.656906" xlink:href="#m007ece398b" y="212.976166"/>
     <use style="fill:#f0f921;stroke:#f0f921;" x="201.473631" xlink:href="#m007ece398b" y="191.626329"/>
     <use style="fill:#f0f921;stroke:#f0f921;" x="207.571358" xlink:href="#m007ece398b" y="176.694791"/>
     <use style="fill:#f0f921;stroke:#f0f921;" x="212.538155" xlink:href="#m007ece398b" y="166.230739"/>
     <use style="fill:#f0f921;stroke:#f0f921;" x="216.893572" xlink:href="#m007ece398b" y="158.764834"/>
     <use style="fill:#f0f921;stroke:#f0f921;" x="220.578772" xlink:href="#m007ece398b" y="153.326121"/>
     <use style="fill:#f0f921;stroke:#f0f921;" x="223.836522" xlink:href="#m007ece398b" y="149.280461"/>
     <use style="fill:#f0f921;stroke:#f0f921;" x="226.708689" xlink:href="#m007ece398b" y="146.197743"/>
    </g>
   </g>
   <g id="line2d_21">
    <path clip-path="url(#pd2af6f7141)" d="M 165.516028 272.766157 
L 184.910379 241.983671 
L 195.56553 212.976166 
L 203.236894 191.626329 
L 209.239433 176.694791 
L 214.068879 166.230739 
L 218.059367 158.764834 
L 221.730528 153.326121 
L 225.009914 149.280461 
L 228.020157 146.197743 
" style="fill:none;stroke:#ea7457;stroke-linecap:square;stroke-width:1.5;"/>
    <defs>
     <path d="M -3 3 
L 3 3 
L 3 -3 
L -3 -3 
z
" id="m010da54e34" style="stroke:#ea7457;stroke-linejoin:miter;"/>
    </defs>
    <g clip-path="url(#pd2af6f7141)">
     <use style="fill:#ea7457;stroke:#ea7457;stroke-linejoin:miter;" x="165.516028" xlink:href="#m010da54e34" y="272.766157"/>
     <use style="fill:#ea7457;stroke:#ea7457;stroke-linejoin:miter;" x="184.910379" xlink:href="#m010da54e34" y="241.983671"/>
     <use style="fill:#ea7457;stroke:#ea7457;stroke-linejoin:miter;" x="195.56553" xlink:href="#m010da54e34" y="212.976166"/>
     <use style="fill:#ea7457;stroke:#ea7457;stroke-linejoin:miter;" x="203.236894" xlink:href="#m010da54e34" y="191.626329"/>
     <use style="fill:#ea7457;stroke:#ea7457;stroke-linejoin:miter;" x="209.239433" xlink:href="#m010da54e34" y="176.694791"/>
     <use style="fill:#ea7457;stroke:#ea7457;stroke-linejoin:miter;" x="214.068879" xlink:href="#m010da54e34" y="166.230739"/>
     <use style="fill:#ea7457;stroke:#ea7457;stroke-linejoin:miter;" x="218.059367" xlink:href="#m010da54e34" y="158.764834"/>
     <use style="fill:#ea7457;stroke:#ea7457;stroke-linejoin:miter;" x="221.730528" xlink:href="#m010da54e34" y="153.326121"/>
     <use style="fill:#ea7457;stroke:#ea7457;stroke-linejoin:miter;" x="225.009914" xlink:href="#m010da54e34" y="149.280461"/>
     <use style="fill:#ea7457;stroke:#ea7457;stroke-linejoin:miter;" x="228.020157" xlink:href="#m010da54e34" y="146.197743"/>
    </g>
   </g>
   <g id="line2d_22">
    <path clip-path="url(#pd2af6f7141)" d="M 170.270707 282.698304 
L 188.918113 281.911772 
L 199.754824 279.991539 
L 207.615195 277.548093 
L 213.285821 274.849204 
L 218.363736 271.977959 
L 222.442489 268.963241 
L 225.968299 265.816235 
L 229.068124 262.555292 
L 231.944519 259.205511 
" style="fill:none;stroke:#f2844b;stroke-dasharray:1.5,2.475;stroke-dashoffset:0;stroke-width:1.5;"/>
    <defs>
     <path d="M -3 3 
L 3 3 
L 3 -3 
L -3 -3 
z
" id="mf31b87a68c" style="stroke:#f2844b;stroke-linejoin:miter;"/>
    </defs>
    <g clip-path="url(#pd2af6f7141)">
     <use style="fill:#f2844b;stroke:#f2844b;stroke-linejoin:miter;" x="170.270707" xlink:href="#mf31b87a68c" y="282.698304"/>
     <use style="fill:#f2844b;stroke:#f2844b;stroke-linejoin:miter;" x="188.918113" xlink:href="#mf31b87a68c" y="281.911772"/>
     <use style="fill:#f2844b;stroke:#f2844b;stroke-linejoin:miter;" x="199.754824" xlink:href="#mf31b87a68c" y="279.991539"/>
     <use style="fill:#f2844b;stroke:#f2844b;stroke-linejoin:miter;" x="207.615195" xlink:href="#mf31b87a68c" y="277.548093"/>
     <use style="fill:#f2844b;stroke:#f2844b;stroke-linejoin:miter;" x="213.285821" xlink:href="#mf31b87a68c" y="274.849204"/>
     <use style="fill:#f2844b;stroke:#f2844b;stroke-linejoin:miter;" x="218.363736" xlink:href="#mf31b87a68c" y="271.977959"/>
     <use style="fill:#f2844b;stroke:#f2844b;stroke-linejoin:miter;" x="222.442489" xlink:href="#mf31b87a68c" y="268.963241"/>
     <use style="fill:#f2844b;stroke:#f2844b;stroke-linejoin:miter;" x="225.968299" xlink:href="#mf31b87a68c" y="265.816235"/>
     <use style="fill:#f2844b;stroke:#f2844b;stroke-linejoin:miter;" x="229.068124" xlink:href="#mf31b87a68c" y="262.555292"/>
     <use style="fill:#f2844b;stroke:#f2844b;stroke-linejoin:miter;" x="231.944519" xlink:href="#mf31b87a68c" y="259.205511"/>
    </g>
   </g>
   <g id="line2d_23">
    <path clip-path="url(#pd2af6f7141)" d="M 166.284981 282.723094 
L 185.182846 282.547615 
L 195.978884 282.19679 
L 203.74988 281.659531 
L 209.766739 280.929157 
L 214.672902 280.006993 
L 218.875291 278.902296 
L 222.543734 277.627994 
L 225.677401 276.200017 
L 228.565901 274.63763 
" style="fill:none;stroke:#f89540;stroke-dasharray:5.55,2.4;stroke-dashoffset:0;stroke-width:1.5;"/>
    <defs>
     <path d="M -3 3 
L 3 3 
L 3 -3 
L -3 -3 
z
" id="m97e14c732e" style="stroke:#f89540;stroke-linejoin:miter;"/>
    </defs>
    <g clip-path="url(#pd2af6f7141)">
     <use style="fill:#f89540;stroke:#f89540;stroke-linejoin:miter;" x="166.284981" xlink:href="#m97e14c732e" y="282.723094"/>
     <use style="fill:#f89540;stroke:#f89540;stroke-linejoin:miter;" x="185.182846" xlink:href="#m97e14c732e" y="282.547615"/>
     <use style="fill:#f89540;stroke:#f89540;stroke-linejoin:miter;" x="195.978884" xlink:href="#m97e14c732e" y="282.19679"/>
     <use style="fill:#f89540;stroke:#f89540;stroke-linejoin:miter;" x="203.74988" xlink:href="#m97e14c732e" y="281.659531"/>
     <use style="fill:#f89540;stroke:#f89540;stroke-linejoin:miter;" x="209.766739" xlink:href="#m97e14c732e" y="280.929157"/>
     <use style="fill:#f89540;stroke:#f89540;stroke-linejoin:miter;" x="214.672902" xlink:href="#m97e14c732e" y="280.006993"/>
     <use style="fill:#f89540;stroke:#f89540;stroke-linejoin:miter;" x="218.875291" xlink:href="#m97e14c732e" y="278.902296"/>
     <use style="fill:#f89540;stroke:#f89540;stroke-linejoin:miter;" x="222.543734" xlink:href="#m97e14c732e" y="277.627994"/>
     <use style="fill:#f89540;stroke:#f89540;stroke-linejoin:miter;" x="225.677401" xlink:href="#m97e14c732e" y="276.200017"/>
     <use style="fill:#f89540;stroke:#f89540;stroke-linejoin:miter;" x="228.565901" xlink:href="#m97e14c732e" y="274.63763"/>
    </g>
   </g>
   <g id="line2d_24">
    <path clip-path="url(#pd2af6f7141)" d="M 167.7811 282.62066 
L 186.715992 280.767586 
L 197.418436 276.65053 
L 205.065269 270.824905 
L 211.138293 264.05654 
L 215.951904 256.999143 
L 220.129464 250.055273 
L 223.82386 243.488129 
L 227.007765 237.374496 
L 229.937311 231.718237 
" style="fill:none;stroke:#f7e425;stroke-dasharray:1.5,2.475;stroke-dashoffset:0;stroke-width:1.5;"/>
    <defs>
     <path d="M 0 3 
C 0.795609 3 1.55874 2.683901 2.12132 2.12132 
C 2.683901 1.55874 3 0.795609 3 0 
C 3 -0.795609 2.683901 -1.55874 2.12132 -2.12132 
C 1.55874 -2.683901 0.795609 -3 0 -3 
C -0.795609 -3 -1.55874 -2.683901 -2.12132 -2.12132 
C -2.683901 -1.55874 -3 -0.795609 -3 0 
C -3 0.795609 -2.683901 1.55874 -2.12132 2.12132 
C -1.55874 2.683901 -0.795609 3 0 3 
z
" id="mb0f255ed4d" style="stroke:#f7e425;"/>
    </defs>
    <g clip-path="url(#pd2af6f7141)">
     <use style="fill:#f7e425;stroke:#f7e425;" x="167.7811" xlink:href="#mb0f255ed4d" y="282.62066"/>
     <use style="fill:#f7e425;stroke:#f7e425;" x="186.715992" xlink:href="#mb0f255ed4d" y="280.767586"/>
     <use style="fill:#f7e425;stroke:#f7e425;" x="197.418436" xlink:href="#mb0f255ed4d" y="276.65053"/>
     <use style="fill:#f7e425;stroke:#f7e425;" x="205.065269" xlink:href="#mb0f255ed4d" y="270.824905"/>
     <use style="fill:#f7e425;stroke:#f7e425;" x="211.138293" xlink:href="#mb0f255ed4d" y="264.05654"/>
     <use style="fill:#f7e425;stroke:#f7e425;" x="215.951904" xlink:href="#mb0f255ed4d" y="256.999143"/>
     <use style="fill:#f7e425;stroke:#f7e425;" x="220.129464" xlink:href="#mb0f255ed4d" y="250.055273"/>
     <use style="fill:#f7e425;stroke:#f7e425;" x="223.82386" xlink:href="#mb0f255ed4d" y="243.488129"/>
     <use style="fill:#f7e425;stroke:#f7e425;" x="227.007765" xlink:href="#mb0f255ed4d" y="237.374496"/>
     <use style="fill:#f7e425;stroke:#f7e425;" x="229.937311" xlink:href="#mb0f255ed4d" y="231.718237"/>
    </g>
   </g>
   <g id="line2d_25">
    <path clip-path="url(#pd2af6f7141)" d="M 166.044954 282.722647 
L 184.811563 282.544201 
L 195.908501 282.185717 
L 203.764733 281.633125 
L 209.875155 280.876517 
L 214.805935 279.916903 
L 219.002294 278.760074 
L 222.594035 277.417518 
L 225.78616 275.903717 
L 228.659221 274.237563 
" style="fill:none;stroke:#fcce25;stroke-dasharray:5.55,2.4;stroke-dashoffset:0;stroke-width:1.5;"/>
    <defs>
     <path d="M 0 3 
C 0.795609 3 1.55874 2.683901 2.12132 2.12132 
C 2.683901 1.55874 3 0.795609 3 0 
C 3 -0.795609 2.683901 -1.55874 2.12132 -2.12132 
C 1.55874 -2.683901 0.795609 -3 0 -3 
C -0.795609 -3 -1.55874 -2.683901 -2.12132 -2.12132 
C -2.683901 -1.55874 -3 -0.795609 -3 0 
C -3 0.795609 -2.683901 1.55874 -2.12132 2.12132 
C -1.55874 2.683901 -0.795609 3 0 3 
z
" id="m57f613479e" style="stroke:#fcce25;"/>
    </defs>
    <g clip-path="url(#pd2af6f7141)">
     <use style="fill:#fcce25;stroke:#fcce25;" x="166.044954" xlink:href="#m57f613479e" y="282.722647"/>
     <use style="fill:#fcce25;stroke:#fcce25;" x="184.811563" xlink:href="#m57f613479e" y="282.544201"/>
     <use style="fill:#fcce25;stroke:#fcce25;" x="195.908501" xlink:href="#m57f613479e" y="282.185717"/>
     <use style="fill:#fcce25;stroke:#fcce25;" x="203.764733" xlink:href="#m57f613479e" y="281.633125"/>
     <use style="fill:#fcce25;stroke:#fcce25;" x="209.875155" xlink:href="#m57f613479e" y="280.876517"/>
     <use style="fill:#fcce25;stroke:#fcce25;" x="214.805935" xlink:href="#m57f613479e" y="279.916903"/>
     <use style="fill:#fcce25;stroke:#fcce25;" x="219.002294" xlink:href="#m57f613479e" y="278.760074"/>
     <use style="fill:#fcce25;stroke:#fcce25;" x="222.594035" xlink:href="#m57f613479e" y="277.417518"/>
     <use style="fill:#fcce25;stroke:#fcce25;" x="225.78616" xlink:href="#m57f613479e" y="275.903717"/>
     <use style="fill:#fcce25;stroke:#fcce25;" x="228.659221" xlink:href="#m57f613479e" y="274.237563"/>
    </g>
   </g>
   <g id="line2d_26">
    <path clip-path="url(#pd2af6f7141)" d="M 164.639896 277.38576 
L 183.276453 260.501604 
L 194.312637 239.869819 
L 202.067033 221.082747 
L 208.271704 205.74553 
L 213.25261 193.747589 
L 217.450597 184.514169 
L 221.051217 177.46417 
L 224.220049 172.084441 
L 227.048041 167.966697 
" style="fill:none;stroke:#cc4778;stroke-linecap:square;stroke-width:1.5;"/>
    <defs>
     <path d="M -3 -0 
L 3 3 
L 3 -3 
z
" id="m11838bcab1" style="stroke:#cc4778;stroke-linejoin:miter;"/>
    </defs>
    <g clip-path="url(#pd2af6f7141)">
     <use style="fill:#cc4778;stroke:#cc4778;stroke-linejoin:miter;" x="164.639896" xlink:href="#m11838bcab1" y="277.38576"/>
     <use style="fill:#cc4778;stroke:#cc4778;stroke-linejoin:miter;" x="183.276453" xlink:href="#m11838bcab1" y="260.501604"/>
     <use style="fill:#cc4778;stroke:#cc4778;stroke-linejoin:miter;" x="194.312637" xlink:href="#m11838bcab1" y="239.869819"/>
     <use style="fill:#cc4778;stroke:#cc4778;stroke-linejoin:miter;" x="202.067033" xlink:href="#m11838bcab1" y="221.082747"/>
     <use style="fill:#cc4778;stroke:#cc4778;stroke-linejoin:miter;" x="208.271704" xlink:href="#m11838bcab1" y="205.74553"/>
     <use style="fill:#cc4778;stroke:#cc4778;stroke-linejoin:miter;" x="213.25261" xlink:href="#m11838bcab1" y="193.747589"/>
     <use style="fill:#cc4778;stroke:#cc4778;stroke-linejoin:miter;" x="217.450597" xlink:href="#m11838bcab1" y="184.514169"/>
     <use style="fill:#cc4778;stroke:#cc4778;stroke-linejoin:miter;" x="221.051217" xlink:href="#m11838bcab1" y="177.46417"/>
     <use style="fill:#cc4778;stroke:#cc4778;stroke-linejoin:miter;" x="224.220049" xlink:href="#m11838bcab1" y="172.084441"/>
     <use style="fill:#cc4778;stroke:#cc4778;stroke-linejoin:miter;" x="227.048041" xlink:href="#m11838bcab1" y="167.966697"/>
    </g>
   </g>
   <g id="line2d_27">
    <path clip-path="url(#pd2af6f7141)" d="M 164.95412 282.76 
L 183.797589 282.76 
L 194.673612 282.76 
L 202.430109 282.76 
L 208.443572 282.76 
L 213.341968 282.76 
L 217.529118 282.76 
L 221.095395 282.76 
L 224.366583 282.76 
" style="fill:none;stroke:#0d0887;stroke-linecap:square;stroke-width:1.5;"/>
   </g>
   <g id="line2d_28">
    <path clip-path="url(#pd2af6f7141)" d="M 166.154 281.644734 
L 184.779815 277.615454 
L 195.872424 270.706013 
L 203.466228 261.940033 
L 209.648094 252.233476 
L 214.69014 242.359464 
L 218.964243 232.824987 
L 222.70907 223.918123 
L 225.817536 215.779041 
L 228.712037 208.446786 
" style="fill:none;stroke:#fca636;stroke-linecap:square;stroke-width:1.5;"/>
    <defs>
     <path d="M -0 4.242641 
L 2.545584 0 
L 0 -4.242641 
L -2.545584 -0 
z
" id="mff7d02d4b0" style="stroke:#fca636;stroke-linejoin:miter;"/>
    </defs>
    <g clip-path="url(#pd2af6f7141)">
     <use style="fill:#fca636;stroke:#fca636;stroke-linejoin:miter;" x="166.154" xlink:href="#mff7d02d4b0" y="281.644734"/>
     <use style="fill:#fca636;stroke:#fca636;stroke-linejoin:miter;" x="184.779815" xlink:href="#mff7d02d4b0" y="277.615454"/>
     <use style="fill:#fca636;stroke:#fca636;stroke-linejoin:miter;" x="195.872424" xlink:href="#mff7d02d4b0" y="270.706013"/>
     <use style="fill:#fca636;stroke:#fca636;stroke-linejoin:miter;" x="203.466228" xlink:href="#mff7d02d4b0" y="261.940033"/>
     <use style="fill:#fca636;stroke:#fca636;stroke-linejoin:miter;" x="209.648094" xlink:href="#mff7d02d4b0" y="252.233476"/>
     <use style="fill:#fca636;stroke:#fca636;stroke-linejoin:miter;" x="214.69014" xlink:href="#mff7d02d4b0" y="242.359464"/>
     <use style="fill:#fca636;stroke:#fca636;stroke-linejoin:miter;" x="218.964243" xlink:href="#mff7d02d4b0" y="232.824987"/>
     <use style="fill:#fca636;stroke:#fca636;stroke-linejoin:miter;" x="222.70907" xlink:href="#mff7d02d4b0" y="223.918123"/>
     <use style="fill:#fca636;stroke:#fca636;stroke-linejoin:miter;" x="225.817536" xlink:href="#mff7d02d4b0" y="215.779041"/>
     <use style="fill:#fca636;stroke:#fca636;stroke-linejoin:miter;" x="228.712037" xlink:href="#mff7d02d4b0" y="208.446786"/>
    </g>
   </g>
   <g id="patch_3">
    <path d="M 144.731892 282.76 
L 144.731892 25.92 
" style="fill:none;stroke:#000000;stroke-linecap:square;stroke-linejoin:miter;stroke-width:0.8;"/>
   </g>
   <g id="patch_4">
    <path d="M 429.755 282.76 
L 429.755 25.92 
" style="fill:none;stroke:#000000;stroke-linecap:square;stroke-linejoin:miter;stroke-width:0.8;"/>
   </g>
   <g id="patch_5">
    <path d="M 144.731892 282.76 
L 429.755 282.76 
" style="fill:none;stroke:#000000;stroke-linecap:square;stroke-linejoin:miter;stroke-width:0.8;"/>
   </g>
   <g id="patch_6">
    <path d="M 144.731892 25.92 
L 429.755 25.92 
" style="fill:none;stroke:#000000;stroke-linecap:square;stroke-linejoin:miter;stroke-width:0.8;"/>
   </g>
   <g id="text_19">
    <!-- /azp/agent/_work/1/s/tomopy.github.io/2021-02-12/peppers -->
    <g transform="translate(108.932821 19.92)scale(0.12 -0.12)">
     <defs>
      <path d="M 25.390625 72.90625 
L 33.6875 72.90625 
L 8.296875 -9.28125 
L 0 -9.28125 
z
" id="DejaVuSans-47"/>
      <path d="M 5.515625 54.6875 
L 48.1875 54.6875 
L 48.1875 46.484375 
L 14.40625 7.171875 
L 48.1875 7.171875 
L 48.1875 0 
L 4.296875 0 
L 4.296875 8.203125 
L 38.09375 47.515625 
L 5.515625 47.515625 
z
" id="DejaVuSans-122"/>
      <path d="M 45.40625 27.984375 
Q 45.40625 37.75 41.375 43.109375 
Q 37.359375 48.484375 30.078125 48.484375 
Q 22.859375 48.484375 18.828125 43.109375 
Q 14.796875 37.75 14.796875 27.984375 
Q 14.796875 18.265625 18.828125 12.890625 
Q 22.859375 7.515625 30.078125 7.515625 
Q 37.359375 7.515625 41.375 12.890625 
Q 45.40625 18.265625 45.40625 27.984375 
z
M 54.390625 6.78125 
Q 54.390625 -7.171875 48.1875 -13.984375 
Q 42 -20.796875 29.203125 -20.796875 
Q 24.46875 -20.796875 20.265625 -20.09375 
Q 16.0625 -19.390625 12.109375 -17.921875 
L 12.109375 -9.1875 
Q 16.0625 -11.328125 19.921875 -12.34375 
Q 23.78125 -13.375 27.78125 -13.375 
Q 36.625 -13.375 41.015625 -8.765625 
Q 45.40625 -4.15625 45.40625 5.171875 
L 45.40625 9.625 
Q 42.625 4.78125 38.28125 2.390625 
Q 33.9375 0 27.875 0 
Q 17.828125 0 11.671875 7.65625 
Q 5.515625 15.328125 5.515625 27.984375 
Q 5.515625 40.671875 11.671875 48.328125 
Q 17.828125 56 27.875 56 
Q 33.9375 56 38.28125 53.609375 
Q 42.625 51.21875 45.40625 46.390625 
L 45.40625 54.6875 
L 54.390625 54.6875 
z
" id="DejaVuSans-103"/>
      <path d="M 50.984375 -16.609375 
L 50.984375 -23.578125 
L -0.984375 -23.578125 
L -0.984375 -16.609375 
z
" id="DejaVuSans-95"/>
      <path d="M 30.609375 48.390625 
Q 23.390625 48.390625 19.1875 42.75 
Q 14.984375 37.109375 14.984375 27.296875 
Q 14.984375 17.484375 19.15625 11.84375 
Q 23.34375 6.203125 30.609375 6.203125 
Q 37.796875 6.203125 41.984375 11.859375 
Q 46.1875 17.53125 46.1875 27.296875 
Q 46.1875 37.015625 41.984375 42.703125 
Q 37.796875 48.390625 30.609375 48.390625 
z
M 30.609375 56 
Q 42.328125 56 49.015625 48.375 
Q 55.71875 40.765625 55.71875 27.296875 
Q 55.71875 13.875 49.015625 6.21875 
Q 42.328125 -1.421875 30.609375 -1.421875 
Q 18.84375 -1.421875 12.171875 6.21875 
Q 5.515625 13.875 5.515625 27.296875 
Q 5.515625 40.765625 12.171875 48.375 
Q 18.84375 56 30.609375 56 
z
" id="DejaVuSans-111"/>
      <path d="M 9.078125 75.984375 
L 18.109375 75.984375 
L 18.109375 31.109375 
L 44.921875 54.6875 
L 56.390625 54.6875 
L 27.390625 29.109375 
L 57.625 0 
L 45.90625 0 
L 18.109375 26.703125 
L 18.109375 0 
L 9.078125 0 
z
" id="DejaVuSans-107"/>
      <path d="M 32.171875 -5.078125 
Q 28.375 -14.84375 24.75 -17.8125 
Q 21.140625 -20.796875 15.09375 -20.796875 
L 7.90625 -20.796875 
L 7.90625 -13.28125 
L 13.1875 -13.28125 
Q 16.890625 -13.28125 18.9375 -11.515625 
Q 21 -9.765625 23.484375 -3.21875 
L 25.09375 0.875 
L 2.984375 54.6875 
L 12.5 54.6875 
L 29.59375 11.921875 
L 46.6875 54.6875 
L 56.203125 54.6875 
z
" id="DejaVuSans-121"/>
      <path d="M 8.5 21.578125 
L 8.5 54.6875 
L 17.484375 54.6875 
L 17.484375 21.921875 
Q 17.484375 14.15625 20.5 10.265625 
Q 23.53125 6.390625 29.59375 6.390625 
Q 36.859375 6.390625 41.078125 11.03125 
Q 45.3125 15.671875 45.3125 23.6875 
L 45.3125 54.6875 
L 54.296875 54.6875 
L 54.296875 0 
L 45.3125 0 
L 45.3125 8.40625 
Q 42.046875 3.421875 37.71875 1 
Q 33.40625 -1.421875 27.6875 -1.421875 
Q 18.265625 -1.421875 13.375 4.4375 
Q 8.5 10.296875 8.5 21.578125 
z
M 31.109375 56 
z
" id="DejaVuSans-117"/>
      <path d="M 48.6875 27.296875 
Q 48.6875 37.203125 44.609375 42.84375 
Q 40.53125 48.484375 33.40625 48.484375 
Q 26.265625 48.484375 22.1875 42.84375 
Q 18.109375 37.203125 18.109375 27.296875 
Q 18.109375 17.390625 22.1875 11.75 
Q 26.265625 6.109375 33.40625 6.109375 
Q 40.53125 6.109375 44.609375 11.75 
Q 48.6875 17.390625 48.6875 27.296875 
z
M 18.109375 46.390625 
Q 20.953125 51.265625 25.265625 53.625 
Q 29.59375 56 35.59375 56 
Q 45.5625 56 51.78125 48.09375 
Q 58.015625 40.1875 58.015625 27.296875 
Q 58.015625 14.40625 51.78125 6.484375 
Q 45.5625 -1.421875 35.59375 -1.421875 
Q 29.59375 -1.421875 25.265625 0.953125 
Q 20.953125 3.328125 18.109375 8.203125 
L 18.109375 0 
L 9.078125 0 
L 9.078125 75.984375 
L 18.109375 75.984375 
z
" id="DejaVuSans-98"/>
     </defs>
     <use xlink:href="#DejaVuSans-47"/>
     <use x="33.691406" xlink:href="#DejaVuSans-97"/>
     <use x="94.970703" xlink:href="#DejaVuSans-122"/>
     <use x="147.460938" xlink:href="#DejaVuSans-112"/>
     <use x="210.9375" xlink:href="#DejaVuSans-47"/>
     <use x="244.628906" xlink:href="#DejaVuSans-97"/>
     <use x="305.908203" xlink:href="#DejaVuSans-103"/>
     <use x="369.384766" xlink:href="#DejaVuSans-101"/>
     <use x="430.908203" xlink:href="#DejaVuSans-110"/>
     <use x="494.287109" xlink:href="#DejaVuSans-116"/>
     <use x="533.496094" xlink:href="#DejaVuSans-47"/>
     <use x="567.1875" xlink:href="#DejaVuSans-95"/>
     <use x="617.1875" xlink:href="#DejaVuSans-119"/>
     <use x="698.974609" xlink:href="#DejaVuSans-111"/>
     <use x="760.15625" xlink:href="#DejaVuSans-114"/>
     <use x="801.269531" xlink:href="#DejaVuSans-107"/>
     <use x="859.179688" xlink:href="#DejaVuSans-47"/>
     <use x="892.871094" xlink:href="#DejaVuSans-49"/>
     <use x="956.494141" xlink:href="#DejaVuSans-47"/>
     <use x="990.185547" xlink:href="#DejaVuSans-115"/>
     <use x="1042.285156" xlink:href="#DejaVuSans-47"/>
     <use x="1075.976562" xlink:href="#DejaVuSans-116"/>
     <use x="1115.185547" xlink:href="#DejaVuSans-111"/>
     <use x="1176.367188" xlink:href="#DejaVuSans-109"/>
     <use x="1273.779297" xlink:href="#DejaVuSans-111"/>
     <use x="1334.960938" xlink:href="#DejaVuSans-112"/>
     <use x="1398.4375" xlink:href="#DejaVuSans-121"/>
     <use x="1443.367188" xlink:href="#DejaVuSans-46"/>
     <use x="1475.154297" xlink:href="#DejaVuSans-103"/>
     <use x="1538.630859" xlink:href="#DejaVuSans-105"/>
     <use x="1566.414062" xlink:href="#DejaVuSans-116"/>
     <use x="1605.623047" xlink:href="#DejaVuSans-104"/>
     <use x="1669.001953" xlink:href="#DejaVuSans-117"/>
     <use x="1732.380859" xlink:href="#DejaVuSans-98"/>
     <use x="1795.857422" xlink:href="#DejaVuSans-46"/>
     <use x="1827.644531" xlink:href="#DejaVuSans-105"/>
     <use x="1855.427734" xlink:href="#DejaVuSans-111"/>
     <use x="1916.609375" xlink:href="#DejaVuSans-47"/>
     <use x="1950.300781" xlink:href="#DejaVuSans-50"/>
     <use x="2013.923828" xlink:href="#DejaVuSans-48"/>
     <use x="2077.546875" xlink:href="#DejaVuSans-50"/>
     <use x="2141.169922" xlink:href="#DejaVuSans-49"/>
     <use x="2204.792969" xlink:href="#DejaVuSans-45"/>
     <use x="2240.876953" xlink:href="#DejaVuSans-48"/>
     <use x="2304.5" xlink:href="#DejaVuSans-50"/>
     <use x="2368.123047" xlink:href="#DejaVuSans-45"/>
     <use x="2404.207031" xlink:href="#DejaVuSans-49"/>
     <use x="2467.830078" xlink:href="#DejaVuSans-50"/>
     <use x="2531.453125" xlink:href="#DejaVuSans-47"/>
     <use x="2565.144531" xlink:href="#DejaVuSans-112"/>
     <use x="2628.621094" xlink:href="#DejaVuSans-101"/>
     <use x="2690.144531" xlink:href="#DejaVuSans-112"/>
     <use x="2753.621094" xlink:href="#DejaVuSans-112"/>
     <use x="2817.097656" xlink:href="#DejaVuSans-101"/>
     <use x="2878.621094" xlink:href="#DejaVuSans-114"/>
     <use x="2919.734375" xlink:href="#DejaVuSans-115"/>
    </g>
   </g>
   <g id="legend_1">
    <g id="patch_7">
     <path d="M 446.006155 206.17 
L 555.043655 206.17 
Q 557.043655 206.17 557.043655 204.17 
L 557.043655 27.92 
Q 557.043655 25.92 555.043655 25.92 
L 446.006155 25.92 
Q 444.006155 25.92 444.006155 27.92 
L 444.006155 204.17 
Q 444.006155 206.17 446.006155 206.17 
z
" style="fill:#ffffff;opacity:0.8;stroke:#cccccc;stroke-linejoin:miter;"/>
    </g>
    <g id="LineCollection_13">
     <path d="M 463.006155 39.018437 
L 463.006155 29.018437 
" style="fill:none;stroke:#41049d;stroke-width:1.5;"/>
    </g>
    <g id="line2d_29"/>
    <g id="line2d_30">
     <g>
      <use style="fill:#41049d;stroke:#41049d;stroke-linejoin:miter;" x="463.006155" xlink:href="#mbb47e04ad4" y="34.018437"/>
     </g>
    </g>
    <g id="text_20">
     <!-- fbp -->
     <g transform="translate(486.006155 37.518437)scale(0.1 -0.1)">
      <defs>
       <path d="M 37.109375 75.984375 
L 37.109375 68.5 
L 28.515625 68.5 
Q 23.6875 68.5 21.796875 66.546875 
Q 19.921875 64.59375 19.921875 59.515625 
L 19.921875 54.6875 
L 34.71875 54.6875 
L 34.71875 47.703125 
L 19.921875 47.703125 
L 19.921875 0 
L 10.890625 0 
L 10.890625 47.703125 
L 2.296875 47.703125 
L 2.296875 54.6875 
L 10.890625 54.6875 
L 10.890625 58.5 
Q 10.890625 67.625 15.140625 71.796875 
Q 19.390625 75.984375 28.609375 75.984375 
z
" id="DejaVuSans-102"/>
      </defs>
      <use xlink:href="#DejaVuSans-102"/>
      <use x="35.205078" xlink:href="#DejaVuSans-98"/>
      <use x="98.681641" xlink:href="#DejaVuSans-112"/>
     </g>
    </g>
    <g id="LineCollection_14">
     <path d="M 463.006155 53.696562 
L 463.006155 43.696562 
" style="fill:none;stroke:#e16462;stroke-width:1.5;"/>
    </g>
    <g id="line2d_31">
     <path d="M 448.006155 48.696562 
L 478.006155 48.696562 
" style="fill:none;stroke:#e16462;stroke-linecap:square;stroke-width:1.5;"/>
    </g>
    <g id="line2d_32">
     <g>
      <use style="fill:#e16462;stroke:#e16462;stroke-linejoin:miter;" x="463.006155" xlink:href="#m59495ddce4" y="48.696562"/>
     </g>
    </g>
    <g id="text_21">
     <!-- grad -->
     <g transform="translate(486.006155 52.196562)scale(0.1 -0.1)">
      <use xlink:href="#DejaVuSans-103"/>
      <use x="63.476562" xlink:href="#DejaVuSans-114"/>
      <use x="104.589844" xlink:href="#DejaVuSans-97"/>
      <use x="165.869141" xlink:href="#DejaVuSans-100"/>
     </g>
    </g>
    <g id="LineCollection_15">
     <path d="M 463.006155 68.374687 
L 463.006155 58.374687 
" style="fill:none;stroke:#0d0887;stroke-width:1.5;"/>
    </g>
    <g id="line2d_33"/>
    <g id="line2d_34">
     <g>
      <use style="fill:#0d0887;stroke:#0d0887;" x="463.006155" xlink:href="#mc51b014831" y="63.374687"/>
     </g>
    </g>
    <g id="text_22">
     <!-- gridrec -->
     <g transform="translate(486.006155 66.874687)scale(0.1 -0.1)">
      <use xlink:href="#DejaVuSans-103"/>
      <use x="63.476562" xlink:href="#DejaVuSans-114"/>
      <use x="104.589844" xlink:href="#DejaVuSans-105"/>
      <use x="132.373047" xlink:href="#DejaVuSans-100"/>
      <use x="195.849609" xlink:href="#DejaVuSans-114"/>
      <use x="234.712891" xlink:href="#DejaVuSans-101"/>
      <use x="296.236328" xlink:href="#DejaVuSans-99"/>
     </g>
    </g>
    <g id="LineCollection_16">
     <path d="M 463.006155 83.052812 
L 463.006155 73.052812 
" style="fill:none;stroke:#f0f921;stroke-width:1.5;"/>
    </g>
    <g id="line2d_35">
     <path d="M 448.006155 78.052812 
L 478.006155 78.052812 
" style="fill:none;stroke:#f0f921;stroke-linecap:square;stroke-width:1.5;"/>
    </g>
    <g id="line2d_36">
     <g>
      <use style="fill:#f0f921;stroke:#f0f921;" x="463.006155" xlink:href="#m007ece398b" y="78.052812"/>
     </g>
    </g>
    <g id="text_23">
     <!-- mlem -->
     <g transform="translate(486.006155 81.552812)scale(0.1 -0.1)">
      <use xlink:href="#DejaVuSans-109"/>
      <use x="97.412109" xlink:href="#DejaVuSans-108"/>
      <use x="125.195312" xlink:href="#DejaVuSans-101"/>
      <use x="186.71875" xlink:href="#DejaVuSans-109"/>
     </g>
    </g>
    <g id="LineCollection_17">
     <path d="M 463.006155 97.730937 
L 463.006155 87.730937 
" style="fill:none;stroke:#ea7457;stroke-width:1.5;"/>
    </g>
    <g id="line2d_37">
     <path d="M 448.006155 92.730937 
L 478.006155 92.730937 
" style="fill:none;stroke:#ea7457;stroke-linecap:square;stroke-width:1.5;"/>
    </g>
    <g id="line2d_38">
     <g>
      <use style="fill:#ea7457;stroke:#ea7457;stroke-linejoin:miter;" x="463.006155" xlink:href="#m010da54e34" y="92.730937"/>
     </g>
    </g>
    <g id="text_24">
     <!-- osem -->
     <g transform="translate(486.006155 96.230937)scale(0.1 -0.1)">
      <use xlink:href="#DejaVuSans-111"/>
      <use x="61.181641" xlink:href="#DejaVuSans-115"/>
      <use x="113.28125" xlink:href="#DejaVuSans-101"/>
      <use x="174.804688" xlink:href="#DejaVuSans-109"/>
     </g>
    </g>
    <g id="LineCollection_18">
     <path d="M 463.006155 112.409062 
L 463.006155 102.409062 
" style="fill:none;stroke:#f2844b;stroke-width:1.5;"/>
    </g>
    <g id="line2d_39">
     <path d="M 448.006155 107.409062 
L 478.006155 107.409062 
" style="fill:none;stroke:#f2844b;stroke-dasharray:1.5,2.475;stroke-dashoffset:0;stroke-width:1.5;"/>
    </g>
    <g id="line2d_40">
     <g>
      <use style="fill:#f2844b;stroke:#f2844b;stroke-linejoin:miter;" x="463.006155" xlink:href="#mf31b87a68c" y="107.409062"/>
     </g>
    </g>
    <g id="text_25">
     <!-- ospml_hybrid -->
     <g transform="translate(486.006155 110.909062)scale(0.1 -0.1)">
      <use xlink:href="#DejaVuSans-111"/>
      <use x="61.181641" xlink:href="#DejaVuSans-115"/>
      <use x="113.28125" xlink:href="#DejaVuSans-112"/>
      <use x="176.757812" xlink:href="#DejaVuSans-109"/>
      <use x="274.169922" xlink:href="#DejaVuSans-108"/>
      <use x="301.953125" xlink:href="#DejaVuSans-95"/>
      <use x="351.953125" xlink:href="#DejaVuSans-104"/>
      <use x="415.332031" xlink:href="#DejaVuSans-121"/>
      <use x="474.511719" xlink:href="#DejaVuSans-98"/>
      <use x="537.988281" xlink:href="#DejaVuSans-114"/>
      <use x="579.101562" xlink:href="#DejaVuSans-105"/>
      <use x="606.884766" xlink:href="#DejaVuSans-100"/>
     </g>
    </g>
    <g id="LineCollection_19">
     <path d="M 463.006155 127.365312 
L 463.006155 117.365312 
" style="fill:none;stroke:#f89540;stroke-width:1.5;"/>
    </g>
    <g id="line2d_41">
     <path d="M 448.006155 122.365312 
L 478.006155 122.365312 
" style="fill:none;stroke:#f89540;stroke-dasharray:5.55,2.4;stroke-dashoffset:0;stroke-width:1.5;"/>
    </g>
    <g id="line2d_42">
     <g>
      <use style="fill:#f89540;stroke:#f89540;stroke-linejoin:miter;" x="463.006155" xlink:href="#m97e14c732e" y="122.365312"/>
     </g>
    </g>
    <g id="text_26">
     <!-- ospml_quad -->
     <g transform="translate(486.006155 125.865312)scale(0.1 -0.1)">
      <defs>
       <path d="M 14.796875 27.296875 
Q 14.796875 17.390625 18.875 11.75 
Q 22.953125 6.109375 30.078125 6.109375 
Q 37.203125 6.109375 41.296875 11.75 
Q 45.40625 17.390625 45.40625 27.296875 
Q 45.40625 37.203125 41.296875 42.84375 
Q 37.203125 48.484375 30.078125 48.484375 
Q 22.953125 48.484375 18.875 42.84375 
Q 14.796875 37.203125 14.796875 27.296875 
z
M 45.40625 8.203125 
Q 42.578125 3.328125 38.25 0.953125 
Q 33.9375 -1.421875 27.875 -1.421875 
Q 17.96875 -1.421875 11.734375 6.484375 
Q 5.515625 14.40625 5.515625 27.296875 
Q 5.515625 40.1875 11.734375 48.09375 
Q 17.96875 56 27.875 56 
Q 33.9375 56 38.25 53.625 
Q 42.578125 51.265625 45.40625 46.390625 
L 45.40625 54.6875 
L 54.390625 54.6875 
L 54.390625 -20.796875 
L 45.40625 -20.796875 
z
" id="DejaVuSans-113"/>
      </defs>
      <use xlink:href="#DejaVuSans-111"/>
      <use x="61.181641" xlink:href="#DejaVuSans-115"/>
      <use x="113.28125" xlink:href="#DejaVuSans-112"/>
      <use x="176.757812" xlink:href="#DejaVuSans-109"/>
      <use x="274.169922" xlink:href="#DejaVuSans-108"/>
      <use x="301.953125" xlink:href="#DejaVuSans-95"/>
      <use x="351.953125" xlink:href="#DejaVuSans-113"/>
      <use x="415.429688" xlink:href="#DejaVuSans-117"/>
      <use x="478.808594" xlink:href="#DejaVuSans-97"/>
      <use x="540.087891" xlink:href="#DejaVuSans-100"/>
     </g>
    </g>
    <g id="LineCollection_20">
     <path d="M 463.006155 142.321562 
L 463.006155 132.321562 
" style="fill:none;stroke:#f7e425;stroke-width:1.5;"/>
    </g>
    <g id="line2d_43">
     <path d="M 448.006155 137.321562 
L 478.006155 137.321562 
" style="fill:none;stroke:#f7e425;stroke-dasharray:1.5,2.475;stroke-dashoffset:0;stroke-width:1.5;"/>
    </g>
    <g id="line2d_44">
     <g>
      <use style="fill:#f7e425;stroke:#f7e425;" x="463.006155" xlink:href="#mb0f255ed4d" y="137.321562"/>
     </g>
    </g>
    <g id="text_27">
     <!-- pml_hybrid -->
     <g transform="translate(486.006155 140.821562)scale(0.1 -0.1)">
      <use xlink:href="#DejaVuSans-112"/>
      <use x="63.476562" xlink:href="#DejaVuSans-109"/>
      <use x="160.888672" xlink:href="#DejaVuSans-108"/>
      <use x="188.671875" xlink:href="#DejaVuSans-95"/>
      <use x="238.671875" xlink:href="#DejaVuSans-104"/>
      <use x="302.050781" xlink:href="#DejaVuSans-121"/>
      <use x="361.230469" xlink:href="#DejaVuSans-98"/>
      <use x="424.707031" xlink:href="#DejaVuSans-114"/>
      <use x="465.820312" xlink:href="#DejaVuSans-105"/>
      <use x="493.603516" xlink:href="#DejaVuSans-100"/>
     </g>
    </g>
    <g id="LineCollection_21">
     <path d="M 463.006155 157.277812 
L 463.006155 147.277812 
" style="fill:none;stroke:#fcce25;stroke-width:1.5;"/>
    </g>
    <g id="line2d_45">
     <path d="M 448.006155 152.277812 
L 478.006155 152.277812 
" style="fill:none;stroke:#fcce25;stroke-dasharray:5.55,2.4;stroke-dashoffset:0;stroke-width:1.5;"/>
    </g>
    <g id="line2d_46">
     <g>
      <use style="fill:#fcce25;stroke:#fcce25;" x="463.006155" xlink:href="#m57f613479e" y="152.277812"/>
     </g>
    </g>
    <g id="text_28">
     <!-- pml_quad -->
     <g transform="translate(486.006155 155.777812)scale(0.1 -0.1)">
      <use xlink:href="#DejaVuSans-112"/>
      <use x="63.476562" xlink:href="#DejaVuSans-109"/>
      <use x="160.888672" xlink:href="#DejaVuSans-108"/>
      <use x="188.671875" xlink:href="#DejaVuSans-95"/>
      <use x="238.671875" xlink:href="#DejaVuSans-113"/>
      <use x="302.148438" xlink:href="#DejaVuSans-117"/>
      <use x="365.527344" xlink:href="#DejaVuSans-97"/>
      <use x="426.806641" xlink:href="#DejaVuSans-100"/>
     </g>
    </g>
    <g id="LineCollection_22">
     <path d="M 463.006155 172.234062 
L 463.006155 162.234062 
" style="fill:none;stroke:#cc4778;stroke-width:1.5;"/>
    </g>
    <g id="line2d_47">
     <path d="M 448.006155 167.234062 
L 478.006155 167.234062 
" style="fill:none;stroke:#cc4778;stroke-linecap:square;stroke-width:1.5;"/>
    </g>
    <g id="line2d_48">
     <g>
      <use style="fill:#cc4778;stroke:#cc4778;stroke-linejoin:miter;" x="463.006155" xlink:href="#m11838bcab1" y="167.234062"/>
     </g>
    </g>
    <g id="text_29">
     <!-- sirt -->
     <g transform="translate(486.006155 170.734062)scale(0.1 -0.1)">
      <use xlink:href="#DejaVuSans-115"/>
      <use x="52.099609" xlink:href="#DejaVuSans-105"/>
      <use x="79.882812" xlink:href="#DejaVuSans-114"/>
      <use x="120.996094" xlink:href="#DejaVuSans-116"/>
     </g>
    </g>
    <g id="LineCollection_23">
     <path d="M 463.006155 186.912187 
L 463.006155 176.912187 
" style="fill:none;stroke:#0d0887;stroke-width:1.5;"/>
    </g>
    <g id="line2d_49">
     <path d="M 448.006155 181.912187 
L 478.006155 181.912187 
" style="fill:none;stroke:#0d0887;stroke-linecap:square;stroke-width:1.5;"/>
    </g>
    <g id="line2d_50"/>
    <g id="text_30">
     <!-- tikh -->
     <g transform="translate(486.006155 185.412187)scale(0.1 -0.1)">
      <use xlink:href="#DejaVuSans-116"/>
      <use x="39.208984" xlink:href="#DejaVuSans-105"/>
      <use x="66.992188" xlink:href="#DejaVuSans-107"/>
      <use x="124.902344" xlink:href="#DejaVuSans-104"/>
     </g>
    </g>
    <g id="LineCollection_24">
     <path d="M 463.006155 201.590312 
L 463.006155 191.590312 
" style="fill:none;stroke:#fca636;stroke-width:1.5;"/>
    </g>
    <g id="line2d_51">
     <path d="M 448.006155 196.590312 
L 478.006155 196.590312 
" style="fill:none;stroke:#fca636;stroke-linecap:square;stroke-width:1.5;"/>
    </g>
    <g id="line2d_52">
     <g>
      <use style="fill:#fca636;stroke:#fca636;stroke-linejoin:miter;" x="463.006155" xlink:href="#mff7d02d4b0" y="196.590312"/>
     </g>
    </g>
    <g id="text_31">
     <!-- tv -->
     <g transform="translate(486.006155 200.090312)scale(0.1 -0.1)">
      <defs>
       <path d="M 2.984375 54.6875 
L 12.5 54.6875 
L 29.59375 8.796875 
L 46.6875 54.6875 
L 56.203125 54.6875 
L 35.6875 0 
L 23.484375 0 
z
" id="DejaVuSans-118"/>
      </defs>
      <use xlink:href="#DejaVuSans-116"/>
      <use x="39.208984" xlink:href="#DejaVuSans-118"/>
     </g>
    </g>
   </g>
  </g>
 </g>
 <defs>
  <clipPath id="pd2af6f7141">
   <rect height="256.84" width="285.023108" x="144.731892" y="25.92"/>
  </clipPath>
 </defs>
</svg>
