<?xml version="1.0" encoding="utf-8" standalone="no"?>
<!DOCTYPE svg PUBLIC "-//W3C//DTD SVG 1.1//EN"
  "http://www.w3.org/Graphics/SVG/1.1/DTD/svg11.dtd">
<!-- Created with matplotlib (https://matplotlib.org/) -->
<svg height="324pt" version="1.1" viewBox="0 0 576 324" width="576pt" xmlns="http://www.w3.org/2000/svg" xmlns:xlink="http://www.w3.org/1999/xlink">
 <metadata>
  <rdf:RDF xmlns:cc="http://creativecommons.org/ns#" xmlns:dc="http://purl.org/dc/elements/1.1/" xmlns:rdf="http://www.w3.org/1999/02/22-rdf-syntax-ns#">
   <cc:Work>
    <dc:type rdf:resource="http://purl.org/dc/dcmitype/StillImage"/>
    <dc:date>2021-04-16T23:51:00.065243</dc:date>
    <dc:format>image/svg+xml</dc:format>
    <dc:creator>
     <cc:Agent>
      <dc:title>Matplotlib v3.3.4, https://matplotlib.org/</dc:title>
     </cc:Agent>
    </dc:creator>
   </cc:Work>
  </rdf:RDF>
 </metadata>
 <defs>
  <style type="text/css">*{stroke-linecap:butt;stroke-linejoin:round;}</style>
 </defs>
 <g id="figure_1">
  <g id="patch_1">
   <path d="M 0 324 
L 576 324 
L 576 0 
L 0 0 
z
" style="fill:#ffffff;"/>
  </g>
  <g id="axes_1">
   <g id="patch_2">
    <path d="M 116.944647 282.76 
L 451.46 282.76 
L 451.46 25.92 
L 116.944647 25.92 
z
" style="fill:#ffffff;"/>
   </g>
   <g id="matplotlib.axis_1">
    <g id="xtick_1">
     <g id="line2d_1">
      <defs>
       <path d="M 0 0 
L 0 3.5 
" id="m549dbc9a6c" style="stroke:#000000;stroke-width:0.8;"/>
      </defs>
      <g>
       <use style="stroke:#000000;stroke-width:0.8;" x="116.944647" xlink:href="#m549dbc9a6c" y="282.76"/>
      </g>
     </g>
     <g id="text_1">
      <!-- 0.1s -->
      <g transform="translate(106.388397 297.358438)scale(0.1 -0.1)">
       <defs>
        <path d="M 31.78125 66.40625 
Q 24.171875 66.40625 20.328125 58.90625 
Q 16.5 51.421875 16.5 36.375 
Q 16.5 21.390625 20.328125 13.890625 
Q 24.171875 6.390625 31.78125 6.390625 
Q 39.453125 6.390625 43.28125 13.890625 
Q 47.125 21.390625 47.125 36.375 
Q 47.125 51.421875 43.28125 58.90625 
Q 39.453125 66.40625 31.78125 66.40625 
z
M 31.78125 74.21875 
Q 44.046875 74.21875 50.515625 64.515625 
Q 56.984375 54.828125 56.984375 36.375 
Q 56.984375 17.96875 50.515625 8.265625 
Q 44.046875 -1.421875 31.78125 -1.421875 
Q 19.53125 -1.421875 13.0625 8.265625 
Q 6.59375 17.96875 6.59375 36.375 
Q 6.59375 54.828125 13.0625 64.515625 
Q 19.53125 74.21875 31.78125 74.21875 
z
" id="DejaVuSans-48"/>
        <path d="M 10.6875 12.40625 
L 21 12.40625 
L 21 0 
L 10.6875 0 
z
" id="DejaVuSans-46"/>
        <path d="M 12.40625 8.296875 
L 28.515625 8.296875 
L 28.515625 63.921875 
L 10.984375 60.40625 
L 10.984375 69.390625 
L 28.421875 72.90625 
L 38.28125 72.90625 
L 38.28125 8.296875 
L 54.390625 8.296875 
L 54.390625 0 
L 12.40625 0 
z
" id="DejaVuSans-49"/>
        <path d="M 44.28125 53.078125 
L 44.28125 44.578125 
Q 40.484375 46.53125 36.375 47.5 
Q 32.28125 48.484375 27.875 48.484375 
Q 21.1875 48.484375 17.84375 46.4375 
Q 14.5 44.390625 14.5 40.28125 
Q 14.5 37.15625 16.890625 35.375 
Q 19.28125 33.59375 26.515625 31.984375 
L 29.59375 31.296875 
Q 39.15625 29.25 43.1875 25.515625 
Q 47.21875 21.78125 47.21875 15.09375 
Q 47.21875 7.46875 41.1875 3.015625 
Q 35.15625 -1.421875 24.609375 -1.421875 
Q 20.21875 -1.421875 15.453125 -0.5625 
Q 10.6875 0.296875 5.421875 2 
L 5.421875 11.28125 
Q 10.40625 8.6875 15.234375 7.390625 
Q 20.0625 6.109375 24.8125 6.109375 
Q 31.15625 6.109375 34.5625 8.28125 
Q 37.984375 10.453125 37.984375 14.40625 
Q 37.984375 18.0625 35.515625 20.015625 
Q 33.0625 21.96875 24.703125 23.78125 
L 21.578125 24.515625 
Q 13.234375 26.265625 9.515625 29.90625 
Q 5.8125 33.546875 5.8125 39.890625 
Q 5.8125 47.609375 11.28125 51.796875 
Q 16.75 56 26.8125 56 
Q 31.78125 56 36.171875 55.265625 
Q 40.578125 54.546875 44.28125 53.078125 
z
" id="DejaVuSans-115"/>
       </defs>
       <use xlink:href="#DejaVuSans-48"/>
       <use x="63.623047" xlink:href="#DejaVuSans-46"/>
       <use x="95.410156" xlink:href="#DejaVuSans-49"/>
       <use x="159.033203" xlink:href="#DejaVuSans-115"/>
      </g>
     </g>
    </g>
    <g id="xtick_2">
     <g id="line2d_2">
      <g>
       <use style="stroke:#000000;stroke-width:0.8;" x="190.362809" xlink:href="#m549dbc9a6c" y="282.76"/>
      </g>
     </g>
     <g id="text_2">
      <!-- 1s -->
      <g transform="translate(184.576871 297.358438)scale(0.1 -0.1)">
       <use xlink:href="#DejaVuSans-49"/>
       <use x="63.623047" xlink:href="#DejaVuSans-115"/>
      </g>
     </g>
    </g>
    <g id="xtick_3">
     <g id="line2d_3">
      <g>
       <use style="stroke:#000000;stroke-width:0.8;" x="241.679901" xlink:href="#m549dbc9a6c" y="282.76"/>
      </g>
     </g>
     <g id="text_3">
      <!-- 5s -->
      <g transform="translate(235.893964 297.358438)scale(0.1 -0.1)">
       <defs>
        <path d="M 10.796875 72.90625 
L 49.515625 72.90625 
L 49.515625 64.59375 
L 19.828125 64.59375 
L 19.828125 46.734375 
Q 21.96875 47.46875 24.109375 47.828125 
Q 26.265625 48.1875 28.421875 48.1875 
Q 40.625 48.1875 47.75 41.5 
Q 54.890625 34.8125 54.890625 23.390625 
Q 54.890625 11.625 47.5625 5.09375 
Q 40.234375 -1.421875 26.90625 -1.421875 
Q 22.3125 -1.421875 17.546875 -0.640625 
Q 12.796875 0.140625 7.71875 1.703125 
L 7.71875 11.625 
Q 12.109375 9.234375 16.796875 8.0625 
Q 21.484375 6.890625 26.703125 6.890625 
Q 35.15625 6.890625 40.078125 11.328125 
Q 45.015625 15.765625 45.015625 23.390625 
Q 45.015625 31 40.078125 35.4375 
Q 35.15625 39.890625 26.703125 39.890625 
Q 22.75 39.890625 18.8125 39.015625 
Q 14.890625 38.140625 10.796875 36.28125 
z
" id="DejaVuSans-53"/>
       </defs>
       <use xlink:href="#DejaVuSans-53"/>
       <use x="63.623047" xlink:href="#DejaVuSans-115"/>
      </g>
     </g>
    </g>
    <g id="xtick_4">
     <g id="line2d_4">
      <g>
       <use style="stroke:#000000;stroke-width:0.8;" x="263.78097" xlink:href="#m549dbc9a6c" y="282.76"/>
      </g>
     </g>
     <g id="text_4">
      <!-- 10s -->
      <g transform="translate(254.813783 297.358438)scale(0.1 -0.1)">
       <use xlink:href="#DejaVuSans-49"/>
       <use x="63.623047" xlink:href="#DejaVuSans-48"/>
       <use x="127.246094" xlink:href="#DejaVuSans-115"/>
      </g>
     </g>
    </g>
    <g id="xtick_5">
     <g id="line2d_5">
      <g>
       <use style="stroke:#000000;stroke-width:0.8;" x="298.810335" xlink:href="#m549dbc9a6c" y="282.76"/>
      </g>
     </g>
     <g id="text_5">
      <!-- 30s -->
      <g transform="translate(289.843148 297.358438)scale(0.1 -0.1)">
       <defs>
        <path d="M 40.578125 39.3125 
Q 47.65625 37.796875 51.625 33 
Q 55.609375 28.21875 55.609375 21.1875 
Q 55.609375 10.40625 48.1875 4.484375 
Q 40.765625 -1.421875 27.09375 -1.421875 
Q 22.515625 -1.421875 17.65625 -0.515625 
Q 12.796875 0.390625 7.625 2.203125 
L 7.625 11.71875 
Q 11.71875 9.328125 16.59375 8.109375 
Q 21.484375 6.890625 26.8125 6.890625 
Q 36.078125 6.890625 40.9375 10.546875 
Q 45.796875 14.203125 45.796875 21.1875 
Q 45.796875 27.640625 41.28125 31.265625 
Q 36.765625 34.90625 28.71875 34.90625 
L 20.21875 34.90625 
L 20.21875 43.015625 
L 29.109375 43.015625 
Q 36.375 43.015625 40.234375 45.921875 
Q 44.09375 48.828125 44.09375 54.296875 
Q 44.09375 59.90625 40.109375 62.90625 
Q 36.140625 65.921875 28.71875 65.921875 
Q 24.65625 65.921875 20.015625 65.03125 
Q 15.375 64.15625 9.8125 62.3125 
L 9.8125 71.09375 
Q 15.4375 72.65625 20.34375 73.4375 
Q 25.25 74.21875 29.59375 74.21875 
Q 40.828125 74.21875 47.359375 69.109375 
Q 53.90625 64.015625 53.90625 55.328125 
Q 53.90625 49.265625 50.4375 45.09375 
Q 46.96875 40.921875 40.578125 39.3125 
z
" id="DejaVuSans-51"/>
       </defs>
       <use xlink:href="#DejaVuSans-51"/>
       <use x="63.623047" xlink:href="#DejaVuSans-48"/>
       <use x="127.246094" xlink:href="#DejaVuSans-115"/>
      </g>
     </g>
    </g>
    <g id="xtick_6">
     <g id="line2d_6">
      <g>
       <use style="stroke:#000000;stroke-width:0.8;" x="320.911404" xlink:href="#m549dbc9a6c" y="282.76"/>
      </g>
     </g>
     <g id="text_6">
      <!-- 1m -->
      <g transform="translate(312.859842 297.358438)scale(0.1 -0.1)">
       <defs>
        <path d="M 52 44.1875 
Q 55.375 50.25 60.0625 53.125 
Q 64.75 56 71.09375 56 
Q 79.640625 56 84.28125 50.015625 
Q 88.921875 44.046875 88.921875 33.015625 
L 88.921875 0 
L 79.890625 0 
L 79.890625 32.71875 
Q 79.890625 40.578125 77.09375 44.375 
Q 74.3125 48.1875 68.609375 48.1875 
Q 61.625 48.1875 57.5625 43.546875 
Q 53.515625 38.921875 53.515625 30.90625 
L 53.515625 0 
L 44.484375 0 
L 44.484375 32.71875 
Q 44.484375 40.625 41.703125 44.40625 
Q 38.921875 48.1875 33.109375 48.1875 
Q 26.21875 48.1875 22.15625 43.53125 
Q 18.109375 38.875 18.109375 30.90625 
L 18.109375 0 
L 9.078125 0 
L 9.078125 54.6875 
L 18.109375 54.6875 
L 18.109375 46.1875 
Q 21.1875 51.21875 25.484375 53.609375 
Q 29.78125 56 35.6875 56 
Q 41.65625 56 45.828125 52.96875 
Q 50 49.953125 52 44.1875 
z
" id="DejaVuSans-109"/>
       </defs>
       <use xlink:href="#DejaVuSans-49"/>
       <use x="63.623047" xlink:href="#DejaVuSans-109"/>
      </g>
     </g>
    </g>
    <g id="xtick_7">
     <g id="line2d_7">
      <g>
       <use style="stroke:#000000;stroke-width:0.8;" x="372.228497" xlink:href="#m549dbc9a6c" y="282.76"/>
      </g>
     </g>
     <g id="text_7">
      <!-- 5m -->
      <g transform="translate(364.176934 297.358438)scale(0.1 -0.1)">
       <use xlink:href="#DejaVuSans-53"/>
       <use x="63.623047" xlink:href="#DejaVuSans-109"/>
      </g>
     </g>
    </g>
    <g id="xtick_8">
     <g id="line2d_8">
      <g>
       <use style="stroke:#000000;stroke-width:0.8;" x="394.329566" xlink:href="#m549dbc9a6c" y="282.76"/>
      </g>
     </g>
     <g id="text_8">
      <!-- 10m -->
      <g transform="translate(383.096753 297.358438)scale(0.1 -0.1)">
       <use xlink:href="#DejaVuSans-49"/>
       <use x="63.623047" xlink:href="#DejaVuSans-48"/>
       <use x="127.246094" xlink:href="#DejaVuSans-109"/>
      </g>
     </g>
    </g>
    <g id="xtick_9">
     <g id="line2d_9">
      <g>
       <use style="stroke:#000000;stroke-width:0.8;" x="429.358931" xlink:href="#m549dbc9a6c" y="282.76"/>
      </g>
     </g>
     <g id="text_9">
      <!-- 30m -->
      <g transform="translate(418.126119 297.358438)scale(0.1 -0.1)">
       <use xlink:href="#DejaVuSans-51"/>
       <use x="63.623047" xlink:href="#DejaVuSans-48"/>
       <use x="127.246094" xlink:href="#DejaVuSans-109"/>
      </g>
     </g>
    </g>
    <g id="xtick_10">
     <g id="line2d_10">
      <g>
       <use style="stroke:#000000;stroke-width:0.8;" x="451.46" xlink:href="#m549dbc9a6c" y="282.76"/>
      </g>
     </g>
     <g id="text_10">
      <!-- 1h -->
      <g transform="translate(445.11 297.358438)scale(0.1 -0.1)">
       <defs>
        <path d="M 54.890625 33.015625 
L 54.890625 0 
L 45.90625 0 
L 45.90625 32.71875 
Q 45.90625 40.484375 42.875 44.328125 
Q 39.84375 48.1875 33.796875 48.1875 
Q 26.515625 48.1875 22.3125 43.546875 
Q 18.109375 38.921875 18.109375 30.90625 
L 18.109375 0 
L 9.078125 0 
L 9.078125 75.984375 
L 18.109375 75.984375 
L 18.109375 46.1875 
Q 21.34375 51.125 25.703125 53.5625 
Q 30.078125 56 35.796875 56 
Q 45.21875 56 50.046875 50.171875 
Q 54.890625 44.34375 54.890625 33.015625 
z
" id="DejaVuSans-104"/>
       </defs>
       <use xlink:href="#DejaVuSans-49"/>
       <use x="63.623047" xlink:href="#DejaVuSans-104"/>
      </g>
     </g>
    </g>
    <g id="text_11">
     <!-- wall time per slice -->
     <g transform="translate(238.692949 311.036563)scale(0.1 -0.1)">
      <defs>
       <path d="M 4.203125 54.6875 
L 13.1875 54.6875 
L 24.421875 12.015625 
L 35.59375 54.6875 
L 46.1875 54.6875 
L 57.421875 12.015625 
L 68.609375 54.6875 
L 77.59375 54.6875 
L 63.28125 0 
L 52.6875 0 
L 40.921875 44.828125 
L 29.109375 0 
L 18.5 0 
z
" id="DejaVuSans-119"/>
       <path d="M 34.28125 27.484375 
Q 23.390625 27.484375 19.1875 25 
Q 14.984375 22.515625 14.984375 16.5 
Q 14.984375 11.71875 18.140625 8.90625 
Q 21.296875 6.109375 26.703125 6.109375 
Q 34.1875 6.109375 38.703125 11.40625 
Q 43.21875 16.703125 43.21875 25.484375 
L 43.21875 27.484375 
z
M 52.203125 31.203125 
L 52.203125 0 
L 43.21875 0 
L 43.21875 8.296875 
Q 40.140625 3.328125 35.546875 0.953125 
Q 30.953125 -1.421875 24.3125 -1.421875 
Q 15.921875 -1.421875 10.953125 3.296875 
Q 6 8.015625 6 15.921875 
Q 6 25.140625 12.171875 29.828125 
Q 18.359375 34.515625 30.609375 34.515625 
L 43.21875 34.515625 
L 43.21875 35.40625 
Q 43.21875 41.609375 39.140625 45 
Q 35.0625 48.390625 27.6875 48.390625 
Q 23 48.390625 18.546875 47.265625 
Q 14.109375 46.140625 10.015625 43.890625 
L 10.015625 52.203125 
Q 14.9375 54.109375 19.578125 55.046875 
Q 24.21875 56 28.609375 56 
Q 40.484375 56 46.34375 49.84375 
Q 52.203125 43.703125 52.203125 31.203125 
z
" id="DejaVuSans-97"/>
       <path d="M 9.421875 75.984375 
L 18.40625 75.984375 
L 18.40625 0 
L 9.421875 0 
z
" id="DejaVuSans-108"/>
       <path id="DejaVuSans-32"/>
       <path d="M 18.3125 70.21875 
L 18.3125 54.6875 
L 36.8125 54.6875 
L 36.8125 47.703125 
L 18.3125 47.703125 
L 18.3125 18.015625 
Q 18.3125 11.328125 20.140625 9.421875 
Q 21.96875 7.515625 27.59375 7.515625 
L 36.8125 7.515625 
L 36.8125 0 
L 27.59375 0 
Q 17.1875 0 13.234375 3.875 
Q 9.28125 7.765625 9.28125 18.015625 
L 9.28125 47.703125 
L 2.6875 47.703125 
L 2.6875 54.6875 
L 9.28125 54.6875 
L 9.28125 70.21875 
z
" id="DejaVuSans-116"/>
       <path d="M 9.421875 54.6875 
L 18.40625 54.6875 
L 18.40625 0 
L 9.421875 0 
z
M 9.421875 75.984375 
L 18.40625 75.984375 
L 18.40625 64.59375 
L 9.421875 64.59375 
z
" id="DejaVuSans-105"/>
       <path d="M 56.203125 29.59375 
L 56.203125 25.203125 
L 14.890625 25.203125 
Q 15.484375 15.921875 20.484375 11.0625 
Q 25.484375 6.203125 34.421875 6.203125 
Q 39.59375 6.203125 44.453125 7.46875 
Q 49.3125 8.734375 54.109375 11.28125 
L 54.109375 2.78125 
Q 49.265625 0.734375 44.1875 -0.34375 
Q 39.109375 -1.421875 33.890625 -1.421875 
Q 20.796875 -1.421875 13.15625 6.1875 
Q 5.515625 13.8125 5.515625 26.8125 
Q 5.515625 40.234375 12.765625 48.109375 
Q 20.015625 56 32.328125 56 
Q 43.359375 56 49.78125 48.890625 
Q 56.203125 41.796875 56.203125 29.59375 
z
M 47.21875 32.234375 
Q 47.125 39.59375 43.09375 43.984375 
Q 39.0625 48.390625 32.421875 48.390625 
Q 24.90625 48.390625 20.390625 44.140625 
Q 15.875 39.890625 15.1875 32.171875 
z
" id="DejaVuSans-101"/>
       <path d="M 18.109375 8.203125 
L 18.109375 -20.796875 
L 9.078125 -20.796875 
L 9.078125 54.6875 
L 18.109375 54.6875 
L 18.109375 46.390625 
Q 20.953125 51.265625 25.265625 53.625 
Q 29.59375 56 35.59375 56 
Q 45.5625 56 51.78125 48.09375 
Q 58.015625 40.1875 58.015625 27.296875 
Q 58.015625 14.40625 51.78125 6.484375 
Q 45.5625 -1.421875 35.59375 -1.421875 
Q 29.59375 -1.421875 25.265625 0.953125 
Q 20.953125 3.328125 18.109375 8.203125 
z
M 48.6875 27.296875 
Q 48.6875 37.203125 44.609375 42.84375 
Q 40.53125 48.484375 33.40625 48.484375 
Q 26.265625 48.484375 22.1875 42.84375 
Q 18.109375 37.203125 18.109375 27.296875 
Q 18.109375 17.390625 22.1875 11.75 
Q 26.265625 6.109375 33.40625 6.109375 
Q 40.53125 6.109375 44.609375 11.75 
Q 48.6875 17.390625 48.6875 27.296875 
z
" id="DejaVuSans-112"/>
       <path d="M 41.109375 46.296875 
Q 39.59375 47.171875 37.8125 47.578125 
Q 36.03125 48 33.890625 48 
Q 26.265625 48 22.1875 43.046875 
Q 18.109375 38.09375 18.109375 28.8125 
L 18.109375 0 
L 9.078125 0 
L 9.078125 54.6875 
L 18.109375 54.6875 
L 18.109375 46.1875 
Q 20.953125 51.171875 25.484375 53.578125 
Q 30.03125 56 36.53125 56 
Q 37.453125 56 38.578125 55.875 
Q 39.703125 55.765625 41.0625 55.515625 
z
" id="DejaVuSans-114"/>
       <path d="M 48.78125 52.59375 
L 48.78125 44.1875 
Q 44.96875 46.296875 41.140625 47.34375 
Q 37.3125 48.390625 33.40625 48.390625 
Q 24.65625 48.390625 19.8125 42.84375 
Q 14.984375 37.3125 14.984375 27.296875 
Q 14.984375 17.28125 19.8125 11.734375 
Q 24.65625 6.203125 33.40625 6.203125 
Q 37.3125 6.203125 41.140625 7.25 
Q 44.96875 8.296875 48.78125 10.40625 
L 48.78125 2.09375 
Q 45.015625 0.34375 40.984375 -0.53125 
Q 36.96875 -1.421875 32.421875 -1.421875 
Q 20.0625 -1.421875 12.78125 6.34375 
Q 5.515625 14.109375 5.515625 27.296875 
Q 5.515625 40.671875 12.859375 48.328125 
Q 20.21875 56 33.015625 56 
Q 37.15625 56 41.109375 55.140625 
Q 45.0625 54.296875 48.78125 52.59375 
z
" id="DejaVuSans-99"/>
      </defs>
      <use xlink:href="#DejaVuSans-119"/>
      <use x="81.787109" xlink:href="#DejaVuSans-97"/>
      <use x="143.066406" xlink:href="#DejaVuSans-108"/>
      <use x="170.849609" xlink:href="#DejaVuSans-108"/>
      <use x="198.632812" xlink:href="#DejaVuSans-32"/>
      <use x="230.419922" xlink:href="#DejaVuSans-116"/>
      <use x="269.628906" xlink:href="#DejaVuSans-105"/>
      <use x="297.412109" xlink:href="#DejaVuSans-109"/>
      <use x="394.824219" xlink:href="#DejaVuSans-101"/>
      <use x="456.347656" xlink:href="#DejaVuSans-32"/>
      <use x="488.134766" xlink:href="#DejaVuSans-112"/>
      <use x="551.611328" xlink:href="#DejaVuSans-101"/>
      <use x="613.134766" xlink:href="#DejaVuSans-114"/>
      <use x="654.248047" xlink:href="#DejaVuSans-32"/>
      <use x="686.035156" xlink:href="#DejaVuSans-115"/>
      <use x="738.134766" xlink:href="#DejaVuSans-108"/>
      <use x="765.917969" xlink:href="#DejaVuSans-105"/>
      <use x="793.701172" xlink:href="#DejaVuSans-99"/>
      <use x="848.681641" xlink:href="#DejaVuSans-101"/>
     </g>
    </g>
   </g>
   <g id="matplotlib.axis_2">
    <g id="ytick_1">
     <g id="line2d_11">
      <defs>
       <path d="M 0 0 
L -3.5 0 
" id="m99d4d79210" style="stroke:#000000;stroke-width:0.8;"/>
      </defs>
      <g>
       <use style="stroke:#000000;stroke-width:0.8;" x="116.944647" xlink:href="#m99d4d79210" y="282.76"/>
      </g>
     </g>
     <g id="text_12">
      <!-- 0.0 -->
      <g transform="translate(94.041522 286.559219)scale(0.1 -0.1)">
       <use xlink:href="#DejaVuSans-48"/>
       <use x="63.623047" xlink:href="#DejaVuSans-46"/>
       <use x="95.410156" xlink:href="#DejaVuSans-48"/>
      </g>
     </g>
    </g>
    <g id="ytick_2">
     <g id="line2d_12">
      <g>
       <use style="stroke:#000000;stroke-width:0.8;" x="116.944647" xlink:href="#m99d4d79210" y="231.392"/>
      </g>
     </g>
     <g id="text_13">
      <!-- 0.2 -->
      <g transform="translate(94.041522 235.191219)scale(0.1 -0.1)">
       <defs>
        <path d="M 19.1875 8.296875 
L 53.609375 8.296875 
L 53.609375 0 
L 7.328125 0 
L 7.328125 8.296875 
Q 12.9375 14.109375 22.625 23.890625 
Q 32.328125 33.6875 34.8125 36.53125 
Q 39.546875 41.84375 41.421875 45.53125 
Q 43.3125 49.21875 43.3125 52.78125 
Q 43.3125 58.59375 39.234375 62.25 
Q 35.15625 65.921875 28.609375 65.921875 
Q 23.96875 65.921875 18.8125 64.3125 
Q 13.671875 62.703125 7.8125 59.421875 
L 7.8125 69.390625 
Q 13.765625 71.78125 18.9375 73 
Q 24.125 74.21875 28.421875 74.21875 
Q 39.75 74.21875 46.484375 68.546875 
Q 53.21875 62.890625 53.21875 53.421875 
Q 53.21875 48.921875 51.53125 44.890625 
Q 49.859375 40.875 45.40625 35.40625 
Q 44.1875 33.984375 37.640625 27.21875 
Q 31.109375 20.453125 19.1875 8.296875 
z
" id="DejaVuSans-50"/>
       </defs>
       <use xlink:href="#DejaVuSans-48"/>
       <use x="63.623047" xlink:href="#DejaVuSans-46"/>
       <use x="95.410156" xlink:href="#DejaVuSans-50"/>
      </g>
     </g>
    </g>
    <g id="ytick_3">
     <g id="line2d_13">
      <g>
       <use style="stroke:#000000;stroke-width:0.8;" x="116.944647" xlink:href="#m99d4d79210" y="180.024"/>
      </g>
     </g>
     <g id="text_14">
      <!-- 0.4 -->
      <g transform="translate(94.041522 183.823219)scale(0.1 -0.1)">
       <defs>
        <path d="M 37.796875 64.3125 
L 12.890625 25.390625 
L 37.796875 25.390625 
z
M 35.203125 72.90625 
L 47.609375 72.90625 
L 47.609375 25.390625 
L 58.015625 25.390625 
L 58.015625 17.1875 
L 47.609375 17.1875 
L 47.609375 0 
L 37.796875 0 
L 37.796875 17.1875 
L 4.890625 17.1875 
L 4.890625 26.703125 
z
" id="DejaVuSans-52"/>
       </defs>
       <use xlink:href="#DejaVuSans-48"/>
       <use x="63.623047" xlink:href="#DejaVuSans-46"/>
       <use x="95.410156" xlink:href="#DejaVuSans-52"/>
      </g>
     </g>
    </g>
    <g id="ytick_4">
     <g id="line2d_14">
      <g>
       <use style="stroke:#000000;stroke-width:0.8;" x="116.944647" xlink:href="#m99d4d79210" y="128.656"/>
      </g>
     </g>
     <g id="text_15">
      <!-- 0.6 -->
      <g transform="translate(94.041522 132.455219)scale(0.1 -0.1)">
       <defs>
        <path d="M 33.015625 40.375 
Q 26.375 40.375 22.484375 35.828125 
Q 18.609375 31.296875 18.609375 23.390625 
Q 18.609375 15.53125 22.484375 10.953125 
Q 26.375 6.390625 33.015625 6.390625 
Q 39.65625 6.390625 43.53125 10.953125 
Q 47.40625 15.53125 47.40625 23.390625 
Q 47.40625 31.296875 43.53125 35.828125 
Q 39.65625 40.375 33.015625 40.375 
z
M 52.59375 71.296875 
L 52.59375 62.3125 
Q 48.875 64.0625 45.09375 64.984375 
Q 41.3125 65.921875 37.59375 65.921875 
Q 27.828125 65.921875 22.671875 59.328125 
Q 17.53125 52.734375 16.796875 39.40625 
Q 19.671875 43.65625 24.015625 45.921875 
Q 28.375 48.1875 33.59375 48.1875 
Q 44.578125 48.1875 50.953125 41.515625 
Q 57.328125 34.859375 57.328125 23.390625 
Q 57.328125 12.15625 50.6875 5.359375 
Q 44.046875 -1.421875 33.015625 -1.421875 
Q 20.359375 -1.421875 13.671875 8.265625 
Q 6.984375 17.96875 6.984375 36.375 
Q 6.984375 53.65625 15.1875 63.9375 
Q 23.390625 74.21875 37.203125 74.21875 
Q 40.921875 74.21875 44.703125 73.484375 
Q 48.484375 72.75 52.59375 71.296875 
z
" id="DejaVuSans-54"/>
       </defs>
       <use xlink:href="#DejaVuSans-48"/>
       <use x="63.623047" xlink:href="#DejaVuSans-46"/>
       <use x="95.410156" xlink:href="#DejaVuSans-54"/>
      </g>
     </g>
    </g>
    <g id="ytick_5">
     <g id="line2d_15">
      <g>
       <use style="stroke:#000000;stroke-width:0.8;" x="116.944647" xlink:href="#m99d4d79210" y="77.288"/>
      </g>
     </g>
     <g id="text_16">
      <!-- 0.8 -->
      <g transform="translate(94.041522 81.087219)scale(0.1 -0.1)">
       <defs>
        <path d="M 31.78125 34.625 
Q 24.75 34.625 20.71875 30.859375 
Q 16.703125 27.09375 16.703125 20.515625 
Q 16.703125 13.921875 20.71875 10.15625 
Q 24.75 6.390625 31.78125 6.390625 
Q 38.8125 6.390625 42.859375 10.171875 
Q 46.921875 13.96875 46.921875 20.515625 
Q 46.921875 27.09375 42.890625 30.859375 
Q 38.875 34.625 31.78125 34.625 
z
M 21.921875 38.8125 
Q 15.578125 40.375 12.03125 44.71875 
Q 8.5 49.078125 8.5 55.328125 
Q 8.5 64.0625 14.71875 69.140625 
Q 20.953125 74.21875 31.78125 74.21875 
Q 42.671875 74.21875 48.875 69.140625 
Q 55.078125 64.0625 55.078125 55.328125 
Q 55.078125 49.078125 51.53125 44.71875 
Q 48 40.375 41.703125 38.8125 
Q 48.828125 37.15625 52.796875 32.3125 
Q 56.78125 27.484375 56.78125 20.515625 
Q 56.78125 9.90625 50.3125 4.234375 
Q 43.84375 -1.421875 31.78125 -1.421875 
Q 19.734375 -1.421875 13.25 4.234375 
Q 6.78125 9.90625 6.78125 20.515625 
Q 6.78125 27.484375 10.78125 32.3125 
Q 14.796875 37.15625 21.921875 38.8125 
z
M 18.3125 54.390625 
Q 18.3125 48.734375 21.84375 45.5625 
Q 25.390625 42.390625 31.78125 42.390625 
Q 38.140625 42.390625 41.71875 45.5625 
Q 45.3125 48.734375 45.3125 54.390625 
Q 45.3125 60.0625 41.71875 63.234375 
Q 38.140625 66.40625 31.78125 66.40625 
Q 25.390625 66.40625 21.84375 63.234375 
Q 18.3125 60.0625 18.3125 54.390625 
z
" id="DejaVuSans-56"/>
       </defs>
       <use xlink:href="#DejaVuSans-48"/>
       <use x="63.623047" xlink:href="#DejaVuSans-46"/>
       <use x="95.410156" xlink:href="#DejaVuSans-56"/>
      </g>
     </g>
    </g>
    <g id="ytick_6">
     <g id="line2d_16">
      <g>
       <use style="stroke:#000000;stroke-width:0.8;" x="116.944647" xlink:href="#m99d4d79210" y="25.92"/>
      </g>
     </g>
     <g id="text_17">
      <!-- 1.0 -->
      <g transform="translate(94.041522 29.719219)scale(0.1 -0.1)">
       <use xlink:href="#DejaVuSans-49"/>
       <use x="63.623047" xlink:href="#DejaVuSans-46"/>
       <use x="95.410156" xlink:href="#DejaVuSans-48"/>
      </g>
     </g>
    </g>
    <g id="text_18">
     <!-- MS-SSIM Index -->
     <g transform="translate(87.961835 191.125156)rotate(-90)scale(0.1 -0.1)">
      <defs>
       <path d="M 9.8125 72.90625 
L 24.515625 72.90625 
L 43.109375 23.296875 
L 61.8125 72.90625 
L 76.515625 72.90625 
L 76.515625 0 
L 66.890625 0 
L 66.890625 64.015625 
L 48.09375 14.015625 
L 38.1875 14.015625 
L 19.390625 64.015625 
L 19.390625 0 
L 9.8125 0 
z
" id="DejaVuSans-77"/>
       <path d="M 53.515625 70.515625 
L 53.515625 60.890625 
Q 47.90625 63.578125 42.921875 64.890625 
Q 37.9375 66.21875 33.296875 66.21875 
Q 25.25 66.21875 20.875 63.09375 
Q 16.5 59.96875 16.5 54.203125 
Q 16.5 49.359375 19.40625 46.890625 
Q 22.3125 44.4375 30.421875 42.921875 
L 36.375 41.703125 
Q 47.40625 39.59375 52.65625 34.296875 
Q 57.90625 29 57.90625 20.125 
Q 57.90625 9.515625 50.796875 4.046875 
Q 43.703125 -1.421875 29.984375 -1.421875 
Q 24.8125 -1.421875 18.96875 -0.25 
Q 13.140625 0.921875 6.890625 3.21875 
L 6.890625 13.375 
Q 12.890625 10.015625 18.65625 8.296875 
Q 24.421875 6.59375 29.984375 6.59375 
Q 38.421875 6.59375 43.015625 9.90625 
Q 47.609375 13.234375 47.609375 19.390625 
Q 47.609375 24.75 44.3125 27.78125 
Q 41.015625 30.8125 33.5 32.328125 
L 27.484375 33.5 
Q 16.453125 35.6875 11.515625 40.375 
Q 6.59375 45.0625 6.59375 53.421875 
Q 6.59375 63.09375 13.40625 68.65625 
Q 20.21875 74.21875 32.171875 74.21875 
Q 37.3125 74.21875 42.625 73.28125 
Q 47.953125 72.359375 53.515625 70.515625 
z
" id="DejaVuSans-83"/>
       <path d="M 4.890625 31.390625 
L 31.203125 31.390625 
L 31.203125 23.390625 
L 4.890625 23.390625 
z
" id="DejaVuSans-45"/>
       <path d="M 9.8125 72.90625 
L 19.671875 72.90625 
L 19.671875 0 
L 9.8125 0 
z
" id="DejaVuSans-73"/>
       <path d="M 54.890625 33.015625 
L 54.890625 0 
L 45.90625 0 
L 45.90625 32.71875 
Q 45.90625 40.484375 42.875 44.328125 
Q 39.84375 48.1875 33.796875 48.1875 
Q 26.515625 48.1875 22.3125 43.546875 
Q 18.109375 38.921875 18.109375 30.90625 
L 18.109375 0 
L 9.078125 0 
L 9.078125 54.6875 
L 18.109375 54.6875 
L 18.109375 46.1875 
Q 21.34375 51.125 25.703125 53.5625 
Q 30.078125 56 35.796875 56 
Q 45.21875 56 50.046875 50.171875 
Q 54.890625 44.34375 54.890625 33.015625 
z
" id="DejaVuSans-110"/>
       <path d="M 45.40625 46.390625 
L 45.40625 75.984375 
L 54.390625 75.984375 
L 54.390625 0 
L 45.40625 0 
L 45.40625 8.203125 
Q 42.578125 3.328125 38.25 0.953125 
Q 33.9375 -1.421875 27.875 -1.421875 
Q 17.96875 -1.421875 11.734375 6.484375 
Q 5.515625 14.40625 5.515625 27.296875 
Q 5.515625 40.1875 11.734375 48.09375 
Q 17.96875 56 27.875 56 
Q 33.9375 56 38.25 53.625 
Q 42.578125 51.265625 45.40625 46.390625 
z
M 14.796875 27.296875 
Q 14.796875 17.390625 18.875 11.75 
Q 22.953125 6.109375 30.078125 6.109375 
Q 37.203125 6.109375 41.296875 11.75 
Q 45.40625 17.390625 45.40625 27.296875 
Q 45.40625 37.203125 41.296875 42.84375 
Q 37.203125 48.484375 30.078125 48.484375 
Q 22.953125 48.484375 18.875 42.84375 
Q 14.796875 37.203125 14.796875 27.296875 
z
" id="DejaVuSans-100"/>
       <path d="M 54.890625 54.6875 
L 35.109375 28.078125 
L 55.90625 0 
L 45.3125 0 
L 29.390625 21.484375 
L 13.484375 0 
L 2.875 0 
L 24.125 28.609375 
L 4.6875 54.6875 
L 15.28125 54.6875 
L 29.78125 35.203125 
L 44.28125 54.6875 
z
" id="DejaVuSans-120"/>
      </defs>
      <use xlink:href="#DejaVuSans-77"/>
      <use x="86.279297" xlink:href="#DejaVuSans-83"/>
      <use x="149.755859" xlink:href="#DejaVuSans-45"/>
      <use x="185.839844" xlink:href="#DejaVuSans-83"/>
      <use x="249.316406" xlink:href="#DejaVuSans-83"/>
      <use x="312.792969" xlink:href="#DejaVuSans-73"/>
      <use x="342.285156" xlink:href="#DejaVuSans-77"/>
      <use x="428.564453" xlink:href="#DejaVuSans-32"/>
      <use x="460.351562" xlink:href="#DejaVuSans-73"/>
      <use x="489.84375" xlink:href="#DejaVuSans-110"/>
      <use x="553.222656" xlink:href="#DejaVuSans-100"/>
      <use x="616.699219" xlink:href="#DejaVuSans-101"/>
      <use x="676.472656" xlink:href="#DejaVuSans-120"/>
     </g>
    </g>
   </g>
   <g id="LineCollection_1">
    <path clip-path="url(#p50684dee4a)" d="M 58.664195 282.175823 
L 58.664195 282.175823 
" style="fill:none;stroke:#0d0887;stroke-width:1.5;"/>
    <path clip-path="url(#p50684dee4a)" d="M 39.46712 269.784505 
L 39.46712 269.784505 
" style="fill:none;stroke:#0d0887;stroke-width:1.5;"/>
    <path clip-path="url(#p50684dee4a)" d="M 39.319609 279.272883 
L 39.319609 279.272883 
" style="fill:none;stroke:#0d0887;stroke-width:1.5;"/>
    <path clip-path="url(#p50684dee4a)" d="M 37.403845 278.830793 
L 37.403845 278.830793 
" style="fill:none;stroke:#0d0887;stroke-width:1.5;"/>
    <path clip-path="url(#p50684dee4a)" d="M 37.485037 145.518103 
L 37.485037 145.518103 
" style="fill:none;stroke:#0d0887;stroke-width:1.5;"/>
    <path clip-path="url(#p50684dee4a)" d="M 37.65676 282.393145 
L 37.65676 282.393145 
" style="fill:none;stroke:#0d0887;stroke-width:1.5;"/>
    <path clip-path="url(#p50684dee4a)" d="M 38.408205 281.411141 
L 38.408205 281.411141 
" style="fill:none;stroke:#0d0887;stroke-width:1.5;"/>
   </g>
   <g id="LineCollection_2">
    <path clip-path="url(#p50684dee4a)" d="M 150.320307 282.463991 
L 150.320307 282.463991 
" style="fill:none;stroke:#cc4778;stroke-width:1.5;"/>
    <path clip-path="url(#p50684dee4a)" d="M 166.887359 282.463924 
L 166.887359 282.463924 
" style="fill:none;stroke:#cc4778;stroke-width:1.5;"/>
    <path clip-path="url(#p50684dee4a)" d="M 146.777027 282.463781 
L 146.777027 282.463781 
" style="fill:none;stroke:#cc4778;stroke-width:1.5;"/>
    <path clip-path="url(#p50684dee4a)" d="M 164.029256 281.130249 
L 164.029256 281.130249 
" style="fill:none;stroke:#cc4778;stroke-width:1.5;"/>
    <path clip-path="url(#p50684dee4a)" d="M 180.279479 281.128767 
L 180.279479 281.128767 
" style="fill:none;stroke:#cc4778;stroke-width:1.5;"/>
    <path clip-path="url(#p50684dee4a)" d="M 179.793071 281.127955 
L 179.793071 281.127955 
" style="fill:none;stroke:#cc4778;stroke-width:1.5;"/>
    <path clip-path="url(#p50684dee4a)" d="M 180.039679 278.68573 
L 180.039679 278.68573 
" style="fill:none;stroke:#cc4778;stroke-width:1.5;"/>
    <path clip-path="url(#p50684dee4a)" d="M 185.465892 278.680077 
L 185.465892 278.680077 
" style="fill:none;stroke:#cc4778;stroke-width:1.5;"/>
    <path clip-path="url(#p50684dee4a)" d="M 189.621862 278.6776 
L 189.621862 278.6776 
" style="fill:none;stroke:#cc4778;stroke-width:1.5;"/>
    <path clip-path="url(#p50684dee4a)" d="M 186.347545 275.218778 
L 186.347545 275.218778 
" style="fill:none;stroke:#cc4778;stroke-width:1.5;"/>
    <path clip-path="url(#p50684dee4a)" d="M 193.207892 275.208235 
L 193.207892 275.208235 
" style="fill:none;stroke:#cc4778;stroke-width:1.5;"/>
    <path clip-path="url(#p50684dee4a)" d="M 201.998823 275.202818 
L 201.998823 275.202818 
" style="fill:none;stroke:#cc4778;stroke-width:1.5;"/>
    <path clip-path="url(#p50684dee4a)" d="M 200.856558 265.823634 
L 200.856558 265.823634 
" style="fill:none;stroke:#cc4778;stroke-width:1.5;"/>
    <path clip-path="url(#p50684dee4a)" d="M 198.42209 265.804281 
L 198.42209 265.804281 
" style="fill:none;stroke:#cc4778;stroke-width:1.5;"/>
    <path clip-path="url(#p50684dee4a)" d="M 210.64449 265.787484 
L 210.64449 265.787484 
" style="fill:none;stroke:#cc4778;stroke-width:1.5;"/>
    <path clip-path="url(#p50684dee4a)" d="M 206.000117 254.151443 
L 206.000117 254.151443 
" style="fill:none;stroke:#cc4778;stroke-width:1.5;"/>
    <path clip-path="url(#p50684dee4a)" d="M 207.31578 254.135323 
L 207.31578 254.135323 
" style="fill:none;stroke:#cc4778;stroke-width:1.5;"/>
    <path clip-path="url(#p50684dee4a)" d="M 222.661141 254.095281 
L 222.661141 254.095281 
" style="fill:none;stroke:#cc4778;stroke-width:1.5;"/>
    <path clip-path="url(#p50684dee4a)" d="M 210.876629 241.371594 
L 210.876629 241.371594 
" style="fill:none;stroke:#cc4778;stroke-width:1.5;"/>
    <path clip-path="url(#p50684dee4a)" d="M 214.533011 241.358991 
L 214.533011 241.358991 
" style="fill:none;stroke:#cc4778;stroke-width:1.5;"/>
    <path clip-path="url(#p50684dee4a)" d="M 227.443137 241.291135 
L 227.443137 241.291135 
" style="fill:none;stroke:#cc4778;stroke-width:1.5;"/>
    <path clip-path="url(#p50684dee4a)" d="M 219.487098 222.033297 
L 219.487098 222.033297 
" style="fill:none;stroke:#cc4778;stroke-width:1.5;"/>
    <path clip-path="url(#p50684dee4a)" d="M 219.242428 221.911083 
L 219.242428 221.911083 
" style="fill:none;stroke:#cc4778;stroke-width:1.5;"/>
    <path clip-path="url(#p50684dee4a)" d="M 237.994335 221.851944 
L 237.994335 221.851944 
" style="fill:none;stroke:#cc4778;stroke-width:1.5;"/>
    <path clip-path="url(#p50684dee4a)" d="M 223.493512 198.368426 
L 223.493512 198.368426 
" style="fill:none;stroke:#cc4778;stroke-width:1.5;"/>
    <path clip-path="url(#p50684dee4a)" d="M 243.502742 197.96379 
L 243.502742 197.96379 
" style="fill:none;stroke:#cc4778;stroke-width:1.5;"/>
    <path clip-path="url(#p50684dee4a)" d="M 229.465669 197.940949 
L 229.465669 197.940949 
" style="fill:none;stroke:#cc4778;stroke-width:1.5;"/>
    <path clip-path="url(#p50684dee4a)" d="M 232.636449 174.064636 
L 232.636449 174.064636 
" style="fill:none;stroke:#cc4778;stroke-width:1.5;"/>
    <path clip-path="url(#p50684dee4a)" d="M 253.941006 173.233694 
L 253.941006 173.233694 
" style="fill:none;stroke:#cc4778;stroke-width:1.5;"/>
    <path clip-path="url(#p50684dee4a)" d="M 233.868687 172.993819 
L 233.868687 172.993819 
" style="fill:none;stroke:#cc4778;stroke-width:1.5;"/>
    <path clip-path="url(#p50684dee4a)" d="M 236.882834 149.759345 
L 236.882834 149.759345 
" style="fill:none;stroke:#cc4778;stroke-width:1.5;"/>
    <path clip-path="url(#p50684dee4a)" d="M 259.556848 148.088689 
L 259.556848 148.088689 
" style="fill:none;stroke:#cc4778;stroke-width:1.5;"/>
    <path clip-path="url(#p50684dee4a)" d="M 244.82581 147.355931 
L 244.82581 147.355931 
" style="fill:none;stroke:#cc4778;stroke-width:1.5;"/>
    <path clip-path="url(#p50684dee4a)" d="M 247.130428 131.436695 
L 247.130428 131.436695 
" style="fill:none;stroke:#cc4778;stroke-width:1.5;"/>
    <path clip-path="url(#p50684dee4a)" d="M 270.61344 128.398055 
L 270.61344 128.398055 
" style="fill:none;stroke:#cc4778;stroke-width:1.5;"/>
    <path clip-path="url(#p50684dee4a)" d="M 249.476394 126.785129 
L 249.476394 126.785129 
" style="fill:none;stroke:#cc4778;stroke-width:1.5;"/>
    <path clip-path="url(#p50684dee4a)" d="M 251.195501 122.012455 
L 251.195501 122.012455 
" style="fill:none;stroke:#cc4778;stroke-width:1.5;"/>
    <path clip-path="url(#p50684dee4a)" d="M 275.803505 117.048956 
L 275.803505 117.048956 
" style="fill:none;stroke:#cc4778;stroke-width:1.5;"/>
    <path clip-path="url(#p50684dee4a)" d="M 259.857461 114.134655 
L 259.857461 114.134655 
" style="fill:none;stroke:#cc4778;stroke-width:1.5;"/>
   </g>
   <g id="line2d_17">
    <defs>
     <path d="M 0 3 
C 0.795609 3 1.55874 2.683901 2.12132 2.12132 
C 2.683901 1.55874 3 0.795609 3 0 
C 3 -0.795609 2.683901 -1.55874 2.12132 -2.12132 
C 1.55874 -2.683901 0.795609 -3 0 -3 
C -0.795609 -3 -1.55874 -2.683901 -2.12132 -2.12132 
C -2.683901 -1.55874 -3 -0.795609 -3 0 
C -3 0.795609 -2.683901 1.55874 -2.12132 2.12132 
C -1.55874 2.683901 -0.795609 3 0 3 
z
" id="m36c670d8b3" style="stroke:#0d0887;"/>
    </defs>
    <g clip-path="url(#p50684dee4a)">
     <use style="fill:#0d0887;stroke:#0d0887;" x="58.664195" xlink:href="#m36c670d8b3" y="282.175823"/>
     <use style="fill:#0d0887;stroke:#0d0887;" x="39.46712" xlink:href="#m36c670d8b3" y="269.784505"/>
     <use style="fill:#0d0887;stroke:#0d0887;" x="39.319609" xlink:href="#m36c670d8b3" y="279.272883"/>
     <use style="fill:#0d0887;stroke:#0d0887;" x="37.403845" xlink:href="#m36c670d8b3" y="278.830793"/>
     <use style="fill:#0d0887;stroke:#0d0887;" x="37.485037" xlink:href="#m36c670d8b3" y="145.518103"/>
     <use style="fill:#0d0887;stroke:#0d0887;" x="37.65676" xlink:href="#m36c670d8b3" y="282.393145"/>
     <use style="fill:#0d0887;stroke:#0d0887;" x="38.408205" xlink:href="#m36c670d8b3" y="281.411141"/>
    </g>
   </g>
   <g id="line2d_18">
    <path clip-path="url(#p50684dee4a)" d="M 150.320307 282.463991 
L 166.887359 282.463924 
L 146.777027 282.463781 
L 164.029256 281.130249 
L 180.279479 281.128767 
L 179.793071 281.127955 
L 180.039679 278.68573 
L 185.465892 278.680077 
L 189.621862 278.6776 
L 186.347545 275.218778 
L 193.207892 275.208235 
L 201.998823 275.202818 
L 200.856558 265.823634 
L 198.42209 265.804281 
L 210.64449 265.787484 
L 206.000117 254.151443 
L 207.31578 254.135323 
L 222.661141 254.095281 
L 210.876629 241.371594 
L 214.533011 241.358991 
L 227.443137 241.291135 
L 219.487098 222.033297 
L 219.242428 221.911083 
L 237.994335 221.851944 
L 223.493512 198.368426 
L 243.502742 197.96379 
L 229.465669 197.940949 
L 232.636449 174.064636 
L 253.941006 173.233694 
L 233.868687 172.993819 
L 236.882834 149.759345 
L 259.556848 148.088689 
L 244.82581 147.355931 
L 247.130428 131.436695 
L 270.61344 128.398055 
L 249.476394 126.785129 
L 251.195501 122.012455 
L 275.803505 117.048956 
L 259.857461 114.134655 
" style="fill:none;stroke:#cc4778;stroke-linecap:square;stroke-width:1.5;"/>
    <defs>
     <path d="M -3 -0 
L 3 3 
L 3 -3 
z
" id="m534cceccc8" style="stroke:#cc4778;stroke-linejoin:miter;"/>
    </defs>
    <g clip-path="url(#p50684dee4a)">
     <use style="fill-opacity:0;stroke:#cc4778;stroke-linejoin:miter;" x="150.320307" xlink:href="#m534cceccc8" y="282.463991"/>
     <use style="fill-opacity:0;stroke:#cc4778;stroke-linejoin:miter;" x="166.887359" xlink:href="#m534cceccc8" y="282.463924"/>
     <use style="fill-opacity:0;stroke:#cc4778;stroke-linejoin:miter;" x="146.777027" xlink:href="#m534cceccc8" y="282.463781"/>
     <use style="fill-opacity:0;stroke:#cc4778;stroke-linejoin:miter;" x="164.029256" xlink:href="#m534cceccc8" y="281.130249"/>
     <use style="fill-opacity:0;stroke:#cc4778;stroke-linejoin:miter;" x="180.279479" xlink:href="#m534cceccc8" y="281.128767"/>
     <use style="fill-opacity:0;stroke:#cc4778;stroke-linejoin:miter;" x="179.793071" xlink:href="#m534cceccc8" y="281.127955"/>
     <use style="fill-opacity:0;stroke:#cc4778;stroke-linejoin:miter;" x="180.039679" xlink:href="#m534cceccc8" y="278.68573"/>
     <use style="fill-opacity:0;stroke:#cc4778;stroke-linejoin:miter;" x="185.465892" xlink:href="#m534cceccc8" y="278.680077"/>
     <use style="fill-opacity:0;stroke:#cc4778;stroke-linejoin:miter;" x="189.621862" xlink:href="#m534cceccc8" y="278.6776"/>
     <use style="fill-opacity:0;stroke:#cc4778;stroke-linejoin:miter;" x="186.347545" xlink:href="#m534cceccc8" y="275.218778"/>
     <use style="fill-opacity:0;stroke:#cc4778;stroke-linejoin:miter;" x="193.207892" xlink:href="#m534cceccc8" y="275.208235"/>
     <use style="fill-opacity:0;stroke:#cc4778;stroke-linejoin:miter;" x="201.998823" xlink:href="#m534cceccc8" y="275.202818"/>
     <use style="fill-opacity:0;stroke:#cc4778;stroke-linejoin:miter;" x="200.856558" xlink:href="#m534cceccc8" y="265.823634"/>
     <use style="fill-opacity:0;stroke:#cc4778;stroke-linejoin:miter;" x="198.42209" xlink:href="#m534cceccc8" y="265.804281"/>
     <use style="fill-opacity:0;stroke:#cc4778;stroke-linejoin:miter;" x="210.64449" xlink:href="#m534cceccc8" y="265.787484"/>
     <use style="fill-opacity:0;stroke:#cc4778;stroke-linejoin:miter;" x="206.000117" xlink:href="#m534cceccc8" y="254.151443"/>
     <use style="fill-opacity:0;stroke:#cc4778;stroke-linejoin:miter;" x="207.31578" xlink:href="#m534cceccc8" y="254.135323"/>
     <use style="fill-opacity:0;stroke:#cc4778;stroke-linejoin:miter;" x="222.661141" xlink:href="#m534cceccc8" y="254.095281"/>
     <use style="fill-opacity:0;stroke:#cc4778;stroke-linejoin:miter;" x="210.876629" xlink:href="#m534cceccc8" y="241.371594"/>
     <use style="fill-opacity:0;stroke:#cc4778;stroke-linejoin:miter;" x="214.533011" xlink:href="#m534cceccc8" y="241.358991"/>
     <use style="fill-opacity:0;stroke:#cc4778;stroke-linejoin:miter;" x="227.443137" xlink:href="#m534cceccc8" y="241.291135"/>
     <use style="fill-opacity:0;stroke:#cc4778;stroke-linejoin:miter;" x="219.487098" xlink:href="#m534cceccc8" y="222.033297"/>
     <use style="fill-opacity:0;stroke:#cc4778;stroke-linejoin:miter;" x="219.242428" xlink:href="#m534cceccc8" y="221.911083"/>
     <use style="fill-opacity:0;stroke:#cc4778;stroke-linejoin:miter;" x="237.994335" xlink:href="#m534cceccc8" y="221.851944"/>
     <use style="fill-opacity:0;stroke:#cc4778;stroke-linejoin:miter;" x="223.493512" xlink:href="#m534cceccc8" y="198.368426"/>
     <use style="fill-opacity:0;stroke:#cc4778;stroke-linejoin:miter;" x="243.502742" xlink:href="#m534cceccc8" y="197.96379"/>
     <use style="fill-opacity:0;stroke:#cc4778;stroke-linejoin:miter;" x="229.465669" xlink:href="#m534cceccc8" y="197.940949"/>
     <use style="fill-opacity:0;stroke:#cc4778;stroke-linejoin:miter;" x="232.636449" xlink:href="#m534cceccc8" y="174.064636"/>
     <use style="fill-opacity:0;stroke:#cc4778;stroke-linejoin:miter;" x="253.941006" xlink:href="#m534cceccc8" y="173.233694"/>
     <use style="fill-opacity:0;stroke:#cc4778;stroke-linejoin:miter;" x="233.868687" xlink:href="#m534cceccc8" y="172.993819"/>
     <use style="fill-opacity:0;stroke:#cc4778;stroke-linejoin:miter;" x="236.882834" xlink:href="#m534cceccc8" y="149.759345"/>
     <use style="fill-opacity:0;stroke:#cc4778;stroke-linejoin:miter;" x="259.556848" xlink:href="#m534cceccc8" y="148.088689"/>
     <use style="fill-opacity:0;stroke:#cc4778;stroke-linejoin:miter;" x="244.82581" xlink:href="#m534cceccc8" y="147.355931"/>
     <use style="fill-opacity:0;stroke:#cc4778;stroke-linejoin:miter;" x="247.130428" xlink:href="#m534cceccc8" y="131.436695"/>
     <use style="fill-opacity:0;stroke:#cc4778;stroke-linejoin:miter;" x="270.61344" xlink:href="#m534cceccc8" y="128.398055"/>
     <use style="fill-opacity:0;stroke:#cc4778;stroke-linejoin:miter;" x="249.476394" xlink:href="#m534cceccc8" y="126.785129"/>
     <use style="fill-opacity:0;stroke:#cc4778;stroke-linejoin:miter;" x="251.195501" xlink:href="#m534cceccc8" y="122.012455"/>
     <use style="fill-opacity:0;stroke:#cc4778;stroke-linejoin:miter;" x="275.803505" xlink:href="#m534cceccc8" y="117.048956"/>
     <use style="fill-opacity:0;stroke:#cc4778;stroke-linejoin:miter;" x="259.857461" xlink:href="#m534cceccc8" y="114.134655"/>
    </g>
   </g>
   <g id="patch_3">
    <path d="M 116.944647 282.76 
L 116.944647 25.92 
" style="fill:none;stroke:#000000;stroke-linecap:square;stroke-linejoin:miter;stroke-width:0.8;"/>
   </g>
   <g id="patch_4">
    <path d="M 451.46 282.76 
L 451.46 25.92 
" style="fill:none;stroke:#000000;stroke-linecap:square;stroke-linejoin:miter;stroke-width:0.8;"/>
   </g>
   <g id="patch_5">
    <path d="M 116.944647 282.76 
L 451.46 282.76 
" style="fill:none;stroke:#000000;stroke-linecap:square;stroke-linejoin:miter;stroke-width:0.8;"/>
   </g>
   <g id="patch_6">
    <path d="M 116.944647 25.92 
L 451.46 25.92 
" style="fill:none;stroke:#000000;stroke-linecap:square;stroke-linejoin:miter;stroke-width:0.8;"/>
   </g>
   <g id="text_19">
    <!-- /home/azure/work/1/s/tomopy.github.io/2021-04-16/peppers -->
    <g transform="translate(103.197324 19.92)scale(0.12 -0.12)">
     <defs>
      <path d="M 25.390625 72.90625 
L 33.6875 72.90625 
L 8.296875 -9.28125 
L 0 -9.28125 
z
" id="DejaVuSans-47"/>
      <path d="M 30.609375 48.390625 
Q 23.390625 48.390625 19.1875 42.75 
Q 14.984375 37.109375 14.984375 27.296875 
Q 14.984375 17.484375 19.15625 11.84375 
Q 23.34375 6.203125 30.609375 6.203125 
Q 37.796875 6.203125 41.984375 11.859375 
Q 46.1875 17.53125 46.1875 27.296875 
Q 46.1875 37.015625 41.984375 42.703125 
Q 37.796875 48.390625 30.609375 48.390625 
z
M 30.609375 56 
Q 42.328125 56 49.015625 48.375 
Q 55.71875 40.765625 55.71875 27.296875 
Q 55.71875 13.875 49.015625 6.21875 
Q 42.328125 -1.421875 30.609375 -1.421875 
Q 18.84375 -1.421875 12.171875 6.21875 
Q 5.515625 13.875 5.515625 27.296875 
Q 5.515625 40.765625 12.171875 48.375 
Q 18.84375 56 30.609375 56 
z
" id="DejaVuSans-111"/>
      <path d="M 5.515625 54.6875 
L 48.1875 54.6875 
L 48.1875 46.484375 
L 14.40625 7.171875 
L 48.1875 7.171875 
L 48.1875 0 
L 4.296875 0 
L 4.296875 8.203125 
L 38.09375 47.515625 
L 5.515625 47.515625 
z
" id="DejaVuSans-122"/>
      <path d="M 8.5 21.578125 
L 8.5 54.6875 
L 17.484375 54.6875 
L 17.484375 21.921875 
Q 17.484375 14.15625 20.5 10.265625 
Q 23.53125 6.390625 29.59375 6.390625 
Q 36.859375 6.390625 41.078125 11.03125 
Q 45.3125 15.671875 45.3125 23.6875 
L 45.3125 54.6875 
L 54.296875 54.6875 
L 54.296875 0 
L 45.3125 0 
L 45.3125 8.40625 
Q 42.046875 3.421875 37.71875 1 
Q 33.40625 -1.421875 27.6875 -1.421875 
Q 18.265625 -1.421875 13.375 4.4375 
Q 8.5 10.296875 8.5 21.578125 
z
M 31.109375 56 
z
" id="DejaVuSans-117"/>
      <path d="M 9.078125 75.984375 
L 18.109375 75.984375 
L 18.109375 31.109375 
L 44.921875 54.6875 
L 56.390625 54.6875 
L 27.390625 29.109375 
L 57.625 0 
L 45.90625 0 
L 18.109375 26.703125 
L 18.109375 0 
L 9.078125 0 
z
" id="DejaVuSans-107"/>
      <path d="M 32.171875 -5.078125 
Q 28.375 -14.84375 24.75 -17.8125 
Q 21.140625 -20.796875 15.09375 -20.796875 
L 7.90625 -20.796875 
L 7.90625 -13.28125 
L 13.1875 -13.28125 
Q 16.890625 -13.28125 18.9375 -11.515625 
Q 21 -9.765625 23.484375 -3.21875 
L 25.09375 0.875 
L 2.984375 54.6875 
L 12.5 54.6875 
L 29.59375 11.921875 
L 46.6875 54.6875 
L 56.203125 54.6875 
z
" id="DejaVuSans-121"/>
      <path d="M 45.40625 27.984375 
Q 45.40625 37.75 41.375 43.109375 
Q 37.359375 48.484375 30.078125 48.484375 
Q 22.859375 48.484375 18.828125 43.109375 
Q 14.796875 37.75 14.796875 27.984375 
Q 14.796875 18.265625 18.828125 12.890625 
Q 22.859375 7.515625 30.078125 7.515625 
Q 37.359375 7.515625 41.375 12.890625 
Q 45.40625 18.265625 45.40625 27.984375 
z
M 54.390625 6.78125 
Q 54.390625 -7.171875 48.1875 -13.984375 
Q 42 -20.796875 29.203125 -20.796875 
Q 24.46875 -20.796875 20.265625 -20.09375 
Q 16.0625 -19.390625 12.109375 -17.921875 
L 12.109375 -9.1875 
Q 16.0625 -11.328125 19.921875 -12.34375 
Q 23.78125 -13.375 27.78125 -13.375 
Q 36.625 -13.375 41.015625 -8.765625 
Q 45.40625 -4.15625 45.40625 5.171875 
L 45.40625 9.625 
Q 42.625 4.78125 38.28125 2.390625 
Q 33.9375 0 27.875 0 
Q 17.828125 0 11.671875 7.65625 
Q 5.515625 15.328125 5.515625 27.984375 
Q 5.515625 40.671875 11.671875 48.328125 
Q 17.828125 56 27.875 56 
Q 33.9375 56 38.28125 53.609375 
Q 42.625 51.21875 45.40625 46.390625 
L 45.40625 54.6875 
L 54.390625 54.6875 
z
" id="DejaVuSans-103"/>
      <path d="M 48.6875 27.296875 
Q 48.6875 37.203125 44.609375 42.84375 
Q 40.53125 48.484375 33.40625 48.484375 
Q 26.265625 48.484375 22.1875 42.84375 
Q 18.109375 37.203125 18.109375 27.296875 
Q 18.109375 17.390625 22.1875 11.75 
Q 26.265625 6.109375 33.40625 6.109375 
Q 40.53125 6.109375 44.609375 11.75 
Q 48.6875 17.390625 48.6875 27.296875 
z
M 18.109375 46.390625 
Q 20.953125 51.265625 25.265625 53.625 
Q 29.59375 56 35.59375 56 
Q 45.5625 56 51.78125 48.09375 
Q 58.015625 40.1875 58.015625 27.296875 
Q 58.015625 14.40625 51.78125 6.484375 
Q 45.5625 -1.421875 35.59375 -1.421875 
Q 29.59375 -1.421875 25.265625 0.953125 
Q 20.953125 3.328125 18.109375 8.203125 
L 18.109375 0 
L 9.078125 0 
L 9.078125 75.984375 
L 18.109375 75.984375 
z
" id="DejaVuSans-98"/>
     </defs>
     <use xlink:href="#DejaVuSans-47"/>
     <use x="33.691406" xlink:href="#DejaVuSans-104"/>
     <use x="97.070312" xlink:href="#DejaVuSans-111"/>
     <use x="158.251953" xlink:href="#DejaVuSans-109"/>
     <use x="255.664062" xlink:href="#DejaVuSans-101"/>
     <use x="317.1875" xlink:href="#DejaVuSans-47"/>
     <use x="350.878906" xlink:href="#DejaVuSans-97"/>
     <use x="412.158203" xlink:href="#DejaVuSans-122"/>
     <use x="464.648438" xlink:href="#DejaVuSans-117"/>
     <use x="528.027344" xlink:href="#DejaVuSans-114"/>
     <use x="566.890625" xlink:href="#DejaVuSans-101"/>
     <use x="628.414062" xlink:href="#DejaVuSans-47"/>
     <use x="662.105469" xlink:href="#DejaVuSans-119"/>
     <use x="743.892578" xlink:href="#DejaVuSans-111"/>
     <use x="805.074219" xlink:href="#DejaVuSans-114"/>
     <use x="846.1875" xlink:href="#DejaVuSans-107"/>
     <use x="904.097656" xlink:href="#DejaVuSans-47"/>
     <use x="937.789062" xlink:href="#DejaVuSans-49"/>
     <use x="1001.412109" xlink:href="#DejaVuSans-47"/>
     <use x="1035.103516" xlink:href="#DejaVuSans-115"/>
     <use x="1087.203125" xlink:href="#DejaVuSans-47"/>
     <use x="1120.894531" xlink:href="#DejaVuSans-116"/>
     <use x="1160.103516" xlink:href="#DejaVuSans-111"/>
     <use x="1221.285156" xlink:href="#DejaVuSans-109"/>
     <use x="1318.697266" xlink:href="#DejaVuSans-111"/>
     <use x="1379.878906" xlink:href="#DejaVuSans-112"/>
     <use x="1443.355469" xlink:href="#DejaVuSans-121"/>
     <use x="1488.285156" xlink:href="#DejaVuSans-46"/>
     <use x="1520.072266" xlink:href="#DejaVuSans-103"/>
     <use x="1583.548828" xlink:href="#DejaVuSans-105"/>
     <use x="1611.332031" xlink:href="#DejaVuSans-116"/>
     <use x="1650.541016" xlink:href="#DejaVuSans-104"/>
     <use x="1713.919922" xlink:href="#DejaVuSans-117"/>
     <use x="1777.298828" xlink:href="#DejaVuSans-98"/>
     <use x="1840.775391" xlink:href="#DejaVuSans-46"/>
     <use x="1872.5625" xlink:href="#DejaVuSans-105"/>
     <use x="1900.345703" xlink:href="#DejaVuSans-111"/>
     <use x="1961.527344" xlink:href="#DejaVuSans-47"/>
     <use x="1995.21875" xlink:href="#DejaVuSans-50"/>
     <use x="2058.841797" xlink:href="#DejaVuSans-48"/>
     <use x="2122.464844" xlink:href="#DejaVuSans-50"/>
     <use x="2186.087891" xlink:href="#DejaVuSans-49"/>
     <use x="2249.710938" xlink:href="#DejaVuSans-45"/>
     <use x="2285.794922" xlink:href="#DejaVuSans-48"/>
     <use x="2349.417969" xlink:href="#DejaVuSans-52"/>
     <use x="2413.041016" xlink:href="#DejaVuSans-45"/>
     <use x="2449.125" xlink:href="#DejaVuSans-49"/>
     <use x="2512.748047" xlink:href="#DejaVuSans-54"/>
     <use x="2576.371094" xlink:href="#DejaVuSans-47"/>
     <use x="2610.0625" xlink:href="#DejaVuSans-112"/>
     <use x="2673.539062" xlink:href="#DejaVuSans-101"/>
     <use x="2735.0625" xlink:href="#DejaVuSans-112"/>
     <use x="2798.539062" xlink:href="#DejaVuSans-112"/>
     <use x="2862.015625" xlink:href="#DejaVuSans-101"/>
     <use x="2923.539062" xlink:href="#DejaVuSans-114"/>
     <use x="2964.652344" xlink:href="#DejaVuSans-115"/>
    </g>
   </g>
   <g id="legend_1">
    <g id="patch_7">
     <path d="M 470.185768 58.554375 
L 557.517018 58.554375 
Q 559.517018 58.554375 559.517018 56.554375 
L 559.517018 27.92 
Q 559.517018 25.92 557.517018 25.92 
L 470.185768 25.92 
Q 468.185768 25.92 468.185768 27.92 
L 468.185768 56.554375 
Q 468.185768 58.554375 470.185768 58.554375 
z
" style="fill:#ffffff;opacity:0.8;stroke:#cccccc;stroke-linejoin:miter;"/>
    </g>
    <g id="LineCollection_3">
     <path d="M 487.185768 39.018437 
L 487.185768 29.018437 
" style="fill:none;stroke:#0d0887;stroke-width:1.5;"/>
    </g>
    <g id="line2d_19"/>
    <g id="line2d_20">
     <g>
      <use style="fill:#0d0887;stroke:#0d0887;" x="487.185768" xlink:href="#m36c670d8b3" y="34.018437"/>
     </g>
    </g>
    <g id="text_20">
     <!-- gridrec -->
     <g transform="translate(510.185768 37.518437)scale(0.1 -0.1)">
      <use xlink:href="#DejaVuSans-103"/>
      <use x="63.476562" xlink:href="#DejaVuSans-114"/>
      <use x="104.589844" xlink:href="#DejaVuSans-105"/>
      <use x="132.373047" xlink:href="#DejaVuSans-100"/>
      <use x="195.849609" xlink:href="#DejaVuSans-114"/>
      <use x="234.712891" xlink:href="#DejaVuSans-101"/>
      <use x="296.236328" xlink:href="#DejaVuSans-99"/>
     </g>
    </g>
    <g id="LineCollection_4">
     <path d="M 487.185768 53.696562 
L 487.185768 43.696562 
" style="fill:none;stroke:#cc4778;stroke-width:1.5;"/>
    </g>
    <g id="line2d_21">
     <path d="M 472.185768 48.696562 
L 502.185768 48.696562 
" style="fill:none;stroke:#cc4778;stroke-linecap:square;stroke-width:1.5;"/>
    </g>
    <g id="line2d_22">
     <g>
      <use style="fill-opacity:0;stroke:#cc4778;stroke-linejoin:miter;" x="487.185768" xlink:href="#m534cceccc8" y="48.696562"/>
     </g>
    </g>
    <g id="text_21">
     <!-- sirt_cuda -->
     <g transform="translate(510.185768 52.196562)scale(0.1 -0.1)">
      <defs>
       <path d="M 50.984375 -16.609375 
L 50.984375 -23.578125 
L -0.984375 -23.578125 
L -0.984375 -16.609375 
z
" id="DejaVuSans-95"/>
      </defs>
      <use xlink:href="#DejaVuSans-115"/>
      <use x="52.099609" xlink:href="#DejaVuSans-105"/>
      <use x="79.882812" xlink:href="#DejaVuSans-114"/>
      <use x="120.996094" xlink:href="#DejaVuSans-116"/>
      <use x="160.205078" xlink:href="#DejaVuSans-95"/>
      <use x="210.205078" xlink:href="#DejaVuSans-99"/>
      <use x="265.185547" xlink:href="#DejaVuSans-117"/>
      <use x="328.564453" xlink:href="#DejaVuSans-100"/>
      <use x="392.041016" xlink:href="#DejaVuSans-97"/>
     </g>
    </g>
   </g>
  </g>
 </g>
 <defs>
  <clipPath id="p50684dee4a">
   <rect height="256.84" width="334.515353" x="116.944647" y="25.92"/>
  </clipPath>
 </defs>
</svg>
