<?xml version="1.0" encoding="utf-8" standalone="no"?>
<!DOCTYPE svg PUBLIC "-//W3C//DTD SVG 1.1//EN"
  "http://www.w3.org/Graphics/SVG/1.1/DTD/svg11.dtd">
<!-- Created with matplotlib (https://matplotlib.org/) -->
<svg height="324pt" version="1.1" viewBox="0 0 576 324" width="576pt" xmlns="http://www.w3.org/2000/svg" xmlns:xlink="http://www.w3.org/1999/xlink">
 <metadata>
  <rdf:RDF xmlns:cc="http://creativecommons.org/ns#" xmlns:dc="http://purl.org/dc/elements/1.1/" xmlns:rdf="http://www.w3.org/1999/02/22-rdf-syntax-ns#">
   <cc:Work>
    <dc:type rdf:resource="http://purl.org/dc/dcmitype/StillImage"/>
    <dc:date>2021-02-16T17:15:34.022803</dc:date>
    <dc:format>image/svg+xml</dc:format>
    <dc:creator>
     <cc:Agent>
      <dc:title>Matplotlib v3.3.2, https://matplotlib.org/</dc:title>
     </cc:Agent>
    </dc:creator>
   </cc:Work>
  </rdf:RDF>
 </metadata>
 <defs>
  <style type="text/css">*{stroke-linecap:butt;stroke-linejoin:round;}</style>
 </defs>
 <g id="figure_1">
  <g id="patch_1">
   <path d="M 0 324 
L 576 324 
L 576 0 
L 0 0 
z
" style="fill:#ffffff;"/>
  </g>
  <g id="axes_1">
   <g id="patch_2">
    <path d="M 145.521859 282.76 
L 429.755 282.76 
L 429.755 25.92 
L 145.521859 25.92 
z
" style="fill:#ffffff;"/>
   </g>
   <g id="matplotlib.axis_1">
    <g id="xtick_1">
     <g id="line2d_1">
      <defs>
       <path d="M 0 0 
L 0 3.5 
" id="mfde9315b85" style="stroke:#000000;stroke-width:0.8;"/>
      </defs>
      <g>
       <use style="stroke:#000000;stroke-width:0.8;" x="145.521859" xlink:href="#mfde9315b85" y="282.76"/>
      </g>
     </g>
     <g id="text_1">
      <!-- 0.1s -->
      <g transform="translate(134.965609 297.358438)scale(0.1 -0.1)">
       <defs>
        <path d="M 31.78125 66.40625 
Q 24.171875 66.40625 20.328125 58.90625 
Q 16.5 51.421875 16.5 36.375 
Q 16.5 21.390625 20.328125 13.890625 
Q 24.171875 6.390625 31.78125 6.390625 
Q 39.453125 6.390625 43.28125 13.890625 
Q 47.125 21.390625 47.125 36.375 
Q 47.125 51.421875 43.28125 58.90625 
Q 39.453125 66.40625 31.78125 66.40625 
z
M 31.78125 74.21875 
Q 44.046875 74.21875 50.515625 64.515625 
Q 56.984375 54.828125 56.984375 36.375 
Q 56.984375 17.96875 50.515625 8.265625 
Q 44.046875 -1.421875 31.78125 -1.421875 
Q 19.53125 -1.421875 13.0625 8.265625 
Q 6.59375 17.96875 6.59375 36.375 
Q 6.59375 54.828125 13.0625 64.515625 
Q 19.53125 74.21875 31.78125 74.21875 
z
" id="DejaVuSans-48"/>
        <path d="M 10.6875 12.40625 
L 21 12.40625 
L 21 0 
L 10.6875 0 
z
" id="DejaVuSans-46"/>
        <path d="M 12.40625 8.296875 
L 28.515625 8.296875 
L 28.515625 63.921875 
L 10.984375 60.40625 
L 10.984375 69.390625 
L 28.421875 72.90625 
L 38.28125 72.90625 
L 38.28125 8.296875 
L 54.390625 8.296875 
L 54.390625 0 
L 12.40625 0 
z
" id="DejaVuSans-49"/>
        <path d="M 44.28125 53.078125 
L 44.28125 44.578125 
Q 40.484375 46.53125 36.375 47.5 
Q 32.28125 48.484375 27.875 48.484375 
Q 21.1875 48.484375 17.84375 46.4375 
Q 14.5 44.390625 14.5 40.28125 
Q 14.5 37.15625 16.890625 35.375 
Q 19.28125 33.59375 26.515625 31.984375 
L 29.59375 31.296875 
Q 39.15625 29.25 43.1875 25.515625 
Q 47.21875 21.78125 47.21875 15.09375 
Q 47.21875 7.46875 41.1875 3.015625 
Q 35.15625 -1.421875 24.609375 -1.421875 
Q 20.21875 -1.421875 15.453125 -0.5625 
Q 10.6875 0.296875 5.421875 2 
L 5.421875 11.28125 
Q 10.40625 8.6875 15.234375 7.390625 
Q 20.0625 6.109375 24.8125 6.109375 
Q 31.15625 6.109375 34.5625 8.28125 
Q 37.984375 10.453125 37.984375 14.40625 
Q 37.984375 18.0625 35.515625 20.015625 
Q 33.0625 21.96875 24.703125 23.78125 
L 21.578125 24.515625 
Q 13.234375 26.265625 9.515625 29.90625 
Q 5.8125 33.546875 5.8125 39.890625 
Q 5.8125 47.609375 11.28125 51.796875 
Q 16.75 56 26.8125 56 
Q 31.78125 56 36.171875 55.265625 
Q 40.578125 54.546875 44.28125 53.078125 
z
" id="DejaVuSans-115"/>
       </defs>
       <use xlink:href="#DejaVuSans-48"/>
       <use x="63.623047" xlink:href="#DejaVuSans-46"/>
       <use x="95.410156" xlink:href="#DejaVuSans-49"/>
       <use x="159.033203" xlink:href="#DejaVuSans-115"/>
      </g>
     </g>
    </g>
    <g id="xtick_2">
     <g id="line2d_2">
      <g>
       <use style="stroke:#000000;stroke-width:0.8;" x="207.904271" xlink:href="#mfde9315b85" y="282.76"/>
      </g>
     </g>
     <g id="text_2">
      <!-- 1s -->
      <g transform="translate(202.118334 297.358438)scale(0.1 -0.1)">
       <use xlink:href="#DejaVuSans-49"/>
       <use x="63.623047" xlink:href="#DejaVuSans-115"/>
      </g>
     </g>
    </g>
    <g id="xtick_3">
     <g id="line2d_3">
      <g>
       <use style="stroke:#000000;stroke-width:0.8;" x="251.507706" xlink:href="#mfde9315b85" y="282.76"/>
      </g>
     </g>
     <g id="text_3">
      <!-- 5s -->
      <g transform="translate(245.721769 297.358438)scale(0.1 -0.1)">
       <defs>
        <path d="M 10.796875 72.90625 
L 49.515625 72.90625 
L 49.515625 64.59375 
L 19.828125 64.59375 
L 19.828125 46.734375 
Q 21.96875 47.46875 24.109375 47.828125 
Q 26.265625 48.1875 28.421875 48.1875 
Q 40.625 48.1875 47.75 41.5 
Q 54.890625 34.8125 54.890625 23.390625 
Q 54.890625 11.625 47.5625 5.09375 
Q 40.234375 -1.421875 26.90625 -1.421875 
Q 22.3125 -1.421875 17.546875 -0.640625 
Q 12.796875 0.140625 7.71875 1.703125 
L 7.71875 11.625 
Q 12.109375 9.234375 16.796875 8.0625 
Q 21.484375 6.890625 26.703125 6.890625 
Q 35.15625 6.890625 40.078125 11.328125 
Q 45.015625 15.765625 45.015625 23.390625 
Q 45.015625 31 40.078125 35.4375 
Q 35.15625 39.890625 26.703125 39.890625 
Q 22.75 39.890625 18.8125 39.015625 
Q 14.890625 38.140625 10.796875 36.28125 
z
" id="DejaVuSans-53"/>
       </defs>
       <use xlink:href="#DejaVuSans-53"/>
       <use x="63.623047" xlink:href="#DejaVuSans-115"/>
      </g>
     </g>
    </g>
    <g id="xtick_4">
     <g id="line2d_4">
      <g>
       <use style="stroke:#000000;stroke-width:0.8;" x="270.286683" xlink:href="#mfde9315b85" y="282.76"/>
      </g>
     </g>
     <g id="text_4">
      <!-- 10s -->
      <g transform="translate(261.319496 297.358438)scale(0.1 -0.1)">
       <use xlink:href="#DejaVuSans-49"/>
       <use x="63.623047" xlink:href="#DejaVuSans-48"/>
       <use x="127.246094" xlink:href="#DejaVuSans-115"/>
      </g>
     </g>
    </g>
    <g id="xtick_5">
     <g id="line2d_5">
      <g>
       <use style="stroke:#000000;stroke-width:0.8;" x="300.050658" xlink:href="#mfde9315b85" y="282.76"/>
      </g>
     </g>
     <g id="text_5">
      <!-- 30s -->
      <g transform="translate(291.083471 297.358438)scale(0.1 -0.1)">
       <defs>
        <path d="M 40.578125 39.3125 
Q 47.65625 37.796875 51.625 33 
Q 55.609375 28.21875 55.609375 21.1875 
Q 55.609375 10.40625 48.1875 4.484375 
Q 40.765625 -1.421875 27.09375 -1.421875 
Q 22.515625 -1.421875 17.65625 -0.515625 
Q 12.796875 0.390625 7.625 2.203125 
L 7.625 11.71875 
Q 11.71875 9.328125 16.59375 8.109375 
Q 21.484375 6.890625 26.8125 6.890625 
Q 36.078125 6.890625 40.9375 10.546875 
Q 45.796875 14.203125 45.796875 21.1875 
Q 45.796875 27.640625 41.28125 31.265625 
Q 36.765625 34.90625 28.71875 34.90625 
L 20.21875 34.90625 
L 20.21875 43.015625 
L 29.109375 43.015625 
Q 36.375 43.015625 40.234375 45.921875 
Q 44.09375 48.828125 44.09375 54.296875 
Q 44.09375 59.90625 40.109375 62.90625 
Q 36.140625 65.921875 28.71875 65.921875 
Q 24.65625 65.921875 20.015625 65.03125 
Q 15.375 64.15625 9.8125 62.3125 
L 9.8125 71.09375 
Q 15.4375 72.65625 20.34375 73.4375 
Q 25.25 74.21875 29.59375 74.21875 
Q 40.828125 74.21875 47.359375 69.109375 
Q 53.90625 64.015625 53.90625 55.328125 
Q 53.90625 49.265625 50.4375 45.09375 
Q 46.96875 40.921875 40.578125 39.3125 
z
" id="DejaVuSans-51"/>
       </defs>
       <use xlink:href="#DejaVuSans-51"/>
       <use x="63.623047" xlink:href="#DejaVuSans-48"/>
       <use x="127.246094" xlink:href="#DejaVuSans-115"/>
      </g>
     </g>
    </g>
    <g id="xtick_6">
     <g id="line2d_6">
      <g>
       <use style="stroke:#000000;stroke-width:0.8;" x="318.829636" xlink:href="#mfde9315b85" y="282.76"/>
      </g>
     </g>
     <g id="text_6">
      <!-- 1m -->
      <g transform="translate(310.778073 297.358438)scale(0.1 -0.1)">
       <defs>
        <path d="M 52 44.1875 
Q 55.375 50.25 60.0625 53.125 
Q 64.75 56 71.09375 56 
Q 79.640625 56 84.28125 50.015625 
Q 88.921875 44.046875 88.921875 33.015625 
L 88.921875 0 
L 79.890625 0 
L 79.890625 32.71875 
Q 79.890625 40.578125 77.09375 44.375 
Q 74.3125 48.1875 68.609375 48.1875 
Q 61.625 48.1875 57.5625 43.546875 
Q 53.515625 38.921875 53.515625 30.90625 
L 53.515625 0 
L 44.484375 0 
L 44.484375 32.71875 
Q 44.484375 40.625 41.703125 44.40625 
Q 38.921875 48.1875 33.109375 48.1875 
Q 26.21875 48.1875 22.15625 43.53125 
Q 18.109375 38.875 18.109375 30.90625 
L 18.109375 0 
L 9.078125 0 
L 9.078125 54.6875 
L 18.109375 54.6875 
L 18.109375 46.1875 
Q 21.1875 51.21875 25.484375 53.609375 
Q 29.78125 56 35.6875 56 
Q 41.65625 56 45.828125 52.96875 
Q 50 49.953125 52 44.1875 
z
" id="DejaVuSans-109"/>
       </defs>
       <use xlink:href="#DejaVuSans-49"/>
       <use x="63.623047" xlink:href="#DejaVuSans-109"/>
      </g>
     </g>
    </g>
    <g id="xtick_7">
     <g id="line2d_7">
      <g>
       <use style="stroke:#000000;stroke-width:0.8;" x="362.433071" xlink:href="#mfde9315b85" y="282.76"/>
      </g>
     </g>
     <g id="text_7">
      <!-- 5m -->
      <g transform="translate(354.381508 297.358438)scale(0.1 -0.1)">
       <use xlink:href="#DejaVuSans-53"/>
       <use x="63.623047" xlink:href="#DejaVuSans-109"/>
      </g>
     </g>
    </g>
    <g id="xtick_8">
     <g id="line2d_8">
      <g>
       <use style="stroke:#000000;stroke-width:0.8;" x="381.212048" xlink:href="#mfde9315b85" y="282.76"/>
      </g>
     </g>
     <g id="text_8">
      <!-- 10m -->
      <g transform="translate(369.979235 297.358438)scale(0.1 -0.1)">
       <use xlink:href="#DejaVuSans-49"/>
       <use x="63.623047" xlink:href="#DejaVuSans-48"/>
       <use x="127.246094" xlink:href="#DejaVuSans-109"/>
      </g>
     </g>
    </g>
    <g id="xtick_9">
     <g id="line2d_9">
      <g>
       <use style="stroke:#000000;stroke-width:0.8;" x="410.976023" xlink:href="#mfde9315b85" y="282.76"/>
      </g>
     </g>
     <g id="text_9">
      <!-- 30m -->
      <g transform="translate(399.74321 297.358438)scale(0.1 -0.1)">
       <use xlink:href="#DejaVuSans-51"/>
       <use x="63.623047" xlink:href="#DejaVuSans-48"/>
       <use x="127.246094" xlink:href="#DejaVuSans-109"/>
      </g>
     </g>
    </g>
    <g id="xtick_10">
     <g id="line2d_10">
      <g>
       <use style="stroke:#000000;stroke-width:0.8;" x="429.755" xlink:href="#mfde9315b85" y="282.76"/>
      </g>
     </g>
     <g id="text_10">
      <!-- 1h -->
      <g transform="translate(423.405 297.358438)scale(0.1 -0.1)">
       <defs>
        <path d="M 54.890625 33.015625 
L 54.890625 0 
L 45.90625 0 
L 45.90625 32.71875 
Q 45.90625 40.484375 42.875 44.328125 
Q 39.84375 48.1875 33.796875 48.1875 
Q 26.515625 48.1875 22.3125 43.546875 
Q 18.109375 38.921875 18.109375 30.90625 
L 18.109375 0 
L 9.078125 0 
L 9.078125 75.984375 
L 18.109375 75.984375 
L 18.109375 46.1875 
Q 21.34375 51.125 25.703125 53.5625 
Q 30.078125 56 35.796875 56 
Q 45.21875 56 50.046875 50.171875 
Q 54.890625 44.34375 54.890625 33.015625 
z
" id="DejaVuSans-104"/>
       </defs>
       <use xlink:href="#DejaVuSans-49"/>
       <use x="63.623047" xlink:href="#DejaVuSans-104"/>
      </g>
     </g>
    </g>
    <g id="text_11">
     <!-- wall time per slice -->
     <g transform="translate(242.129054 311.036563)scale(0.1 -0.1)">
      <defs>
       <path d="M 4.203125 54.6875 
L 13.1875 54.6875 
L 24.421875 12.015625 
L 35.59375 54.6875 
L 46.1875 54.6875 
L 57.421875 12.015625 
L 68.609375 54.6875 
L 77.59375 54.6875 
L 63.28125 0 
L 52.6875 0 
L 40.921875 44.828125 
L 29.109375 0 
L 18.5 0 
z
" id="DejaVuSans-119"/>
       <path d="M 34.28125 27.484375 
Q 23.390625 27.484375 19.1875 25 
Q 14.984375 22.515625 14.984375 16.5 
Q 14.984375 11.71875 18.140625 8.90625 
Q 21.296875 6.109375 26.703125 6.109375 
Q 34.1875 6.109375 38.703125 11.40625 
Q 43.21875 16.703125 43.21875 25.484375 
L 43.21875 27.484375 
z
M 52.203125 31.203125 
L 52.203125 0 
L 43.21875 0 
L 43.21875 8.296875 
Q 40.140625 3.328125 35.546875 0.953125 
Q 30.953125 -1.421875 24.3125 -1.421875 
Q 15.921875 -1.421875 10.953125 3.296875 
Q 6 8.015625 6 15.921875 
Q 6 25.140625 12.171875 29.828125 
Q 18.359375 34.515625 30.609375 34.515625 
L 43.21875 34.515625 
L 43.21875 35.40625 
Q 43.21875 41.609375 39.140625 45 
Q 35.0625 48.390625 27.6875 48.390625 
Q 23 48.390625 18.546875 47.265625 
Q 14.109375 46.140625 10.015625 43.890625 
L 10.015625 52.203125 
Q 14.9375 54.109375 19.578125 55.046875 
Q 24.21875 56 28.609375 56 
Q 40.484375 56 46.34375 49.84375 
Q 52.203125 43.703125 52.203125 31.203125 
z
" id="DejaVuSans-97"/>
       <path d="M 9.421875 75.984375 
L 18.40625 75.984375 
L 18.40625 0 
L 9.421875 0 
z
" id="DejaVuSans-108"/>
       <path id="DejaVuSans-32"/>
       <path d="M 18.3125 70.21875 
L 18.3125 54.6875 
L 36.8125 54.6875 
L 36.8125 47.703125 
L 18.3125 47.703125 
L 18.3125 18.015625 
Q 18.3125 11.328125 20.140625 9.421875 
Q 21.96875 7.515625 27.59375 7.515625 
L 36.8125 7.515625 
L 36.8125 0 
L 27.59375 0 
Q 17.1875 0 13.234375 3.875 
Q 9.28125 7.765625 9.28125 18.015625 
L 9.28125 47.703125 
L 2.6875 47.703125 
L 2.6875 54.6875 
L 9.28125 54.6875 
L 9.28125 70.21875 
z
" id="DejaVuSans-116"/>
       <path d="M 9.421875 54.6875 
L 18.40625 54.6875 
L 18.40625 0 
L 9.421875 0 
z
M 9.421875 75.984375 
L 18.40625 75.984375 
L 18.40625 64.59375 
L 9.421875 64.59375 
z
" id="DejaVuSans-105"/>
       <path d="M 56.203125 29.59375 
L 56.203125 25.203125 
L 14.890625 25.203125 
Q 15.484375 15.921875 20.484375 11.0625 
Q 25.484375 6.203125 34.421875 6.203125 
Q 39.59375 6.203125 44.453125 7.46875 
Q 49.3125 8.734375 54.109375 11.28125 
L 54.109375 2.78125 
Q 49.265625 0.734375 44.1875 -0.34375 
Q 39.109375 -1.421875 33.890625 -1.421875 
Q 20.796875 -1.421875 13.15625 6.1875 
Q 5.515625 13.8125 5.515625 26.8125 
Q 5.515625 40.234375 12.765625 48.109375 
Q 20.015625 56 32.328125 56 
Q 43.359375 56 49.78125 48.890625 
Q 56.203125 41.796875 56.203125 29.59375 
z
M 47.21875 32.234375 
Q 47.125 39.59375 43.09375 43.984375 
Q 39.0625 48.390625 32.421875 48.390625 
Q 24.90625 48.390625 20.390625 44.140625 
Q 15.875 39.890625 15.1875 32.171875 
z
" id="DejaVuSans-101"/>
       <path d="M 18.109375 8.203125 
L 18.109375 -20.796875 
L 9.078125 -20.796875 
L 9.078125 54.6875 
L 18.109375 54.6875 
L 18.109375 46.390625 
Q 20.953125 51.265625 25.265625 53.625 
Q 29.59375 56 35.59375 56 
Q 45.5625 56 51.78125 48.09375 
Q 58.015625 40.1875 58.015625 27.296875 
Q 58.015625 14.40625 51.78125 6.484375 
Q 45.5625 -1.421875 35.59375 -1.421875 
Q 29.59375 -1.421875 25.265625 0.953125 
Q 20.953125 3.328125 18.109375 8.203125 
z
M 48.6875 27.296875 
Q 48.6875 37.203125 44.609375 42.84375 
Q 40.53125 48.484375 33.40625 48.484375 
Q 26.265625 48.484375 22.1875 42.84375 
Q 18.109375 37.203125 18.109375 27.296875 
Q 18.109375 17.390625 22.1875 11.75 
Q 26.265625 6.109375 33.40625 6.109375 
Q 40.53125 6.109375 44.609375 11.75 
Q 48.6875 17.390625 48.6875 27.296875 
z
" id="DejaVuSans-112"/>
       <path d="M 41.109375 46.296875 
Q 39.59375 47.171875 37.8125 47.578125 
Q 36.03125 48 33.890625 48 
Q 26.265625 48 22.1875 43.046875 
Q 18.109375 38.09375 18.109375 28.8125 
L 18.109375 0 
L 9.078125 0 
L 9.078125 54.6875 
L 18.109375 54.6875 
L 18.109375 46.1875 
Q 20.953125 51.171875 25.484375 53.578125 
Q 30.03125 56 36.53125 56 
Q 37.453125 56 38.578125 55.875 
Q 39.703125 55.765625 41.0625 55.515625 
z
" id="DejaVuSans-114"/>
       <path d="M 48.78125 52.59375 
L 48.78125 44.1875 
Q 44.96875 46.296875 41.140625 47.34375 
Q 37.3125 48.390625 33.40625 48.390625 
Q 24.65625 48.390625 19.8125 42.84375 
Q 14.984375 37.3125 14.984375 27.296875 
Q 14.984375 17.28125 19.8125 11.734375 
Q 24.65625 6.203125 33.40625 6.203125 
Q 37.3125 6.203125 41.140625 7.25 
Q 44.96875 8.296875 48.78125 10.40625 
L 48.78125 2.09375 
Q 45.015625 0.34375 40.984375 -0.53125 
Q 36.96875 -1.421875 32.421875 -1.421875 
Q 20.0625 -1.421875 12.78125 6.34375 
Q 5.515625 14.109375 5.515625 27.296875 
Q 5.515625 40.671875 12.859375 48.328125 
Q 20.21875 56 33.015625 56 
Q 37.15625 56 41.109375 55.140625 
Q 45.0625 54.296875 48.78125 52.59375 
z
" id="DejaVuSans-99"/>
      </defs>
      <use xlink:href="#DejaVuSans-119"/>
      <use x="81.787109" xlink:href="#DejaVuSans-97"/>
      <use x="143.066406" xlink:href="#DejaVuSans-108"/>
      <use x="170.849609" xlink:href="#DejaVuSans-108"/>
      <use x="198.632812" xlink:href="#DejaVuSans-32"/>
      <use x="230.419922" xlink:href="#DejaVuSans-116"/>
      <use x="269.628906" xlink:href="#DejaVuSans-105"/>
      <use x="297.412109" xlink:href="#DejaVuSans-109"/>
      <use x="394.824219" xlink:href="#DejaVuSans-101"/>
      <use x="456.347656" xlink:href="#DejaVuSans-32"/>
      <use x="488.134766" xlink:href="#DejaVuSans-112"/>
      <use x="551.611328" xlink:href="#DejaVuSans-101"/>
      <use x="613.134766" xlink:href="#DejaVuSans-114"/>
      <use x="654.248047" xlink:href="#DejaVuSans-32"/>
      <use x="686.035156" xlink:href="#DejaVuSans-115"/>
      <use x="738.134766" xlink:href="#DejaVuSans-108"/>
      <use x="765.917969" xlink:href="#DejaVuSans-105"/>
      <use x="793.701172" xlink:href="#DejaVuSans-99"/>
      <use x="848.681641" xlink:href="#DejaVuSans-101"/>
     </g>
    </g>
   </g>
   <g id="matplotlib.axis_2">
    <g id="ytick_1">
     <g id="line2d_11">
      <defs>
       <path d="M 0 0 
L -3.5 0 
" id="mb7959eaea1" style="stroke:#000000;stroke-width:0.8;"/>
      </defs>
      <g>
       <use style="stroke:#000000;stroke-width:0.8;" x="145.521859" xlink:href="#mb7959eaea1" y="282.76"/>
      </g>
     </g>
     <g id="text_12">
      <!-- 0.0 -->
      <g transform="translate(122.618734 286.559219)scale(0.1 -0.1)">
       <use xlink:href="#DejaVuSans-48"/>
       <use x="63.623047" xlink:href="#DejaVuSans-46"/>
       <use x="95.410156" xlink:href="#DejaVuSans-48"/>
      </g>
     </g>
    </g>
    <g id="ytick_2">
     <g id="line2d_12">
      <g>
       <use style="stroke:#000000;stroke-width:0.8;" x="145.521859" xlink:href="#mb7959eaea1" y="231.392"/>
      </g>
     </g>
     <g id="text_13">
      <!-- 0.2 -->
      <g transform="translate(122.618734 235.191219)scale(0.1 -0.1)">
       <defs>
        <path d="M 19.1875 8.296875 
L 53.609375 8.296875 
L 53.609375 0 
L 7.328125 0 
L 7.328125 8.296875 
Q 12.9375 14.109375 22.625 23.890625 
Q 32.328125 33.6875 34.8125 36.53125 
Q 39.546875 41.84375 41.421875 45.53125 
Q 43.3125 49.21875 43.3125 52.78125 
Q 43.3125 58.59375 39.234375 62.25 
Q 35.15625 65.921875 28.609375 65.921875 
Q 23.96875 65.921875 18.8125 64.3125 
Q 13.671875 62.703125 7.8125 59.421875 
L 7.8125 69.390625 
Q 13.765625 71.78125 18.9375 73 
Q 24.125 74.21875 28.421875 74.21875 
Q 39.75 74.21875 46.484375 68.546875 
Q 53.21875 62.890625 53.21875 53.421875 
Q 53.21875 48.921875 51.53125 44.890625 
Q 49.859375 40.875 45.40625 35.40625 
Q 44.1875 33.984375 37.640625 27.21875 
Q 31.109375 20.453125 19.1875 8.296875 
z
" id="DejaVuSans-50"/>
       </defs>
       <use xlink:href="#DejaVuSans-48"/>
       <use x="63.623047" xlink:href="#DejaVuSans-46"/>
       <use x="95.410156" xlink:href="#DejaVuSans-50"/>
      </g>
     </g>
    </g>
    <g id="ytick_3">
     <g id="line2d_13">
      <g>
       <use style="stroke:#000000;stroke-width:0.8;" x="145.521859" xlink:href="#mb7959eaea1" y="180.024"/>
      </g>
     </g>
     <g id="text_14">
      <!-- 0.4 -->
      <g transform="translate(122.618734 183.823219)scale(0.1 -0.1)">
       <defs>
        <path d="M 37.796875 64.3125 
L 12.890625 25.390625 
L 37.796875 25.390625 
z
M 35.203125 72.90625 
L 47.609375 72.90625 
L 47.609375 25.390625 
L 58.015625 25.390625 
L 58.015625 17.1875 
L 47.609375 17.1875 
L 47.609375 0 
L 37.796875 0 
L 37.796875 17.1875 
L 4.890625 17.1875 
L 4.890625 26.703125 
z
" id="DejaVuSans-52"/>
       </defs>
       <use xlink:href="#DejaVuSans-48"/>
       <use x="63.623047" xlink:href="#DejaVuSans-46"/>
       <use x="95.410156" xlink:href="#DejaVuSans-52"/>
      </g>
     </g>
    </g>
    <g id="ytick_4">
     <g id="line2d_14">
      <g>
       <use style="stroke:#000000;stroke-width:0.8;" x="145.521859" xlink:href="#mb7959eaea1" y="128.656"/>
      </g>
     </g>
     <g id="text_15">
      <!-- 0.6 -->
      <g transform="translate(122.618734 132.455219)scale(0.1 -0.1)">
       <defs>
        <path d="M 33.015625 40.375 
Q 26.375 40.375 22.484375 35.828125 
Q 18.609375 31.296875 18.609375 23.390625 
Q 18.609375 15.53125 22.484375 10.953125 
Q 26.375 6.390625 33.015625 6.390625 
Q 39.65625 6.390625 43.53125 10.953125 
Q 47.40625 15.53125 47.40625 23.390625 
Q 47.40625 31.296875 43.53125 35.828125 
Q 39.65625 40.375 33.015625 40.375 
z
M 52.59375 71.296875 
L 52.59375 62.3125 
Q 48.875 64.0625 45.09375 64.984375 
Q 41.3125 65.921875 37.59375 65.921875 
Q 27.828125 65.921875 22.671875 59.328125 
Q 17.53125 52.734375 16.796875 39.40625 
Q 19.671875 43.65625 24.015625 45.921875 
Q 28.375 48.1875 33.59375 48.1875 
Q 44.578125 48.1875 50.953125 41.515625 
Q 57.328125 34.859375 57.328125 23.390625 
Q 57.328125 12.15625 50.6875 5.359375 
Q 44.046875 -1.421875 33.015625 -1.421875 
Q 20.359375 -1.421875 13.671875 8.265625 
Q 6.984375 17.96875 6.984375 36.375 
Q 6.984375 53.65625 15.1875 63.9375 
Q 23.390625 74.21875 37.203125 74.21875 
Q 40.921875 74.21875 44.703125 73.484375 
Q 48.484375 72.75 52.59375 71.296875 
z
" id="DejaVuSans-54"/>
       </defs>
       <use xlink:href="#DejaVuSans-48"/>
       <use x="63.623047" xlink:href="#DejaVuSans-46"/>
       <use x="95.410156" xlink:href="#DejaVuSans-54"/>
      </g>
     </g>
    </g>
    <g id="ytick_5">
     <g id="line2d_15">
      <g>
       <use style="stroke:#000000;stroke-width:0.8;" x="145.521859" xlink:href="#mb7959eaea1" y="77.288"/>
      </g>
     </g>
     <g id="text_16">
      <!-- 0.8 -->
      <g transform="translate(122.618734 81.087219)scale(0.1 -0.1)">
       <defs>
        <path d="M 31.78125 34.625 
Q 24.75 34.625 20.71875 30.859375 
Q 16.703125 27.09375 16.703125 20.515625 
Q 16.703125 13.921875 20.71875 10.15625 
Q 24.75 6.390625 31.78125 6.390625 
Q 38.8125 6.390625 42.859375 10.171875 
Q 46.921875 13.96875 46.921875 20.515625 
Q 46.921875 27.09375 42.890625 30.859375 
Q 38.875 34.625 31.78125 34.625 
z
M 21.921875 38.8125 
Q 15.578125 40.375 12.03125 44.71875 
Q 8.5 49.078125 8.5 55.328125 
Q 8.5 64.0625 14.71875 69.140625 
Q 20.953125 74.21875 31.78125 74.21875 
Q 42.671875 74.21875 48.875 69.140625 
Q 55.078125 64.0625 55.078125 55.328125 
Q 55.078125 49.078125 51.53125 44.71875 
Q 48 40.375 41.703125 38.8125 
Q 48.828125 37.15625 52.796875 32.3125 
Q 56.78125 27.484375 56.78125 20.515625 
Q 56.78125 9.90625 50.3125 4.234375 
Q 43.84375 -1.421875 31.78125 -1.421875 
Q 19.734375 -1.421875 13.25 4.234375 
Q 6.78125 9.90625 6.78125 20.515625 
Q 6.78125 27.484375 10.78125 32.3125 
Q 14.796875 37.15625 21.921875 38.8125 
z
M 18.3125 54.390625 
Q 18.3125 48.734375 21.84375 45.5625 
Q 25.390625 42.390625 31.78125 42.390625 
Q 38.140625 42.390625 41.71875 45.5625 
Q 45.3125 48.734375 45.3125 54.390625 
Q 45.3125 60.0625 41.71875 63.234375 
Q 38.140625 66.40625 31.78125 66.40625 
Q 25.390625 66.40625 21.84375 63.234375 
Q 18.3125 60.0625 18.3125 54.390625 
z
" id="DejaVuSans-56"/>
       </defs>
       <use xlink:href="#DejaVuSans-48"/>
       <use x="63.623047" xlink:href="#DejaVuSans-46"/>
       <use x="95.410156" xlink:href="#DejaVuSans-56"/>
      </g>
     </g>
    </g>
    <g id="ytick_6">
     <g id="line2d_16">
      <g>
       <use style="stroke:#000000;stroke-width:0.8;" x="145.521859" xlink:href="#mb7959eaea1" y="25.92"/>
      </g>
     </g>
     <g id="text_17">
      <!-- 1.0 -->
      <g transform="translate(122.618734 29.719219)scale(0.1 -0.1)">
       <use xlink:href="#DejaVuSans-49"/>
       <use x="63.623047" xlink:href="#DejaVuSans-46"/>
       <use x="95.410156" xlink:href="#DejaVuSans-48"/>
      </g>
     </g>
    </g>
    <g id="text_18">
     <!-- MS-SSIM Index -->
     <g transform="translate(116.539046 191.125156)rotate(-90)scale(0.1 -0.1)">
      <defs>
       <path d="M 9.8125 72.90625 
L 24.515625 72.90625 
L 43.109375 23.296875 
L 61.8125 72.90625 
L 76.515625 72.90625 
L 76.515625 0 
L 66.890625 0 
L 66.890625 64.015625 
L 48.09375 14.015625 
L 38.1875 14.015625 
L 19.390625 64.015625 
L 19.390625 0 
L 9.8125 0 
z
" id="DejaVuSans-77"/>
       <path d="M 53.515625 70.515625 
L 53.515625 60.890625 
Q 47.90625 63.578125 42.921875 64.890625 
Q 37.9375 66.21875 33.296875 66.21875 
Q 25.25 66.21875 20.875 63.09375 
Q 16.5 59.96875 16.5 54.203125 
Q 16.5 49.359375 19.40625 46.890625 
Q 22.3125 44.4375 30.421875 42.921875 
L 36.375 41.703125 
Q 47.40625 39.59375 52.65625 34.296875 
Q 57.90625 29 57.90625 20.125 
Q 57.90625 9.515625 50.796875 4.046875 
Q 43.703125 -1.421875 29.984375 -1.421875 
Q 24.8125 -1.421875 18.96875 -0.25 
Q 13.140625 0.921875 6.890625 3.21875 
L 6.890625 13.375 
Q 12.890625 10.015625 18.65625 8.296875 
Q 24.421875 6.59375 29.984375 6.59375 
Q 38.421875 6.59375 43.015625 9.90625 
Q 47.609375 13.234375 47.609375 19.390625 
Q 47.609375 24.75 44.3125 27.78125 
Q 41.015625 30.8125 33.5 32.328125 
L 27.484375 33.5 
Q 16.453125 35.6875 11.515625 40.375 
Q 6.59375 45.0625 6.59375 53.421875 
Q 6.59375 63.09375 13.40625 68.65625 
Q 20.21875 74.21875 32.171875 74.21875 
Q 37.3125 74.21875 42.625 73.28125 
Q 47.953125 72.359375 53.515625 70.515625 
z
" id="DejaVuSans-83"/>
       <path d="M 4.890625 31.390625 
L 31.203125 31.390625 
L 31.203125 23.390625 
L 4.890625 23.390625 
z
" id="DejaVuSans-45"/>
       <path d="M 9.8125 72.90625 
L 19.671875 72.90625 
L 19.671875 0 
L 9.8125 0 
z
" id="DejaVuSans-73"/>
       <path d="M 54.890625 33.015625 
L 54.890625 0 
L 45.90625 0 
L 45.90625 32.71875 
Q 45.90625 40.484375 42.875 44.328125 
Q 39.84375 48.1875 33.796875 48.1875 
Q 26.515625 48.1875 22.3125 43.546875 
Q 18.109375 38.921875 18.109375 30.90625 
L 18.109375 0 
L 9.078125 0 
L 9.078125 54.6875 
L 18.109375 54.6875 
L 18.109375 46.1875 
Q 21.34375 51.125 25.703125 53.5625 
Q 30.078125 56 35.796875 56 
Q 45.21875 56 50.046875 50.171875 
Q 54.890625 44.34375 54.890625 33.015625 
z
" id="DejaVuSans-110"/>
       <path d="M 45.40625 46.390625 
L 45.40625 75.984375 
L 54.390625 75.984375 
L 54.390625 0 
L 45.40625 0 
L 45.40625 8.203125 
Q 42.578125 3.328125 38.25 0.953125 
Q 33.9375 -1.421875 27.875 -1.421875 
Q 17.96875 -1.421875 11.734375 6.484375 
Q 5.515625 14.40625 5.515625 27.296875 
Q 5.515625 40.1875 11.734375 48.09375 
Q 17.96875 56 27.875 56 
Q 33.9375 56 38.25 53.625 
Q 42.578125 51.265625 45.40625 46.390625 
z
M 14.796875 27.296875 
Q 14.796875 17.390625 18.875 11.75 
Q 22.953125 6.109375 30.078125 6.109375 
Q 37.203125 6.109375 41.296875 11.75 
Q 45.40625 17.390625 45.40625 27.296875 
Q 45.40625 37.203125 41.296875 42.84375 
Q 37.203125 48.484375 30.078125 48.484375 
Q 22.953125 48.484375 18.875 42.84375 
Q 14.796875 37.203125 14.796875 27.296875 
z
" id="DejaVuSans-100"/>
       <path d="M 54.890625 54.6875 
L 35.109375 28.078125 
L 55.90625 0 
L 45.3125 0 
L 29.390625 21.484375 
L 13.484375 0 
L 2.875 0 
L 24.125 28.609375 
L 4.6875 54.6875 
L 15.28125 54.6875 
L 29.78125 35.203125 
L 44.28125 54.6875 
z
" id="DejaVuSans-120"/>
      </defs>
      <use xlink:href="#DejaVuSans-77"/>
      <use x="86.279297" xlink:href="#DejaVuSans-83"/>
      <use x="149.755859" xlink:href="#DejaVuSans-45"/>
      <use x="185.839844" xlink:href="#DejaVuSans-83"/>
      <use x="249.316406" xlink:href="#DejaVuSans-83"/>
      <use x="312.792969" xlink:href="#DejaVuSans-73"/>
      <use x="342.285156" xlink:href="#DejaVuSans-77"/>
      <use x="428.564453" xlink:href="#DejaVuSans-32"/>
      <use x="460.351562" xlink:href="#DejaVuSans-73"/>
      <use x="489.84375" xlink:href="#DejaVuSans-110"/>
      <use x="553.222656" xlink:href="#DejaVuSans-100"/>
      <use x="616.699219" xlink:href="#DejaVuSans-101"/>
      <use x="676.472656" xlink:href="#DejaVuSans-120"/>
     </g>
    </g>
   </g>
   <g id="LineCollection_1">
    <path clip-path="url(#pf15367ec27)" d="M 68.204647 281.071231 
L 68.204647 280.970902 
" style="fill:none;stroke:#0d0887;stroke-width:1.5;"/>
    <path clip-path="url(#pf15367ec27)" d="M 62.617987 274.828557 
L 62.617987 274.630992 
" style="fill:none;stroke:#0d0887;stroke-width:1.5;"/>
    <path clip-path="url(#pf15367ec27)" d="M 62.439041 273.393005 
L 62.439041 272.749548 
" style="fill:none;stroke:#0d0887;stroke-width:1.5;"/>
    <path clip-path="url(#pf15367ec27)" d="M 61.127114 272.037617 
L 61.127114 271.292102 
" style="fill:none;stroke:#0d0887;stroke-width:1.5;"/>
    <path clip-path="url(#pf15367ec27)" d="M 59.741354 231.257887 
L 59.741354 230.996048 
" style="fill:none;stroke:#0d0887;stroke-width:1.5;"/>
    <path clip-path="url(#pf15367ec27)" d="M 62.08341 281.407781 
L 62.08341 281.317727 
" style="fill:none;stroke:#0d0887;stroke-width:1.5;"/>
    <path clip-path="url(#pf15367ec27)" d="M 62.383152 280.062884 
L 62.383152 279.930635 
" style="fill:none;stroke:#0d0887;stroke-width:1.5;"/>
   </g>
   <g id="LineCollection_2">
    <path clip-path="url(#pf15367ec27)" d="M 116.595902 282.76 
L 116.595902 282.76 
" style="fill:none;stroke:#41049d;stroke-width:1.5;"/>
   </g>
   <g id="LineCollection_3">
    <path clip-path="url(#pf15367ec27)" d="M 164.909964 272.765802 
L 164.909964 272.759651 
" style="fill:none;stroke:#f0f921;stroke-width:1.5;"/>
    <path clip-path="url(#pf15367ec27)" d="M 183.835379 241.992645 
L 183.835379 241.972629 
" style="fill:none;stroke:#f0f921;stroke-width:1.5;"/>
    <path clip-path="url(#pf15367ec27)" d="M 194.711142 213.009148 
L 194.711142 212.960123 
" style="fill:none;stroke:#f0f921;stroke-width:1.5;"/>
    <path clip-path="url(#pf15367ec27)" d="M 202.570468 191.675127 
L 202.570468 191.598928 
" style="fill:none;stroke:#f0f921;stroke-width:1.5;"/>
    <path clip-path="url(#pf15367ec27)" d="M 208.432516 176.761133 
L 208.432516 176.65385 
" style="fill:none;stroke:#f0f921;stroke-width:1.5;"/>
    <path clip-path="url(#pf15367ec27)" d="M 213.320193 166.31777 
L 213.320193 166.178039 
" style="fill:none;stroke:#f0f921;stroke-width:1.5;"/>
    <path clip-path="url(#pf15367ec27)" d="M 217.459768 158.869737 
L 217.459768 158.705298 
" style="fill:none;stroke:#f0f921;stroke-width:1.5;"/>
    <path clip-path="url(#pf15367ec27)" d="M 221.009116 153.447124 
L 221.009116 153.258446 
" style="fill:none;stroke:#f0f921;stroke-width:1.5;"/>
    <path clip-path="url(#pf15367ec27)" d="M 224.268384 149.409935 
L 224.268384 149.204224 
" style="fill:none;stroke:#f0f921;stroke-width:1.5;"/>
    <path clip-path="url(#pf15367ec27)" d="M 227.085827 146.325916 
L 227.085827 146.112344 
" style="fill:none;stroke:#f0f921;stroke-width:1.5;"/>
   </g>
   <g id="LineCollection_4">
    <path clip-path="url(#pf15367ec27)" d="M 164.953484 272.765802 
L 164.953484 272.759651 
" style="fill:none;stroke:#ea7457;stroke-width:1.5;"/>
    <path clip-path="url(#pf15367ec27)" d="M 183.856292 241.992645 
L 183.856292 241.972629 
" style="fill:none;stroke:#ea7457;stroke-width:1.5;"/>
    <path clip-path="url(#pf15367ec27)" d="M 195.08774 213.009148 
L 195.08774 212.960123 
" style="fill:none;stroke:#ea7457;stroke-width:1.5;"/>
    <path clip-path="url(#pf15367ec27)" d="M 202.815063 191.675127 
L 202.815063 191.598928 
" style="fill:none;stroke:#ea7457;stroke-width:1.5;"/>
    <path clip-path="url(#pf15367ec27)" d="M 208.970263 176.761133 
L 208.970263 176.65385 
" style="fill:none;stroke:#ea7457;stroke-width:1.5;"/>
    <path clip-path="url(#pf15367ec27)" d="M 213.862695 166.31777 
L 213.862695 166.178039 
" style="fill:none;stroke:#ea7457;stroke-width:1.5;"/>
    <path clip-path="url(#pf15367ec27)" d="M 218.032108 158.869737 
L 218.032108 158.705298 
" style="fill:none;stroke:#ea7457;stroke-width:1.5;"/>
    <path clip-path="url(#pf15367ec27)" d="M 221.619217 153.447124 
L 221.619217 153.258446 
" style="fill:none;stroke:#ea7457;stroke-width:1.5;"/>
    <path clip-path="url(#pf15367ec27)" d="M 224.78788 149.409935 
L 224.78788 149.204224 
" style="fill:none;stroke:#ea7457;stroke-width:1.5;"/>
    <path clip-path="url(#pf15367ec27)" d="M 227.665789 146.325916 
L 227.665789 146.112344 
" style="fill:none;stroke:#ea7457;stroke-width:1.5;"/>
   </g>
   <g id="LineCollection_5">
    <path clip-path="url(#pf15367ec27)" d="M 168.448265 282.698415 
L 168.448265 282.69823 
" style="fill:none;stroke:#f2844b;stroke-width:1.5;"/>
    <path clip-path="url(#pf15367ec27)" d="M 187.127348 281.915746 
L 187.127348 281.911531 
" style="fill:none;stroke:#f2844b;stroke-width:1.5;"/>
    <path clip-path="url(#pf15367ec27)" d="M 198.107687 280.01198 
L 198.107687 279.991088 
" style="fill:none;stroke:#f2844b;stroke-width:1.5;"/>
    <path clip-path="url(#pf15367ec27)" d="M 205.908874 277.588613 
L 205.908874 277.55231 
" style="fill:none;stroke:#f2844b;stroke-width:1.5;"/>
    <path clip-path="url(#pf15367ec27)" d="M 211.95144 274.906809 
L 211.95144 274.861742 
" style="fill:none;stroke:#f2844b;stroke-width:1.5;"/>
    <path clip-path="url(#pf15367ec27)" d="M 217.000262 272.052087 
L 217.000262 271.999233 
" style="fill:none;stroke:#f2844b;stroke-width:1.5;"/>
    <path clip-path="url(#pf15367ec27)" d="M 221.099481 269.052614 
L 221.099481 268.986342 
" style="fill:none;stroke:#f2844b;stroke-width:1.5;"/>
    <path clip-path="url(#pf15367ec27)" d="M 224.836311 265.920029 
L 224.836311 265.837085 
" style="fill:none;stroke:#f2844b;stroke-width:1.5;"/>
    <path clip-path="url(#pf15367ec27)" d="M 228.054903 262.672035 
L 228.054903 262.571658 
" style="fill:none;stroke:#f2844b;stroke-width:1.5;"/>
    <path clip-path="url(#pf15367ec27)" d="M 230.899871 259.334248 
L 230.899871 259.215002 
" style="fill:none;stroke:#f2844b;stroke-width:1.5;"/>
   </g>
   <g id="LineCollection_6">
    <path clip-path="url(#pf15367ec27)" d="M 167.341446 282.72312 
L 167.341446 282.723068 
" style="fill:none;stroke:#f89540;stroke-width:1.5;"/>
    <path clip-path="url(#pf15367ec27)" d="M 186.230859 282.547801 
L 186.230859 282.547385 
" style="fill:none;stroke:#f89540;stroke-width:1.5;"/>
    <path clip-path="url(#pf15367ec27)" d="M 196.932392 282.197223 
L 196.932392 282.196236 
" style="fill:none;stroke:#f89540;stroke-width:1.5;"/>
    <path clip-path="url(#pf15367ec27)" d="M 204.80358 281.660267 
L 204.80358 281.658339 
" style="fill:none;stroke:#f89540;stroke-width:1.5;"/>
    <path clip-path="url(#pf15367ec27)" d="M 210.928117 280.930338 
L 210.928117 280.927258 
" style="fill:none;stroke:#f89540;stroke-width:1.5;"/>
    <path clip-path="url(#pf15367ec27)" d="M 215.798256 280.008679 
L 215.798256 280.004092 
" style="fill:none;stroke:#f89540;stroke-width:1.5;"/>
    <path clip-path="url(#pf15367ec27)" d="M 219.892225 278.904506 
L 219.892225 278.898355 
" style="fill:none;stroke:#f89540;stroke-width:1.5;"/>
    <path clip-path="url(#pf15367ec27)" d="M 223.416267 277.631206 
L 223.416267 277.622994 
" style="fill:none;stroke:#f89540;stroke-width:1.5;"/>
    <path clip-path="url(#pf15367ec27)" d="M 226.554886 276.203682 
L 226.554886 276.193791 
" style="fill:none;stroke:#f89540;stroke-width:1.5;"/>
    <path clip-path="url(#pf15367ec27)" d="M 229.44432 274.641807 
L 229.44432 274.629556 
" style="fill:none;stroke:#f89540;stroke-width:1.5;"/>
   </g>
   <g id="LineCollection_7">
    <path clip-path="url(#pf15367ec27)" d="M 166.84688 282.621534 
L 166.84688 282.621058 
" style="fill:none;stroke:#f7e425;stroke-width:1.5;"/>
    <path clip-path="url(#pf15367ec27)" d="M 185.51129 280.781065 
L 185.51129 280.77243 
" style="fill:none;stroke:#f7e425;stroke-width:1.5;"/>
    <path clip-path="url(#pf15367ec27)" d="M 196.579911 276.684752 
L 196.579911 276.660991 
" style="fill:none;stroke:#f7e425;stroke-width:1.5;"/>
    <path clip-path="url(#pf15367ec27)" d="M 204.537271 270.889802 
L 204.537271 270.831984 
" style="fill:none;stroke:#f7e425;stroke-width:1.5;"/>
    <path clip-path="url(#pf15367ec27)" d="M 210.546158 264.160315 
L 210.546158 264.060425 
" style="fill:none;stroke:#f7e425;stroke-width:1.5;"/>
    <path clip-path="url(#pf15367ec27)" d="M 215.513616 257.135685 
L 215.513616 256.995123 
" style="fill:none;stroke:#f7e425;stroke-width:1.5;"/>
    <path clip-path="url(#pf15367ec27)" d="M 219.774816 250.220063 
L 219.774816 250.050722 
" style="fill:none;stroke:#f7e425;stroke-width:1.5;"/>
    <path clip-path="url(#pf15367ec27)" d="M 223.442801 243.684202 
L 223.442801 243.475046 
" style="fill:none;stroke:#f7e425;stroke-width:1.5;"/>
    <path clip-path="url(#pf15367ec27)" d="M 226.630677 237.607528 
L 226.630677 237.358633 
" style="fill:none;stroke:#f7e425;stroke-width:1.5;"/>
    <path clip-path="url(#pf15367ec27)" d="M 229.467519 231.973998 
L 229.467519 231.694518 
" style="fill:none;stroke:#f7e425;stroke-width:1.5;"/>
   </g>
   <g id="LineCollection_8">
    <path clip-path="url(#pf15367ec27)" d="M 165.729403 282.722676 
L 165.729403 282.722628 
" style="fill:none;stroke:#fcce25;stroke-width:1.5;"/>
    <path clip-path="url(#pf15367ec27)" d="M 184.550799 282.544381 
L 184.550799 282.544021 
" style="fill:none;stroke:#fcce25;stroke-width:1.5;"/>
    <path clip-path="url(#pf15367ec27)" d="M 195.613353 282.186107 
L 195.613353 282.185114 
" style="fill:none;stroke:#fcce25;stroke-width:1.5;"/>
    <path clip-path="url(#pf15367ec27)" d="M 203.457913 281.633944 
L 203.457913 281.631995 
" style="fill:none;stroke:#fcce25;stroke-width:1.5;"/>
    <path clip-path="url(#pf15367ec27)" d="M 209.602966 280.877776 
L 209.602966 280.874573 
" style="fill:none;stroke:#fcce25;stroke-width:1.5;"/>
    <path clip-path="url(#pf15367ec27)" d="M 214.523445 279.918757 
L 214.523445 279.913932 
" style="fill:none;stroke:#fcce25;stroke-width:1.5;"/>
    <path clip-path="url(#pf15367ec27)" d="M 218.685094 278.762627 
L 218.685094 278.755946 
" style="fill:none;stroke:#fcce25;stroke-width:1.5;"/>
    <path clip-path="url(#pf15367ec27)" d="M 222.232143 277.42062 
L 222.232143 277.411913 
" style="fill:none;stroke:#fcce25;stroke-width:1.5;"/>
    <path clip-path="url(#pf15367ec27)" d="M 225.375715 275.907539 
L 225.375715 275.896588 
" style="fill:none;stroke:#fcce25;stroke-width:1.5;"/>
    <path clip-path="url(#pf15367ec27)" d="M 228.197711 274.241933 
L 228.197711 274.229067 
" style="fill:none;stroke:#fcce25;stroke-width:1.5;"/>
   </g>
   <g id="LineCollection_9">
    <path clip-path="url(#pf15367ec27)" d="M 164.602751 277.388753 
L 164.602751 277.382002 
" style="fill:none;stroke:#cc4778;stroke-width:1.5;"/>
    <path clip-path="url(#pf15367ec27)" d="M 182.902272 260.511629 
L 182.902272 260.486567 
" style="fill:none;stroke:#cc4778;stroke-width:1.5;"/>
    <path clip-path="url(#pf15367ec27)" d="M 193.877835 239.888296 
L 193.877835 239.838579 
" style="fill:none;stroke:#cc4778;stroke-width:1.5;"/>
    <path clip-path="url(#pf15367ec27)" d="M 201.698603 221.113141 
L 201.698603 221.037661 
" style="fill:none;stroke:#cc4778;stroke-width:1.5;"/>
    <path clip-path="url(#pf15367ec27)" d="M 207.686661 205.787136 
L 207.686661 205.689079 
" style="fill:none;stroke:#cc4778;stroke-width:1.5;"/>
    <path clip-path="url(#pf15367ec27)" d="M 212.58593 193.8085 
L 212.58593 193.682456 
" style="fill:none;stroke:#cc4778;stroke-width:1.5;"/>
    <path clip-path="url(#pf15367ec27)" d="M 216.742616 184.585305 
L 216.742616 184.442099 
" style="fill:none;stroke:#cc4778;stroke-width:1.5;"/>
    <path clip-path="url(#pf15367ec27)" d="M 220.431101 177.543206 
L 220.431101 177.388518 
" style="fill:none;stroke:#cc4778;stroke-width:1.5;"/>
    <path clip-path="url(#pf15367ec27)" d="M 223.589814 172.170801 
L 223.589814 172.007622 
" style="fill:none;stroke:#cc4778;stroke-width:1.5;"/>
    <path clip-path="url(#pf15367ec27)" d="M 226.453239 168.058888 
L 226.453239 167.889861 
" style="fill:none;stroke:#cc4778;stroke-width:1.5;"/>
   </g>
   <g id="LineCollection_10">
    <path clip-path="url(#pf15367ec27)" d="M 164.315734 282.76 
L 164.315734 282.76 
" style="fill:none;stroke:#0d0887;stroke-width:1.5;"/>
    <path clip-path="url(#pf15367ec27)" d="M 183.058937 282.76 
L 183.058937 282.76 
" style="fill:none;stroke:#0d0887;stroke-width:1.5;"/>
    <path clip-path="url(#pf15367ec27)" d="M 194.131788 282.76 
L 194.131788 282.76 
" style="fill:none;stroke:#0d0887;stroke-width:1.5;"/>
    <path clip-path="url(#pf15367ec27)" d="M 202.065144 282.76 
L 202.065144 282.76 
" style="fill:none;stroke:#0d0887;stroke-width:1.5;"/>
    <path clip-path="url(#pf15367ec27)" d="M 208.177445 282.76 
L 208.177445 282.76 
" style="fill:none;stroke:#0d0887;stroke-width:1.5;"/>
    <path clip-path="url(#pf15367ec27)" d="M 213.235495 282.76 
L 213.235495 282.76 
" style="fill:none;stroke:#0d0887;stroke-width:1.5;"/>
    <path clip-path="url(#pf15367ec27)" d="M 217.339407 282.76 
L 217.339407 282.76 
" style="fill:none;stroke:#0d0887;stroke-width:1.5;"/>
    <path clip-path="url(#pf15367ec27)" d="M 221.026469 282.76 
L 221.026469 282.76 
" style="fill:none;stroke:#0d0887;stroke-width:1.5;"/>
    <path clip-path="url(#pf15367ec27)" d="M 224.194402 282.76 
L 224.194402 282.76 
" style="fill:none;stroke:#0d0887;stroke-width:1.5;"/>
    <path clip-path="url(#pf15367ec27)" style="fill:none;stroke:#0d0887;stroke-width:1.5;"/>
   </g>
   <g id="LineCollection_11">
    <path clip-path="url(#pf15367ec27)" d="M 165.432013 281.645327 
L 165.432013 281.644167 
" style="fill:none;stroke:#fca636;stroke-width:1.5;"/>
    <path clip-path="url(#pf15367ec27)" d="M 184.326952 277.618986 
L 184.326952 277.612625 
" style="fill:none;stroke:#fca636;stroke-width:1.5;"/>
    <path clip-path="url(#pf15367ec27)" d="M 195.414575 270.713296 
L 195.414575 270.698993 
" style="fill:none;stroke:#fca636;stroke-width:1.5;"/>
    <path clip-path="url(#pf15367ec27)" d="M 203.270787 261.951857 
L 203.270787 261.926614 
" style="fill:none;stroke:#fca636;stroke-width:1.5;"/>
    <path clip-path="url(#pf15367ec27)" d="M 209.26719 252.250292 
L 209.26719 252.21363 
" style="fill:none;stroke:#fca636;stroke-width:1.5;"/>
    <path clip-path="url(#pf15367ec27)" d="M 214.269188 242.381054 
L 214.269188 242.332526 
" style="fill:none;stroke:#fca636;stroke-width:1.5;"/>
    <path clip-path="url(#pf15367ec27)" d="M 218.447811 232.852223 
L 218.447811 232.792222 
" style="fill:none;stroke:#fca636;stroke-width:1.5;"/>
    <path clip-path="url(#pf15367ec27)" d="M 222.077674 223.949793 
L 222.077674 223.877768 
" style="fill:none;stroke:#fca636;stroke-width:1.5;"/>
    <path clip-path="url(#pf15367ec27)" d="M 225.310551 215.815539 
L 225.310551 215.732689 
" style="fill:none;stroke:#fca636;stroke-width:1.5;"/>
    <path clip-path="url(#pf15367ec27)" d="M 228.266816 208.487929 
L 228.266816 208.39663 
" style="fill:none;stroke:#fca636;stroke-width:1.5;"/>
   </g>
   <g id="LineCollection_12">
    <path clip-path="url(#pf15367ec27)" d="M 166.498267 282.759994 
L 166.498267 282.759994 
" style="fill:none;stroke:#e16462;stroke-width:1.5;"/>
    <path clip-path="url(#pf15367ec27)" d="M 185.193434 282.76 
L 185.193434 282.76 
" style="fill:none;stroke:#e16462;stroke-width:1.5;"/>
    <path clip-path="url(#pf15367ec27)" d="M 195.869993 282.76 
L 195.869993 282.76 
" style="fill:none;stroke:#e16462;stroke-width:1.5;"/>
    <path clip-path="url(#pf15367ec27)" d="M 203.55327 282.76 
L 203.55327 282.76 
" style="fill:none;stroke:#e16462;stroke-width:1.5;"/>
    <path clip-path="url(#pf15367ec27)" d="M 209.488616 282.76 
L 209.488616 282.76 
" style="fill:none;stroke:#e16462;stroke-width:1.5;"/>
    <path clip-path="url(#pf15367ec27)" d="M 214.410444 282.76 
L 214.410444 282.76 
" style="fill:none;stroke:#e16462;stroke-width:1.5;"/>
    <path clip-path="url(#pf15367ec27)" d="M 218.61623 282.76 
L 218.61623 282.76 
" style="fill:none;stroke:#e16462;stroke-width:1.5;"/>
    <path clip-path="url(#pf15367ec27)" d="M 222.320682 282.76 
L 222.320682 282.76 
" style="fill:none;stroke:#e16462;stroke-width:1.5;"/>
    <path clip-path="url(#pf15367ec27)" d="M 225.510707 282.76 
L 225.510707 282.76 
" style="fill:none;stroke:#e16462;stroke-width:1.5;"/>
    <path clip-path="url(#pf15367ec27)" d="M 228.369848 282.76 
L 228.369848 282.76 
" style="fill:none;stroke:#e16462;stroke-width:1.5;"/>
   </g>
   <g id="line2d_17">
    <defs>
     <path d="M 0 3 
C 0.795609 3 1.55874 2.683901 2.12132 2.12132 
C 2.683901 1.55874 3 0.795609 3 0 
C 3 -0.795609 2.683901 -1.55874 2.12132 -2.12132 
C 1.55874 -2.683901 0.795609 -3 0 -3 
C -0.795609 -3 -1.55874 -2.683901 -2.12132 -2.12132 
C -2.683901 -1.55874 -3 -0.795609 -3 0 
C -3 0.795609 -2.683901 1.55874 -2.12132 2.12132 
C -1.55874 2.683901 -0.795609 3 0 3 
z
" id="m843edf4ef4" style="stroke:#0d0887;"/>
    </defs>
    <g clip-path="url(#pf15367ec27)">
     <use style="fill:#0d0887;stroke:#0d0887;" x="68.204647" xlink:href="#m843edf4ef4" y="281.021067"/>
     <use style="fill:#0d0887;stroke:#0d0887;" x="62.617987" xlink:href="#m843edf4ef4" y="274.729774"/>
     <use style="fill:#0d0887;stroke:#0d0887;" x="62.439041" xlink:href="#m843edf4ef4" y="273.071277"/>
     <use style="fill:#0d0887;stroke:#0d0887;" x="61.127114" xlink:href="#m843edf4ef4" y="271.66486"/>
     <use style="fill:#0d0887;stroke:#0d0887;" x="59.741354" xlink:href="#m843edf4ef4" y="231.126968"/>
     <use style="fill:#0d0887;stroke:#0d0887;" x="62.08341" xlink:href="#m843edf4ef4" y="281.362754"/>
     <use style="fill:#0d0887;stroke:#0d0887;" x="62.383152" xlink:href="#m843edf4ef4" y="279.996759"/>
    </g>
   </g>
   <g id="line2d_18">
    <defs>
     <path d="M -1.5 3 
L 0 1.5 
L 1.5 3 
L 3 1.5 
L 1.5 0 
L 3 -1.5 
L 1.5 -3 
L 0 -1.5 
L -1.5 -3 
L -3 -1.5 
L -1.5 0 
L -3 1.5 
z
" id="m3d9e0e560f" style="stroke:#41049d;stroke-linejoin:miter;"/>
    </defs>
    <g clip-path="url(#pf15367ec27)">
     <use style="fill:#41049d;stroke:#41049d;stroke-linejoin:miter;" x="116.595902" xlink:href="#m3d9e0e560f" y="282.76"/>
    </g>
   </g>
   <g id="line2d_19">
    <path clip-path="url(#pf15367ec27)" d="M 164.909964 272.762727 
L 183.835379 241.982637 
L 194.711142 212.984635 
L 202.570468 191.637028 
L 208.432516 176.707492 
L 213.320193 166.247904 
L 217.459768 158.787518 
L 221.009116 153.352785 
L 224.268384 149.307079 
L 227.085827 146.21913 
" style="fill:none;stroke:#f0f921;stroke-linecap:square;stroke-width:1.5;"/>
    <defs>
     <path d="M 0 3 
C 0.795609 3 1.55874 2.683901 2.12132 2.12132 
C 2.683901 1.55874 3 0.795609 3 0 
C 3 -0.795609 2.683901 -1.55874 2.12132 -2.12132 
C 1.55874 -2.683901 0.795609 -3 0 -3 
C -0.795609 -3 -1.55874 -2.683901 -2.12132 -2.12132 
C -2.683901 -1.55874 -3 -0.795609 -3 0 
C -3 0.795609 -2.683901 1.55874 -2.12132 2.12132 
C -1.55874 2.683901 -0.795609 3 0 3 
z
" id="m4c4b3853fc" style="stroke:#f0f921;"/>
    </defs>
    <g clip-path="url(#pf15367ec27)">
     <use style="fill:#f0f921;stroke:#f0f921;" x="164.909964" xlink:href="#m4c4b3853fc" y="272.762727"/>
     <use style="fill:#f0f921;stroke:#f0f921;" x="183.835379" xlink:href="#m4c4b3853fc" y="241.982637"/>
     <use style="fill:#f0f921;stroke:#f0f921;" x="194.711142" xlink:href="#m4c4b3853fc" y="212.984635"/>
     <use style="fill:#f0f921;stroke:#f0f921;" x="202.570468" xlink:href="#m4c4b3853fc" y="191.637028"/>
     <use style="fill:#f0f921;stroke:#f0f921;" x="208.432516" xlink:href="#m4c4b3853fc" y="176.707492"/>
     <use style="fill:#f0f921;stroke:#f0f921;" x="213.320193" xlink:href="#m4c4b3853fc" y="166.247904"/>
     <use style="fill:#f0f921;stroke:#f0f921;" x="217.459768" xlink:href="#m4c4b3853fc" y="158.787518"/>
     <use style="fill:#f0f921;stroke:#f0f921;" x="221.009116" xlink:href="#m4c4b3853fc" y="153.352785"/>
     <use style="fill:#f0f921;stroke:#f0f921;" x="224.268384" xlink:href="#m4c4b3853fc" y="149.307079"/>
     <use style="fill:#f0f921;stroke:#f0f921;" x="227.085827" xlink:href="#m4c4b3853fc" y="146.21913"/>
    </g>
   </g>
   <g id="line2d_20">
    <path clip-path="url(#pf15367ec27)" d="M 164.953484 272.762727 
L 183.856292 241.982637 
L 195.08774 212.984635 
L 202.815063 191.637028 
L 208.970263 176.707492 
L 213.862695 166.247904 
L 218.032108 158.787518 
L 221.619217 153.352785 
L 224.78788 149.307079 
L 227.665789 146.21913 
" style="fill:none;stroke:#ea7457;stroke-linecap:square;stroke-width:1.5;"/>
    <defs>
     <path d="M -3 3 
L 3 3 
L 3 -3 
L -3 -3 
z
" id="me3e294b3d6" style="stroke:#ea7457;stroke-linejoin:miter;"/>
    </defs>
    <g clip-path="url(#pf15367ec27)">
     <use style="fill:#ea7457;stroke:#ea7457;stroke-linejoin:miter;" x="164.953484" xlink:href="#me3e294b3d6" y="272.762727"/>
     <use style="fill:#ea7457;stroke:#ea7457;stroke-linejoin:miter;" x="183.856292" xlink:href="#me3e294b3d6" y="241.982637"/>
     <use style="fill:#ea7457;stroke:#ea7457;stroke-linejoin:miter;" x="195.08774" xlink:href="#me3e294b3d6" y="212.984635"/>
     <use style="fill:#ea7457;stroke:#ea7457;stroke-linejoin:miter;" x="202.815063" xlink:href="#me3e294b3d6" y="191.637028"/>
     <use style="fill:#ea7457;stroke:#ea7457;stroke-linejoin:miter;" x="208.970263" xlink:href="#me3e294b3d6" y="176.707492"/>
     <use style="fill:#ea7457;stroke:#ea7457;stroke-linejoin:miter;" x="213.862695" xlink:href="#me3e294b3d6" y="166.247904"/>
     <use style="fill:#ea7457;stroke:#ea7457;stroke-linejoin:miter;" x="218.032108" xlink:href="#me3e294b3d6" y="158.787518"/>
     <use style="fill:#ea7457;stroke:#ea7457;stroke-linejoin:miter;" x="221.619217" xlink:href="#me3e294b3d6" y="153.352785"/>
     <use style="fill:#ea7457;stroke:#ea7457;stroke-linejoin:miter;" x="224.78788" xlink:href="#me3e294b3d6" y="149.307079"/>
     <use style="fill:#ea7457;stroke:#ea7457;stroke-linejoin:miter;" x="227.665789" xlink:href="#me3e294b3d6" y="146.21913"/>
    </g>
   </g>
   <g id="line2d_21">
    <path clip-path="url(#pf15367ec27)" d="M 168.448265 282.698323 
L 187.127348 281.913639 
L 198.107687 280.001534 
L 205.908874 277.570462 
L 211.95144 274.884276 
L 217.000262 272.02566 
L 221.099481 269.019478 
L 224.836311 265.878557 
L 228.054903 262.621846 
L 230.899871 259.274625 
" style="fill:none;stroke:#f2844b;stroke-dasharray:1.5,2.475;stroke-dashoffset:0;stroke-width:1.5;"/>
    <defs>
     <path d="M -3 3 
L 3 3 
L 3 -3 
L -3 -3 
z
" id="mc866172f8e" style="stroke:#f2844b;stroke-linejoin:miter;"/>
    </defs>
    <g clip-path="url(#pf15367ec27)">
     <use style="fill:#f2844b;stroke:#f2844b;stroke-linejoin:miter;" x="168.448265" xlink:href="#mc866172f8e" y="282.698323"/>
     <use style="fill:#f2844b;stroke:#f2844b;stroke-linejoin:miter;" x="187.127348" xlink:href="#mc866172f8e" y="281.913639"/>
     <use style="fill:#f2844b;stroke:#f2844b;stroke-linejoin:miter;" x="198.107687" xlink:href="#mc866172f8e" y="280.001534"/>
     <use style="fill:#f2844b;stroke:#f2844b;stroke-linejoin:miter;" x="205.908874" xlink:href="#mc866172f8e" y="277.570462"/>
     <use style="fill:#f2844b;stroke:#f2844b;stroke-linejoin:miter;" x="211.95144" xlink:href="#mc866172f8e" y="274.884276"/>
     <use style="fill:#f2844b;stroke:#f2844b;stroke-linejoin:miter;" x="217.000262" xlink:href="#mc866172f8e" y="272.02566"/>
     <use style="fill:#f2844b;stroke:#f2844b;stroke-linejoin:miter;" x="221.099481" xlink:href="#mc866172f8e" y="269.019478"/>
     <use style="fill:#f2844b;stroke:#f2844b;stroke-linejoin:miter;" x="224.836311" xlink:href="#mc866172f8e" y="265.878557"/>
     <use style="fill:#f2844b;stroke:#f2844b;stroke-linejoin:miter;" x="228.054903" xlink:href="#mc866172f8e" y="262.621846"/>
     <use style="fill:#f2844b;stroke:#f2844b;stroke-linejoin:miter;" x="230.899871" xlink:href="#mc866172f8e" y="259.274625"/>
    </g>
   </g>
   <g id="line2d_22">
    <path clip-path="url(#pf15367ec27)" d="M 167.341446 282.723094 
L 186.230859 282.547593 
L 196.932392 282.196729 
L 204.80358 281.659303 
L 210.928117 280.928798 
L 215.798256 280.006385 
L 219.892225 278.901431 
L 223.416267 277.6271 
L 226.554886 276.198737 
L 229.44432 274.635681 
" style="fill:none;stroke:#f89540;stroke-dasharray:5.55,2.4;stroke-dashoffset:0;stroke-width:1.5;"/>
    <defs>
     <path d="M -3 3 
L 3 3 
L 3 -3 
L -3 -3 
z
" id="m6190e2a0ea" style="stroke:#f89540;stroke-linejoin:miter;"/>
    </defs>
    <g clip-path="url(#pf15367ec27)">
     <use style="fill:#f89540;stroke:#f89540;stroke-linejoin:miter;" x="167.341446" xlink:href="#m6190e2a0ea" y="282.723094"/>
     <use style="fill:#f89540;stroke:#f89540;stroke-linejoin:miter;" x="186.230859" xlink:href="#m6190e2a0ea" y="282.547593"/>
     <use style="fill:#f89540;stroke:#f89540;stroke-linejoin:miter;" x="196.932392" xlink:href="#m6190e2a0ea" y="282.196729"/>
     <use style="fill:#f89540;stroke:#f89540;stroke-linejoin:miter;" x="204.80358" xlink:href="#m6190e2a0ea" y="281.659303"/>
     <use style="fill:#f89540;stroke:#f89540;stroke-linejoin:miter;" x="210.928117" xlink:href="#m6190e2a0ea" y="280.928798"/>
     <use style="fill:#f89540;stroke:#f89540;stroke-linejoin:miter;" x="215.798256" xlink:href="#m6190e2a0ea" y="280.006385"/>
     <use style="fill:#f89540;stroke:#f89540;stroke-linejoin:miter;" x="219.892225" xlink:href="#m6190e2a0ea" y="278.901431"/>
     <use style="fill:#f89540;stroke:#f89540;stroke-linejoin:miter;" x="223.416267" xlink:href="#m6190e2a0ea" y="277.6271"/>
     <use style="fill:#f89540;stroke:#f89540;stroke-linejoin:miter;" x="226.554886" xlink:href="#m6190e2a0ea" y="276.198737"/>
     <use style="fill:#f89540;stroke:#f89540;stroke-linejoin:miter;" x="229.44432" xlink:href="#m6190e2a0ea" y="274.635681"/>
    </g>
   </g>
   <g id="line2d_23">
    <path clip-path="url(#pf15367ec27)" d="M 166.84688 282.621296 
L 185.51129 280.776748 
L 196.579911 276.672871 
L 204.537271 270.860893 
L 210.546158 264.11037 
L 215.513616 257.065404 
L 219.774816 250.135393 
L 223.442801 243.579624 
L 226.630677 237.483081 
L 229.467519 231.834258 
" style="fill:none;stroke:#f7e425;stroke-dasharray:1.5,2.475;stroke-dashoffset:0;stroke-width:1.5;"/>
    <defs>
     <path d="M 0 3 
C 0.795609 3 1.55874 2.683901 2.12132 2.12132 
C 2.683901 1.55874 3 0.795609 3 0 
C 3 -0.795609 2.683901 -1.55874 2.12132 -2.12132 
C 1.55874 -2.683901 0.795609 -3 0 -3 
C -0.795609 -3 -1.55874 -2.683901 -2.12132 -2.12132 
C -2.683901 -1.55874 -3 -0.795609 -3 0 
C -3 0.795609 -2.683901 1.55874 -2.12132 2.12132 
C -1.55874 2.683901 -0.795609 3 0 3 
z
" id="m43ba1d76ce" style="stroke:#f7e425;"/>
    </defs>
    <g clip-path="url(#pf15367ec27)">
     <use style="fill:#f7e425;stroke:#f7e425;" x="166.84688" xlink:href="#m43ba1d76ce" y="282.621296"/>
     <use style="fill:#f7e425;stroke:#f7e425;" x="185.51129" xlink:href="#m43ba1d76ce" y="280.776748"/>
     <use style="fill:#f7e425;stroke:#f7e425;" x="196.579911" xlink:href="#m43ba1d76ce" y="276.672871"/>
     <use style="fill:#f7e425;stroke:#f7e425;" x="204.537271" xlink:href="#m43ba1d76ce" y="270.860893"/>
     <use style="fill:#f7e425;stroke:#f7e425;" x="210.546158" xlink:href="#m43ba1d76ce" y="264.11037"/>
     <use style="fill:#f7e425;stroke:#f7e425;" x="215.513616" xlink:href="#m43ba1d76ce" y="257.065404"/>
     <use style="fill:#f7e425;stroke:#f7e425;" x="219.774816" xlink:href="#m43ba1d76ce" y="250.135393"/>
     <use style="fill:#f7e425;stroke:#f7e425;" x="223.442801" xlink:href="#m43ba1d76ce" y="243.579624"/>
     <use style="fill:#f7e425;stroke:#f7e425;" x="226.630677" xlink:href="#m43ba1d76ce" y="237.483081"/>
     <use style="fill:#f7e425;stroke:#f7e425;" x="229.467519" xlink:href="#m43ba1d76ce" y="231.834258"/>
    </g>
   </g>
   <g id="line2d_24">
    <path clip-path="url(#pf15367ec27)" d="M 165.729403 282.722652 
L 184.550799 282.544201 
L 195.613353 282.18561 
L 203.457913 281.63297 
L 209.602966 280.876174 
L 214.523445 279.916344 
L 218.685094 278.759287 
L 222.232143 277.416266 
L 225.375715 275.902064 
L 228.197711 274.2355 
" style="fill:none;stroke:#fcce25;stroke-dasharray:5.55,2.4;stroke-dashoffset:0;stroke-width:1.5;"/>
    <defs>
     <path d="M 0 3 
C 0.795609 3 1.55874 2.683901 2.12132 2.12132 
C 2.683901 1.55874 3 0.795609 3 0 
C 3 -0.795609 2.683901 -1.55874 2.12132 -2.12132 
C 1.55874 -2.683901 0.795609 -3 0 -3 
C -0.795609 -3 -1.55874 -2.683901 -2.12132 -2.12132 
C -2.683901 -1.55874 -3 -0.795609 -3 0 
C -3 0.795609 -2.683901 1.55874 -2.12132 2.12132 
C -1.55874 2.683901 -0.795609 3 0 3 
z
" id="m52b3a469c5" style="stroke:#fcce25;"/>
    </defs>
    <g clip-path="url(#pf15367ec27)">
     <use style="fill:#fcce25;stroke:#fcce25;" x="165.729403" xlink:href="#m52b3a469c5" y="282.722652"/>
     <use style="fill:#fcce25;stroke:#fcce25;" x="184.550799" xlink:href="#m52b3a469c5" y="282.544201"/>
     <use style="fill:#fcce25;stroke:#fcce25;" x="195.613353" xlink:href="#m52b3a469c5" y="282.18561"/>
     <use style="fill:#fcce25;stroke:#fcce25;" x="203.457913" xlink:href="#m52b3a469c5" y="281.63297"/>
     <use style="fill:#fcce25;stroke:#fcce25;" x="209.602966" xlink:href="#m52b3a469c5" y="280.876174"/>
     <use style="fill:#fcce25;stroke:#fcce25;" x="214.523445" xlink:href="#m52b3a469c5" y="279.916344"/>
     <use style="fill:#fcce25;stroke:#fcce25;" x="218.685094" xlink:href="#m52b3a469c5" y="278.759287"/>
     <use style="fill:#fcce25;stroke:#fcce25;" x="222.232143" xlink:href="#m52b3a469c5" y="277.416266"/>
     <use style="fill:#fcce25;stroke:#fcce25;" x="225.375715" xlink:href="#m52b3a469c5" y="275.902064"/>
     <use style="fill:#fcce25;stroke:#fcce25;" x="228.197711" xlink:href="#m52b3a469c5" y="274.2355"/>
    </g>
   </g>
   <g id="line2d_25">
    <path clip-path="url(#pf15367ec27)" d="M 164.602751 277.385377 
L 182.902272 260.499098 
L 193.877835 239.863437 
L 201.698603 221.075401 
L 207.686661 205.738108 
L 212.58593 193.745478 
L 216.742616 184.513702 
L 220.431101 177.465862 
L 223.589814 172.089211 
L 226.453239 167.974374 
" style="fill:none;stroke:#cc4778;stroke-linecap:square;stroke-width:1.5;"/>
    <defs>
     <path d="M -3 -0 
L 3 3 
L 3 -3 
z
" id="mf8361e4ff4" style="stroke:#cc4778;stroke-linejoin:miter;"/>
    </defs>
    <g clip-path="url(#pf15367ec27)">
     <use style="fill:#cc4778;stroke:#cc4778;stroke-linejoin:miter;" x="164.602751" xlink:href="#mf8361e4ff4" y="277.385377"/>
     <use style="fill:#cc4778;stroke:#cc4778;stroke-linejoin:miter;" x="182.902272" xlink:href="#mf8361e4ff4" y="260.499098"/>
     <use style="fill:#cc4778;stroke:#cc4778;stroke-linejoin:miter;" x="193.877835" xlink:href="#mf8361e4ff4" y="239.863437"/>
     <use style="fill:#cc4778;stroke:#cc4778;stroke-linejoin:miter;" x="201.698603" xlink:href="#mf8361e4ff4" y="221.075401"/>
     <use style="fill:#cc4778;stroke:#cc4778;stroke-linejoin:miter;" x="207.686661" xlink:href="#mf8361e4ff4" y="205.738108"/>
     <use style="fill:#cc4778;stroke:#cc4778;stroke-linejoin:miter;" x="212.58593" xlink:href="#mf8361e4ff4" y="193.745478"/>
     <use style="fill:#cc4778;stroke:#cc4778;stroke-linejoin:miter;" x="216.742616" xlink:href="#mf8361e4ff4" y="184.513702"/>
     <use style="fill:#cc4778;stroke:#cc4778;stroke-linejoin:miter;" x="220.431101" xlink:href="#mf8361e4ff4" y="177.465862"/>
     <use style="fill:#cc4778;stroke:#cc4778;stroke-linejoin:miter;" x="223.589814" xlink:href="#mf8361e4ff4" y="172.089211"/>
     <use style="fill:#cc4778;stroke:#cc4778;stroke-linejoin:miter;" x="226.453239" xlink:href="#mf8361e4ff4" y="167.974374"/>
    </g>
   </g>
   <g id="line2d_26">
    <path clip-path="url(#pf15367ec27)" d="M 164.315734 282.76 
L 183.058937 282.76 
L 194.131788 282.76 
L 202.065144 282.76 
L 208.177445 282.76 
L 213.235495 282.76 
L 217.339407 282.76 
L 221.026469 282.76 
L 224.194402 282.76 
" style="fill:none;stroke:#0d0887;stroke-linecap:square;stroke-width:1.5;"/>
   </g>
   <g id="line2d_27">
    <path clip-path="url(#pf15367ec27)" d="M 165.432013 281.644747 
L 184.326952 277.615806 
L 195.414575 270.706144 
L 203.270787 261.939235 
L 209.26719 252.231961 
L 214.269188 242.35679 
L 218.447811 232.822222 
L 222.077674 223.91378 
L 225.310551 215.774114 
L 228.266816 208.442279 
" style="fill:none;stroke:#fca636;stroke-linecap:square;stroke-width:1.5;"/>
    <defs>
     <path d="M -0 4.242641 
L 2.545584 0 
L 0 -4.242641 
L -2.545584 -0 
z
" id="m04b713be1e" style="stroke:#fca636;stroke-linejoin:miter;"/>
    </defs>
    <g clip-path="url(#pf15367ec27)">
     <use style="fill:#fca636;stroke:#fca636;stroke-linejoin:miter;" x="165.432013" xlink:href="#m04b713be1e" y="281.644747"/>
     <use style="fill:#fca636;stroke:#fca636;stroke-linejoin:miter;" x="184.326952" xlink:href="#m04b713be1e" y="277.615806"/>
     <use style="fill:#fca636;stroke:#fca636;stroke-linejoin:miter;" x="195.414575" xlink:href="#m04b713be1e" y="270.706144"/>
     <use style="fill:#fca636;stroke:#fca636;stroke-linejoin:miter;" x="203.270787" xlink:href="#m04b713be1e" y="261.939235"/>
     <use style="fill:#fca636;stroke:#fca636;stroke-linejoin:miter;" x="209.26719" xlink:href="#m04b713be1e" y="252.231961"/>
     <use style="fill:#fca636;stroke:#fca636;stroke-linejoin:miter;" x="214.269188" xlink:href="#m04b713be1e" y="242.35679"/>
     <use style="fill:#fca636;stroke:#fca636;stroke-linejoin:miter;" x="218.447811" xlink:href="#m04b713be1e" y="232.822222"/>
     <use style="fill:#fca636;stroke:#fca636;stroke-linejoin:miter;" x="222.077674" xlink:href="#m04b713be1e" y="223.91378"/>
     <use style="fill:#fca636;stroke:#fca636;stroke-linejoin:miter;" x="225.310551" xlink:href="#m04b713be1e" y="215.774114"/>
     <use style="fill:#fca636;stroke:#fca636;stroke-linejoin:miter;" x="228.266816" xlink:href="#m04b713be1e" y="208.442279"/>
    </g>
   </g>
   <g id="line2d_28">
    <path clip-path="url(#pf15367ec27)" d="M 166.498267 282.759994 
L 185.193434 282.76 
L 195.869993 282.76 
L 203.55327 282.76 
L 209.488616 282.76 
L 214.410444 282.76 
L 218.61623 282.76 
L 222.320682 282.76 
L 225.510707 282.76 
L 228.369848 282.76 
" style="fill:none;stroke:#e16462;stroke-linecap:square;stroke-width:1.5;"/>
    <defs>
     <path d="M -3 3 
L 3 3 
L 3 -3 
L -3 -3 
z
" id="md5ab01e96e" style="stroke:#e16462;stroke-linejoin:miter;"/>
    </defs>
    <g clip-path="url(#pf15367ec27)">
     <use style="fill:#e16462;stroke:#e16462;stroke-linejoin:miter;" x="166.498267" xlink:href="#md5ab01e96e" y="282.759994"/>
     <use style="fill:#e16462;stroke:#e16462;stroke-linejoin:miter;" x="185.193434" xlink:href="#md5ab01e96e" y="282.76"/>
     <use style="fill:#e16462;stroke:#e16462;stroke-linejoin:miter;" x="195.869993" xlink:href="#md5ab01e96e" y="282.76"/>
     <use style="fill:#e16462;stroke:#e16462;stroke-linejoin:miter;" x="203.55327" xlink:href="#md5ab01e96e" y="282.76"/>
     <use style="fill:#e16462;stroke:#e16462;stroke-linejoin:miter;" x="209.488616" xlink:href="#md5ab01e96e" y="282.76"/>
     <use style="fill:#e16462;stroke:#e16462;stroke-linejoin:miter;" x="214.410444" xlink:href="#md5ab01e96e" y="282.76"/>
     <use style="fill:#e16462;stroke:#e16462;stroke-linejoin:miter;" x="218.61623" xlink:href="#md5ab01e96e" y="282.76"/>
     <use style="fill:#e16462;stroke:#e16462;stroke-linejoin:miter;" x="222.320682" xlink:href="#md5ab01e96e" y="282.76"/>
     <use style="fill:#e16462;stroke:#e16462;stroke-linejoin:miter;" x="225.510707" xlink:href="#md5ab01e96e" y="282.76"/>
     <use style="fill:#e16462;stroke:#e16462;stroke-linejoin:miter;" x="228.369848" xlink:href="#md5ab01e96e" y="282.76"/>
    </g>
   </g>
   <g id="patch_3">
    <path d="M 145.521859 282.76 
L 145.521859 25.92 
" style="fill:none;stroke:#000000;stroke-linecap:square;stroke-linejoin:miter;stroke-width:0.8;"/>
   </g>
   <g id="patch_4">
    <path d="M 429.755 282.76 
L 429.755 25.92 
" style="fill:none;stroke:#000000;stroke-linecap:square;stroke-linejoin:miter;stroke-width:0.8;"/>
   </g>
   <g id="patch_5">
    <path d="M 145.521859 282.76 
L 429.755 282.76 
" style="fill:none;stroke:#000000;stroke-linecap:square;stroke-linejoin:miter;stroke-width:0.8;"/>
   </g>
   <g id="patch_6">
    <path d="M 145.521859 25.92 
L 429.755 25.92 
" style="fill:none;stroke:#000000;stroke-linecap:square;stroke-linejoin:miter;stroke-width:0.8;"/>
   </g>
   <g id="text_19">
    <!-- /azp/agent/_work/1/s/tomopy.github.io/2021-02-16/cpu/peppers -->
    <g transform="translate(96.395929 19.92)scale(0.12 -0.12)">
     <defs>
      <path d="M 25.390625 72.90625 
L 33.6875 72.90625 
L 8.296875 -9.28125 
L 0 -9.28125 
z
" id="DejaVuSans-47"/>
      <path d="M 5.515625 54.6875 
L 48.1875 54.6875 
L 48.1875 46.484375 
L 14.40625 7.171875 
L 48.1875 7.171875 
L 48.1875 0 
L 4.296875 0 
L 4.296875 8.203125 
L 38.09375 47.515625 
L 5.515625 47.515625 
z
" id="DejaVuSans-122"/>
      <path d="M 45.40625 27.984375 
Q 45.40625 37.75 41.375 43.109375 
Q 37.359375 48.484375 30.078125 48.484375 
Q 22.859375 48.484375 18.828125 43.109375 
Q 14.796875 37.75 14.796875 27.984375 
Q 14.796875 18.265625 18.828125 12.890625 
Q 22.859375 7.515625 30.078125 7.515625 
Q 37.359375 7.515625 41.375 12.890625 
Q 45.40625 18.265625 45.40625 27.984375 
z
M 54.390625 6.78125 
Q 54.390625 -7.171875 48.1875 -13.984375 
Q 42 -20.796875 29.203125 -20.796875 
Q 24.46875 -20.796875 20.265625 -20.09375 
Q 16.0625 -19.390625 12.109375 -17.921875 
L 12.109375 -9.1875 
Q 16.0625 -11.328125 19.921875 -12.34375 
Q 23.78125 -13.375 27.78125 -13.375 
Q 36.625 -13.375 41.015625 -8.765625 
Q 45.40625 -4.15625 45.40625 5.171875 
L 45.40625 9.625 
Q 42.625 4.78125 38.28125 2.390625 
Q 33.9375 0 27.875 0 
Q 17.828125 0 11.671875 7.65625 
Q 5.515625 15.328125 5.515625 27.984375 
Q 5.515625 40.671875 11.671875 48.328125 
Q 17.828125 56 27.875 56 
Q 33.9375 56 38.28125 53.609375 
Q 42.625 51.21875 45.40625 46.390625 
L 45.40625 54.6875 
L 54.390625 54.6875 
z
" id="DejaVuSans-103"/>
      <path d="M 50.984375 -16.609375 
L 50.984375 -23.578125 
L -0.984375 -23.578125 
L -0.984375 -16.609375 
z
" id="DejaVuSans-95"/>
      <path d="M 30.609375 48.390625 
Q 23.390625 48.390625 19.1875 42.75 
Q 14.984375 37.109375 14.984375 27.296875 
Q 14.984375 17.484375 19.15625 11.84375 
Q 23.34375 6.203125 30.609375 6.203125 
Q 37.796875 6.203125 41.984375 11.859375 
Q 46.1875 17.53125 46.1875 27.296875 
Q 46.1875 37.015625 41.984375 42.703125 
Q 37.796875 48.390625 30.609375 48.390625 
z
M 30.609375 56 
Q 42.328125 56 49.015625 48.375 
Q 55.71875 40.765625 55.71875 27.296875 
Q 55.71875 13.875 49.015625 6.21875 
Q 42.328125 -1.421875 30.609375 -1.421875 
Q 18.84375 -1.421875 12.171875 6.21875 
Q 5.515625 13.875 5.515625 27.296875 
Q 5.515625 40.765625 12.171875 48.375 
Q 18.84375 56 30.609375 56 
z
" id="DejaVuSans-111"/>
      <path d="M 9.078125 75.984375 
L 18.109375 75.984375 
L 18.109375 31.109375 
L 44.921875 54.6875 
L 56.390625 54.6875 
L 27.390625 29.109375 
L 57.625 0 
L 45.90625 0 
L 18.109375 26.703125 
L 18.109375 0 
L 9.078125 0 
z
" id="DejaVuSans-107"/>
      <path d="M 32.171875 -5.078125 
Q 28.375 -14.84375 24.75 -17.8125 
Q 21.140625 -20.796875 15.09375 -20.796875 
L 7.90625 -20.796875 
L 7.90625 -13.28125 
L 13.1875 -13.28125 
Q 16.890625 -13.28125 18.9375 -11.515625 
Q 21 -9.765625 23.484375 -3.21875 
L 25.09375 0.875 
L 2.984375 54.6875 
L 12.5 54.6875 
L 29.59375 11.921875 
L 46.6875 54.6875 
L 56.203125 54.6875 
z
" id="DejaVuSans-121"/>
      <path d="M 8.5 21.578125 
L 8.5 54.6875 
L 17.484375 54.6875 
L 17.484375 21.921875 
Q 17.484375 14.15625 20.5 10.265625 
Q 23.53125 6.390625 29.59375 6.390625 
Q 36.859375 6.390625 41.078125 11.03125 
Q 45.3125 15.671875 45.3125 23.6875 
L 45.3125 54.6875 
L 54.296875 54.6875 
L 54.296875 0 
L 45.3125 0 
L 45.3125 8.40625 
Q 42.046875 3.421875 37.71875 1 
Q 33.40625 -1.421875 27.6875 -1.421875 
Q 18.265625 -1.421875 13.375 4.4375 
Q 8.5 10.296875 8.5 21.578125 
z
M 31.109375 56 
z
" id="DejaVuSans-117"/>
      <path d="M 48.6875 27.296875 
Q 48.6875 37.203125 44.609375 42.84375 
Q 40.53125 48.484375 33.40625 48.484375 
Q 26.265625 48.484375 22.1875 42.84375 
Q 18.109375 37.203125 18.109375 27.296875 
Q 18.109375 17.390625 22.1875 11.75 
Q 26.265625 6.109375 33.40625 6.109375 
Q 40.53125 6.109375 44.609375 11.75 
Q 48.6875 17.390625 48.6875 27.296875 
z
M 18.109375 46.390625 
Q 20.953125 51.265625 25.265625 53.625 
Q 29.59375 56 35.59375 56 
Q 45.5625 56 51.78125 48.09375 
Q 58.015625 40.1875 58.015625 27.296875 
Q 58.015625 14.40625 51.78125 6.484375 
Q 45.5625 -1.421875 35.59375 -1.421875 
Q 29.59375 -1.421875 25.265625 0.953125 
Q 20.953125 3.328125 18.109375 8.203125 
L 18.109375 0 
L 9.078125 0 
L 9.078125 75.984375 
L 18.109375 75.984375 
z
" id="DejaVuSans-98"/>
     </defs>
     <use xlink:href="#DejaVuSans-47"/>
     <use x="33.691406" xlink:href="#DejaVuSans-97"/>
     <use x="94.970703" xlink:href="#DejaVuSans-122"/>
     <use x="147.460938" xlink:href="#DejaVuSans-112"/>
     <use x="210.9375" xlink:href="#DejaVuSans-47"/>
     <use x="244.628906" xlink:href="#DejaVuSans-97"/>
     <use x="305.908203" xlink:href="#DejaVuSans-103"/>
     <use x="369.384766" xlink:href="#DejaVuSans-101"/>
     <use x="430.908203" xlink:href="#DejaVuSans-110"/>
     <use x="494.287109" xlink:href="#DejaVuSans-116"/>
     <use x="533.496094" xlink:href="#DejaVuSans-47"/>
     <use x="567.1875" xlink:href="#DejaVuSans-95"/>
     <use x="617.1875" xlink:href="#DejaVuSans-119"/>
     <use x="698.974609" xlink:href="#DejaVuSans-111"/>
     <use x="760.15625" xlink:href="#DejaVuSans-114"/>
     <use x="801.269531" xlink:href="#DejaVuSans-107"/>
     <use x="859.179688" xlink:href="#DejaVuSans-47"/>
     <use x="892.871094" xlink:href="#DejaVuSans-49"/>
     <use x="956.494141" xlink:href="#DejaVuSans-47"/>
     <use x="990.185547" xlink:href="#DejaVuSans-115"/>
     <use x="1042.285156" xlink:href="#DejaVuSans-47"/>
     <use x="1075.976562" xlink:href="#DejaVuSans-116"/>
     <use x="1115.185547" xlink:href="#DejaVuSans-111"/>
     <use x="1176.367188" xlink:href="#DejaVuSans-109"/>
     <use x="1273.779297" xlink:href="#DejaVuSans-111"/>
     <use x="1334.960938" xlink:href="#DejaVuSans-112"/>
     <use x="1398.4375" xlink:href="#DejaVuSans-121"/>
     <use x="1443.367188" xlink:href="#DejaVuSans-46"/>
     <use x="1475.154297" xlink:href="#DejaVuSans-103"/>
     <use x="1538.630859" xlink:href="#DejaVuSans-105"/>
     <use x="1566.414062" xlink:href="#DejaVuSans-116"/>
     <use x="1605.623047" xlink:href="#DejaVuSans-104"/>
     <use x="1669.001953" xlink:href="#DejaVuSans-117"/>
     <use x="1732.380859" xlink:href="#DejaVuSans-98"/>
     <use x="1795.857422" xlink:href="#DejaVuSans-46"/>
     <use x="1827.644531" xlink:href="#DejaVuSans-105"/>
     <use x="1855.427734" xlink:href="#DejaVuSans-111"/>
     <use x="1916.609375" xlink:href="#DejaVuSans-47"/>
     <use x="1950.300781" xlink:href="#DejaVuSans-50"/>
     <use x="2013.923828" xlink:href="#DejaVuSans-48"/>
     <use x="2077.546875" xlink:href="#DejaVuSans-50"/>
     <use x="2141.169922" xlink:href="#DejaVuSans-49"/>
     <use x="2204.792969" xlink:href="#DejaVuSans-45"/>
     <use x="2240.876953" xlink:href="#DejaVuSans-48"/>
     <use x="2304.5" xlink:href="#DejaVuSans-50"/>
     <use x="2368.123047" xlink:href="#DejaVuSans-45"/>
     <use x="2404.207031" xlink:href="#DejaVuSans-49"/>
     <use x="2467.830078" xlink:href="#DejaVuSans-54"/>
     <use x="2531.453125" xlink:href="#DejaVuSans-47"/>
     <use x="2565.144531" xlink:href="#DejaVuSans-99"/>
     <use x="2620.125" xlink:href="#DejaVuSans-112"/>
     <use x="2683.601562" xlink:href="#DejaVuSans-117"/>
     <use x="2746.980469" xlink:href="#DejaVuSans-47"/>
     <use x="2780.671875" xlink:href="#DejaVuSans-112"/>
     <use x="2844.148438" xlink:href="#DejaVuSans-101"/>
     <use x="2905.671875" xlink:href="#DejaVuSans-112"/>
     <use x="2969.148438" xlink:href="#DejaVuSans-112"/>
     <use x="3032.625" xlink:href="#DejaVuSans-101"/>
     <use x="3094.148438" xlink:href="#DejaVuSans-114"/>
     <use x="3135.261719" xlink:href="#DejaVuSans-115"/>
    </g>
   </g>
   <g id="legend_1">
    <g id="patch_7">
     <path d="M 445.966657 206.17 
L 555.004157 206.17 
Q 557.004157 206.17 557.004157 204.17 
L 557.004157 27.92 
Q 557.004157 25.92 555.004157 25.92 
L 445.966657 25.92 
Q 443.966657 25.92 443.966657 27.92 
L 443.966657 204.17 
Q 443.966657 206.17 445.966657 206.17 
z
" style="fill:#ffffff;opacity:0.8;stroke:#cccccc;stroke-linejoin:miter;"/>
    </g>
    <g id="LineCollection_13">
     <path d="M 462.966657 39.018437 
L 462.966657 29.018437 
" style="fill:none;stroke:#0d0887;stroke-width:1.5;"/>
    </g>
    <g id="line2d_29"/>
    <g id="line2d_30">
     <g>
      <use style="fill:#0d0887;stroke:#0d0887;" x="462.966657" xlink:href="#m843edf4ef4" y="34.018437"/>
     </g>
    </g>
    <g id="text_20">
     <!-- gridrec -->
     <g transform="translate(485.966657 37.518437)scale(0.1 -0.1)">
      <use xlink:href="#DejaVuSans-103"/>
      <use x="63.476562" xlink:href="#DejaVuSans-114"/>
      <use x="104.589844" xlink:href="#DejaVuSans-105"/>
      <use x="132.373047" xlink:href="#DejaVuSans-100"/>
      <use x="195.849609" xlink:href="#DejaVuSans-114"/>
      <use x="234.712891" xlink:href="#DejaVuSans-101"/>
      <use x="296.236328" xlink:href="#DejaVuSans-99"/>
     </g>
    </g>
    <g id="LineCollection_14">
     <path d="M 462.966657 53.696562 
L 462.966657 43.696562 
" style="fill:none;stroke:#41049d;stroke-width:1.5;"/>
    </g>
    <g id="line2d_31"/>
    <g id="line2d_32">
     <g>
      <use style="fill:#41049d;stroke:#41049d;stroke-linejoin:miter;" x="462.966657" xlink:href="#m3d9e0e560f" y="48.696562"/>
     </g>
    </g>
    <g id="text_21">
     <!-- fbp -->
     <g transform="translate(485.966657 52.196562)scale(0.1 -0.1)">
      <defs>
       <path d="M 37.109375 75.984375 
L 37.109375 68.5 
L 28.515625 68.5 
Q 23.6875 68.5 21.796875 66.546875 
Q 19.921875 64.59375 19.921875 59.515625 
L 19.921875 54.6875 
L 34.71875 54.6875 
L 34.71875 47.703125 
L 19.921875 47.703125 
L 19.921875 0 
L 10.890625 0 
L 10.890625 47.703125 
L 2.296875 47.703125 
L 2.296875 54.6875 
L 10.890625 54.6875 
L 10.890625 58.5 
Q 10.890625 67.625 15.140625 71.796875 
Q 19.390625 75.984375 28.609375 75.984375 
z
" id="DejaVuSans-102"/>
      </defs>
      <use xlink:href="#DejaVuSans-102"/>
      <use x="35.205078" xlink:href="#DejaVuSans-98"/>
      <use x="98.681641" xlink:href="#DejaVuSans-112"/>
     </g>
    </g>
    <g id="LineCollection_15">
     <path d="M 462.966657 68.374687 
L 462.966657 58.374687 
" style="fill:none;stroke:#f0f921;stroke-width:1.5;"/>
    </g>
    <g id="line2d_33">
     <path d="M 447.966657 63.374687 
L 477.966657 63.374687 
" style="fill:none;stroke:#f0f921;stroke-linecap:square;stroke-width:1.5;"/>
    </g>
    <g id="line2d_34">
     <g>
      <use style="fill:#f0f921;stroke:#f0f921;" x="462.966657" xlink:href="#m4c4b3853fc" y="63.374687"/>
     </g>
    </g>
    <g id="text_22">
     <!-- mlem -->
     <g transform="translate(485.966657 66.874687)scale(0.1 -0.1)">
      <use xlink:href="#DejaVuSans-109"/>
      <use x="97.412109" xlink:href="#DejaVuSans-108"/>
      <use x="125.195312" xlink:href="#DejaVuSans-101"/>
      <use x="186.71875" xlink:href="#DejaVuSans-109"/>
     </g>
    </g>
    <g id="LineCollection_16">
     <path d="M 462.966657 83.052812 
L 462.966657 73.052812 
" style="fill:none;stroke:#ea7457;stroke-width:1.5;"/>
    </g>
    <g id="line2d_35">
     <path d="M 447.966657 78.052812 
L 477.966657 78.052812 
" style="fill:none;stroke:#ea7457;stroke-linecap:square;stroke-width:1.5;"/>
    </g>
    <g id="line2d_36">
     <g>
      <use style="fill:#ea7457;stroke:#ea7457;stroke-linejoin:miter;" x="462.966657" xlink:href="#me3e294b3d6" y="78.052812"/>
     </g>
    </g>
    <g id="text_23">
     <!-- osem -->
     <g transform="translate(485.966657 81.552812)scale(0.1 -0.1)">
      <use xlink:href="#DejaVuSans-111"/>
      <use x="61.181641" xlink:href="#DejaVuSans-115"/>
      <use x="113.28125" xlink:href="#DejaVuSans-101"/>
      <use x="174.804688" xlink:href="#DejaVuSans-109"/>
     </g>
    </g>
    <g id="LineCollection_17">
     <path d="M 462.966657 97.730937 
L 462.966657 87.730937 
" style="fill:none;stroke:#f2844b;stroke-width:1.5;"/>
    </g>
    <g id="line2d_37">
     <path d="M 447.966657 92.730937 
L 477.966657 92.730937 
" style="fill:none;stroke:#f2844b;stroke-dasharray:1.5,2.475;stroke-dashoffset:0;stroke-width:1.5;"/>
    </g>
    <g id="line2d_38">
     <g>
      <use style="fill:#f2844b;stroke:#f2844b;stroke-linejoin:miter;" x="462.966657" xlink:href="#mc866172f8e" y="92.730937"/>
     </g>
    </g>
    <g id="text_24">
     <!-- ospml_hybrid -->
     <g transform="translate(485.966657 96.230937)scale(0.1 -0.1)">
      <use xlink:href="#DejaVuSans-111"/>
      <use x="61.181641" xlink:href="#DejaVuSans-115"/>
      <use x="113.28125" xlink:href="#DejaVuSans-112"/>
      <use x="176.757812" xlink:href="#DejaVuSans-109"/>
      <use x="274.169922" xlink:href="#DejaVuSans-108"/>
      <use x="301.953125" xlink:href="#DejaVuSans-95"/>
      <use x="351.953125" xlink:href="#DejaVuSans-104"/>
      <use x="415.332031" xlink:href="#DejaVuSans-121"/>
      <use x="474.511719" xlink:href="#DejaVuSans-98"/>
      <use x="537.988281" xlink:href="#DejaVuSans-114"/>
      <use x="579.101562" xlink:href="#DejaVuSans-105"/>
      <use x="606.884766" xlink:href="#DejaVuSans-100"/>
     </g>
    </g>
    <g id="LineCollection_18">
     <path d="M 462.966657 112.687187 
L 462.966657 102.687187 
" style="fill:none;stroke:#f89540;stroke-width:1.5;"/>
    </g>
    <g id="line2d_39">
     <path d="M 447.966657 107.687187 
L 477.966657 107.687187 
" style="fill:none;stroke:#f89540;stroke-dasharray:5.55,2.4;stroke-dashoffset:0;stroke-width:1.5;"/>
    </g>
    <g id="line2d_40">
     <g>
      <use style="fill:#f89540;stroke:#f89540;stroke-linejoin:miter;" x="462.966657" xlink:href="#m6190e2a0ea" y="107.687187"/>
     </g>
    </g>
    <g id="text_25">
     <!-- ospml_quad -->
     <g transform="translate(485.966657 111.187187)scale(0.1 -0.1)">
      <defs>
       <path d="M 14.796875 27.296875 
Q 14.796875 17.390625 18.875 11.75 
Q 22.953125 6.109375 30.078125 6.109375 
Q 37.203125 6.109375 41.296875 11.75 
Q 45.40625 17.390625 45.40625 27.296875 
Q 45.40625 37.203125 41.296875 42.84375 
Q 37.203125 48.484375 30.078125 48.484375 
Q 22.953125 48.484375 18.875 42.84375 
Q 14.796875 37.203125 14.796875 27.296875 
z
M 45.40625 8.203125 
Q 42.578125 3.328125 38.25 0.953125 
Q 33.9375 -1.421875 27.875 -1.421875 
Q 17.96875 -1.421875 11.734375 6.484375 
Q 5.515625 14.40625 5.515625 27.296875 
Q 5.515625 40.1875 11.734375 48.09375 
Q 17.96875 56 27.875 56 
Q 33.9375 56 38.25 53.625 
Q 42.578125 51.265625 45.40625 46.390625 
L 45.40625 54.6875 
L 54.390625 54.6875 
L 54.390625 -20.796875 
L 45.40625 -20.796875 
z
" id="DejaVuSans-113"/>
      </defs>
      <use xlink:href="#DejaVuSans-111"/>
      <use x="61.181641" xlink:href="#DejaVuSans-115"/>
      <use x="113.28125" xlink:href="#DejaVuSans-112"/>
      <use x="176.757812" xlink:href="#DejaVuSans-109"/>
      <use x="274.169922" xlink:href="#DejaVuSans-108"/>
      <use x="301.953125" xlink:href="#DejaVuSans-95"/>
      <use x="351.953125" xlink:href="#DejaVuSans-113"/>
      <use x="415.429688" xlink:href="#DejaVuSans-117"/>
      <use x="478.808594" xlink:href="#DejaVuSans-97"/>
      <use x="540.087891" xlink:href="#DejaVuSans-100"/>
     </g>
    </g>
    <g id="LineCollection_19">
     <path d="M 462.966657 127.643437 
L 462.966657 117.643437 
" style="fill:none;stroke:#f7e425;stroke-width:1.5;"/>
    </g>
    <g id="line2d_41">
     <path d="M 447.966657 122.643437 
L 477.966657 122.643437 
" style="fill:none;stroke:#f7e425;stroke-dasharray:1.5,2.475;stroke-dashoffset:0;stroke-width:1.5;"/>
    </g>
    <g id="line2d_42">
     <g>
      <use style="fill:#f7e425;stroke:#f7e425;" x="462.966657" xlink:href="#m43ba1d76ce" y="122.643437"/>
     </g>
    </g>
    <g id="text_26">
     <!-- pml_hybrid -->
     <g transform="translate(485.966657 126.143437)scale(0.1 -0.1)">
      <use xlink:href="#DejaVuSans-112"/>
      <use x="63.476562" xlink:href="#DejaVuSans-109"/>
      <use x="160.888672" xlink:href="#DejaVuSans-108"/>
      <use x="188.671875" xlink:href="#DejaVuSans-95"/>
      <use x="238.671875" xlink:href="#DejaVuSans-104"/>
      <use x="302.050781" xlink:href="#DejaVuSans-121"/>
      <use x="361.230469" xlink:href="#DejaVuSans-98"/>
      <use x="424.707031" xlink:href="#DejaVuSans-114"/>
      <use x="465.820312" xlink:href="#DejaVuSans-105"/>
      <use x="493.603516" xlink:href="#DejaVuSans-100"/>
     </g>
    </g>
    <g id="LineCollection_20">
     <path d="M 462.966657 142.599687 
L 462.966657 132.599687 
" style="fill:none;stroke:#fcce25;stroke-width:1.5;"/>
    </g>
    <g id="line2d_43">
     <path d="M 447.966657 137.599687 
L 477.966657 137.599687 
" style="fill:none;stroke:#fcce25;stroke-dasharray:5.55,2.4;stroke-dashoffset:0;stroke-width:1.5;"/>
    </g>
    <g id="line2d_44">
     <g>
      <use style="fill:#fcce25;stroke:#fcce25;" x="462.966657" xlink:href="#m52b3a469c5" y="137.599687"/>
     </g>
    </g>
    <g id="text_27">
     <!-- pml_quad -->
     <g transform="translate(485.966657 141.099687)scale(0.1 -0.1)">
      <use xlink:href="#DejaVuSans-112"/>
      <use x="63.476562" xlink:href="#DejaVuSans-109"/>
      <use x="160.888672" xlink:href="#DejaVuSans-108"/>
      <use x="188.671875" xlink:href="#DejaVuSans-95"/>
      <use x="238.671875" xlink:href="#DejaVuSans-113"/>
      <use x="302.148438" xlink:href="#DejaVuSans-117"/>
      <use x="365.527344" xlink:href="#DejaVuSans-97"/>
      <use x="426.806641" xlink:href="#DejaVuSans-100"/>
     </g>
    </g>
    <g id="LineCollection_21">
     <path d="M 462.966657 157.555937 
L 462.966657 147.555937 
" style="fill:none;stroke:#cc4778;stroke-width:1.5;"/>
    </g>
    <g id="line2d_45">
     <path d="M 447.966657 152.555937 
L 477.966657 152.555937 
" style="fill:none;stroke:#cc4778;stroke-linecap:square;stroke-width:1.5;"/>
    </g>
    <g id="line2d_46">
     <g>
      <use style="fill:#cc4778;stroke:#cc4778;stroke-linejoin:miter;" x="462.966657" xlink:href="#mf8361e4ff4" y="152.555937"/>
     </g>
    </g>
    <g id="text_28">
     <!-- sirt -->
     <g transform="translate(485.966657 156.055937)scale(0.1 -0.1)">
      <use xlink:href="#DejaVuSans-115"/>
      <use x="52.099609" xlink:href="#DejaVuSans-105"/>
      <use x="79.882812" xlink:href="#DejaVuSans-114"/>
      <use x="120.996094" xlink:href="#DejaVuSans-116"/>
     </g>
    </g>
    <g id="LineCollection_22">
     <path d="M 462.966657 172.234062 
L 462.966657 162.234062 
" style="fill:none;stroke:#0d0887;stroke-width:1.5;"/>
    </g>
    <g id="line2d_47">
     <path d="M 447.966657 167.234062 
L 477.966657 167.234062 
" style="fill:none;stroke:#0d0887;stroke-linecap:square;stroke-width:1.5;"/>
    </g>
    <g id="line2d_48"/>
    <g id="text_29">
     <!-- tikh -->
     <g transform="translate(485.966657 170.734062)scale(0.1 -0.1)">
      <use xlink:href="#DejaVuSans-116"/>
      <use x="39.208984" xlink:href="#DejaVuSans-105"/>
      <use x="66.992188" xlink:href="#DejaVuSans-107"/>
      <use x="124.902344" xlink:href="#DejaVuSans-104"/>
     </g>
    </g>
    <g id="LineCollection_23">
     <path d="M 462.966657 186.912187 
L 462.966657 176.912187 
" style="fill:none;stroke:#fca636;stroke-width:1.5;"/>
    </g>
    <g id="line2d_49">
     <path d="M 447.966657 181.912187 
L 477.966657 181.912187 
" style="fill:none;stroke:#fca636;stroke-linecap:square;stroke-width:1.5;"/>
    </g>
    <g id="line2d_50">
     <g>
      <use style="fill:#fca636;stroke:#fca636;stroke-linejoin:miter;" x="462.966657" xlink:href="#m04b713be1e" y="181.912187"/>
     </g>
    </g>
    <g id="text_30">
     <!-- tv -->
     <g transform="translate(485.966657 185.412187)scale(0.1 -0.1)">
      <defs>
       <path d="M 2.984375 54.6875 
L 12.5 54.6875 
L 29.59375 8.796875 
L 46.6875 54.6875 
L 56.203125 54.6875 
L 35.6875 0 
L 23.484375 0 
z
" id="DejaVuSans-118"/>
      </defs>
      <use xlink:href="#DejaVuSans-116"/>
      <use x="39.208984" xlink:href="#DejaVuSans-118"/>
     </g>
    </g>
    <g id="LineCollection_24">
     <path d="M 462.966657 201.590312 
L 462.966657 191.590312 
" style="fill:none;stroke:#e16462;stroke-width:1.5;"/>
    </g>
    <g id="line2d_51">
     <path d="M 447.966657 196.590312 
L 477.966657 196.590312 
" style="fill:none;stroke:#e16462;stroke-linecap:square;stroke-width:1.5;"/>
    </g>
    <g id="line2d_52">
     <g>
      <use style="fill:#e16462;stroke:#e16462;stroke-linejoin:miter;" x="462.966657" xlink:href="#md5ab01e96e" y="196.590312"/>
     </g>
    </g>
    <g id="text_31">
     <!-- grad -->
     <g transform="translate(485.966657 200.090312)scale(0.1 -0.1)">
      <use xlink:href="#DejaVuSans-103"/>
      <use x="63.476562" xlink:href="#DejaVuSans-114"/>
      <use x="104.589844" xlink:href="#DejaVuSans-97"/>
      <use x="165.869141" xlink:href="#DejaVuSans-100"/>
     </g>
    </g>
   </g>
  </g>
 </g>
 <defs>
  <clipPath id="pf15367ec27">
   <rect height="256.84" width="284.233141" x="145.521859" y="25.92"/>
  </clipPath>
 </defs>
</svg>
